<svg xmlns="http://www.w3.org/2000/svg" width="13.552" height="13.552" viewBox="0 0 13.552 13.552"><g transform="translate(0)"><path d="M3.54,5.3H1.259A1.559,1.559,0,0,1-.5,3.54V1.259A1.559,1.559,0,0,1,1.259-.5H3.54A1.559,1.559,0,0,1,5.3,1.259V3.54A1.559,1.559,0,0,1,3.54,5.3ZM1.259.5A.905.905,0,0,0,.646.646.905.905,0,0,0,.5,1.259V3.54a.905.905,0,0,0,.146.613.905.905,0,0,0,.613.146H3.54a.905.905,0,0,0,.613-.146A.905.905,0,0,0,4.3,3.54V1.259A.905.905,0,0,0,4.153.646.905.905,0,0,0,3.54.5Z" transform="translate(7.623 1.129)" fill="#fff"/><path d="M3.564,5.294h-2.3a1.866,1.866,0,0,1-1.3-.384A1.549,1.549,0,0,1-.5,3.676V1.118C-.5.044.092-.5,1.259-.5H3.54C4.708-.5,5.3.044,5.3,1.118V3.682a1.551,1.551,0,0,1-.453,1.223A1.82,1.82,0,0,1,3.564,5.294ZM1.259.5A.982.982,0,0,0,.625.634.665.665,0,0,0,.5,1.118V3.676a.668.668,0,0,0,.124.485.988.988,0,0,0,.635.133h2.3a.939.939,0,0,0,.613-.131A.668.668,0,0,0,4.3,3.682V1.118A.665.665,0,0,0,4.175.634.982.982,0,0,0,3.54.5Z" transform="translate(1.129 1.129)" fill="#fff"/><path d="M3.54,5.3H1.259A1.559,1.559,0,0,1-.5,3.54V1.259A1.559,1.559,0,0,1,1.259-.5H3.54A1.559,1.559,0,0,1,5.3,1.259V3.54A1.559,1.559,0,0,1,3.54,5.3ZM1.259.5A.905.905,0,0,0,.646.646.905.905,0,0,0,.5,1.259V3.54a.905.905,0,0,0,.146.613.905.905,0,0,0,.613.146H3.54a.905.905,0,0,0,.613-.146A.905.905,0,0,0,4.3,3.54V1.259A.905.905,0,0,0,4.153.646.905.905,0,0,0,3.54.5Z" transform="translate(1.129 7.623)" fill="#fff"/><path d="M3.388.5H0A.5.5,0,0,1-.5,0,.5.5,0,0,1,0-.5H3.388a.5.5,0,0,1,.5.5A.5.5,0,0,1,3.388.5Z" transform="translate(8.47 8.752)" fill="#fff"/><path d="M3.388.5H0A.5.5,0,0,1-.5,0,.5.5,0,0,1,0-.5H3.388a.5.5,0,0,1,.5.5A.5.5,0,0,1,3.388.5Z" transform="translate(8.47 11.011)" fill="#fff"/><path d="M0,0H13.552V13.552H0Z" fill="none" opacity="0"/></g></svg>