<svg xmlns="http://www.w3.org/2000/svg" width="13.552" height="13.552" viewBox="0 0 13.552 13.552"><path d="M7.341,11.793H3.953A4.537,4.537,0,0,1,.564,10.729,4.537,4.537,0,0,1-.5,7.341V3.953A4.537,4.537,0,0,1,.564.564,4.537,4.537,0,0,1,3.953-.5H7.341A4.537,4.537,0,0,1,10.729.564a4.537,4.537,0,0,1,1.064,3.389V7.341a4.537,4.537,0,0,1-1.064,3.389A4.537,4.537,0,0,1,7.341,11.793ZM3.953.5C1.4.5.5,1.4.5,3.953V7.341c0,2.549.9,3.453,3.453,3.453H7.341c2.549,0,3.453-.9,3.453-3.453V3.953C10.793,1.4,9.89.5,7.341.5Z" transform="translate(1.129 1.129)" fill="#fff"/><path d="M.942,4.583A1.5,1.5,0,0,1-.5,2.878V1.207A1.5,1.5,0,0,1,.94-.5a2.016,2.016,0,0,1,1,.3L3.39.632a1.678,1.678,0,0,1,.949,1.41,1.679,1.679,0,0,1-.949,1.41l-1.445.835A2.012,2.012,0,0,1,.942,4.583ZM.94.5C.557.5.5.943.5,1.207V2.878c0,.263.057.705.442.705a1.053,1.053,0,0,0,.5-.162l1.445-.835c.286-.164.449-.363.449-.544s-.163-.38-.448-.544L1.444.663A1.057,1.057,0,0,0,.94.5Z" transform="translate(5.138 4.734)" fill="#fff"/><path d="M0,0H13.552V13.552H0Z" fill="none" opacity="0"/></svg>