<svg xmlns="http://www.w3.org/2000/svg" width="13.552" height="13.552" viewBox="0 0 13.552 13.552"><g transform="translate(0 0)"><path d="M5.079,11.786a1.627,1.627,0,0,1-1.15-.47l-.966-.954a1.2,1.2,0,0,0-.846-.347H1.694A2.188,2.188,0,0,1-.5,7.838V1.677A2.188,2.188,0,0,1,1.694-.5H8.47a2.188,2.188,0,0,1,2.194,2.177v6.16A2.188,2.188,0,0,1,8.47,10.015H8.041a1.183,1.183,0,0,0-.844.345l-.968.956A1.627,1.627,0,0,1,5.079,11.786ZM1.694.5A1.187,1.187,0,0,0,.5,1.677v6.16A1.187,1.187,0,0,0,1.694,9.015h.424a2.206,2.206,0,0,1,1.551.638l.964.952a.642.642,0,0,0,.9,0l.965-.954a2.175,2.175,0,0,1,1.549-.636H8.47A1.187,1.187,0,0,0,9.664,7.838V1.677A1.187,1.187,0,0,0,8.47.5Z" transform="translate(1.694 1.135)" fill="#fff"/><g transform="translate(4.517 3.015)"><path d="M1.316-.5A1.816,1.816,0,1,1-.5,1.316,1.818,1.818,0,0,1,1.316-.5Zm0,2.631A.816.816,0,1,0,.5,1.316.817.817,0,0,0,1.316,2.131Z" transform="translate(0.943)" fill="#fff"/><path d="M4.517,2.341a.5.5,0,0,1-.5-.5A1.6,1.6,0,0,0,2.259.5,1.6,1.6,0,0,0,.5,1.841a.5.5,0,0,1-.5.5.5.5,0,0,1-.5-.5A2.579,2.579,0,0,1,2.259-.5,2.579,2.579,0,0,1,5.017,1.841.5.5,0,0,1,4.517,2.341Z" transform="translate(0 3.987)" fill="#fff"/></g><path d="M0,0H13.552V13.552H0Z" fill="none" opacity="0"/></g></svg>