<svg xmlns="http://www.w3.org/2000/svg" width="13.552" height="13.552" viewBox="0 0 13.552 13.552"><g transform="translate(0 0)"><g transform="translate(1.926 1.128)"><path d="M4.852-.5a3.115,3.115,0,0,1,1.034.162L8.708.719a2.458,2.458,0,0,1,1.5,2.173v4.2A3.249,3.249,0,0,1,9.035,9.431L6.606,11.244a2.922,2.922,0,0,1-1.75.548A2.922,2.922,0,0,1,3.1,11.243L.678,9.431A3.249,3.249,0,0,1-.5,7.088v-4.2A2.458,2.458,0,0,1,1.005.719L3.822-.337A3.038,3.038,0,0,1,4.852-.5Zm0,11.292a1.947,1.947,0,0,0,1.151-.349L8.436,8.63a2.242,2.242,0,0,0,.776-1.542v-4.2a1.461,1.461,0,0,0-.855-1.237L5.539.6A2.137,2.137,0,0,0,4.852.5a2.062,2.062,0,0,0-.679.1L1.356,1.655A1.461,1.461,0,0,0,.5,2.892v4.2A2.242,2.242,0,0,0,1.276,8.63L3.7,10.442A1.948,1.948,0,0,0,4.856,10.792Z" fill="#0069d3"/></g><g transform="translate(5.246 4.179)"><path d="M1.028,2.488H.938A1.484,1.484,0,0,1-.5.994a1.494,1.494,0,0,1,2.988,0s0,0,0,.005A1.5,1.5,0,0,1,1.044,2.487Zm-.064-1h.054a.491.491,0,1,0-.054,0Z" transform="translate(0.503)" fill="#0069d3"/><path d="M1.532-.5a2.513,2.513,0,0,1,1.4.395A1.3,1.3,0,0,1,3.555.967a1.3,1.3,0,0,1-.629,1.074,2.534,2.534,0,0,1-1.4.393,2.535,2.535,0,0,1-1.4-.394A1.3,1.3,0,0,1-.5.967,1.3,1.3,0,0,1,.129-.107,2.557,2.557,0,0,1,1.532-.5Zm0,1.934a1.553,1.553,0,0,0,.843-.225A.349.349,0,0,0,2.555.967.348.348,0,0,0,2.371.725,1.533,1.533,0,0,0,1.532.5,1.574,1.574,0,0,0,.683.726.347.347,0,0,0,.5.967a.348.348,0,0,0,.184.242A1.553,1.553,0,0,0,1.527,1.434Z" transform="translate(0 3.26)" fill="#0069d3"/></g><path d="M0,0H13.552V13.552H0Z" fill="none" opacity="0"/></g></svg>