<svg xmlns="http://www.w3.org/2000/svg" width="13.552" height="13.552" viewBox="0 0 13.552 13.552"><path d="M2.823.5H0A.5.5,0,0,1-.5,0,.5.5,0,0,1,0-.5H2.823a.5.5,0,0,1,.5.5A.5.5,0,0,1,2.823.5Z" transform="translate(3.953 7.905)" fill="#fff"/><path d="M2.117,2.617a.5.5,0,0,1-.354-.146L-.354.354a.5.5,0,0,1,0-.707.5.5,0,0,1,.707,0L2.471,1.764a.5.5,0,0,1-.354.854Z" transform="translate(1.835 1.248)" fill="#fff"/><path d="M0,2.617a.5.5,0,0,1-.354-.146.5.5,0,0,1,0-.707L1.764-.354a.5.5,0,0,1,.707,0,.5.5,0,0,1,0,.707L.354,2.471A.5.5,0,0,1,0,2.617Z" transform="translate(1.813 1.27)" fill="#fff"/><path d="M4.517.5H0A.5.5,0,0,1-.5,0,.5.5,0,0,1,0-.5H4.517a.5.5,0,0,1,.5.5A.5.5,0,0,1,4.517.5Z" transform="translate(3.953 5.647)" fill="#fff"/><path d="M6.211,8.405a.5.5,0,0,1-.5-.5V3.382C5.711,1.045,4.958.588,3.374.5H0A.5.5,0,0,1-.5,0,.5.5,0,0,1,0-.5H3.415A3.357,3.357,0,0,1,5.872.42a4.2,4.2,0,0,1,.839,2.962V7.905A.5.5,0,0,1,6.211,8.405Z" transform="translate(5.647 1.129)" fill="#fff"/><path d="M6.776,7.835H3.388A3.91,3.91,0,0,1,.258,6.813,4.325,4.325,0,0,1-.5,3.936V0A.5.5,0,0,1,0-.5.5.5,0,0,1,.5,0V3.936c0,2.045.4,2.9,2.888,2.9H6.776a.5.5,0,0,1,0,1Z" transform="translate(1.694 5.088)" fill="#fff"/><path d="M1.694-.5H3.388a.5.5,0,0,1,.462.309.5.5,0,0,1-.108.545L.354,3.742a.5.5,0,0,1-.545.108A.5.5,0,0,1-.5,3.388V1.694A1.979,1.979,0,0,1,1.694-.5Zm.487,1H1.694C.846.5.5.846.5,1.694v.487Z" transform="translate(8.47 9.035)" fill="#fff"/><path d="M0,0H13.552V13.552H0Z" fill="none" opacity="0"/></svg>