<svg xmlns="http://www.w3.org/2000/svg" width="13.552" height="13.552" viewBox="0 0 13.552 13.552"><g transform="translate(0)"><g transform="translate(0 0)"><path d="M2.349,8.91A2.93,2.93,0,0,1,.6,8.356l-.9-.671a.5.5,0,0,1-.1-.7.5.5,0,0,1,.7-.1l.9.672a2.089,2.089,0,0,0,2.3,0L5.929,5.743A2.242,2.242,0,0,0,6.705,4.2V0a.5.5,0,0,1,.5-.5.5.5,0,0,1,.5.5V4.2A3.249,3.249,0,0,1,6.528,6.544L4.1,8.357A2.926,2.926,0,0,1,2.349,8.91Z" transform="translate(4.427 4.02)" fill="#e3c900"/><path d="M1.089,9.615a.5.5,0,0,1-.3-.1L.677,9.43A3.249,3.249,0,0,1-.5,7.088v-4.2A2.454,2.454,0,0,1,1.005.725L3.828-.337a3.3,3.3,0,0,1,2.056,0L8.7.719l.025.01a2.845,2.845,0,0,1,.322.165.5.5,0,0,1-.514.857,1.822,1.822,0,0,0-.2-.1L5.533.6A2.361,2.361,0,0,0,4.178.6L1.356,1.661A1.456,1.456,0,0,0,.5,2.892v4.2A2.242,2.242,0,0,0,1.276,8.63l.114.085a.5.5,0,0,1-.3.9Z" transform="translate(1.926 1.128)" fill="#e3c900"/><path d="M0,11.793a.5.5,0,0,1-.354-.146.5.5,0,0,1,0-.707L10.94-.354a.5.5,0,0,1,.707,0,.5.5,0,0,1,0,.707L.354,11.647A.5.5,0,0,1,0,11.793Z" transform="translate(1.129 1.129)" fill="#e3c900"/><path d="M0,0H13.552V13.552H0Z" transform="translate(13.552 13.552) rotate(180)" fill="none" opacity="0"/></g></g></svg>