<svg xmlns="http://www.w3.org/2000/svg" width="13.552" height="13.552" viewBox="0 0 13.552 13.552"><g transform="translate(0 0)"><path d="M11.293.5H0A.5.5,0,0,1-.5,0,.5.5,0,0,1,0-.5H11.293a.5.5,0,0,1,.5.5A.5.5,0,0,1,11.293.5Z" transform="translate(1.129 12.423)" fill="#fff"/><path d="M5.082-.5a5.588,5.588,0,0,1,5.582,5.582V9.035a.5.5,0,0,1-.5.5H0a.5.5,0,0,1-.5-.5V5.082A5.588,5.588,0,0,1,5.082-.5ZM9.664,8.535V5.082a4.582,4.582,0,0,0-9.164,0V8.535Z" transform="translate(1.694 3.388)" fill="#fff"/><path d="M0,1.065a.5.5,0,0,1-.5-.5V0A.5.5,0,0,1,0-.5.5.5,0,0,1,.5,0V.565A.5.5,0,0,1,0,1.065Z" transform="translate(6.776 1.129)" fill="#fff"/><path d="M.565,1.065A.5.5,0,0,1,.211.918L-.354.354a.5.5,0,0,1,0-.707.5.5,0,0,1,.707,0L.918.211a.5.5,0,0,1-.354.854Z" transform="translate(2.259 2.259)" fill="#fff"/><path d="M0,1.065A.5.5,0,0,1-.354.918a.5.5,0,0,1,0-.707L.211-.354a.5.5,0,0,1,.707,0,.5.5,0,0,1,0,.707L.354.918A.5.5,0,0,1,0,1.065Z" transform="translate(10.729 2.259)" fill="#fff"/><path d="M0,0H13.552V13.552H0Z" fill="none" opacity="0"/></g></svg>