<svg xmlns="http://www.w3.org/2000/svg" width="13.552" height="13.552" viewBox="0 0 13.552 13.552"><g transform="translate(0)"><g transform="translate(0)"><path d="M0,2.092a.5.5,0,0,1-.354-.146.5.5,0,0,1,0-.707L1.239-.354a.5.5,0,0,1,.707,0,.5.5,0,0,1,0,.707L.354,1.946A.5.5,0,0,1,0,2.092Z" transform="translate(8.803 10.215)" fill="#7b0000"/><path d="M1.592,2.092a.5.5,0,0,1-.354-.146L-.354.354a.5.5,0,0,1,0-.707.5.5,0,0,1,.707,0L1.946,1.239a.5.5,0,0,1-.354.854Z" transform="translate(8.803 10.215)" fill="#7b0000"/><path d="M2.6,5.509l-.05,0a.632.632,0,0,0-.091,0,.5.5,0,0,1-.062,0,3.005,3.005,0,1,1,3.12-3,3,3,0,0,1-2.9,3ZM2.507.5A2.005,2.005,0,0,0,2.4,4.508a1.553,1.553,0,0,1,.206,0A2.005,2.005,0,0,0,2.507.5Z" transform="translate(4.269 1.129)" fill="#7b0000"/><path d="M3.854,5.373A5.648,5.648,0,0,1,.748,4.51,2.517,2.517,0,0,1-.5,2.431,2.509,2.509,0,0,1,.748.363a6.038,6.038,0,0,1,6.207,0,.5.5,0,0,1-.556.831,5.03,5.03,0,0,0-5.1,0A1.551,1.551,0,0,0,.5,2.433a1.559,1.559,0,0,0,.8,1.245,4.643,4.643,0,0,0,2.551.695.5.5,0,1,1,0,1Z" transform="translate(2.922 7.442)" fill="#7b0000"/><path d="M0,0H13.552V13.552H0Z" transform="translate(13.552 13.552) rotate(180)" fill="none" opacity="0"/></g></g></svg>