<svg xmlns="http://www.w3.org/2000/svg" width="13.552" height="13.552" viewBox="0 0 13.552 13.552"><g transform="translate(0 0)"><path d="M0,3.464a.5.5,0,0,1-.5-.5V0A.5.5,0,0,1,0-.5.5.5,0,0,1,.5,0V2.964A.5.5,0,0,1,0,3.464Z" transform="translate(6.776 4.376)" fill="#fff"/><path d="M5.128-.5a2.3,2.3,0,0,1,1.14.3L9.623,1.741A2.3,2.3,0,0,1,10.76,3.715V7.578A2.3,2.3,0,0,1,9.627,9.55L6.269,11.489a2.277,2.277,0,0,1-1.137.3,2.3,2.3,0,0,1-1.14-.3L.637,9.552A2.285,2.285,0,0,1-.5,7.578V3.715A2.3,2.3,0,0,1,.633,1.743L3.991-.2A2.277,2.277,0,0,1,5.128-.5Zm0,11.293a1.276,1.276,0,0,0,.637-.17L9.123,8.686A1.294,1.294,0,0,0,9.76,7.578V3.715a1.278,1.278,0,0,0-.64-1.11L5.769.67A1.3,1.3,0,0,0,5.128.5a1.276,1.276,0,0,0-.637.17L1.137,2.607A1.294,1.294,0,0,0,.5,3.715V7.578a1.282,1.282,0,0,0,.637,1.109l3.354,1.937A1.3,1.3,0,0,0,5.132,10.793Z" transform="translate(1.643 1.129)" fill="#fff"/><path d="M0,0H13.552V13.552H0Z" fill="none" opacity="0"/><path d="M0,.556a.5.5,0,0,1-.5-.5V0A.5.5,0,0,1,0-.5.5.5,0,0,1,.5,0V.056A.5.5,0,0,1,0,.556Z" transform="translate(6.776 9.148)" fill="#fff"/></g></svg>