<svg xmlns="http://www.w3.org/2000/svg" width="12.341" height="12.341" viewBox="0 0 12.341 12.341"><g transform="translate(0 0)"><path d="M1.028,3.585a.5.5,0,0,1-.5-.5V1.207l-.175.175a.5.5,0,0,1-.707,0,.5.5,0,0,1,0-.707L.675-.354A.5.5,0,0,1,1.22-.462.5.5,0,0,1,1.528,0V3.085A.5.5,0,0,1,1.028,3.585Z" transform="translate(3.599 5.656)" fill="#fff"/><path d="M1.028,1.528a.5.5,0,0,1-.354-.146L-.354.354a.5.5,0,0,1,0-.707.5.5,0,0,1,.707,0L1.382.675a.5.5,0,0,1-.354.854Z" transform="translate(4.628 5.656)" fill="#fff"/><path d="M6.685,10.784H3.6A4.172,4.172,0,0,1,.482,9.8,4.172,4.172,0,0,1-.5,6.685V3.6A4.172,4.172,0,0,1,.482.482,4.172,4.172,0,0,1,3.6-.5H6.17a.5.5,0,0,1,.5.5.5.5,0,0,1-.5.5H3.6C1.311.5.5,1.311.5,3.6V6.685c0,2.288.811,3.1,3.1,3.1H6.685c2.288,0,3.1-.811,3.1-3.1V4.114a.5.5,0,1,1,1,0V6.685A4.172,4.172,0,0,1,9.8,9.8,4.172,4.172,0,0,1,6.685,10.784Z" transform="translate(1.028 1.028)" fill="#fff"/><path d="M4.114,4.614H2.057C.241,4.614-.5,3.873-.5,2.057V0A.5.5,0,0,1-.191-.462a.5.5,0,0,1,.545.108L4.467,3.76a.5.5,0,0,1-.354.854ZM.5,1.207v.85A1.791,1.791,0,0,0,.8,3.31a1.791,1.791,0,0,0,1.253.3h.85Z" transform="translate(7.199 1.028)" fill="#fff"/><path d="M0,0H12.341V12.341H0Z" fill="none" opacity="0"/></g></svg>