<?xml version="1.0" encoding="utf-8"?>
<!-- Generator: Adobe Illustrator 16.0.0, SVG Export Plug-In . SVG Version: 6.00 Build 0)  -->
<!DOCTYPE svg PUBLIC "-//W3C//DTD SVG 1.1//EN" "http://www.w3.org/Graphics/SVG/1.1/DTD/svg11.dtd">
<svg version="1.1" id="Layer_1" xmlns="http://www.w3.org/2000/svg" xmlns:xlink="http://www.w3.org/1999/xlink" x="0px" y="0px"
	 width="21px" height="21px" viewBox="0 0 21 21" enable-background="new 0 0 21 21" xml:space="preserve">
<g transform="translate(-5591 51)">
	<circle fill="#FEC956" cx="5601.5" cy="-40.5" r="10.5"/>
	<g transform="translate(5594.724 -47)">
		<g transform="translate(0 0)">
			<path d="M8.018,7.107H5.195c-0.276,0-0.5-0.225-0.5-0.5s0.224-0.5,0.5-0.5h2.823c0.275,0,0.5,0.224,0.5,0.5
				S8.293,7.107,8.018,7.107z"/>
			<path d="M6.607,8.518c-0.276,0-0.5-0.224-0.5-0.5V5.195c0-0.276,0.224-0.5,0.5-0.5s0.5,0.224,0.5,0.5v2.823
				C7.107,8.294,6.883,8.518,6.607,8.518z"/>
			<path d="M6.493,0.629c3.238,0,5.864,2.625,5.864,5.864c0,3.237-2.626,5.864-5.864,5.864c-3.239,0-5.864-2.627-5.864-5.864
				C0.633,3.256,3.256,0.633,6.493,0.629z M6.493,11.357c2.686,0,4.864-2.178,4.864-4.863c0-2.687-2.178-4.864-4.864-4.864
				S1.629,3.807,1.629,6.493C1.632,9.178,3.808,11.354,6.493,11.357z"/>
			<path d="M12.422,12.922c-0.133,0-0.26-0.053-0.354-0.146l-1.129-1.129c-0.194-0.194-0.194-0.512,0-0.707
				c0.194-0.194,0.513-0.194,0.707,0l1.13,1.129c0.195,0.195,0.195,0.513,0.001,0.709C12.683,12.871,12.555,12.924,12.422,12.922
				L12.422,12.922z"/>
			<path fill="none" d="M0,0h13.551v13.552H0V0z"/>
		</g>
	</g>
</g>
</svg>
