<?xml version="1.0" encoding="utf-8"?>
<!-- Generator: Adobe Illustrator 16.0.0, SVG Export Plug-In . SVG Version: 6.00 Build 0)  -->
<!DOCTYPE svg PUBLIC "-//W3C//DTD SVG 1.1//EN" "http://www.w3.org/Graphics/SVG/1.1/DTD/svg11.dtd">
<svg version="1.1" id="Layer_1" xmlns="http://www.w3.org/2000/svg" xmlns:xlink="http://www.w3.org/1999/xlink" x="0px" y="0px"
	 width="21px" height="21px" viewBox="0 0 21 21" enable-background="new 0 0 21 21" xml:space="preserve">
<g transform="translate(-5308 75)">
	<circle fill="#FEC956" cx="5318.5" cy="-64.5" r="10.5"/>
	<g transform="translate(5312 -71)">
		<g transform="translate(0 0)">
			<path fill="#FFFFFF" d="M6.773,12.921c-0.43,0.002-0.844-0.167-1.15-0.47l-0.966-0.954c-0.226-0.224-0.529-0.349-0.846-0.347
				H3.388C2.182,11.152,1.2,10.18,1.194,8.973V2.812C1.2,1.605,2.182,0.632,3.388,0.635h6.776c1.207-0.003,2.188,0.971,2.193,2.177
				v6.161c-0.006,1.207-0.986,2.182-2.193,2.178h-0.43c-0.315-0.002-0.619,0.121-0.844,0.346l-0.969,0.956
				C7.617,12.754,7.203,12.923,6.773,12.921z M3.388,1.635C2.733,1.631,2.2,2.158,2.194,2.812v6.161
				c0.005,0.654,0.54,1.183,1.194,1.178h0.424c0.581,0,1.138,0.229,1.551,0.639l0.964,0.952c0.25,0.245,0.65,0.245,0.899,0
				l0.965-0.954c0.41-0.41,0.969-0.641,1.55-0.637h0.423c0.654,0.005,1.188-0.522,1.193-1.178V2.812
				c-0.006-0.654-0.539-1.181-1.193-1.177H3.388z"/>
			<g transform="translate(4.517 3.015)">
				<path fill="#FFFFFF" d="M2.259-0.5c1.003,0,1.816,0.813,1.816,1.816S3.262,3.132,2.259,3.132c-1.003,0-1.816-0.813-1.816-1.816
					C0.444,0.314,1.256-0.499,2.259-0.5z M2.259,2.131c0.451,0,0.816-0.365,0.816-0.816S2.71,0.499,2.259,0.499
					S1.443,0.864,1.443,1.315c0,0,0,0,0,0.001C1.444,1.766,1.809,2.13,2.259,2.131z"/>
				<path fill="#FFFFFF" d="M4.517,6.328c-0.276,0-0.5-0.224-0.5-0.5C3.883,4.983,3.11,4.392,2.259,4.487
					C1.408,4.391,0.633,4.983,0.5,5.828c0,0.276-0.224,0.5-0.5,0.5l0,0c-0.276,0-0.5-0.224-0.5-0.5
					c0.126-1.401,1.354-2.445,2.759-2.341c1.404-0.104,2.632,0.938,2.758,2.341C5.017,6.104,4.794,6.328,4.517,6.328L4.517,6.328z"
					/>
			</g>
			<path fill="none" d="M0,0h13.552v13.552H0V0z"/>
		</g>
	</g>
</g>
</svg>
