<?xml version="1.0" encoding="utf-8"?>
<!-- Generator: Adobe Illustrator 16.0.0, SVG Export Plug-In . SVG Version: 6.00 Build 0)  -->
<!DOCTYPE svg PUBLIC "-//W3C//DTD SVG 1.1//EN" "http://www.w3.org/Graphics/SVG/1.1/DTD/svg11.dtd">
<svg version="1.1" id="Layer_1" xmlns="http://www.w3.org/2000/svg" xmlns:xlink="http://www.w3.org/1999/xlink" x="0px" y="0px"
	 width="21px" height="21px" viewBox="0 0 21 21" enable-background="new 0 0 21 21" xml:space="preserve">
<g transform="translate(-4502 60)">
	<circle fill="#FEC956" cx="4512.5" cy="-49.5" r="10.5"/>
	<g transform="translate(4506 -56)">
		<g transform="translate(0 0)">
			<path fill="#FFFFFF" d="M8.018,7.107H5.195c-0.276,0-0.5-0.224-0.5-0.5c0-0.276,0.224-0.5,0.5-0.5h2.823
				c0.276,0,0.5,0.224,0.5,0.5C8.518,6.883,8.294,7.107,8.018,7.107z"/>
			<path fill="#FFFFFF" d="M6.607,8.518c-0.276,0-0.5-0.224-0.5-0.5V5.195c0-0.276,0.224-0.5,0.5-0.5c0.276,0,0.5,0.224,0.5,0.5
				v2.823C7.107,8.294,6.883,8.518,6.607,8.518z"/>
			<path fill="#FFFFFF" d="M6.493,0.629c3.238,0,5.864,2.625,5.864,5.864c0,3.238-2.626,5.864-5.864,5.864
				c-3.239,0-5.864-2.626-5.864-5.864C0.633,3.256,3.256,0.633,6.493,0.629z M6.493,11.357c2.687,0,4.864-2.178,4.864-4.863
				c0-2.687-2.178-4.864-4.864-4.864c-2.686,0-4.864,2.177-4.864,4.863C1.632,9.178,3.808,11.354,6.493,11.357z"/>
			<path fill="#FFFFFF" d="M12.422,12.922c-0.133,0-0.26-0.053-0.354-0.146l-1.129-1.129c-0.195-0.195-0.195-0.512,0-0.707
				s0.512-0.195,0.707,0l1.129,1.129c0.196,0.195,0.196,0.512,0.002,0.708C12.684,12.871,12.555,12.924,12.422,12.922L12.422,12.922
				z"/>
			<path fill="none" d="M0,0h13.552v13.552H0V0z"/>
		</g>
	</g>
</g>
</svg>
