<?xml version="1.0" encoding="utf-8"?>
<!-- Generator: Adobe Illustrator 23.0.1, SVG Export Plug-In . SVG Version: 6.00 Build 0)  -->
<svg version="1.1" id="Layer_1" xmlns="http://www.w3.org/2000/svg" xmlns:xlink="http://www.w3.org/1999/xlink" x="0px" y="0px"
	 viewBox="0 0 100 100" style="enable-background:new 0 0 100 100;" xml:space="preserve">
<style type="text/css">
	.st0{clip-path:url(#SVGID_2_);}
	.st1{fill:#FFFFFF;}
</style>
<rect x="0" width="100" height="100"/>
<g>
	<defs>
		<rect id="SVGID_1_" x="0.79" width="96.21" height="96.21"/>
	</defs>
	<clipPath id="SVGID_2_">
		<use xlink:href="#SVGID_1_"  style="overflow:visible;"/>
	</clipPath>
	<g class="st0">
		<g>
			<path class="st1" d="M-13.29,41.21l8.66-8.66l17.51,4.19L8.93,18.99l8.18-8.18l5.33,27.12l29.6,5.9l-8.9,8.9l-19.17-4.33
				l4.19,19.32l-8.37,8.37l-5.95-29.64L-13.29,41.21z"/>
			<path class="st1" d="M28.36,15.87c-1.13-2.14-1.79-4.33-2-6.57c-0.21-2.24,0.12-4.46,0.98-6.68c0.86-2.22,2.28-4.33,4.28-6.33
				c1.52-1.52,3.21-2.74,5.07-3.64c1.86-0.9,3.75-1.44,5.69-1.59c1.93-0.16,3.86,0.1,5.78,0.79c1.92,0.68,3.69,1.83,5.31,3.45
				c1.68,1.68,2.85,3.39,3.52,5.14c0.67,1.75,1.02,3.53,1.07,5.35c0.05,1.82-0.11,3.68-0.48,5.57c-0.37,1.89-0.75,3.78-1.14,5.66
				c-0.4,1.89-0.71,3.8-0.93,5.73c-0.22,1.93-0.17,3.89,0.14,5.85L71.4,12.85l5.8,5.8L52.75,43.11c-1.93-1.93-3.34-3.89-4.21-5.88
				c-0.87-1.98-1.4-4.01-1.57-6.09c-0.17-2.08-0.1-4.23,0.24-6.47c0.33-2.24,0.72-4.56,1.17-6.97c0.22-1.24,0.48-2.53,0.79-3.88
				c0.3-1.35,0.48-2.68,0.52-4c0.05-1.32-0.09-2.6-0.43-3.85c-0.33-1.25-1.01-2.39-2.02-3.4c-1.62-1.62-3.35-2.41-5.19-2.38
				c-1.84,0.03-3.49,0.78-4.95,2.24c-0.98,0.98-1.59,2.05-1.81,3.19c-0.22,1.14-0.17,2.29,0.17,3.45c0.33,1.16,0.86,2.28,1.59,3.35
				c0.73,1.08,1.54,2.06,2.43,2.95L33,21.84C31.03,20.01,29.49,18.02,28.36,15.87z"/>
		</g>
		<g>
			<path class="st1" d="M23.19,77.16l4.91,4.91l2.94-2.94l1.11,1.11l-4.26,4.26l-6.03-6.03L23.19,77.16z"/>
			<path class="st1" d="M30.28,73.64c-0.25-0.52-0.39-1.05-0.43-1.59c-0.03-0.54,0.05-1.08,0.26-1.61c0.21-0.53,0.54-1.03,1-1.49
				c0.47-0.47,0.97-0.8,1.49-1c0.53-0.2,1.06-0.29,1.6-0.25c0.54,0.03,1.07,0.18,1.59,0.43c0.52,0.25,1.01,0.6,1.46,1.05
				c0.44,0.44,0.78,0.92,1.03,1.43c0.24,0.51,0.38,1.04,0.41,1.57c0.03,0.53-0.06,1.07-0.27,1.59c-0.21,0.53-0.54,1.02-1.01,1.49
				c-0.46,0.46-0.96,0.8-1.49,1c-0.53,0.21-1.06,0.3-1.6,0.27c-0.53-0.03-1.06-0.16-1.57-0.41c-0.51-0.24-0.99-0.59-1.43-1.03
				C30.88,74.65,30.53,74.16,30.28,73.64z M33.49,74.42c0.3,0.18,0.61,0.3,0.93,0.36c0.32,0.06,0.64,0.05,0.97-0.05
				c0.32-0.09,0.63-0.29,0.93-0.59c0.3-0.3,0.49-0.61,0.59-0.93c0.09-0.32,0.11-0.65,0.05-0.97c-0.06-0.32-0.18-0.63-0.36-0.93
				c-0.18-0.3-0.4-0.57-0.65-0.83c-0.26-0.26-0.55-0.49-0.86-0.68c-0.31-0.19-0.62-0.31-0.95-0.38c-0.32-0.06-0.65-0.05-0.97,0.04
				c-0.32,0.09-0.63,0.29-0.93,0.59c-0.3,0.3-0.49,0.61-0.59,0.93c-0.09,0.32-0.11,0.65-0.04,0.97c0.06,0.32,0.19,0.64,0.38,0.95
				c0.19,0.31,0.42,0.59,0.68,0.86C32.91,74.02,33.19,74.24,33.49,74.42z"/>
			<path class="st1" d="M46.37,65.95c-0.17,0.41-0.4,0.76-0.69,1.05c-0.46,0.46-0.96,0.8-1.49,1c-0.53,0.21-1.06,0.3-1.6,0.27
				c-0.53-0.03-1.06-0.16-1.57-0.41c-0.51-0.25-0.99-0.59-1.43-1.03c-0.45-0.45-0.8-0.94-1.05-1.46c-0.25-0.52-0.39-1.05-0.43-1.59
				c-0.03-0.54,0.05-1.08,0.26-1.61c0.21-0.53,0.54-1.03,1-1.49c0.31-0.31,0.66-0.56,1.04-0.76c0.38-0.2,0.78-0.32,1.19-0.38
				c0.41-0.05,0.83-0.02,1.25,0.09c0.42,0.11,0.81,0.32,1.19,0.63l-1.27,1.27c-0.42-0.26-0.82-0.36-1.22-0.3
				c-0.39,0.06-0.75,0.24-1.07,0.57c-0.3,0.3-0.49,0.61-0.59,0.93c-0.09,0.32-0.11,0.65-0.04,0.97c0.06,0.32,0.19,0.64,0.38,0.95
				c0.19,0.31,0.42,0.59,0.68,0.86c0.25,0.25,0.53,0.47,0.83,0.65c0.3,0.18,0.61,0.3,0.93,0.36c0.32,0.06,0.64,0.05,0.97-0.05
				c0.32-0.09,0.63-0.29,0.93-0.59c0.44-0.44,0.67-0.89,0.68-1.35c0.02-0.46-0.17-0.92-0.55-1.38l-1.33,1.33l-0.99-0.99l2.53-2.53
				l3.26,3.26l-0.84,0.84l-0.82-0.55C46.58,65.07,46.53,65.54,46.37,65.95z"/>
			<path class="st1" d="M46.23,54.12l6.03,6.03l-1.33,1.33l-6.03-6.03L46.23,54.12z"/>
			<path class="st1" d="M54.64,54.79c0.21,0.07,0.42,0.08,0.63,0.05c0.21-0.03,0.42-0.11,0.62-0.23c0.21-0.12,0.4-0.27,0.57-0.44
				c0.12-0.12,0.24-0.26,0.35-0.41c0.12-0.15,0.2-0.32,0.27-0.49c0.06-0.17,0.08-0.35,0.06-0.53c-0.02-0.18-0.11-0.34-0.26-0.49
				C56.73,52.08,56.54,52,56.34,52c-0.21,0-0.43,0.05-0.66,0.16c-0.24,0.1-0.49,0.23-0.75,0.4c-0.26,0.16-0.54,0.32-0.82,0.48
				c-0.28,0.17-0.57,0.32-0.87,0.45c-0.29,0.13-0.59,0.22-0.89,0.26c-0.3,0.04-0.6,0.01-0.89-0.08c-0.3-0.09-0.59-0.27-0.86-0.55
				c-0.31-0.31-0.51-0.64-0.61-1c-0.1-0.36-0.11-0.72-0.05-1.09c0.06-0.37,0.19-0.72,0.39-1.06c0.2-0.34,0.43-0.65,0.7-0.92
				c0.32-0.32,0.65-0.58,1.01-0.8c0.36-0.22,0.73-0.36,1.11-0.43c0.38-0.07,0.76-0.05,1.14,0.07c0.38,0.11,0.74,0.34,1.09,0.69
				l-1.28,1.28c-0.19-0.17-0.38-0.28-0.56-0.33c-0.18-0.05-0.36-0.06-0.54-0.02c-0.17,0.04-0.34,0.11-0.51,0.22
				c-0.17,0.11-0.33,0.25-0.49,0.41c-0.11,0.11-0.2,0.22-0.29,0.35s-0.14,0.27-0.17,0.41c-0.03,0.14-0.03,0.29,0,0.43
				c0.03,0.14,0.11,0.28,0.24,0.4c0.12,0.12,0.24,0.19,0.35,0.22c0.12,0.03,0.27,0.01,0.47-0.06c0.19-0.07,0.44-0.19,0.73-0.36
				c0.3-0.17,0.68-0.4,1.15-0.68c0.14-0.09,0.33-0.21,0.59-0.35c0.26-0.14,0.55-0.25,0.88-0.31c0.33-0.07,0.67-0.06,1.03,0.01
				c0.36,0.07,0.71,0.28,1.05,0.62c0.28,0.28,0.48,0.59,0.61,0.93c0.13,0.34,0.17,0.71,0.14,1.09s-0.17,0.78-0.38,1.19
				c-0.22,0.41-0.53,0.82-0.94,1.23c-0.33,0.33-0.7,0.61-1.09,0.84c-0.39,0.23-0.8,0.38-1.21,0.44c-0.41,0.06-0.83,0.03-1.24-0.1
				c-0.41-0.13-0.8-0.38-1.16-0.76l1.28-1.28C54.22,54.59,54.43,54.73,54.64,54.79z"/>
			<path class="st1" d="M56.9,45.68l-1.11-1.11l4.94-4.94l1.11,1.11l-1.81,1.81l4.91,4.91l-1.33,1.33l-4.91-4.91L56.9,45.68z"/>
			<path class="st1" d="M64.43,35.93l6.03,6.03l-1.33,1.33l-6.03-6.03L64.43,35.93z"/>
			<path class="st1" d="M72.75,30.81c-0.21-0.05-0.41-0.06-0.63-0.04c-0.21,0.02-0.42,0.08-0.62,0.18c-0.2,0.1-0.39,0.22-0.55,0.39
				c-0.3,0.3-0.49,0.61-0.59,0.93c-0.09,0.32-0.11,0.65-0.04,0.97c0.07,0.32,0.19,0.64,0.38,0.95c0.19,0.31,0.42,0.59,0.68,0.86
				c0.25,0.25,0.53,0.47,0.83,0.65c0.3,0.18,0.61,0.3,0.93,0.36c0.32,0.06,0.64,0.05,0.97-0.05c0.32-0.09,0.63-0.29,0.93-0.59
				c0.41-0.41,0.6-0.85,0.58-1.32c-0.02-0.48-0.21-0.94-0.56-1.4l1.28-1.28c0.34,0.41,0.6,0.84,0.76,1.28
				c0.16,0.44,0.24,0.89,0.22,1.33c-0.02,0.45-0.12,0.88-0.32,1.3c-0.2,0.42-0.48,0.82-0.85,1.19c-0.46,0.46-0.96,0.8-1.49,1
				c-0.53,0.21-1.06,0.3-1.6,0.27c-0.53-0.03-1.06-0.16-1.57-0.41c-0.51-0.24-0.99-0.59-1.43-1.03c-0.45-0.45-0.8-0.94-1.05-1.46
				c-0.25-0.52-0.39-1.05-0.43-1.59c-0.03-0.54,0.05-1.08,0.26-1.61c0.21-0.53,0.54-1.03,1-1.49c0.33-0.33,0.69-0.6,1.09-0.8
				c0.39-0.2,0.79-0.32,1.21-0.38c0.42-0.05,0.84-0.02,1.26,0.1c0.42,0.12,0.83,0.33,1.22,0.64l-1.28,1.28
				C73.15,30.95,72.96,30.86,72.75,30.81z"/>
			<path class="st1" d="M80.78,28.66c0.21,0.07,0.42,0.08,0.63,0.05c0.21-0.03,0.42-0.11,0.62-0.23c0.21-0.12,0.4-0.27,0.57-0.44
				c0.12-0.12,0.24-0.26,0.35-0.41c0.12-0.15,0.2-0.32,0.27-0.49c0.06-0.17,0.08-0.35,0.06-0.53c-0.02-0.18-0.11-0.34-0.26-0.49
				c-0.16-0.16-0.35-0.24-0.55-0.24c-0.21,0-0.43,0.05-0.66,0.16c-0.24,0.1-0.49,0.23-0.75,0.4c-0.26,0.16-0.54,0.32-0.82,0.48
				c-0.28,0.17-0.57,0.32-0.87,0.45c-0.3,0.13-0.59,0.22-0.89,0.26c-0.3,0.04-0.6,0.01-0.89-0.08c-0.3-0.09-0.59-0.27-0.86-0.55
				c-0.31-0.31-0.51-0.64-0.61-1c-0.1-0.36-0.11-0.72-0.05-1.09c0.06-0.37,0.19-0.72,0.39-1.06c0.2-0.34,0.43-0.65,0.7-0.92
				c0.32-0.32,0.65-0.58,1.01-0.8c0.36-0.22,0.73-0.36,1.11-0.43c0.38-0.07,0.76-0.05,1.14,0.07c0.38,0.11,0.74,0.34,1.09,0.69
				l-1.28,1.28c-0.19-0.17-0.38-0.28-0.56-0.33c-0.18-0.05-0.36-0.06-0.54-0.02c-0.17,0.04-0.34,0.11-0.51,0.22
				c-0.17,0.11-0.33,0.25-0.49,0.41c-0.11,0.11-0.2,0.22-0.29,0.35c-0.08,0.13-0.14,0.27-0.17,0.41c-0.03,0.14-0.03,0.29,0,0.43
				c0.03,0.14,0.11,0.28,0.24,0.4c0.12,0.12,0.24,0.19,0.35,0.22c0.12,0.03,0.27,0.01,0.47-0.06c0.19-0.07,0.44-0.19,0.73-0.36
				c0.3-0.17,0.68-0.4,1.15-0.68c0.14-0.09,0.33-0.21,0.59-0.35c0.26-0.14,0.55-0.24,0.88-0.31c0.33-0.07,0.67-0.06,1.03,0.01
				c0.36,0.07,0.71,0.28,1.05,0.62c0.28,0.28,0.48,0.59,0.61,0.93c0.13,0.34,0.17,0.71,0.14,1.09s-0.17,0.78-0.38,1.19
				c-0.22,0.41-0.53,0.82-0.94,1.23c-0.33,0.33-0.7,0.61-1.09,0.84c-0.39,0.23-0.8,0.38-1.21,0.44c-0.41,0.06-0.83,0.03-1.24-0.1
				c-0.41-0.13-0.8-0.38-1.16-0.76l1.28-1.28C80.36,28.45,80.57,28.59,80.78,28.66z"/>
		</g>
		<g>
			<g>
				<path class="st1" d="M31.44,85.43L38,86.96l0.02-0.02l-4.04-4.04l1.24-1.24l6.03,6.03l-1.33,1.33l-6.54-1.53l-0.02,0.02
					l4.04,4.04l-1.24,1.24l-6.03-6.03L31.44,85.43z"/>
				<path class="st1" d="M42.28,74.59l1.11,1.11l-3.18,3.18l1.29,1.29l2.92-2.92l1.03,1.03l-2.92,2.92l1.48,1.48l3.25-3.25
					l1.11,1.11l-4.58,4.58l-6.03-6.03L42.28,74.59z"/>
				<path class="st1" d="M45.28,73.83l-1.11-1.11l4.94-4.94l1.11,1.11l-1.81,1.81l4.91,4.91L52,76.93l-4.91-4.91L45.28,73.83z"/>
				<path class="st1" d="M61.64,67.29l-5.12-3.08l-0.02,0.02l3.1,5.11l-1.34,1.34l-7.62-4.43l1.33-1.33l5.06,3.15l0.02-0.02
					l-3.06-5.15l1.24-1.24l5.18,3.12l0.02-0.02l-3.17-5.14l1.3-1.3l4.41,7.65L61.64,67.29z"/>
				<path class="st1" d="M62.27,58.17c-0.25-0.52-0.39-1.05-0.43-1.59c-0.03-0.54,0.05-1.08,0.26-1.61c0.21-0.53,0.54-1.03,1-1.49
					c0.47-0.47,0.97-0.8,1.49-1c0.53-0.2,1.06-0.29,1.6-0.25c0.54,0.03,1.07,0.18,1.59,0.43c0.52,0.25,1.01,0.6,1.46,1.05
					c0.44,0.44,0.78,0.92,1.03,1.43c0.24,0.51,0.38,1.04,0.41,1.57c0.03,0.53-0.06,1.07-0.27,1.59c-0.2,0.53-0.54,1.02-1.01,1.49
					c-0.46,0.46-0.96,0.8-1.49,1c-0.53,0.21-1.06,0.3-1.6,0.27c-0.53-0.03-1.06-0.16-1.57-0.41c-0.51-0.25-0.99-0.59-1.43-1.03
					C62.88,59.18,62.53,58.69,62.27,58.17z M65.48,58.95c0.3,0.18,0.61,0.3,0.93,0.36c0.32,0.06,0.64,0.05,0.97-0.05
					c0.32-0.09,0.63-0.29,0.93-0.59c0.3-0.3,0.49-0.61,0.59-0.93c0.09-0.32,0.11-0.65,0.05-0.97c-0.06-0.32-0.18-0.63-0.36-0.93
					c-0.18-0.3-0.4-0.57-0.65-0.83c-0.26-0.26-0.55-0.49-0.86-0.68c-0.31-0.19-0.62-0.31-0.95-0.38c-0.32-0.06-0.65-0.05-0.97,0.04
					c-0.32,0.09-0.63,0.29-0.93,0.59c-0.3,0.3-0.49,0.61-0.59,0.93c-0.09,0.32-0.11,0.65-0.04,0.97c0.06,0.32,0.19,0.64,0.38,0.95
					c0.19,0.31,0.42,0.59,0.68,0.86C64.9,58.55,65.18,58.77,65.48,58.95z"/>
				<path class="st1" d="M71.76,45.12c0.27-0.27,0.56-0.47,0.86-0.6c0.3-0.13,0.61-0.2,0.92-0.2c0.31,0,0.6,0.05,0.88,0.17
					c0.28,0.12,0.54,0.29,0.77,0.52c0.35,0.35,0.59,0.74,0.7,1.14c0.11,0.41,0.06,0.85-0.14,1.32l0.02,0.02
					c0.21-0.12,0.41-0.18,0.61-0.2c0.2-0.01,0.4,0.01,0.59,0.07c0.19,0.06,0.38,0.15,0.57,0.27c0.18,0.12,0.36,0.25,0.52,0.39
					c0.1,0.09,0.22,0.2,0.35,0.32c0.13,0.12,0.28,0.25,0.43,0.37c0.15,0.12,0.3,0.23,0.45,0.32c0.15,0.09,0.3,0.15,0.45,0.17
					l-1.33,1.33c-0.26-0.12-0.54-0.3-0.82-0.55c-0.28-0.25-0.56-0.48-0.84-0.68c-0.36-0.27-0.69-0.4-0.98-0.41
					c-0.29,0-0.6,0.17-0.94,0.5l-1.33,1.33l2.36,2.36l-1.33,1.33l-6.03-6.03L71.76,45.12z M74.01,48.31c0.3-0.3,0.46-0.6,0.48-0.89
					c0.02-0.29-0.13-0.58-0.43-0.89c-0.29-0.29-0.58-0.43-0.87-0.41s-0.58,0.18-0.88,0.49l-1.45,1.45l1.7,1.7L74.01,48.31z"/>
				<path class="st1" d="M77.32,39.55l2.5,2.5l-0.14-4.85l1.65-1.66l0.03,4.74l6.23,1.06l-1.66,1.66l-4.53-0.89l0.01,1.53l1.94,1.94
					l-1.33,1.33L76,40.88L77.32,39.55z"/>
				<path class="st1" d="M89.04,36.92c0.21,0.07,0.42,0.08,0.63,0.05c0.21-0.03,0.41-0.11,0.62-0.23c0.21-0.12,0.4-0.27,0.57-0.44
					c0.12-0.12,0.23-0.26,0.35-0.41c0.12-0.15,0.2-0.32,0.27-0.49c0.06-0.17,0.08-0.35,0.06-0.53c-0.02-0.18-0.11-0.34-0.26-0.49
					c-0.16-0.16-0.35-0.24-0.55-0.24c-0.21,0-0.43,0.06-0.66,0.16c-0.24,0.1-0.49,0.23-0.75,0.4c-0.26,0.16-0.54,0.32-0.82,0.48
					c-0.28,0.17-0.57,0.32-0.87,0.45c-0.29,0.13-0.59,0.22-0.89,0.26c-0.3,0.04-0.6,0.01-0.89-0.08c-0.3-0.09-0.59-0.27-0.86-0.55
					c-0.31-0.31-0.51-0.64-0.61-1c-0.1-0.36-0.11-0.72-0.05-1.09c0.06-0.37,0.19-0.72,0.39-1.06c0.2-0.34,0.43-0.65,0.7-0.92
					c0.32-0.32,0.65-0.58,1.01-0.8c0.36-0.22,0.73-0.36,1.11-0.43c0.38-0.07,0.76-0.05,1.14,0.07c0.38,0.11,0.74,0.34,1.09,0.69
					l-1.28,1.28c-0.19-0.17-0.38-0.28-0.56-0.33c-0.18-0.05-0.36-0.06-0.54-0.02c-0.17,0.04-0.34,0.11-0.51,0.22
					c-0.17,0.11-0.33,0.25-0.49,0.41c-0.11,0.11-0.2,0.22-0.29,0.35c-0.08,0.13-0.14,0.27-0.17,0.41c-0.03,0.14-0.03,0.29,0,0.43
					c0.03,0.14,0.11,0.28,0.24,0.41c0.12,0.12,0.24,0.19,0.35,0.22c0.12,0.03,0.27,0.01,0.47-0.06c0.19-0.07,0.44-0.19,0.73-0.36
					c0.3-0.17,0.68-0.4,1.15-0.68c0.14-0.09,0.33-0.21,0.59-0.35c0.26-0.14,0.55-0.24,0.88-0.31c0.33-0.07,0.67-0.06,1.03,0.01
					c0.36,0.07,0.71,0.28,1.05,0.62c0.28,0.28,0.48,0.59,0.61,0.93c0.13,0.34,0.17,0.71,0.14,1.09c-0.04,0.38-0.17,0.78-0.38,1.19
					c-0.22,0.41-0.53,0.82-0.94,1.23c-0.33,0.33-0.7,0.61-1.09,0.84c-0.39,0.23-0.8,0.38-1.21,0.44c-0.41,0.06-0.83,0.03-1.24-0.1
					c-0.41-0.13-0.8-0.38-1.17-0.76l1.28-1.28C88.62,36.72,88.83,36.85,89.04,36.92z"/>
			</g>
		</g>
	</g>
</g>
</svg>
