<?xml version="1.0" encoding="utf-8"?>
<!-- Generator: Adobe Illustrator 23.0.1, SVG Export Plug-In . SVG Version: 6.00 Build 0)  -->
<svg version="1.1" id="Layer_1" xmlns="http://www.w3.org/2000/svg" xmlns:xlink="http://www.w3.org/1999/xlink" x="0px" y="0px"
	 viewBox="0 0 100 100" style="enable-background:new 0 0 100 100;" xml:space="preserve">
<style type="text/css">
	.st0{fill:#FFC956;}
</style>
<g>
	<rect x="0" y="0" width="100.3" height="100.3"/>
	<g>
		<polygon class="st0" points="20.6,79.7 27.7,72.6 29.4,74.4 24.5,79.4 26.5,81.4 31,76.8 32.6,78.4 28.1,83 30.4,85.3 35.5,80.2 
			37.2,81.9 30.1,89.1 		"/>
		<polygon class="st0" points="34.7,65.6 36.8,63.5 44.5,71.2 49.1,66.6 50.8,68.3 44.1,75 		"/>
		
			<rect x="52.4" y="49.2" transform="matrix(0.7075 -0.7067 0.7067 0.7075 -23.762 54.3991)" class="st0" width="2.9" height="13.3"/>
		<polygon class="st0" points="61.3,42.5 58.5,45.3 56.8,43.5 64.5,35.8 66.2,37.6 63.4,40.4 71.1,48.1 69,50.1 		"/>
		<polygon class="st0" points="71.1,29.2 78.2,22.2 79.9,23.9 74.9,28.9 77,30.9 81.5,26.3 83.1,27.9 78.6,32.5 80.9,34.8 86,29.7 
			87.7,31.5 80.5,38.6 		"/>
	</g>
	<g>
		<polygon class="st0" points="17.8,75.3 26.2,66.8 21.3,48 39.8,53.2 48.7,44.4 19.3,37.7 13.2,10.2 4.8,18.7 9.7,36.4 0,33.5 
			0,43.7 11.2,46.4 		"/>
		<path class="st0" d="M43.6,2.1c1.8,1.8,2.7,4.1,2.8,7c0,1.9-0.4,5.5-1.3,10.8c-1,6.1-0.9,10.8,0.4,14.1c1,3,2.8,5.8,5.1,8.3
			l23.5-23.5l-5.9-5.9L53.3,27.9c-0.3-1.1-0.4-2.3-0.3-3.4c0.1-1.2,0.4-3.2,0.9-6.1l0.8-4.6c0.7-3.9,0.8-7,0.5-9.3
			C55,2.9,54.6,1.4,53.9,0H40.2C41.4,0.4,42.5,1.1,43.6,2.1z"/>
		<path class="st0" d="M23.4,11.1c0.8,2.7,2.7,5.6,5.5,8.6l6.5-6.5c-1.8-2-3-3.7-3.4-5c-0.8-2.3-0.2-4.4,1.9-6.5
			c0.9-0.9,1.8-1.4,2.7-1.7H24.9C22.7,3.5,22.2,7.2,23.4,11.1z"/>
	</g>
</g>
</svg>
