<?xml version="1.0" encoding="utf-8"?>
<!-- Generator: Adobe Illustrator 23.0.1, SVG Export Plug-In . SVG Version: 6.00 Build 0)  -->
<svg version="1.1" id="Layer_1" xmlns="http://www.w3.org/2000/svg" xmlns:xlink="http://www.w3.org/1999/xlink" x="0px" y="0px"
	 viewBox="0 0 100 100" style="enable-background:new 0 0 100 100;" xml:space="preserve">
<style type="text/css">
	.st0{fill:#333737;}
	.st1{fill:#FFFFFF;}
</style>
<g>
	<rect class="st0" width="100" height="100"/>
	<path class="st1" d="M21.44,78.52l2.76-2.76c0.37-0.36,0.74-0.63,1.12-0.8c0.38-0.17,0.75-0.24,1.1-0.23
		c0.36,0.01,0.69,0.1,1.01,0.25c0.31,0.15,0.6,0.36,0.86,0.62c0.26,0.26,0.46,0.54,0.62,0.86c0.16,0.31,0.24,0.65,0.25,1.01
		c0.01,0.36-0.06,0.73-0.23,1.1c-0.17,0.38-0.43,0.75-0.8,1.12l-1.42,1.41l2.2,2.2l-1.35,1.35L21.44,78.52z M25.67,80.06l1.05-1.05
		c0.17-0.17,0.31-0.34,0.42-0.5c0.11-0.16,0.19-0.33,0.24-0.51c0.05-0.18,0.04-0.36-0.02-0.54c-0.06-0.18-0.19-0.36-0.37-0.55
		c-0.19-0.19-0.37-0.31-0.55-0.37c-0.18-0.06-0.36-0.07-0.54-0.03c-0.18,0.04-0.35,0.12-0.51,0.23c-0.16,0.11-0.33,0.26-0.5,0.43
		l-1.05,1.05L25.67,80.06z"/>
	<path class="st1" d="M29.09,70.87l3.3-3.3c0.27-0.27,0.56-0.47,0.87-0.61c0.31-0.14,0.62-0.21,0.93-0.21c0.31,0,0.61,0.06,0.9,0.18
		c0.29,0.12,0.54,0.3,0.78,0.53c0.37,0.37,0.61,0.77,0.71,1.18c0.1,0.42,0.05,0.86-0.15,1.32l0.02,0.02
		c0.38-0.22,0.77-0.27,1.16-0.15c0.39,0.12,0.78,0.35,1.17,0.7c0.02,0.02,0.1,0.09,0.21,0.2c0.31,0.27,0.58,0.5,0.82,0.67
		c0.24,0.17,0.46,0.28,0.67,0.32l-1.35,1.35c-0.16-0.06-0.33-0.16-0.5-0.29c-0.17-0.13-0.38-0.3-0.63-0.52
		c-0.23-0.2-0.42-0.35-0.55-0.45c-0.38-0.28-0.71-0.42-1.01-0.41c-0.29,0.01-0.61,0.18-0.94,0.51l-1.35,1.35l2.39,2.39l-1.35,1.35
		L29.09,70.87z M33.21,72.29l1.48-1.48c0.31-0.31,0.47-0.61,0.48-0.91c0.01-0.29-0.13-0.59-0.43-0.9c-0.29-0.29-0.58-0.43-0.88-0.41
		c-0.29,0.02-0.59,0.18-0.9,0.49l-1.48,1.47L33.21,72.29z"/>
	<path class="st1" d="M38.97,64.62c-0.26-0.53-0.4-1.07-0.44-1.63c-0.03-0.55,0.05-1.1,0.26-1.64c0.21-0.54,0.55-1.04,1.01-1.5
		c0.46-0.46,0.96-0.8,1.5-1.01c0.54-0.21,1.09-0.3,1.64-0.27c0.56,0.03,1.1,0.18,1.63,0.44c0.53,0.26,1.02,0.62,1.47,1.07
		c0.44,0.44,0.79,0.92,1.04,1.44c0.25,0.52,0.39,1.06,0.42,1.61c0.03,0.55-0.06,1.1-0.27,1.64c-0.21,0.54-0.55,1.04-1.01,1.5
		c-0.46,0.46-0.96,0.8-1.5,1.01c-0.54,0.21-1.08,0.3-1.63,0.27c-0.55-0.03-1.09-0.17-1.61-0.42c-0.52-0.25-1.01-0.6-1.45-1.04
		C39.59,65.64,39.23,65.15,38.97,64.62 M42.25,65.42c0.31,0.18,0.62,0.3,0.95,0.36c0.33,0.06,0.65,0.04,0.98-0.06
		c0.32-0.1,0.63-0.3,0.92-0.59c0.29-0.29,0.49-0.6,0.59-0.93c0.1-0.33,0.12-0.65,0.06-0.98c-0.06-0.32-0.18-0.64-0.36-0.94
		c-0.18-0.31-0.4-0.59-0.67-0.86c-0.28-0.28-0.58-0.51-0.89-0.7c-0.32-0.19-0.64-0.31-0.96-0.38c-0.33-0.06-0.65-0.04-0.98,0.06
		c-0.33,0.1-0.64,0.3-0.93,0.59c-0.29,0.29-0.49,0.6-0.59,0.93c-0.1,0.33-0.12,0.66-0.05,0.98c0.06,0.33,0.19,0.65,0.38,0.96
		c0.19,0.31,0.42,0.61,0.7,0.89C41.65,65.02,41.94,65.24,42.25,65.42"/>
	<path class="st1" d="M53.6,54.74c0.24,0.24,0.45,0.5,0.63,0.78c0.18,0.28,0.3,0.59,0.37,0.94c0.07,0.35,0.03,0.73-0.11,1.14
		c-0.14,0.41-0.43,0.83-0.86,1.26c-0.26,0.26-0.55,0.48-0.87,0.64c-0.31,0.17-0.64,0.27-0.99,0.31c-0.35,0.04-0.69-0.01-1.05-0.15
		c-0.35-0.13-0.69-0.36-1.01-0.68l-0.53-0.53l1.22-1.22l0.27,0.27c0.33,0.33,0.64,0.53,0.93,0.59c0.29,0.06,0.58-0.05,0.87-0.35
		c0.17-0.17,0.27-0.33,0.31-0.49c0.04-0.16,0.03-0.31-0.02-0.46c-0.05-0.14-0.12-0.27-0.22-0.38c-0.1-0.11-0.22-0.24-0.36-0.39
		l-4.14-4.14l1.35-1.35L53.6,54.74z"/>
	<polygon class="st1" points="52.52,47.43 57.1,42.85 58.24,43.99 55,47.22 56.31,48.53 59.28,45.56 60.33,46.61 57.36,49.58 
		58.86,51.08 62.16,47.78 63.3,48.91 58.65,53.56 	"/>
	<path class="st1" d="M66.15,37.92c-0.34-0.26-0.75-0.37-1.21-0.32c-0.46,0.05-0.86,0.25-1.2,0.58c-0.29,0.29-0.49,0.6-0.59,0.93
		c-0.1,0.33-0.12,0.66-0.05,0.98c0.06,0.33,0.19,0.65,0.38,0.96c0.19,0.31,0.42,0.61,0.7,0.89c0.27,0.27,0.56,0.49,0.86,0.67
		c0.31,0.18,0.62,0.3,0.95,0.36c0.33,0.06,0.66,0.04,0.98-0.06c0.32-0.1,0.63-0.3,0.92-0.59c0.4-0.4,0.59-0.84,0.58-1.33
		c-0.01-0.49-0.2-0.96-0.57-1.43l1.3-1.3c0.34,0.41,0.6,0.84,0.76,1.29c0.17,0.45,0.24,0.91,0.22,1.36
		c-0.02,0.46-0.12,0.9-0.32,1.33c-0.2,0.43-0.48,0.83-0.85,1.21c-0.46,0.46-0.96,0.8-1.5,1.01c-0.54,0.21-1.08,0.3-1.63,0.28
		c-0.55-0.03-1.09-0.17-1.61-0.42c-0.52-0.25-1.01-0.6-1.45-1.04c-0.45-0.45-0.81-0.94-1.06-1.48c-0.26-0.53-0.4-1.08-0.44-1.63
		c-0.03-0.55,0.05-1.1,0.26-1.64c0.21-0.54,0.55-1.04,1.01-1.5c0.34-0.34,0.71-0.61,1.11-0.81c0.4-0.21,0.81-0.33,1.24-0.38
		c0.43-0.05,0.85-0.01,1.28,0.11c0.43,0.12,0.83,0.34,1.22,0.65L66.15,37.92z"/>
	<polygon class="st1" points="70.79,31.43 68.95,33.27 67.82,32.14 72.84,27.12 73.97,28.25 72.14,30.09 77.13,35.08 75.78,36.43 	
		"/>
	<path class="st1" d="M80.48,27.66c0.38,0.38,0.8,0.54,1.24,0.47c0.44-0.07,0.86-0.3,1.25-0.69c0.13-0.13,0.25-0.28,0.36-0.43
		c0.11-0.16,0.2-0.33,0.27-0.51c0.07-0.18,0.08-0.36,0.06-0.53c-0.03-0.18-0.11-0.34-0.26-0.49c-0.14-0.14-0.29-0.22-0.46-0.24
		c-0.17-0.02-0.35,0-0.54,0.06c-0.19,0.06-0.38,0.14-0.58,0.24c-0.19,0.1-0.44,0.25-0.76,0.45c-0.21,0.12-0.38,0.22-0.5,0.29
		c-0.34,0.19-0.66,0.35-0.94,0.48c-0.29,0.13-0.58,0.21-0.87,0.25c-0.3,0.04-0.6,0.01-0.89-0.08c-0.3-0.1-0.58-0.28-0.86-0.56
		c-0.3-0.3-0.51-0.64-0.61-1c-0.1-0.36-0.13-0.73-0.06-1.11c0.07-0.37,0.2-0.74,0.39-1.08c0.19-0.35,0.43-0.67,0.72-0.95
		c0.33-0.33,0.68-0.61,1.05-0.83c0.37-0.22,0.75-0.36,1.13-0.43c0.39-0.06,0.77-0.04,1.15,0.08c0.38,0.12,0.75,0.35,1.09,0.7
		l-1.31,1.3c-0.36-0.33-0.72-0.45-1.07-0.37c-0.35,0.08-0.71,0.3-1.07,0.66c-0.25,0.25-0.41,0.53-0.48,0.82
		c-0.07,0.3,0.01,0.56,0.25,0.8c0.12,0.12,0.24,0.19,0.36,0.22c0.12,0.03,0.26,0.01,0.43-0.05c0.17-0.06,0.38-0.16,0.62-0.29
		c0.25-0.13,0.64-0.36,1.18-0.68c0.02-0.02,0.08-0.05,0.17-0.1c0.02-0.01,0.04-0.03,0.06-0.04c0.26-0.15,0.5-0.29,0.74-0.39
		c0.23-0.11,0.51-0.19,0.83-0.25c0.32-0.06,0.65-0.04,0.99,0.05c0.35,0.09,0.67,0.3,0.98,0.61c0.58,0.58,0.83,1.28,0.75,2.09
		c-0.08,0.81-0.53,1.62-1.33,2.42c-0.35,0.35-0.72,0.64-1.12,0.86c-0.4,0.23-0.81,0.37-1.23,0.43c-0.42,0.06-0.84,0.03-1.26-0.11
		c-0.42-0.14-0.81-0.39-1.18-0.76L80.48,27.66z"/>
	<g>
		<polygon class="st1" points="17.72,75.04 26.15,66.61 21.28,47.81 39.7,53.05 48.51,44.25 19.27,37.56 13.15,10.21 4.77,18.59 
			9.71,36.25 0,33.41 0,43.61 11.2,46.2 		"/>
		<path class="st1" d="M43.46,2.12c1.77,1.77,2.71,4.1,2.8,6.99c0.05,1.87-0.37,5.45-1.25,10.76c-1.02,6.1-0.87,10.77,0.45,14.01
			c1.04,3.01,2.74,5.78,5.13,8.29l23.38-23.38l-5.91-5.91l-14.9,14.9c-0.28-1.13-0.38-2.27-0.29-3.43c0.09-1.15,0.37-3.17,0.86-6.04
			l0.78-4.6c0.66-3.86,0.84-6.94,0.53-9.24C54.83,2.89,54.39,1.4,53.74,0h-13.7C41.26,0.37,42.41,1.07,43.46,2.12z"/>
		<path class="st1" d="M23.36,11.02c0.85,2.73,2.67,5.61,5.46,8.62l6.52-6.52c-1.83-1.99-2.98-3.64-3.44-4.94
			c-0.78-2.26-0.16-4.41,1.88-6.45C34.64,0.86,35.55,0.31,36.5,0H24.87C22.67,3.5,22.16,7.17,23.36,11.02z"/>
	</g>
</g>
</svg>
