<?xml version="1.0" encoding="utf-8"?>
<!-- Generator: Adobe Illustrator 23.0.1, SVG Export Plug-In . SVG Version: 6.00 Build 0)  -->
<svg version="1.1" id="Layer_1" xmlns="http://www.w3.org/2000/svg" xmlns:xlink="http://www.w3.org/1999/xlink" x="0px" y="0px"
	 viewBox="0 0 100 100" style="enable-background:new 0 0 100 100;" xml:space="preserve">
<style type="text/css">
	.st0{fill:#800F52;}
	.st1{fill:#FFFFFF;}
</style>
<g>
	<rect y="0" class="st0" width="100" height="100"/>
	<g>
		<path class="st1" d="M26.99,77.58c-0.38-0.3-0.83-0.41-1.35-0.35c-0.52,0.05-0.97,0.27-1.34,0.65c-0.33,0.33-0.55,0.67-0.66,1.04
			c-0.11,0.37-0.13,0.74-0.06,1.1c0.07,0.37,0.21,0.72,0.42,1.07c0.21,0.35,0.47,0.68,0.79,1c0.3,0.3,0.62,0.55,0.96,0.75
			c0.34,0.2,0.7,0.34,1.06,0.4c0.37,0.07,0.73,0.04,1.09-0.07c0.36-0.11,0.71-0.33,1.03-0.66c0.45-0.45,0.66-0.94,0.65-1.49
			c-0.01-0.54-0.22-1.08-0.63-1.6l1.46-1.46c0.38,0.46,0.67,0.94,0.85,1.45c0.19,0.5,0.27,1.01,0.25,1.53
			c-0.02,0.51-0.14,1.01-0.36,1.49c-0.22,0.48-0.54,0.93-0.95,1.35c-0.52,0.52-1.08,0.9-1.68,1.13c-0.6,0.24-1.21,0.34-1.82,0.31
			c-0.61-0.03-1.21-0.19-1.8-0.47c-0.59-0.28-1.13-0.67-1.62-1.16c-0.5-0.5-0.9-1.05-1.19-1.65c-0.29-0.6-0.45-1.2-0.49-1.82
			c-0.04-0.62,0.06-1.23,0.3-1.83c0.24-0.6,0.61-1.16,1.13-1.68c0.38-0.38,0.79-0.68,1.24-0.91c0.45-0.23,0.91-0.37,1.38-0.43
			c0.48-0.06,0.95-0.01,1.43,0.12c0.48,0.14,0.93,0.38,1.37,0.72L26.99,77.58z"/>
		<path class="st1" d="M29.14,70.82l3.69-3.69c0.3-0.3,0.62-0.53,0.97-0.68c0.34-0.15,0.69-0.23,1.05-0.23
			c0.35,0,0.69,0.07,1.01,0.2c0.32,0.13,0.61,0.33,0.87,0.59c0.42,0.42,0.68,0.86,0.79,1.33c0.12,0.47,0.06,0.96-0.16,1.48
			l0.02,0.02c0.43-0.25,0.86-0.31,1.29-0.17c0.43,0.13,0.87,0.39,1.3,0.78c0.03,0.02,0.1,0.1,0.24,0.22
			c0.35,0.31,0.65,0.56,0.91,0.75c0.26,0.19,0.52,0.32,0.75,0.36l-1.5,1.51c-0.19-0.07-0.37-0.18-0.56-0.32
			c-0.19-0.14-0.42-0.34-0.71-0.58c-0.26-0.22-0.47-0.39-0.61-0.5c-0.42-0.32-0.8-0.47-1.13-0.46c-0.33,0.01-0.68,0.2-1.05,0.57
			l-1.51,1.5l2.67,2.67l-1.5,1.51L29.14,70.82z M33.74,72.42l1.65-1.65c0.35-0.35,0.53-0.68,0.54-1.01c0.02-0.33-0.15-0.66-0.48-1
			c-0.33-0.33-0.65-0.48-0.98-0.46c-0.33,0.02-0.66,0.2-1.01,0.55l-1.65,1.65L33.74,72.42z"/>
		
			<rect x="41.09" y="59.82" transform="matrix(0.7071 -0.7071 0.7071 0.7071 -33.3726 48.7496)" class="st1" width="2.13" height="9.68"/>
		<polygon class="st1" points="45.51,56.99 43.45,59.04 42.19,57.78 47.8,52.17 49.06,53.43 47.01,55.49 52.59,61.07 51.08,62.57 		
			"/>
		
			<rect x="53.61" y="47.3" transform="matrix(0.7071 -0.7071 0.7071 0.7071 -20.8527 53.9312)" class="st1" width="2.13" height="9.68"/>
		<path class="st1" d="M62.11,42.46c-0.38-0.29-0.83-0.41-1.35-0.35c-0.52,0.06-0.97,0.27-1.34,0.65c-0.33,0.33-0.55,0.67-0.66,1.04
			c-0.11,0.37-0.13,0.73-0.06,1.1c0.07,0.37,0.21,0.72,0.42,1.07c0.21,0.35,0.47,0.68,0.79,1c0.3,0.3,0.62,0.55,0.96,0.75
			c0.34,0.2,0.7,0.34,1.06,0.4c0.37,0.07,0.73,0.04,1.09-0.07c0.36-0.11,0.71-0.33,1.03-0.66c0.45-0.45,0.66-0.94,0.65-1.49
			c-0.01-0.54-0.22-1.08-0.63-1.6l1.46-1.46c0.38,0.46,0.67,0.94,0.85,1.45c0.19,0.5,0.27,1.01,0.25,1.52
			c-0.02,0.51-0.14,1.01-0.36,1.49c-0.22,0.48-0.54,0.93-0.95,1.35c-0.52,0.52-1.08,0.9-1.68,1.13c-0.6,0.24-1.21,0.34-1.82,0.31
			c-0.61-0.03-1.22-0.19-1.8-0.47c-0.59-0.28-1.13-0.67-1.62-1.16c-0.5-0.5-0.9-1.05-1.19-1.65c-0.29-0.6-0.45-1.2-0.49-1.82
			c-0.04-0.62,0.06-1.23,0.3-1.83c0.24-0.6,0.61-1.16,1.13-1.68c0.38-0.38,0.79-0.68,1.24-0.91c0.45-0.23,0.91-0.37,1.38-0.43
			c0.48-0.06,0.95-0.01,1.43,0.12c0.48,0.14,0.93,0.38,1.37,0.72L62.11,42.46z"/>
		<path class="st1" d="M66.13,33.83l1.54-1.54l9.4,4.29l-1.56,1.56l-2.04-1.01l-2.56,2.56l0.99,2.06l-1.52,1.53L66.13,33.83z
			 M70.19,38.18l1.77-1.77l-3.37-1.65l-0.02,0.02L70.19,38.18z"/>
		<polygon class="st1" points="72.75,27.22 74.25,25.71 79.83,31.29 83.17,27.96 84.43,29.22 79.59,34.06 		"/>
	</g>
	<g>
		<polygon class="st1" points="17.72,75.04 26.15,66.61 21.28,47.81 39.7,53.05 48.51,44.25 19.27,37.56 13.15,10.21 4.77,18.59 
			9.71,36.25 0,33.41 0,43.61 11.2,46.2 		"/>
		<path class="st1" d="M43.46,2.12c1.77,1.77,2.71,4.1,2.8,6.99c0.05,1.87-0.37,5.45-1.25,10.76c-1.02,6.11-0.87,10.77,0.45,14.01
			c1.04,3.01,2.74,5.78,5.13,8.29l23.38-23.38l-5.91-5.91l-14.9,14.9c-0.28-1.13-0.38-2.27-0.29-3.43c0.09-1.15,0.37-3.17,0.86-6.04
			l0.78-4.6c0.66-3.86,0.84-6.94,0.53-9.24C54.83,2.89,54.39,1.4,53.74,0h-13.7C41.26,0.37,42.41,1.07,43.46,2.12z"/>
		<path class="st1" d="M23.36,11.02c0.85,2.73,2.67,5.61,5.46,8.62l6.52-6.52c-1.83-1.99-2.98-3.64-3.44-4.94
			c-0.78-2.26-0.16-4.41,1.88-6.45C34.64,0.86,35.55,0.31,36.5,0H24.87C22.67,3.5,22.16,7.17,23.36,11.02z"/>
	</g>
</g>
</svg>
