<?xml version="1.0" encoding="utf-8"?>
<!-- Generator: Adobe Illustrator 23.0.1, SVG Export Plug-In . SVG Version: 6.00 Build 0)  -->
<svg version="1.1" id="Layer_1" xmlns="http://www.w3.org/2000/svg" xmlns:xlink="http://www.w3.org/1999/xlink" x="0px" y="0px"
	 viewBox="0 0 100 100" style="enable-background:new 0 0 100 100;" xml:space="preserve">
<style type="text/css">
	.st0{fill:#1E7CB3;}
	.st1{fill:#FFFFFF;}
</style>
<g>
	<g>
		<rect y="0" class="st0" width="100" height="100"/>
		<g>
			<path class="st1" d="M25.4,78.7c-0.3-0.3-0.8-0.4-1.2-0.3c-0.5,0.1-0.9,0.2-1.2,0.6c-0.3,0.3-0.5,0.6-0.6,0.9s-0.1,0.7-0.1,1
				c0.1,0.3,0.2,0.7,0.4,1c0.2,0.3,0.4,0.6,0.7,0.9c0.3,0.3,0.6,0.5,0.9,0.7s0.6,0.3,1,0.4s0.6,0,1-0.1c0.3-0.1,0.6-0.3,0.9-0.6
				c0.4-0.4,0.6-0.8,0.6-1.3c0-0.5-0.2-1-0.6-1.4l1.3-1.3c0.3,0.4,0.6,0.8,0.8,1.3c0.2,0.4,0.2,0.9,0.2,1.4c0,0.5-0.1,0.9-0.3,1.3
				c-0.2,0.4-0.5,0.8-0.9,1.2c-0.5,0.5-1,0.8-1.5,1s-1.1,0.3-1.6,0.3c-0.5,0-1.1-0.2-1.6-0.4c-0.5-0.2-1-0.6-1.5-1
				c-0.5-0.4-0.8-0.9-1.1-1.5c-0.3-0.5-0.4-1.1-0.4-1.6c0-0.6,0.1-1.1,0.3-1.6c0.2-0.5,0.5-1,1-1.5c0.3-0.3,0.7-0.6,1.1-0.8
				c0.4-0.2,0.8-0.3,1.2-0.4c0.4-0.1,0.9,0,1.3,0.1s0.8,0.3,1.2,0.7L25.4,78.7z"/>
			<path class="st1" d="M28,75.7c-0.3-0.5-0.4-1.1-0.4-1.6c0-0.6,0.1-1.1,0.3-1.6c0.2-0.5,0.5-1,1-1.5c0.5-0.5,1-0.8,1.5-1
				c0.5-0.2,1.1-0.3,1.6-0.3c0.6,0,1.1,0.2,1.6,0.4c0.5,0.3,1,0.6,1.5,1.1c0.4,0.4,0.8,0.9,1,1.4c0.2,0.5,0.4,1.1,0.4,1.6
				c0,0.6-0.1,1.1-0.3,1.6s-0.5,1-1,1.5c-0.5,0.5-1,0.8-1.5,1s-1.1,0.3-1.6,0.3c-0.5,0-1.1-0.2-1.6-0.4c-0.5-0.2-1-0.6-1.5-1
				C28.6,76.7,28.2,76.2,28,75.7 M31.2,76.5c0.3,0.2,0.6,0.3,1,0.4c0.3,0.1,0.7,0,1-0.1c0.3-0.1,0.6-0.3,0.9-0.6
				c0.3-0.3,0.5-0.6,0.6-0.9s0.1-0.7,0.1-1c-0.1-0.3-0.2-0.6-0.4-0.9c-0.2-0.3-0.4-0.6-0.7-0.9c-0.3-0.3-0.6-0.5-0.9-0.7
				c-0.3-0.2-0.6-0.3-1-0.4c-0.3-0.1-0.6,0-1,0.1S30.3,71.7,30,72c-0.3,0.3-0.5,0.6-0.6,0.9s-0.1,0.7-0.1,1c0.1,0.3,0.2,0.7,0.4,1
				c0.2,0.3,0.4,0.6,0.7,0.9C30.6,76.1,30.9,76.3,31.2,76.5"/>
			<polygon class="st1" points="33.5,66.5 34.8,65.2 39.8,70.2 42.8,67.2 43.9,68.3 39.6,72.6 			"/>
			<path class="st1" d="M39.2,60.8l2.6-2.6c0.8-0.8,1.8-1.2,2.8-1.2c1,0,2,0.5,3,1.5c0.5,0.5,0.8,0.9,1.1,1.4s0.4,1,0.5,1.5
				c0,0.5,0,1-0.2,1.5s-0.5,1-1,1.4L45.3,67L39.2,60.8z M45.5,64.5l1.2-1.2c0.2-0.2,0.4-0.4,0.5-0.7s0.2-0.5,0.2-0.8
				s-0.1-0.6-0.2-0.9c-0.2-0.3-0.4-0.6-0.7-1c-0.7-0.7-1.3-1-1.9-1.1c-0.6-0.1-1.2,0.2-1.9,0.8l-1,1L45.5,64.5z"/>
			<path class="st1" d="M55.2,48.9c-0.3-0.3-0.8-0.4-1.2-0.3c-0.5,0-0.9,0.2-1.2,0.6c-0.3,0.3-0.5,0.6-0.6,0.9s-0.1,0.7-0.1,1
				c0.1,0.3,0.2,0.7,0.4,1c0.2,0.3,0.4,0.6,0.7,0.9c0.3,0.3,0.6,0.5,0.9,0.7c0.3,0.2,0.6,0.3,1,0.4s0.7,0,1-0.1
				c0.3-0.1,0.6-0.3,0.9-0.6c0.4-0.4,0.6-0.8,0.6-1.3s-0.2-1-0.6-1.4l1.3-1.3c0.3,0.4,0.6,0.8,0.8,1.3c0.2,0.5,0.2,0.9,0.2,1.4
				c0,0.5-0.1,0.9-0.3,1.3s-0.5,0.8-0.8,1.2c-0.5,0.5-1,0.8-1.5,1s-1.1,0.3-1.6,0.3s-1.1-0.2-1.6-0.4c-0.5-0.2-1-0.6-1.5-1
				c-0.5-0.5-0.8-1-1.1-1.5c-0.3-0.5-0.4-1.1-0.4-1.6c0-0.5,0.1-1.1,0.3-1.6s0.5-1,1-1.5c0.3-0.3,0.7-0.6,1.1-0.8
				c0.4-0.2,0.8-0.3,1.2-0.4s0.8,0,1.3,0.1s0.8,0.3,1.2,0.7L55.2,48.9z"/>
			<polygon class="st1" points="56,44 57.3,42.6 59.7,45 62.2,42.5 59.8,40.2 61.2,38.8 67.3,44.9 65.9,46.3 63.3,43.7 60.8,46.1 
				63.5,48.8 62.1,50.1 			"/>
			<path class="st1" d="M64.6,35.4L66,34l8.4,3.8L73,39.2l-1.8-0.9l-2.3,2.3l0.9,1.8l-1.4,1.4L64.6,35.4z M68.2,39.3l1.6-1.6l-3-1.5
				l0,0L68.2,39.3z"/>
			
				<rect x="72.2" y="28.7" transform="matrix(0.7067 -0.7075 0.7075 0.7067 -1.8935 61.4184)" class="st1" width="1.9" height="8.7"/>
			<polygon class="st1" points="72.5,27.5 73.8,26.1 80.5,27.7 80.5,27.7 76.4,23.6 77.7,22.3 83.8,28.4 82.5,29.8 75.8,28.2 
				75.8,28.2 79.9,32.3 78.6,33.6 			"/>
		</g>
		<g>
			<polygon class="st1" points="17.7,75 26.1,66.6 21.3,47.8 39.7,53 48.5,44.2 19.3,37.6 13.1,10.2 4.8,18.6 9.7,36.2 0,33.4 
				0,43.6 11.2,46.2 			"/>
			<path class="st1" d="M43.5,2.1c1.8,1.8,2.7,4.1,2.8,7c0,1.9-0.4,5.4-1.2,10.8c-1,6.1-0.9,10.8,0.5,14c1,3,2.8,5.8,5.1,8.3
				L74,18.8l-5.9-5.9L53.2,27.8c-0.3-1.1-0.4-2.3-0.3-3.4c0.1-1.1,0.4-3.2,0.9-6l0.8-4.6c0.7-3.9,0.8-6.9,0.5-9.2
				c-0.2-1.6-0.6-3.1-1.3-4.5H40C41.3,0.4,42.4,1.1,43.5,2.1z"/>
			<path class="st1" d="M23.4,11c0.8,2.7,2.7,5.6,5.5,8.6l6.5-6.5c-1.8-2-3-3.6-3.4-4.9c-0.8-2.3-0.2-4.4,1.9-6.5
				c0.8-0.9,1.8-1.4,2.7-1.7H24.9C22.7,3.5,22.2,7.2,23.4,11z"/>
		</g>
	</g>
</g>
</svg>
