<?xml version="1.0" encoding="utf-8"?>
<!-- Generator: Adobe Illustrator 23.0.1, SVG Export Plug-In . SVG Version: 6.00 Build 0)  -->
<svg version="1.1" id="Layer_1" xmlns="http://www.w3.org/2000/svg" xmlns:xlink="http://www.w3.org/1999/xlink" x="0px" y="0px"
	 viewBox="0 0 100 100" style="enable-background:new 0 0 100 100;" xml:space="preserve">
<style type="text/css">
	.st0{fill:#00888B;}
	.st1{fill:#FFFFFF;}
</style>
<g>
	<rect y="0" class="st0" width="100" height="100"/>
	<polygon class="st1" points="20.5,79.5 22.58,77.41 28.79,80.47 28.81,80.46 25.67,74.31 27.75,72.22 34.49,78.98 33.11,80.37 
		28.33,75.58 28.31,75.6 31.44,82.05 30.29,83.19 23.91,80.11 23.89,80.12 28.62,84.87 27.24,86.26 	"/>
	<g>
		<path class="st1" d="M34.77,69.21c-0.28-0.59-0.44-1.19-0.48-1.8c-0.04-0.61,0.06-1.22,0.29-1.81c0.23-0.59,0.6-1.14,1.11-1.66
			c0.51-0.51,1.06-0.88,1.65-1.12c0.59-0.23,1.19-0.33,1.81-0.3c0.61,0.04,1.21,0.2,1.79,0.48c0.58,0.29,1.12,0.68,1.62,1.18
			c0.49,0.49,0.87,1.02,1.14,1.59c0.28,0.58,0.43,1.17,0.46,1.78c0.03,0.61-0.07,1.22-0.3,1.81c-0.23,0.59-0.6,1.14-1.11,1.66
			c-0.51,0.51-1.06,0.88-1.65,1.12c-0.59,0.23-1.19,0.33-1.79,0.3c-0.6-0.03-1.2-0.19-1.77-0.46c-0.58-0.28-1.11-0.66-1.6-1.14
			C35.44,70.33,35.05,69.79,34.77,69.21 M38.37,70.09c0.34,0.2,0.69,0.33,1.05,0.4c0.36,0.07,0.72,0.04,1.07-0.07
			c0.36-0.11,0.69-0.33,1.02-0.65c0.32-0.32,0.54-0.66,0.65-1.03c0.11-0.36,0.13-0.72,0.07-1.08c-0.07-0.36-0.2-0.7-0.4-1.04
			c-0.2-0.34-0.45-0.65-0.74-0.95c-0.31-0.31-0.64-0.57-0.98-0.78c-0.35-0.21-0.7-0.35-1.06-0.42c-0.36-0.07-0.72-0.05-1.08,0.06
			c-0.36,0.11-0.7,0.33-1.02,0.65c-0.32,0.32-0.54,0.66-0.65,1.02c-0.11,0.36-0.13,0.73-0.06,1.08c0.07,0.36,0.21,0.71,0.42,1.06
			c0.21,0.35,0.47,0.68,0.77,0.98C37.72,69.64,38.03,69.89,38.37,70.09"/>
		<polygon class="st1" points="53.82,59.6 52.15,61.28 43.22,56.71 44.75,55.18 50.99,58.43 51.01,58.41 47.79,52.13 49.32,50.6 		
			"/>
		<polygon class="st1" points="53.67,46.24 58.71,41.19 59.95,42.44 56.4,46 57.84,47.45 61.11,44.18 62.26,45.33 58.99,48.6 
			60.64,50.26 64.28,46.62 65.52,47.87 60.41,53 		"/>
		<path class="st1" d="M63.56,36.32l3.63-3.64c0.29-0.3,0.61-0.52,0.95-0.67c0.34-0.15,0.68-0.23,1.03-0.23
			c0.35,0,0.68,0.07,0.99,0.2c0.31,0.13,0.6,0.33,0.86,0.59c0.41,0.41,0.67,0.85,0.78,1.31c0.11,0.46,0.06,0.95-0.16,1.46l0.02,0.02
			c0.42-0.25,0.85-0.3,1.27-0.17c0.43,0.13,0.86,0.39,1.28,0.77c0.03,0.03,0.1,0.1,0.24,0.22c0.34,0.3,0.64,0.55,0.9,0.74
			c0.26,0.19,0.51,0.31,0.74,0.35l-1.48,1.49c-0.18-0.07-0.37-0.17-0.55-0.32c-0.19-0.14-0.42-0.33-0.69-0.57
			c-0.26-0.22-0.46-0.38-0.6-0.49c-0.41-0.32-0.78-0.47-1.11-0.46c-0.32,0.01-0.67,0.2-1.03,0.56l-1.48,1.49l2.63,2.64l-1.48,1.49
			L63.56,36.32z M68.09,37.89l1.62-1.63c0.34-0.34,0.52-0.67,0.53-1c0.02-0.33-0.14-0.66-0.48-0.99c-0.32-0.32-0.64-0.47-0.96-0.45
			c-0.32,0.02-0.65,0.2-0.99,0.54l-1.62,1.63L68.09,37.89z"/>
		<path class="st1" d="M79.66,29.21c0.42,0.42,0.87,0.6,1.36,0.52c0.49-0.08,0.94-0.33,1.38-0.77c0.14-0.14,0.28-0.3,0.4-0.48
			c0.12-0.17,0.22-0.36,0.29-0.56c0.07-0.2,0.09-0.39,0.07-0.59c-0.03-0.19-0.13-0.37-0.29-0.53c-0.15-0.15-0.32-0.24-0.5-0.26
			c-0.19-0.02-0.38,0-0.6,0.07c-0.21,0.07-0.42,0.16-0.64,0.27c-0.22,0.11-0.49,0.28-0.83,0.49c-0.23,0.13-0.42,0.24-0.55,0.32
			c-0.38,0.21-0.72,0.39-1.04,0.53c-0.32,0.14-0.64,0.23-0.96,0.27c-0.33,0.04-0.65,0.01-0.98-0.09c-0.33-0.11-0.64-0.31-0.94-0.62
			c-0.33-0.33-0.56-0.7-0.68-1.1c-0.12-0.4-0.14-0.81-0.07-1.22c0.07-0.41,0.21-0.81,0.43-1.2c0.21-0.39,0.48-0.74,0.79-1.05
			c0.36-0.37,0.75-0.67,1.16-0.91c0.41-0.24,0.82-0.4,1.25-0.47c0.42-0.07,0.85-0.04,1.27,0.09s0.82,0.39,1.2,0.77l-1.44,1.44
			c-0.4-0.36-0.79-0.5-1.18-0.41c-0.39,0.09-0.78,0.33-1.18,0.72c-0.28,0.28-0.45,0.58-0.53,0.91c-0.07,0.33,0.02,0.62,0.27,0.88
			c0.13,0.13,0.26,0.21,0.39,0.24c0.13,0.03,0.29,0.01,0.47-0.06c0.18-0.07,0.41-0.17,0.68-0.32c0.27-0.14,0.7-0.39,1.29-0.75
			c0.02-0.02,0.08-0.06,0.19-0.11c0.03-0.01,0.05-0.03,0.07-0.05c0.28-0.17,0.55-0.32,0.81-0.44c0.26-0.12,0.56-0.21,0.91-0.28
			c0.35-0.07,0.71-0.05,1.09,0.06c0.38,0.1,0.74,0.33,1.08,0.67c0.64,0.64,0.92,1.41,0.83,2.3c-0.09,0.89-0.58,1.78-1.47,2.67
			c-0.38,0.39-0.79,0.7-1.23,0.95c-0.44,0.25-0.89,0.41-1.35,0.48c-0.47,0.07-0.93,0.03-1.39-0.12c-0.46-0.15-0.89-0.43-1.29-0.83
			L79.66,29.21z"/>
	</g>
	<g>
		<polygon class="st1" points="17.72,75.11 26.15,66.66 21.28,47.81 39.7,53.06 48.51,44.23 19.27,37.53 13.15,10.1 4.77,18.51 
			9.71,36.21 0,33.37 0,43.59 11.2,46.19 		"/>
		<path class="st1" d="M43.46,2c1.77,1.78,2.71,4.11,2.8,7.01c0.05,1.87-0.37,5.47-1.25,10.79c-1.02,6.12-0.87,10.8,0.45,14.04
			c1.04,3.02,2.74,5.79,5.13,8.31l23.38-23.44l-5.91-5.93l-14.9,14.94c-0.28-1.13-0.38-2.28-0.29-3.44
			c0.09-1.16,0.37-3.18,0.86-6.06l0.78-4.61c0.66-3.88,0.84-6.96,0.53-9.26c-0.21-1.6-0.65-3.09-1.29-4.49h-13.7
			C41.26,0.23,42.41,0.94,43.46,2z"/>
		<path class="st1" d="M23.36,10.92c0.85,2.74,2.67,5.62,5.46,8.64l6.52-6.54c-1.83-2-2.98-3.65-3.44-4.96
			c-0.78-2.26-0.16-4.42,1.88-6.47c0.86-0.86,1.77-1.42,2.72-1.73H24.87C22.67,3.38,22.16,7.06,23.36,10.92z"/>
	</g>
</g>
</svg>
