<?xml version="1.0" encoding="utf-8"?>
<!-- Generator: Adobe Illustrator 23.0.1, SVG Export Plug-In . SVG Version: 6.00 Build 0)  -->
<svg version="1.1" id="Layer_1" xmlns="http://www.w3.org/2000/svg" xmlns:xlink="http://www.w3.org/1999/xlink" x="0px" y="0px"
	 viewBox="0 0 100 100" style="enable-background:new 0 0 100 100;" xml:space="preserve">
<style type="text/css">
	.st0{fill:#FFFFFF;}
	.st1{fill:#272663;}
	.st2{fill:url(#SVGID_1_);}
	.st3{fill:url(#SVGID_2_);}
	.st4{fill:url(#SVGID_3_);}
</style>
<g>
	<rect class="st0" width="100" height="100"/>
	<g>
		<g>
			<path class="st1" d="M7.6,77.02c-0.03-0.15-0.08-0.27-0.16-0.36c-0.07-0.1-0.15-0.17-0.25-0.22c-0.09-0.05-0.19-0.09-0.28-0.11
				c-0.1-0.02-0.19-0.03-0.29-0.03c-0.33,0-0.6,0.12-0.82,0.36c-0.22,0.24-0.32,0.58-0.32,1.02c0,0.21,0.02,0.41,0.06,0.58
				c0.04,0.17,0.11,0.33,0.2,0.46c0.09,0.13,0.21,0.23,0.36,0.3c0.15,0.07,0.33,0.11,0.54,0.11c0.09,0,0.18-0.01,0.28-0.04
				c0.1-0.03,0.19-0.07,0.29-0.14c0.1-0.07,0.18-0.17,0.26-0.3c0.08-0.13,0.13-0.29,0.17-0.48h0.46c-0.05,0.3-0.13,0.55-0.26,0.74
				c-0.13,0.19-0.28,0.33-0.44,0.42c-0.16,0.09-0.31,0.15-0.45,0.17c-0.14,0.03-0.26,0.04-0.37,0.04c-0.21,0-0.4-0.04-0.59-0.11
				c-0.19-0.07-0.35-0.18-0.5-0.33c-0.15-0.15-0.26-0.34-0.35-0.58C5.04,78.3,5,78.02,5,77.7c0-0.27,0.04-0.51,0.11-0.74
				c0.07-0.22,0.18-0.41,0.32-0.57c0.14-0.16,0.31-0.28,0.51-0.37c0.2-0.09,0.43-0.13,0.68-0.13c0.22,0,0.41,0.03,0.58,0.09
				c0.17,0.06,0.32,0.15,0.44,0.25c0.12,0.11,0.21,0.23,0.28,0.37c0.07,0.14,0.11,0.28,0.13,0.43H7.6z"/>
			<path class="st1" d="M10.4,79.46H9.93v-3.48h1.61c0.15,0,0.3,0.02,0.43,0.05c0.14,0.03,0.26,0.08,0.36,0.15
				c0.11,0.07,0.19,0.17,0.25,0.29c0.06,0.12,0.09,0.27,0.09,0.45c0,0.12-0.01,0.23-0.04,0.32c-0.03,0.09-0.06,0.17-0.11,0.23
				c-0.05,0.06-0.1,0.12-0.15,0.16c-0.05,0.04-0.11,0.08-0.18,0.12c0.06,0.03,0.12,0.05,0.16,0.08c0.04,0.02,0.08,0.06,0.12,0.11
				c0.04,0.05,0.07,0.11,0.09,0.18c0.02,0.08,0.04,0.17,0.04,0.29l0.03,0.63c0,0.1,0.01,0.17,0.04,0.22
				c0.02,0.05,0.07,0.09,0.14,0.13v0.08h-0.58c-0.02-0.05-0.03-0.11-0.04-0.2c-0.01-0.08-0.02-0.16-0.02-0.25
				c0-0.08-0.01-0.16-0.01-0.25c0-0.08,0-0.14,0-0.18c0-0.08-0.01-0.16-0.02-0.23c-0.01-0.07-0.04-0.13-0.08-0.19
				c-0.04-0.06-0.11-0.11-0.19-0.14c-0.08-0.04-0.19-0.05-0.33-0.05H10.4V79.46z M10.4,77.56h1.09c0.1,0,0.19-0.01,0.27-0.02
				c0.08-0.02,0.15-0.05,0.22-0.09c0.07-0.04,0.12-0.1,0.16-0.18c0.04-0.08,0.06-0.18,0.06-0.31c0-0.13-0.02-0.23-0.06-0.31
				c-0.04-0.08-0.09-0.14-0.16-0.18c-0.06-0.04-0.13-0.06-0.2-0.08c-0.07-0.01-0.14-0.02-0.21-0.02H10.4V77.56z"/>
			<path class="st1" d="M17.21,79.46h-2.57v-3.48h2.54v0.42h-2.07v1.07h1.91v0.42h-1.91v1.16h2.1V79.46z"/>
			<path class="st1" d="M19.58,78.44l-0.36,1.01h-0.49l1.31-3.48h0.53l1.26,3.48h-0.51l-0.34-1.01H19.58z M20.81,78.03l-0.51-1.53
				h-0.01l-0.56,1.53H20.81z"/>
			<path class="st1" d="M22.6,75.97h2.83v0.42h-1.18v3.07h-0.47v-3.07H22.6V75.97z"/>
			<path class="st1" d="M27.62,79.46h-0.47v-3.48h0.47V79.46z"/>
			<path class="st1" d="M31.88,75.97h0.53l-1.27,3.48h-0.5l-1.27-3.48h0.52l0.99,2.97h0.01L31.88,75.97z"/>
			<path class="st1" d="M36.71,79.46h-2.57v-3.48h2.54v0.42h-2.07v1.07h1.91v0.42h-1.91v1.16h2.1V79.46z"/>
			<path class="st1" d="M41.12,75.97h1.41c0.22,0,0.43,0.04,0.61,0.12c0.18,0.08,0.34,0.2,0.46,0.35c0.13,0.15,0.22,0.33,0.29,0.54
				c0.07,0.21,0.1,0.44,0.1,0.69c0,0.21-0.03,0.42-0.08,0.63c-0.05,0.21-0.13,0.4-0.25,0.58c-0.11,0.18-0.27,0.32-0.46,0.42
				c-0.19,0.11-0.43,0.16-0.7,0.16h-1.39V75.97z M41.59,79.06h0.91c0.31,0,0.56-0.12,0.74-0.36c0.18-0.24,0.27-0.57,0.27-1
				c0-0.43-0.09-0.76-0.28-0.98c-0.18-0.22-0.44-0.34-0.77-0.34h-0.88V79.06z"/>
			<path class="st1" d="M46.35,79.46h-0.47v-3.48h0.47V79.46z"/>
			<path class="st1" d="M49.89,77.59h1.53v1.86h-0.31L51,79.01c-0.12,0.16-0.28,0.3-0.49,0.4c-0.21,0.1-0.43,0.15-0.66,0.15
				c-0.27,0-0.48-0.04-0.65-0.11c-0.16-0.07-0.31-0.17-0.42-0.28c-0.13-0.12-0.23-0.25-0.3-0.38c-0.08-0.13-0.13-0.26-0.16-0.39
				c-0.03-0.13-0.06-0.24-0.07-0.35c-0.01-0.11-0.01-0.23-0.01-0.35c0-0.22,0.03-0.44,0.1-0.65c0.07-0.21,0.17-0.41,0.31-0.58
				c0.14-0.17,0.31-0.31,0.52-0.42c0.21-0.1,0.45-0.16,0.72-0.16c0.16,0,0.33,0.02,0.49,0.07c0.16,0.05,0.32,0.12,0.46,0.22
				c0.14,0.1,0.26,0.22,0.35,0.36c0.09,0.15,0.15,0.31,0.17,0.5H50.9c-0.04-0.15-0.09-0.27-0.16-0.36c-0.07-0.1-0.16-0.17-0.26-0.23
				c-0.1-0.05-0.2-0.09-0.3-0.11c-0.11-0.02-0.21-0.03-0.32-0.03c-0.16,0-0.31,0.03-0.44,0.09c-0.14,0.06-0.26,0.15-0.36,0.27
				c-0.1,0.12-0.19,0.27-0.24,0.45c-0.06,0.18-0.09,0.38-0.09,0.6c0,0.19,0.02,0.37,0.06,0.54c0.04,0.17,0.1,0.32,0.18,0.46
				c0.09,0.14,0.21,0.24,0.36,0.32c0.15,0.08,0.34,0.12,0.56,0.12c0.12,0,0.24-0.01,0.36-0.04c0.12-0.03,0.24-0.09,0.35-0.18
				c0.14-0.11,0.24-0.24,0.3-0.4c0.06-0.15,0.08-0.33,0.08-0.53h-1.09V77.59z"/>
			<path class="st1" d="M53.9,79.46h-0.47v-3.48h0.47V79.46z"/>
			<path class="st1" d="M55.62,75.97h2.83v0.42h-1.18v3.07H56.8v-3.07h-1.18V75.97z"/>
			<path class="st1" d="M60.06,78.44l-0.36,1.01h-0.49l1.31-3.48h0.53l1.26,3.48H61.8l-0.34-1.01H60.06z M61.29,78.03l-0.51-1.53
				h-0.01l-0.56,1.53H61.29z"/>
			<path class="st1" d="M64.43,79.04h1.77v0.42h-2.24v-3.48h0.47V79.04z"/>
			<path class="st1" d="M70.98,78.44l-0.36,1.01h-0.49l1.31-3.48h0.53l1.26,3.48h-0.51l-0.34-1.01H70.98z M72.21,78.03l-0.51-1.53
				h-0.01l-0.56,1.53H72.21z"/>
			<path class="st1" d="M76.25,77.59h1.53v1.86h-0.31l-0.11-0.45c-0.12,0.16-0.28,0.3-0.49,0.4c-0.21,0.1-0.43,0.15-0.66,0.15
				c-0.27,0-0.48-0.04-0.65-0.11c-0.16-0.07-0.31-0.17-0.42-0.28c-0.13-0.12-0.23-0.25-0.3-0.38c-0.08-0.13-0.13-0.26-0.16-0.39
				c-0.03-0.13-0.06-0.24-0.07-0.35c-0.01-0.11-0.01-0.23-0.01-0.35c0-0.22,0.03-0.44,0.1-0.65c0.07-0.21,0.17-0.41,0.31-0.58
				c0.14-0.17,0.31-0.31,0.52-0.42c0.21-0.1,0.45-0.16,0.72-0.16c0.16,0,0.33,0.02,0.49,0.07c0.16,0.05,0.32,0.12,0.46,0.22
				c0.14,0.1,0.26,0.22,0.35,0.36c0.09,0.15,0.15,0.31,0.17,0.5h-0.46c-0.04-0.15-0.09-0.27-0.17-0.36
				c-0.07-0.1-0.16-0.17-0.26-0.23c-0.1-0.05-0.2-0.09-0.3-0.11c-0.1-0.02-0.21-0.03-0.32-0.03c-0.16,0-0.31,0.03-0.44,0.09
				c-0.14,0.06-0.26,0.15-0.36,0.27c-0.1,0.12-0.19,0.27-0.24,0.45c-0.06,0.18-0.09,0.38-0.09,0.6c0,0.19,0.02,0.37,0.06,0.54
				c0.04,0.17,0.1,0.32,0.18,0.46c0.09,0.14,0.21,0.24,0.36,0.32c0.15,0.08,0.34,0.12,0.56,0.12c0.12,0,0.24-0.01,0.36-0.04
				c0.12-0.03,0.24-0.09,0.35-0.18c0.14-0.11,0.24-0.24,0.3-0.4c0.06-0.15,0.08-0.33,0.08-0.53h-1.09V77.59z"/>
			<path class="st1" d="M82.34,79.46h-2.57v-3.48h2.54v0.42h-2.07v1.07h1.91v0.42h-1.91v1.16h2.1V79.46z"/>
			<path class="st1" d="M86.48,75.97h0.46v3.48h-0.53l-1.77-2.81h-0.01v2.81h-0.46v-3.48h0.56l1.74,2.81h0.01V75.97z"/>
			<path class="st1" d="M91.33,77.02c-0.03-0.15-0.08-0.27-0.16-0.36c-0.07-0.1-0.15-0.17-0.25-0.22c-0.09-0.05-0.19-0.09-0.28-0.11
				c-0.1-0.02-0.19-0.03-0.29-0.03c-0.33,0-0.6,0.12-0.82,0.36c-0.22,0.24-0.32,0.58-0.32,1.02c0,0.21,0.02,0.41,0.06,0.58
				c0.04,0.17,0.11,0.33,0.2,0.46c0.09,0.13,0.21,0.23,0.36,0.3c0.15,0.07,0.33,0.11,0.54,0.11c0.09,0,0.18-0.01,0.28-0.04
				c0.1-0.03,0.19-0.07,0.29-0.14c0.1-0.07,0.18-0.17,0.26-0.3c0.08-0.13,0.13-0.29,0.17-0.48h0.46c-0.05,0.3-0.13,0.55-0.26,0.74
				c-0.13,0.19-0.28,0.33-0.44,0.42c-0.16,0.09-0.31,0.15-0.45,0.17c-0.14,0.03-0.26,0.04-0.37,0.04c-0.21,0-0.4-0.04-0.59-0.11
				c-0.19-0.07-0.35-0.18-0.5-0.33c-0.15-0.15-0.26-0.34-0.35-0.58c-0.09-0.24-0.13-0.52-0.13-0.84c0-0.27,0.04-0.51,0.11-0.74
				c0.07-0.22,0.18-0.41,0.32-0.57c0.14-0.16,0.31-0.28,0.51-0.37c0.2-0.09,0.43-0.13,0.68-0.13c0.22,0,0.41,0.03,0.58,0.09
				c0.17,0.06,0.32,0.15,0.44,0.25c0.12,0.11,0.21,0.23,0.28,0.37c0.07,0.14,0.11,0.28,0.13,0.43H91.33z"/>
			<path class="st1" d="M95.08,79.46h-0.47v-1.4l-1.31-2.08h0.55l1,1.67l1-1.67h0.55l-1.31,2.08V79.46z"/>
		</g>
		<g>
			<g>
				<rect x="81.11" y="60.55" class="st1" width="1.91" height="1.78"/>
				<g>
					<linearGradient id="SVGID_1_" gradientUnits="userSpaceOnUse" x1="49.6924" y1="65.5717" x2="104.5866" y2="65.5717">
						<stop  offset="0" style="stop-color:#0293C9"/>
						<stop  offset="0.1135" style="stop-color:#323780"/>
						<stop  offset="0.2523" style="stop-color:#D41680"/>
						<stop  offset="0.6" style="stop-color:#D62F30"/>
						<stop  offset="0.8" style="stop-color:#E8D426"/>
						<stop  offset="1" style="stop-color:#008A53"/>
					</linearGradient>
					<polygon class="st2" points="49.72,70.5 55.32,70.5 55.31,60.64 					"/>
					<path class="st1" d="M16.1,66.86h2.18c0,0.31-0.06,0.59-0.19,0.87c-0.12,0.27-0.29,0.51-0.51,0.72
						c-0.22,0.21-0.47,0.37-0.76,0.49c-0.29,0.12-0.6,0.18-0.94,0.18c-0.47,0-0.88-0.1-1.23-0.31c-0.35-0.21-0.63-0.48-0.85-0.81
						c-0.22-0.33-0.38-0.7-0.49-1.11c-0.1-0.41-0.16-0.82-0.16-1.22c0-1.18,0.25-2.07,0.75-2.69c0.5-0.62,1.16-0.93,1.99-0.93
						c0.28,0,0.55,0.04,0.81,0.13c0.26,0.09,0.49,0.21,0.69,0.36c0.2,0.15,0.36,0.32,0.49,0.52c0.13,0.2,0.21,0.42,0.24,0.64h2.07
						c-0.04-0.49-0.18-0.95-0.41-1.36c-0.23-0.41-0.54-0.76-0.92-1.06c-0.38-0.3-0.82-0.53-1.33-0.7c-0.51-0.17-1.05-0.25-1.64-0.25
						c-0.8,0-1.5,0.14-2.1,0.41c-0.6,0.27-1.11,0.64-1.51,1.12c-0.4,0.47-0.71,1.03-0.92,1.67c-0.21,0.64-0.31,1.32-0.31,2.04
						c0,0.68,0.1,1.34,0.31,1.98c0.21,0.64,0.51,1.2,0.9,1.69c0.39,0.49,0.86,0.88,1.41,1.17c0.55,0.29,1.16,0.44,1.84,0.44
						c0.68,0,1.28-0.12,1.81-0.35c0.52-0.23,0.9-0.56,1.14-0.97l0.04,0.98h1.7v-5.29h-4.1V66.86z"/>
					<rect x="21.12" y="60.55" class="st1" width="1.92" height="9.95"/>
					<path class="st1" d="M30.23,64.07c-0.32-0.33-0.71-0.59-1.16-0.77c-0.45-0.18-0.97-0.27-1.54-0.27c-0.58,0-1.1,0.09-1.56,0.27
						c-0.46,0.18-0.85,0.44-1.18,0.78c-0.33,0.34-0.58,0.74-0.75,1.21c-0.17,0.47-0.26,1-0.26,1.57c0,0.56,0.08,1.08,0.25,1.55
						c0.17,0.47,0.41,0.88,0.73,1.21c0.32,0.34,0.71,0.6,1.18,0.78c0.46,0.19,0.99,0.28,1.58,0.28c0.56,0,1.07-0.09,1.53-0.27
						c0.46-0.18,0.85-0.44,1.17-0.78c0.32-0.34,0.57-0.74,0.74-1.21c0.17-0.47,0.26-0.99,0.26-1.58c0-0.58-0.09-1.11-0.26-1.58
						C30.8,64.8,30.56,64.4,30.23,64.07z M27.53,69.08c-1.17,0-1.76-0.74-1.76-2.22c0-1.47,0.59-2.21,1.76-2.21
						c1.17,0,1.76,0.74,1.76,2.21C29.29,68.34,28.71,69.08,27.53,69.08z"/>
					<path class="st1" d="M38.27,64.08c-0.26-0.34-0.57-0.59-0.94-0.78c-0.37-0.18-0.79-0.27-1.27-0.27c-0.9,0-1.62,0.38-2.16,1.14
						v-3.61H32v9.95h1.85l0.01-0.89c0.44,0.72,1.12,1.08,2.03,1.08c0.45,0,0.88-0.09,1.27-0.27c0.39-0.18,0.72-0.43,1-0.77
						c0.28-0.34,0.49-0.75,0.65-1.23c0.16-0.48,0.24-1.03,0.24-1.64c0-0.55-0.07-1.06-0.2-1.52C38.72,64.81,38.52,64.41,38.27,64.08
						z M36.64,68.51c-0.31,0.41-0.7,0.61-1.18,0.61c-0.46,0-0.85-0.19-1.16-0.58c-0.31-0.39-0.47-0.89-0.47-1.51
						c0-1.58,0.54-2.37,1.61-2.37c1.11,0,1.66,0.75,1.66,2.25C37.1,67.57,36.94,68.1,36.64,68.51z"/>
					<path class="st1" d="M45.5,63.77c-0.24-0.24-0.56-0.43-0.96-0.56c-0.4-0.13-0.89-0.19-1.46-0.19c-0.58,0-1.08,0.06-1.48,0.18
						c-0.41,0.12-0.73,0.3-0.98,0.53c-0.25,0.23-0.43,0.5-0.55,0.81c-0.11,0.32-0.18,0.66-0.18,1.04h1.79
						c0.05-0.33,0.17-0.59,0.36-0.78c0.19-0.2,0.51-0.3,0.95-0.3c0.38,0,0.67,0.07,0.9,0.2c0.22,0.13,0.33,0.32,0.33,0.56
						c0,0.26-0.08,0.44-0.25,0.56c-0.17,0.11-0.49,0.2-0.98,0.27c-0.48,0.07-0.93,0.15-1.34,0.23c-0.41,0.08-0.76,0.21-1.06,0.39
						c-0.3,0.18-0.53,0.42-0.7,0.73c-0.17,0.31-0.25,0.73-0.25,1.25c0,0.59,0.19,1.07,0.58,1.44c0.39,0.37,1,0.56,1.84,0.56
						c0.49,0,0.93-0.08,1.3-0.23c0.37-0.15,0.68-0.36,0.9-0.61c0.02,0.25,0.06,0.46,0.12,0.65h1.79V65.9c0-0.45-0.05-0.86-0.16-1.22
						C45.92,64.32,45.74,64.02,45.5,63.77z M44.25,67.73c0,0.22-0.05,0.42-0.14,0.61c-0.09,0.19-0.22,0.36-0.37,0.5
						c-0.15,0.14-0.34,0.26-0.55,0.34c-0.21,0.08-0.44,0.13-0.69,0.13c-0.62,0-0.93-0.27-0.93-0.81c0-0.32,0.1-0.56,0.31-0.73
						c0.21-0.17,0.59-0.31,1.14-0.41c0.36-0.07,0.63-0.13,0.81-0.19c0.19-0.06,0.33-0.14,0.43-0.24L44.25,67.73z"/>
					<rect x="47.11" y="60.55" class="st1" width="1.92" height="9.95"/>
					<polygon class="st1" points="60.11,67.88 58.34,60.67 55.32,60.67 55.32,70.5 57.23,70.5 57.23,63.8 59.05,70.5 61.09,70.5 
						62.93,63.77 62.93,70.5 64.85,70.5 64.85,60.67 61.89,60.67 					"/>
					<path class="st1" d="M71.64,64.11c-0.58-0.72-1.43-1.08-2.55-1.08c-0.56,0-1.06,0.09-1.5,0.26c-0.43,0.17-0.8,0.42-1.1,0.75
						c-0.3,0.33-0.53,0.71-0.69,1.17c-0.16,0.45-0.24,0.96-0.24,1.52c0,2.65,1.22,3.97,3.64,3.97c0.78,0,1.45-0.2,2.01-0.61
						c0.56-0.4,0.96-0.98,1.18-1.73h-1.98c-0.07,0.26-0.22,0.46-0.47,0.6c-0.24,0.14-0.52,0.21-0.84,0.21
						c-0.47,0-0.86-0.16-1.15-0.49c-0.29-0.33-0.45-0.76-0.48-1.32h5.02C72.51,65.91,72.22,64.83,71.64,64.11z M67.55,66.15
						c0.04-0.5,0.2-0.9,0.48-1.18c0.28-0.28,0.61-0.42,1-0.42c0.19,0,0.37,0.03,0.55,0.1c0.18,0.06,0.34,0.16,0.47,0.3
						c0.14,0.13,0.25,0.3,0.33,0.5c0.08,0.2,0.13,0.44,0.14,0.7H67.55z"/>
					<path class="st1" d="M78.25,64.17c-0.54-0.76-1.26-1.14-2.16-1.14c-0.47,0-0.9,0.09-1.27,0.27c-0.37,0.18-0.68,0.44-0.94,0.78
						c-0.26,0.34-0.45,0.73-0.59,1.19c-0.13,0.46-0.2,0.96-0.2,1.52c0,0.61,0.08,1.16,0.24,1.64c0.16,0.48,0.37,0.89,0.65,1.23
						c0.28,0.34,0.61,0.59,0.99,0.77c0.38,0.18,0.81,0.27,1.27,0.27c0.91,0,1.58-0.36,2.03-1.08l0.02,0.89h1.85v-9.95h-1.9V64.17z
						 M77.86,68.55c-0.31,0.39-0.7,0.58-1.16,0.58c-0.48,0-0.88-0.2-1.18-0.61c-0.31-0.41-0.46-0.94-0.46-1.59
						c0-1.5,0.55-2.25,1.66-2.25c1.08,0,1.61,0.79,1.61,2.37C78.33,67.66,78.17,68.16,77.86,68.55z"/>
					<rect x="81.11" y="63.22" class="st1" width="1.93" height="7.29"/>
					<path class="st1" d="M90.18,64.68c-0.11-0.36-0.28-0.66-0.53-0.9c-0.24-0.24-0.56-0.43-0.96-0.56
						c-0.4-0.13-0.89-0.19-1.46-0.19c-0.58,0-1.08,0.06-1.48,0.18c-0.4,0.12-0.73,0.3-0.98,0.53c-0.25,0.23-0.43,0.5-0.55,0.81
						c-0.11,0.32-0.18,0.66-0.18,1.04h1.79C85.88,65.26,86,65,86.19,64.8c0.19-0.2,0.51-0.3,0.95-0.3c0.38,0,0.67,0.07,0.9,0.2
						c0.22,0.13,0.33,0.32,0.33,0.56c0,0.26-0.08,0.44-0.25,0.56c-0.17,0.11-0.49,0.2-0.98,0.27c-0.48,0.07-0.93,0.15-1.34,0.23
						c-0.41,0.08-0.76,0.21-1.06,0.39c-0.3,0.18-0.53,0.42-0.7,0.73c-0.17,0.31-0.25,0.73-0.25,1.25c0,0.59,0.19,1.07,0.59,1.44
						c0.39,0.37,1,0.56,1.84,0.56c0.49,0,0.93-0.08,1.3-0.23c0.37-0.15,0.68-0.36,0.9-0.61c0.02,0.25,0.06,0.46,0.12,0.65h1.79V65.9
						C90.35,65.44,90.29,65.04,90.18,64.68z M88.41,67.73c0,0.22-0.05,0.42-0.14,0.61c-0.09,0.19-0.22,0.36-0.37,0.5
						c-0.15,0.14-0.34,0.26-0.55,0.34c-0.21,0.08-0.44,0.13-0.69,0.13c-0.62,0-0.93-0.27-0.93-0.81c0-0.32,0.1-0.56,0.31-0.73
						c0.21-0.17,0.59-0.31,1.14-0.41c0.36-0.07,0.63-0.13,0.81-0.19c0.19-0.06,0.33-0.14,0.43-0.24L88.41,67.73z"/>
				</g>
			</g>
			<g>
				<linearGradient id="SVGID_2_" gradientUnits="userSpaceOnUse" x1="50.6788" y1="36.6227" x2="50.6788" y2="3.4154">
					<stop  offset="0" style="stop-color:#ABCEBD"/>
					<stop  offset="0.5873" style="stop-color:#0293C9"/>
					<stop  offset="1" style="stop-color:#1D6BA1"/>
				</linearGradient>
				<path class="st3" d="M68.44,31.3L68.44,31.3c1.69,0.29,3.37,0.67,4.87,1.1c0.58,0.15,1.08,0.31,1.48,0.44
					c0.21,0.07,0.39,0.13,0.54,0.17l0.15,0.05c0.2-0.87,0.31-1.81,0.31-2.84c0-7.43-5.57-11.56-12.6-11.56
					c-1.86,0-5.53,0.34-8.31,2.88l0.01-0.01l1.69-2.66h-4.7H47.8l-6.65,11.78l-6.5-11.78h-9.09l10.95,17.56l0.17-0.1
					c0.07-0.03,0.13-0.06,0.2-0.1c0.32-0.16,0.65-0.31,0.99-0.46c0.16-0.07,0.32-0.14,0.48-0.21l0.74-0.33l2.24-0.9
					c0.34-0.13,0.68-0.25,1.02-0.37l0.5-0.18c1.1-0.4,2.25-0.76,3.51-1.13c0.39-0.11,0.79-0.21,1.18-0.31l0.57-0.15l3.92-6.17
					c-0.5,1.49-0.8,3.27-0.81,5.41c1.19-0.21,2.26-0.36,3.25-0.47c1.21-0.15,2.44-0.25,3.77-0.31c0.01,0,0.02,0,0.03,0
					c0.12-2.62,0.74-5.91,5.23-5.91c3.51,0,5.06,2.79,5.06,5.21C68.56,30.44,68.51,30.88,68.44,31.3z"/>
				<linearGradient id="SVGID_3_" gradientUnits="userSpaceOnUse" x1="50.3752" y1="61.2283" x2="50.3752" y2="33.3958">
					<stop  offset="0.1398" style="stop-color:#67B6C2"/>
					<stop  offset="0.3234" style="stop-color:#0293C9"/>
					<stop  offset="0.7816" style="stop-color:#323780"/>
					<stop  offset="1" style="stop-color:#802780"/>
				</linearGradient>
				<path class="st4" d="M59.94,48.9c0.83-1.7,3.36-3.36,8.21-6.76c2.84-1.93,6-4.37,7.17-8.46l-0.14-0.03
					c-0.16-0.02-0.35-0.06-0.56-0.1c-0.4-0.07-0.9-0.17-1.49-0.24c-1.1-0.16-2.86-0.37-5.05-0.44l-0.12,0
					c-1.1,2.41-3.8,4.35-8.64,7.87c-3.52,2.56-5.54,4.86-6.72,7.01l-6.53-10.41c-0.54,0.25-1.07,0.51-1.61,0.78
					c-0.45,0.23-0.9,0.45-1.35,0.7c-0.44,0.25-0.88,0.5-1.32,0.74l-0.66,0.37l-0.64,0.39c-0.42,0.26-0.85,0.51-1.26,0.79
					c-1.67,1.06-3.24,2.23-4.7,3.41c-1.47,1.18-2.82,2.41-4.04,3.63c-1.23,1.21-2.32,2.43-3.3,3.58c-0.05,0.06-0.1,0.12-0.15,0.19
					l-2.14,3.38h8.88l7.36-12.43l6.9,12.43h2.76h6.53h15.28l3.22-6.4H59.94z"/>
			</g>
		</g>
	</g>
</g>
</svg>
