<?xml version="1.0" encoding="utf-8"?>
<!-- Generator: Adobe Illustrator 23.0.3, SVG Export Plug-In . SVG Version: 6.00 Build 0)  -->
<svg version="1.1" id="Layer_1" xmlns="http://www.w3.org/2000/svg" xmlns:xlink="http://www.w3.org/1999/xlink" x="0px" y="0px"
	 viewBox="0 0 63.6 63.6" style="enable-background:new 0 0 63.6 63.6;" xml:space="preserve">
<style type="text/css">
	.st0{fill:#C69644;}
	.st1{fill:none;}
	.st2{clip-path:url(#SVGID_2_);}
	.st3{fill:#FFFFFF;}
</style>
<g>
	<g>
		<polygon class="st0" points="0,0 63.6,0 63.6,63.6 0.1,63.6 		"/>
		<polygon class="st1" points="63.6,63.6 0,63.6 0.1,0 63.6,0 		"/>
		<g>
			<defs>
				<polygon id="SVGID_1_" points="0.2,0 63.6,0 63.6,63.6 0,63.6 				"/>
			</defs>
			<clipPath id="SVGID_2_">
				<use xlink:href="#SVGID_1_"  style="overflow:visible;"/>
			</clipPath>
			<g class="st2">
				<path class="st3" d="M-7.2,25.6l5.4-5.4L9,22.8l-2.5-11l5.1-5.1l3.3,16.8l18.4,3.6l-5.5,5.5L15.9,30l2.6,12l-5.2,5.2L9.6,28.8
					L-7.2,25.6z"/>
				<path class="st3" d="M18.6,9.9c-0.7-1.3-1.1-2.7-1.2-4.1c-0.1-1.4,0.1-2.8,0.6-4.1c0.5-1.4,1.4-2.7,2.6-3.9
					c0.9-0.9,2-1.7,3.1-2.3c1.2-0.6,2.3-0.9,3.5-1c1.2-0.1,2.4,0.1,3.6,0.5c1.2,0.4,2.3,1.1,3.3,2.1c1,1,1.8,2.1,2.2,3.2
					c0.4,1.1,0.6,2.2,0.7,3.3c0,1.1-0.1,2.3-0.3,3.5c-0.2,1.2-0.5,2.3-0.7,3.5c-0.2,1.2-0.4,2.4-0.6,3.6c-0.1,1.2-0.1,2.4,0.1,3.6
					L45.3,8l3.6,3.6L33.7,26.7c-1.2-1.2-2.1-2.4-2.6-3.6c-0.5-1.2-0.9-2.5-1-3.8c-0.1-1.3-0.1-2.6,0.1-4c0.2-1.4,0.4-2.8,0.7-4.3
					c0.1-0.8,0.3-1.6,0.5-2.4c0.2-0.8,0.3-1.7,0.3-2.5c0-0.8-0.1-1.6-0.3-2.4c-0.2-0.8-0.6-1.5-1.3-2.1c-1-1-2.1-1.5-3.2-1.5
					c-1.1,0-2.2,0.5-3.1,1.4c-0.6,0.6-1,1.3-1.1,2c-0.1,0.7-0.1,1.4,0.1,2.1c0.2,0.7,0.5,1.4,1,2.1c0.5,0.7,1,1.3,1.5,1.8l-4,4
					C20.2,12.4,19.3,11.2,18.6,9.9z"/>
			</g>
		</g>
	</g>
	<g>
		<path class="st3" d="M17.5,47l0.7,0.7l-1.8,1.8l0.8,0.8l1.5-1.5l0.6,0.6l-1.5,1.5l1.5,1.5l-0.8,0.8L15,49.6L17.5,47z"/>
		<path class="st3" d="M20.4,46.4c-0.2-0.3-0.2-0.6-0.3-1c0-0.3,0-0.6,0.2-1c0.1-0.3,0.3-0.6,0.6-0.9c0.3-0.3,0.6-0.5,0.9-0.6
			c0.3-0.1,0.6-0.2,1-0.2c0.3,0,0.6,0.1,1,0.3c0.3,0.2,0.6,0.4,0.9,0.6c0.3,0.3,0.5,0.6,0.6,0.9c0.1,0.3,0.2,0.6,0.2,1
			c0,0.3,0,0.6-0.2,1c-0.1,0.3-0.3,0.6-0.6,0.9c-0.3,0.3-0.6,0.5-0.9,0.6c-0.3,0.1-0.6,0.2-1,0.2c-0.3,0-0.6-0.1-1-0.2
			c-0.3-0.1-0.6-0.4-0.9-0.6C20.7,47,20.5,46.7,20.4,46.4z M22.3,46.8c0.2,0.1,0.4,0.2,0.6,0.2c0.2,0,0.4,0,0.6,0
			c0.2-0.1,0.4-0.2,0.6-0.4s0.3-0.4,0.4-0.6s0.1-0.4,0-0.6c0-0.2-0.1-0.4-0.2-0.6c-0.1-0.2-0.2-0.3-0.4-0.5
			c-0.2-0.2-0.3-0.3-0.5-0.4c-0.2-0.1-0.4-0.2-0.6-0.2c-0.2,0-0.4,0-0.6,0c-0.2,0.1-0.4,0.2-0.6,0.4s-0.3,0.4-0.4,0.6
			c-0.1,0.2-0.1,0.4,0,0.6c0,0.2,0.1,0.4,0.2,0.6c0.1,0.2,0.2,0.4,0.4,0.5C21.9,46.6,22.1,46.7,22.3,46.8z"/>
		<path class="st3" d="M30.6,40.6c0,0.5-0.3,1-0.8,1.5c-0.5,0.5-1,0.8-1.5,0.8c-0.5,0-1-0.2-1.5-0.7L24.6,40l0.8-0.8l2.3,2.3
			c0.1,0.1,0.2,0.2,0.3,0.3c0.1,0.1,0.2,0.1,0.4,0.1c0.1,0,0.3,0,0.4,0c0.1-0.1,0.3-0.2,0.5-0.3c0.3-0.3,0.4-0.5,0.4-0.8
			c0-0.2-0.2-0.5-0.4-0.8l-2.3-2.3l0.8-0.8l2.3,2.3C30.4,39.6,30.7,40.1,30.6,40.6z"/>
		<path class="st3" d="M30.5,34.1l4,0.9l0,0L32,32.5l0.7-0.8l3.6,3.6l-0.8,0.8l-4-0.9l0,0l2.4,2.4l-0.7,0.8l-3.6-3.6L30.5,34.1z"/>
		<path class="st3" d="M36.3,28.2c0.2-0.2,0.5-0.4,0.8-0.5c0.3-0.1,0.6-0.2,0.9-0.2c0.3,0,0.6,0.1,0.9,0.2c0.3,0.1,0.6,0.4,0.9,0.7
			c0.3,0.3,0.5,0.5,0.6,0.8c0.2,0.3,0.2,0.6,0.3,0.9c0,0.3,0,0.6-0.1,0.9c-0.1,0.3-0.3,0.6-0.6,0.9l-1.6,1.6l-3.6-3.6L36.3,28.2z
			 M39.2,31.2c0.1-0.1,0.2-0.2,0.3-0.4c0.1-0.1,0.1-0.3,0.1-0.5c0-0.2,0-0.4-0.1-0.5c-0.1-0.2-0.2-0.4-0.4-0.6
			c-0.2-0.2-0.4-0.3-0.6-0.4c-0.2-0.1-0.4-0.2-0.6-0.2c-0.2,0-0.4,0-0.6,0.1c-0.2,0.1-0.4,0.2-0.6,0.4l-0.6,0.6l2.3,2.3L39.2,31.2z"
			/>
		<path class="st3" d="M40.6,23.9l3.6,3.6l-0.8,0.8l-3.6-3.6L40.6,23.9z"/>
		<path class="st3" d="M43.4,21.1l4,0.9l0,0l-2.4-2.4l0.7-0.8l3.6,3.6l-0.8,0.8l-4-0.9l0,0l2.4,2.4l-0.7,0.8l-3.6-3.6L43.4,21.1z"/>
		<path class="st3" d="M53.5,18.2c-0.1,0.2-0.2,0.5-0.4,0.6c-0.3,0.3-0.6,0.5-0.9,0.6c-0.3,0.1-0.6,0.2-1,0.2c-0.3,0-0.6-0.1-1-0.2
			s-0.6-0.4-0.9-0.6c-0.3-0.3-0.5-0.6-0.6-0.9c-0.2-0.3-0.2-0.6-0.3-1s0-0.6,0.2-1c0.1-0.3,0.3-0.6,0.6-0.9c0.2-0.2,0.4-0.3,0.6-0.5
			c0.2-0.1,0.5-0.2,0.7-0.2c0.2,0,0.5,0,0.8,0.1c0.3,0.1,0.5,0.2,0.7,0.4l-0.8,0.8c-0.3-0.2-0.5-0.2-0.7-0.2c-0.2,0-0.5,0.1-0.6,0.3
			c-0.2,0.2-0.3,0.4-0.4,0.6c-0.1,0.2-0.1,0.4,0,0.6c0,0.2,0.1,0.4,0.2,0.6c0.1,0.2,0.2,0.4,0.4,0.5c0.2,0.2,0.3,0.3,0.5,0.4
			c0.2,0.1,0.4,0.2,0.6,0.2c0.2,0,0.4,0,0.6,0c0.2-0.1,0.4-0.2,0.6-0.4c0.3-0.3,0.4-0.5,0.4-0.8c0-0.3-0.1-0.6-0.3-0.8l-0.8,0.8
			l-0.6-0.6l1.5-1.5l2,2l-0.5,0.5l-0.5-0.3C53.6,17.7,53.6,18,53.5,18.2z"/>
	</g>
	<g>
		<path class="st3" d="M21.1,53.5l3.4,1.6l0,0l-1.7-3.3l1.1-1.1l3.6,3.6L26.8,55l-2.6-2.6l0,0l1.7,3.5l-0.6,0.6l-3.4-1.7l0,0
			l2.6,2.5l-0.7,0.8L20,54.6L21.1,53.5z"/>
		<path class="st3" d="M30,44.5l0.7,0.7l-1.9,1.9l0.8,0.8l1.8-1.8l0.6,0.6l-1.8,1.8l0.9,0.9l2-2l0.7,0.7L31,50.9l-3.6-3.6L30,44.5z"
			/>
		<path class="st3" d="M34.4,40.1l3.4,1.6l0,0l-1.7-3.3l1.1-1.1l3.6,3.6l-0.7,0.8l-2.6-2.6l0,0l1.7,3.5l-0.6,0.6l-3.4-1.7l0,0
			l2.6,2.5L37,44.8l-3.6-3.6L34.4,40.1z"/>
		<path class="st3" d="M42.4,32.2c0.2-0.2,0.3-0.3,0.5-0.4c0.2-0.1,0.3-0.2,0.5-0.2c0.2,0,0.3,0,0.5,0c0.2,0.1,0.3,0.2,0.5,0.3
			c0.2,0.2,0.3,0.4,0.3,0.6c0,0.2,0,0.4-0.1,0.7c0.3-0.2,0.6-0.2,0.8-0.2c0.3,0,0.5,0.2,0.7,0.4c0.2,0.2,0.3,0.4,0.4,0.6
			c0.1,0.2,0.1,0.4,0,0.6c0,0.2-0.1,0.4-0.2,0.6c-0.1,0.2-0.3,0.4-0.4,0.5l-1.8,1.8l-3.6-3.6L42.4,32.2z M43.7,33.7
			c0.1-0.1,0.2-0.3,0.2-0.5c0-0.2,0-0.3-0.2-0.5c-0.1-0.1-0.2-0.1-0.3-0.2c-0.1,0-0.2,0-0.2,0c-0.1,0-0.2,0.1-0.2,0.1
			c-0.1,0.1-0.2,0.1-0.2,0.2l-0.7,0.8l0.9,0.8L43.7,33.7z M45.3,35.2c0.1-0.1,0.1-0.2,0.2-0.2s0.1-0.2,0.1-0.3c0-0.1,0-0.2,0-0.3
			c0-0.1-0.1-0.2-0.2-0.3c-0.2-0.2-0.4-0.3-0.6-0.2c-0.2,0-0.4,0.1-0.5,0.3l-0.9,0.9l1,1L45.3,35.2z"/>
		<path class="st3" d="M49.6,24.8l0.7,0.7l-1.9,1.9l0.8,0.8l1.8-1.8l0.6,0.6l-1.8,1.8l0.9,0.9l2-2l0.7,0.7l-2.8,2.8l-3.6-3.6
			L49.6,24.8z"/>
		<path class="st3" d="M54.9,19.6c0.2-0.2,0.3-0.3,0.5-0.4c0.2-0.1,0.4-0.1,0.6-0.1s0.4,0,0.5,0.1c0.2,0.1,0.3,0.2,0.5,0.3
			c0.2,0.2,0.4,0.4,0.4,0.7c0.1,0.2,0,0.5-0.1,0.8l0,0c0.1-0.1,0.2-0.1,0.4-0.1c0.1,0,0.2,0,0.4,0c0.1,0,0.2,0.1,0.3,0.2
			s0.2,0.2,0.3,0.2c0.1,0.1,0.1,0.1,0.2,0.2c0.1,0.1,0.2,0.1,0.3,0.2s0.2,0.1,0.3,0.2c0.1,0.1,0.2,0.1,0.3,0.1l-0.8,0.8
			c-0.2-0.1-0.3-0.2-0.5-0.3c-0.2-0.1-0.3-0.3-0.5-0.4c-0.2-0.2-0.4-0.2-0.6-0.2c-0.2,0-0.4,0.1-0.6,0.3L56,22.9l1.4,1.4l-0.8,0.8
			l-3.6-3.6L54.9,19.6z M56.3,21.5c0.2-0.2,0.3-0.4,0.3-0.5c0-0.2-0.1-0.4-0.3-0.5c-0.2-0.2-0.4-0.3-0.5-0.2c-0.2,0-0.3,0.1-0.5,0.3
			l-0.9,0.9l1,1L56.3,21.5z"/>
	</g>
</g>
</svg>
