<?xml version="1.0" encoding="utf-8"?>
<!-- Generator: Adobe Illustrator 23.0.3, SVG Export Plug-In . SVG Version: 6.00 Build 0)  -->
<svg version="1.1" id="Layer_1" xmlns="http://www.w3.org/2000/svg" xmlns:xlink="http://www.w3.org/1999/xlink" x="0px" y="0px"
	 viewBox="0 0 63.6 63.6" style="enable-background:new 0 0 63.6 63.6;" xml:space="preserve">
<style type="text/css">
	.st0{fill:#A8AEB4;}
	.st1{fill:#FFFFFF;}
</style>
<g>
	<rect x="0" class="st0" width="63.6" height="63.6"/>
	<g>
		<defs>
			<rect id="SVGID_1_" width="63.6" height="63.6"/>
		</defs>
		<use xlink:href="#SVGID_1_"  style="overflow:visible;fill:#A8AEB4;"/>
		<clipPath id="SVGID_2_">
			<use xlink:href="#SVGID_1_"  style="overflow:visible;"/>
		</clipPath>
	</g>
</g>
<g>
	<polygon class="st1" points="11,49.2 16.5,43.8 13.8,31.3 26.2,34.1 31.9,28.3 12.8,24.5 9.3,7 4,12.3 6.6,23.7 0,22.2 0,28.6 
		7.2,30 	"/>
	<path class="st1" d="M15.4,5.7c0.2,3,1.6,5.8,4.3,8.4l4.2-4.2c-0.6-0.6-1.1-1.2-1.6-2c-0.5-0.7-0.8-1.4-1-2.2C21,5,21,4.3,21.1,3.6
		c0.2-0.7,0.5-1.4,1.2-2c1-1,2-1.4,3.2-1.4c1.2,0,2.3,0.5,3.3,1.5c0.6,0.6,0.9,1.2,1.2,1.9c0.2,0.7,0.4,1.4,0.4,2.1
		c0,0.7,0,1.4-0.1,2.1c-0.1,0.7-0.3,1.5-0.5,2.5c-0.2,0.7-0.2,1.1-0.2,1.2c-0.4,2-0.6,3.7-0.8,4.9c-0.2,1.3-0.2,2.6-0.1,3.9
		c0.1,1.3,0.5,2.6,1,3.9c0.6,1.3,1.5,2.5,2.7,3.7L48.2,12l-3.8-3.8L34.3,18.5c-0.2-1.3-0.2-2.5-0.1-3.8c0.1-1.2,0.4-2.8,0.8-4.6
		c0.3-1.3,0.5-2.2,0.6-2.8c0.3-2.1,0.4-4,0-5.7C35.5,1.1,35.3,0.5,35,0H16.8C15.7,1.8,15.2,3.7,15.4,5.7z"/>
	<path class="st1" d="M19.6,51c-0.2-0.2-0.4-0.3-0.6-0.4c-0.2-0.1-0.5-0.2-0.7-0.2c-0.3,0-0.5,0-0.8,0.2c-0.3,0.1-0.5,0.3-0.8,0.6
		l-2,2l4.4,4.4l1-1l-1.6-1.6l1-1c0.3-0.3,0.5-0.5,0.6-0.8c0.1-0.3,0.2-0.5,0.2-0.8c0-0.3-0.1-0.5-0.2-0.7
		C19.9,51.4,19.8,51.2,19.6,51z M18.9,52.7c0,0.1-0.1,0.2-0.2,0.4c-0.1,0.1-0.2,0.2-0.3,0.4l-0.7,0.7l-1.3-1.3l0.7-0.7
		c0.1-0.1,0.2-0.2,0.4-0.3c0.1-0.1,0.2-0.1,0.4-0.2c0.1,0,0.3,0,0.4,0c0.1,0,0.3,0.1,0.4,0.3c0.1,0.1,0.2,0.3,0.3,0.4
		C18.9,52.4,19,52.6,18.9,52.7z"/>
	<path class="st1" d="M27.4,47.3c-0.1-0.1-0.1-0.1-0.2-0.1c-0.3-0.2-0.6-0.4-0.8-0.5c-0.3-0.1-0.6,0-0.8,0.1l0,0
		c0.1-0.3,0.2-0.6,0.1-0.9c-0.1-0.3-0.2-0.6-0.5-0.8c-0.2-0.2-0.4-0.3-0.6-0.4c-0.2-0.1-0.4-0.1-0.6-0.1c-0.2,0-0.4,0-0.7,0.1
		c-0.2,0.1-0.4,0.2-0.6,0.4l-2.4,2.4l4.4,4.4l1-1L24,49.1l1-1c0.2-0.2,0.5-0.4,0.7-0.4c0.2,0,0.4,0.1,0.7,0.3
		c0.1,0.1,0.2,0.2,0.4,0.3c0.2,0.2,0.3,0.3,0.4,0.4c0.1,0.1,0.2,0.2,0.4,0.2l1-1c-0.2,0-0.3-0.1-0.5-0.2
		C27.8,47.7,27.6,47.5,27.4,47.3z M24.3,47.4l-1.1,1.1l-1.2-1.2l1.1-1.1c0.2-0.2,0.4-0.3,0.6-0.3c0.2,0,0.4,0.1,0.6,0.3
		c0.2,0.2,0.3,0.4,0.3,0.6C24.7,46.9,24.6,47.1,24.3,47.4z"/>
	<polygon class="st1" points="30.9,44 29.8,42.9 31.9,40.8 31.2,40.1 29,42.2 28.1,41.3 30.4,38.9 29.6,38.1 26.3,41.4 30.7,45.8 
		34,42.5 33.2,41.6 	"/>
	<polygon class="st1" points="35.2,32.5 37.3,36.5 37.3,36.5 33.2,34.5 31.9,35.9 36.3,40.2 37.2,39.3 34.1,36.3 34.1,36.3 
		38.2,38.2 39,37.5 37,33.3 37,33.3 40.1,36.4 41,35.5 36.6,31.2 	"/>
	<rect x="41" y="27.3" transform="matrix(0.7071 -0.7071 0.7071 0.7071 -9.3125 38.3853)" class="st1" width="1.4" height="6.2"/>
	<polygon class="st1" points="46.9,27.9 45.9,26.9 48,24.8 47.2,24 45.1,26.1 44.2,25.2 46.5,22.9 45.7,22.1 42.4,25.3 46.8,29.7 
		50.1,26.4 49.3,25.6 	"/>
	<path class="st1" d="M55,19.7c-0.1-0.1-0.1-0.1-0.2-0.1c-0.3-0.2-0.6-0.4-0.8-0.5c-0.3-0.1-0.6,0-0.8,0.1l0,0
		c0.1-0.3,0.2-0.6,0.1-0.9c-0.1-0.3-0.2-0.6-0.5-0.8c-0.2-0.2-0.4-0.3-0.6-0.4c-0.2-0.1-0.4-0.1-0.6-0.1c-0.2,0-0.4,0-0.7,0.1
		c-0.2,0.1-0.4,0.2-0.6,0.4l-2.4,2.4l4.4,4.4l1-1l-1.7-1.7l1-1c0.2-0.2,0.5-0.4,0.7-0.4c0.2,0,0.4,0.1,0.7,0.3
		c0.1,0.1,0.2,0.2,0.4,0.3c0.2,0.2,0.3,0.3,0.4,0.4c0.1,0.1,0.2,0.2,0.4,0.2l1-1c-0.2,0-0.3-0.1-0.5-0.2
		C55.4,20.1,55.2,19.9,55,19.7z M51.9,19.8l-1.1,1.1l-1.2-1.2l1.1-1.1c0.2-0.2,0.4-0.3,0.6-0.3c0.2,0,0.4,0.1,0.6,0.3
		c0.2,0.2,0.3,0.4,0.3,0.6C52.3,19.3,52.2,19.5,51.9,19.8z"/>
</g>
</svg>
