<?xml version="1.0" encoding="utf-8"?>
<!-- Generator: Adobe Illustrator 23.0.3, SVG Export Plug-In . SVG Version: 6.00 Build 0)  -->
<svg version="1.1" id="Layer_1" xmlns="http://www.w3.org/2000/svg" xmlns:xlink="http://www.w3.org/1999/xlink" x="0px" y="0px"
	 viewBox="0 0 63.6 63.6" style="enable-background:new 0 0 63.6 63.6;" xml:space="preserve">
<style type="text/css">
	.st0{clip-path:url(#SVGID_2_);}
	.st1{fill:#FFFFFF;}
	.st2{clip-path:url(#SVGID_2_);fill:none;}
</style>
<g>
	<defs>
		<rect id="SVGID_1_" x="0" width="63.6" height="63.6"/>
	</defs>
	<clipPath id="SVGID_2_">
		<use xlink:href="#SVGID_1_"  style="overflow:visible;"/>
	</clipPath>
	<rect x="0" class="st0" width="63.6" height="63.6"/>
	<g class="st0">
		<path class="st1" d="M-7.2,25.3l5.3-5.3l10.7,2.6L6.4,11.7l5-5l3.3,16.6l18.1,3.6l-5.5,5.5l-11.7-2.7l2.6,11.8l-5.1,5.1L9.4,28.5
			L-7.2,25.3z"/>
		<path class="st1" d="M18.3,9.8c-0.7-1.3-1.1-2.7-1.2-4C17,4.4,17.2,3,17.7,1.7c0.5-1.4,1.4-2.7,2.6-3.9c0.9-0.9,2-1.7,3.1-2.2
			c1.1-0.6,2.3-0.9,3.5-1c1.2-0.1,2.4,0.1,3.5,0.5c1.2,0.4,2.3,1.1,3.3,2.1c1,1,1.7,2.1,2.2,3.1c0.4,1.1,0.6,2.2,0.7,3.3
			c0,1.1-0.1,2.3-0.3,3.4c-0.2,1.2-0.5,2.3-0.7,3.5c-0.2,1.2-0.4,2.3-0.6,3.5c-0.1,1.2-0.1,2.4,0.1,3.6l9.7-9.7l3.6,3.6l-15,15
			c-1.2-1.2-2-2.4-2.6-3.6c-0.5-1.2-0.9-2.5-1-3.7s-0.1-2.6,0.1-4c0.2-1.4,0.4-2.8,0.7-4.3c0.1-0.8,0.3-1.5,0.5-2.4
			c0.2-0.8,0.3-1.6,0.3-2.4c0-0.8-0.1-1.6-0.3-2.4c-0.2-0.8-0.6-1.5-1.2-2.1c-1-1-2.1-1.5-3.2-1.5c-1.1,0-2.1,0.5-3,1.4
			c-0.6,0.6-1,1.3-1.1,2c-0.1,0.7-0.1,1.4,0.1,2.1c0.2,0.7,0.5,1.4,1,2.1c0.4,0.7,0.9,1.3,1.5,1.8l-4,4C20,12.3,19,11.1,18.3,9.8z"
			/>
	</g>
	<g class="st0">
		<path class="st1" d="M18,45.7c0.4-0.4,0.8-0.7,1.2-0.9c0.4-0.2,0.8-0.2,1.2-0.2c0.4,0,0.7,0.1,1.1,0.3c0.3,0.2,0.6,0.4,0.9,0.7
			c0.3,0.3,0.5,0.6,0.7,0.9c0.2,0.3,0.3,0.7,0.3,1.1c0,0.4-0.1,0.8-0.2,1.2c-0.2,0.4-0.5,0.8-0.9,1.2l-1.5,1.5l2.4,2.4l-1.5,1.5
			L15,48.7L18,45.7z M20.8,49.2c0.2-0.2,0.3-0.3,0.4-0.5c0.1-0.2,0.2-0.4,0.3-0.6c0-0.2,0-0.4,0-0.6c-0.1-0.2-0.2-0.4-0.4-0.6
			c-0.2-0.2-0.4-0.3-0.6-0.4c-0.2-0.1-0.4-0.1-0.6,0c-0.2,0-0.4,0.1-0.6,0.3c-0.2,0.1-0.4,0.3-0.5,0.4l-1.1,1.1l2,2L20.8,49.2z"/>
		<path class="st1" d="M33.3,30.5l9.2,4.2l-1.5,1.5l-2-1l-2.5,2.5l1,2l-1.5,1.5L31.7,32L33.3,30.5z M37.4,34.5l-3.3-1.6l0,0l1.6,3.3
			L37.4,34.5z"/>
		<path class="st1" d="M44.3,19.4l1.6-1.6l4.2,1.1L49,14.7l1.6-1.6l1.6,6.6l2.6,2.6l-1.5,1.5l-2.6-2.6L44.3,19.4z"/>
	</g>
	<rect x="0" class="st2" width="63.6" height="63.6"/>
</g>
</svg>
