<svg xmlns="http://www.w3.org/2000/svg" width="13.552" height="13.552" viewBox="0 0 13.552 13.552"><g transform="translate(0 0)"><path d="M5.161,3.34H1.773A6.754,6.754,0,0,1-.142,3.105.5.5,0,0,1-.5,2.584,3.13,3.13,0,0,1,.789.364,4.435,4.435,0,0,1,3.467-.5,4.435,4.435,0,0,1,6.145.364,3.13,3.13,0,0,1,7.432,2.584a.5.5,0,0,1-.357.522A6.754,6.754,0,0,1,5.161,3.34ZM.583,2.249a6.849,6.849,0,0,0,1.19.091H5.161a6.849,6.849,0,0,0,1.19-.091A2.945,2.945,0,0,0,3.467.5,2.945,2.945,0,0,0,.583,2.249Z" transform="translate(3.309 9.582)" fill="#00af5e"/><path d="M3.953-.5H7.341A4.537,4.537,0,0,1,10.729.564a4.537,4.537,0,0,1,1.064,3.389V7.341a5.485,5.485,0,0,1-.58,2.756A3.114,3.114,0,0,1,9.25,11.56a.5.5,0,0,1-.634-.439A2.774,2.774,0,0,0,5.647,8.953a2.774,2.774,0,0,0-2.969,2.168.5.5,0,0,1-.634.439C-.236,10.914-.5,8.843-.5,7.341V3.953A4.537,4.537,0,0,1,.564.564,4.537,4.537,0,0,1,3.953-.5ZM9.485,10.4c.922-.462,1.308-1.394,1.308-3.063V3.953C10.793,1.4,9.89.5,7.341.5H3.953C1.4.5.5,1.4.5,3.953V7.341c0,1.67.386,2.6,1.308,3.063a3.265,3.265,0,0,1,1.16-1.587,4.435,4.435,0,0,1,2.678-.864,4.435,4.435,0,0,1,2.678.864A3.266,3.266,0,0,1,9.485,10.4ZM5.647,2.323A2.524,2.524,0,1,1,3.125,4.845,2.524,2.524,0,0,1,5.647,2.323Zm0,4.049A1.524,1.524,0,1,0,4.125,4.845,1.526,1.526,0,0,0,5.647,6.372Z" transform="translate(1.129 1.129)" fill="#00af5e"/><path d="M2.022-.5A2.524,2.524,0,1,1-.5,2.022,2.524,2.524,0,0,1,2.022-.5Zm0,4.049A1.524,1.524,0,1,0,.5,2.022,1.526,1.526,0,0,0,2.022,3.549Z" transform="translate(4.754 3.953)" fill="#00af5e"/><path d="M0,0H13.552V13.552H0Z" fill="none" opacity="0"/></g></svg>