<svg xmlns="http://www.w3.org/2000/svg" width="13.552" height="13.552" viewBox="0 0 13.552 13.552"><g transform="translate(0 0)"><path d="M2.823.5H0A.5.5,0,0,1-.5,0,.5.5,0,0,1,0-.5H2.823a.5.5,0,0,1,.5.5A.5.5,0,0,1,2.823.5Z" transform="translate(5.195 6.607)" fill="#0093ff"/><path d="M0,3.323a.5.5,0,0,1-.5-.5V0A.5.5,0,0,1,0-.5.5.5,0,0,1,.5,0V2.823A.5.5,0,0,1,0,3.323Z" transform="translate(6.607 5.195)" fill="#0093ff"/><path d="M5.364-.5A5.864,5.864,0,1,1-.5,5.364,5.871,5.871,0,0,1,5.364-.5Zm0,10.729A4.864,4.864,0,1,0,.5,5.364,4.87,4.87,0,0,0,5.364,10.229Z" transform="translate(1.129 1.129)" fill="#0093ff"/><path d="M1.129,1.629a.5.5,0,0,1-.354-.146L-.354.354a.5.5,0,0,1,0-.707.5.5,0,0,1,.707,0L1.483.776a.5.5,0,0,1-.354.854Z" transform="translate(11.293 11.293)" fill="#0093ff"/><path d="M0,0H13.552V13.552H0Z" fill="none" opacity="0"/></g></svg>