<svg xmlns="http://www.w3.org/2000/svg" width="13.552" height="13.552" viewBox="0 0 13.552 13.552"><g transform="translate(0 0)"><path d="M7.341,11.793H3.953A4.537,4.537,0,0,1,.564,10.729,4.537,4.537,0,0,1-.5,7.341V3.953A4.537,4.537,0,0,1,.564.564,4.537,4.537,0,0,1,3.953-.5H6.776a.5.5,0,0,1,.5.5.5.5,0,0,1-.5.5H3.953C1.4.5.5,1.4.5,3.953V7.341c0,2.549.9,3.453,3.453,3.453H7.341c2.549,0,3.453-.9,3.453-3.453V4.517a.5.5,0,0,1,1,0V7.341a4.537,4.537,0,0,1-1.064,3.389A4.537,4.537,0,0,1,7.341,11.793Z" transform="translate(1.129 1.129)" fill="#20af5e"/><path d="M4.517,5.017H2.259A2.817,2.817,0,0,1,.141,4.377,2.817,2.817,0,0,1-.5,2.259V0A.5.5,0,0,1-.191-.462a.5.5,0,0,1,.545.108L4.871,4.164a.5.5,0,0,1-.354.854ZM.5,1.207V2.259c0,1.413.345,1.759,1.759,1.759H3.31Z" transform="translate(7.905 1.129)" fill="#20af5e"/><path d="M3.388.5H0A.5.5,0,0,1-.5,0,.5.5,0,0,1,0-.5H3.388a.5.5,0,0,1,.5.5A.5.5,0,0,1,3.388.5Z" transform="translate(3.953 7.341)" fill="#20af5e"/><path d="M2.259.5H0A.5.5,0,0,1-.5,0,.5.5,0,0,1,0-.5H2.259a.5.5,0,0,1,.5.5A.5.5,0,0,1,2.259.5Z" transform="translate(3.953 9.599)" fill="#20af5e"/><path d="M0,0H13.552V13.552H0Z" fill="none" opacity="0"/></g></svg>