<svg xmlns="http://www.w3.org/2000/svg" width="13.552" height="13.552" viewBox="0 0 13.552 13.552"><g transform="translate(0)"><g transform="translate(0 0)"><path d="M4.755,11.059a1.438,1.438,0,0,1-.495-.085A1.615,1.615,0,0,1,3.2,9.169L3.48,7.38A.11.11,0,0,0,3.466,7.3a.073.073,0,0,0-.056-.022H1.151A1.649,1.649,0,0,1-.229,6.61,1.589,1.589,0,0,1-.395,5.146l1.348-4.1A2.189,2.189,0,0,1,3.015-.5H5.16a2.244,2.244,0,0,1,1.4.46L8.29,1.3l-.612.791L5.9.715,5.88.692A1.36,1.36,0,0,0,5.16.5H3.015a1.2,1.2,0,0,0-1.1.807l-.01.035L.549,5.476a.6.6,0,0,0,.039.558.669.669,0,0,0,.563.242H3.41a1.072,1.072,0,0,1,.811.367,1.089,1.089,0,0,1,.248.882v.006L4.18,9.369a.616.616,0,0,0,.4.659l.017.006a.639.639,0,0,0,.651-.2L7.569,6.384l.83.558L6.084,10.386A1.626,1.626,0,0,1,4.755,11.059Z" transform="translate(1.345 1.496)"/><path d="M1.129-.5h.565A1.42,1.42,0,0,1,3.323,1.073V6.607A1.42,1.42,0,0,1,1.694,8.179H1.129A1.42,1.42,0,0,1-.5,6.607V1.073A1.42,1.42,0,0,1,1.129-.5Zm.565,7.679c.353,0,.479-.067.522-.107a.7.7,0,0,0,.107-.465V1.073A.7.7,0,0,0,2.216.607C2.173.567,2.047.5,1.694.5H1.129C.776.5.651.567.607.607A.7.7,0,0,0,.5,1.073V6.607a.7.7,0,0,0,.107.465c.043.04.169.107.522.107Z" transform="translate(9.385 2.118)"/><path d="M0,0H13.552V13.552H0Z" fill="none" opacity="0"/></g></g></svg>