<svg xmlns="http://www.w3.org/2000/svg" width="8.178" height="13.514" viewBox="0 0 8.178 13.514"><g transform="translate(0.5 0.5)"><path d="M3638.956,1318.31a4.9,4.9,0,0,1-4.893-4.836c0-.009,0-.018,0-.027a5.048,5.048,0,0,1,4.932-4.82h2.745a.5.5,0,0,1,0,1h-2.73a4.046,4.046,0,0,0-3.948,3.849,3.9,3.9,0,0,0,3.893,3.834h2.285v-3.333a.5.5,0,0,1,1,0v3.833a.5.5,0,0,1-.5.5h-2.785Z" transform="translate(-3634.563 -1307.213)" fill="#20af5e"/><g transform="translate(3.202)"><path d="M3637.869,1309.568a.5.5,0,0,1-.5-.5v-1.917a.5.5,0,0,1,1,0v1.917A.5.5,0,0,1,3637.869,1309.568Z" transform="translate(-3637.869 -1307.151)" fill="#20af5e"/><path d="M3640.421,1309.568a.5.5,0,0,1-.5-.5v-1.917a.5.5,0,0,1,1,0v1.917A.5.5,0,0,1,3640.421,1309.568Z" transform="translate(-3637.949 -1307.151)" fill="#20af5e"/></g><g transform="translate(3.202 10.597)"><path d="M3637.869,1320.51a.5.5,0,0,1-.5-.5v-1.917a.5.5,0,0,1,1,0v1.917A.5.5,0,0,1,3637.869,1320.51Z" transform="translate(-3637.869 -1318.093)" fill="#20af5e"/><path d="M3640.421,1320.51a.5.5,0,0,1-.5-.5v-1.917a.5.5,0,0,1,1,0v1.917A.5.5,0,0,1,3640.421,1320.51Z" transform="translate(-3637.949 -1318.093)" fill="#20af5e"/></g><path d="M3637.868,1315.946a.5.5,0,0,1-.4-.805l2.239-2.907h-1.843a.5.5,0,0,1,0-1h2.859a.5.5,0,0,1,.4.805l-2.859,3.712A.5.5,0,0,1,3637.868,1315.946Z" transform="translate(-3634.667 -1307.295)" fill="#20af5e"/></g></svg>