<?xml version="1.0" encoding="utf-8"?>
<!-- Generator: Adobe Illustrator 16.0.0, SVG Export Plug-In . SVG Version: 6.00 Build 0)  -->
<!DOCTYPE svg PUBLIC "-//W3C//DTD SVG 1.1//EN" "http://www.w3.org/Graphics/SVG/1.1/DTD/svg11.dtd">
<svg version="1.1" id="Layer_1" xmlns="http://www.w3.org/2000/svg" xmlns:xlink="http://www.w3.org/1999/xlink" x="0px" y="0px"
	 width="612px" height="792px" viewBox="0 0 612 792" enable-background="new 0 0 612 792" xml:space="preserve">
<path fill="#F5B83E" d="M306,90C138.194,90,0,228.193,0,396c0,170.274,138.193,306,306,306c170.273,0,306-138.193,306-306
	S476.274,90,306,90z M306,186.242c51.822,0,96.241,41.951,96.241,96.242S360.29,378.726,306,378.726
	c-54.291,0-96.242-41.951-96.242-96.242S254.177,186.242,306,186.242z M306,613.161c-78.968,0-148.064-41.951-187.549-106.112
	c51.823-39.484,115.984-61.694,187.549-61.694s133.258,22.21,187.548,61.694C454.065,571.21,384.967,613.161,306,613.161z"/>
</svg>
