<?xml version="1.0" encoding="utf-8"?>
<!-- Generator: Adobe Illustrator 16.0.0, SVG Export Plug-In . SVG Version: 6.00 Build 0)  -->
<!DOCTYPE svg PUBLIC "-//W3C//DTD SVG 1.1//EN" "http://www.w3.org/Graphics/SVG/1.1/DTD/svg11.dtd">
<svg version="1.1" id="Layer_1" xmlns="http://www.w3.org/2000/svg" xmlns:xlink="http://www.w3.org/1999/xlink" x="0px" y="0px"
	 width="21px" height="21px" viewBox="0 0 21 21" enable-background="new 0 0 21 21" xml:space="preserve">
<g transform="translate(-4470 60)">
	<circle fill="#FEC956" cx="4480.5" cy="-49.5" r="10.5"/>
	<g transform="translate(4474 -56)">
		<g transform="translate(0 0)">
			<path fill="#FFFFFF" d="M6.776,7.84c-0.276,0-0.5-0.224-0.5-0.5V4.376c0-0.276,0.224-0.5,0.5-0.5c0.277,0,0.5,0.224,0.5,0.5V7.34
				C7.275,7.616,7.053,7.84,6.776,7.84z"/>
			<path fill="#FFFFFF" d="M6.771,0.629c0.399,0,0.792,0.103,1.14,0.3l3.354,1.941c0.701,0.411,1.134,1.161,1.137,1.974v3.863
				c-0.003,0.811-0.434,1.561-1.133,1.973l-3.357,1.938c-0.346,0.198-0.738,0.302-1.137,0.3c-0.399,0.001-0.792-0.103-1.14-0.3
				L2.28,10.682c-0.703-0.409-1.136-1.161-1.137-1.975V4.844c0.003-0.812,0.434-1.561,1.133-1.972l3.358-1.943
				C5.98,0.731,6.372,0.628,6.771,0.629z M6.771,11.922c0.224,0,0.444-0.059,0.637-0.17l3.357-1.938
				c0.393-0.23,0.635-0.652,0.637-1.107V4.844c0.002-0.458-0.242-0.881-0.639-1.11L7.412,1.799c-0.195-0.111-0.417-0.169-0.641-0.17
				c-0.224,0-0.443,0.059-0.637,0.17L2.78,3.736C2.387,3.967,2.146,4.388,2.143,4.844v3.863c0,0.457,0.242,0.879,0.637,1.109
				l3.354,1.937c0.196,0.11,0.417,0.169,0.641,0.169H6.771z"/>
			<path fill="none" d="M0,0h13.552v13.552H0V0z"/>
			<path fill="#FFFFFF" d="M6.776,9.704c-0.276,0-0.5-0.224-0.5-0.5V9.148c0-0.276,0.224-0.5,0.5-0.5c0.277,0,0.5,0.224,0.5,0.5
				v0.056C7.275,9.48,7.053,9.704,6.776,9.704z"/>
		</g>
	</g>
</g>
</svg>
