<?xml version="1.0" encoding="utf-8"?>
<!-- Generator: Adobe Illustrator 23.0.1, SVG Export Plug-In . SVG Version: 6.00 Build 0)  -->
<svg version="1.1" id="Layer_1" xmlns="http://www.w3.org/2000/svg" xmlns:xlink="http://www.w3.org/1999/xlink" x="0px" y="0px"
	 viewBox="0 0 34.8 34.8" style="enable-background:new 0 0 34.8 34.8;" xml:space="preserve">
<style type="text/css">
	.st0{fill:none;stroke:#FFC959;stroke-linecap:round;stroke-linejoin:round;stroke-miterlimit:10;}
</style>
<g>
	<g>
		<path class="st0" d="M17.3,3.8l11.6,4.5c0,0,0,8.7,0,11.9s-2.4,6.5-4.5,8.3s-7.1,5.5-7.1,5.5"/>
		<path class="st0" d="M17.3,6.3l9.4,3.7c0,0,0,7,0,10.2s-2.4,5.7-4.5,7.4s-4.9,3.8-4.9,3.8"/>
		<path class="st0" d="M17.3,3.8L5.8,8.4c0,0,0,8.7,0,11.9s2.4,6.5,4.5,8.3s7.1,5.5,7.1,5.5"/>
		<path class="st0" d="M17.3,6.3L8,10c0,0,0,7,0,10.2s2.4,5.7,4.5,7.4s4.9,3.8,4.9,3.8"/>
	</g>
	<path class="st0" d="M22.3,21.3c0-1.9-1.2-3.2-3.8-4.1v-4c0.8,0.1,1.4,0.3,1.7,0.5c0.5,0.2,1.1,0,1.3-0.5c0.2-0.5,0-1.1-0.5-1.3
		c-0.5-0.3-1.4-0.5-2.6-0.7V11c0-0.6-0.5-1-1-1c-0.6,0-1,0.5-1,1v0.3c-2.5,0.3-3.5,2-3.5,3.5c0,1.3,0.6,2.9,3.5,3.9v4.4
		c-1.6-0.2-2.2-0.8-2.3-0.9c-0.4-0.4-1-0.5-1.4-0.1c-0.4,0.4-0.5,1-0.1,1.4c0.1,0.1,1.2,1.3,3.8,1.6v0.5c0,0.6,0.5,1,1,1
		c0.6,0,1-0.5,1-1v-0.5C21.3,24.7,22.3,22.9,22.3,21.3z M15,14.7c0-0.4,0.2-1.2,1.5-1.5v3.2C15.5,16.1,15,15.5,15,14.7z M18.5,23.1
		v-3.7c1.8,0.7,1.8,1.5,1.8,1.9C20.3,22.2,19.6,22.8,18.5,23.1z"/>
	<path class="st0" d="M3.3,23.1c0,1-0.8,1.8-1.8,1.8c1,0,1.8,0.8,1.8,1.8c0-1,0.8-1.8,1.8-1.8C4.1,24.9,3.3,24.1,3.3,23.1z"/>
	<path class="st0" d="M25,1.5c0,1-0.8,1.8-1.8,1.8C24.2,3.2,25,4,25,5c0-1,0.8-1.8,1.8-1.8C25.7,3.2,25,2.4,25,1.5z"/>
	<path class="st0" d="M30.1,26.6c0,1-0.8,1.8-1.8,1.8c1,0,1.8,0.8,1.8,1.8c0-1,0.8-1.8,1.8-1.8C30.9,28.4,30.1,27.6,30.1,26.6z"/>
</g>
</svg>
