<?xml version="1.0" encoding="utf-8"?>
<!-- Generator: Adobe Illustrator 23.0.1, SVG Export Plug-In . SVG Version: 6.00 Build 0)  -->
<svg version="1.1" id="Layer_1" xmlns="http://www.w3.org/2000/svg" xmlns:xlink="http://www.w3.org/1999/xlink" x="0px" y="0px"
	 viewBox="0 0 34.8 34.8" style="enable-background:new 0 0 34.8 34.8;" xml:space="preserve">
<style type="text/css">
	.st0{fill:none;stroke:#FFC959;stroke-linecap:round;stroke-linejoin:round;stroke-miterlimit:10;}
</style>
<g>
	<path class="st0" d="M31.3,11.1H20.5v2.2c0,0.6-0.5,1.2-1.2,1.2h-3.7c-0.6,0-1.2-0.5-1.2-1.2v-2.2H3.6c-1.3,0-2.3,1-2.3,2.3v17.9
		c0,1.3,1,2.3,2.3,2.3h27.7c1.3,0,2.3-1,2.3-2.3V13.4C33.7,12.2,32.6,11.1,31.3,11.1z"/>
	<path class="st0" d="M19.3,3.7h-3.7c-0.6,0-1.2,0.5-1.2,1.2v6.3v2.2c0,0.6,0.5,1.2,1.2,1.2h3.7c0.6,0,1.2-0.5,1.2-1.2v-2.2V4.8
		C20.5,4.2,19.9,3.7,19.3,3.7z"/>
	<path class="st0" d="M10.5,28.8h4c0,0,1-0.1,1-0.9s-0.3-1.2-1.2-1.7c-0.9-0.4-2-0.7-2.2-0.8c-0.1,0-0.4-0.4-0.3-1.3
		c0.1-0.9,0.6-0.9,0.7-1.3c0.1-0.3,0.5-1.2,0.5-1.5c-0.1-0.3-0.1-0.9,0-1.4c0.1-0.5,0.4-1.8-1.6-2.3c-2-0.6-2.2-0.6-2.4-0.9
		c0,0,0.1,0.8-0.1,1.1c-0.2,0.3-1.1,0.8-1.2,1.2c-0.2,0.4-0.2,1.2,0,1.7c0.2,0.5-0.3,0.7-0.1,1c0.1,0.4,0.4,1.4,0.7,1.9
		c0.3,0.5,0.4,0.4,0.4,1c0,0.6-0.3,1-0.9,1.1c-0.6,0.1-2.1,0.9-2.5,1.2c-0.3,0.3-0.7,1.6,0.4,1.9H10.5z"/>
	<line class="st0" x1="20.5" y1="18.1" x2="25.9" y2="18.1"/>
	<line class="st0" x1="20.5" y1="20.5" x2="30" y2="20.5"/>
	<line class="st0" x1="20.5" y1="25.4" x2="22.2" y2="25.4"/>
	<line class="st0" x1="24.7" y1="25.4" x2="27.1" y2="25.4"/>
	<line class="st0" x1="20.5" y1="27.7" x2="30" y2="27.7"/>
	<circle class="st0" cx="17.5" cy="7.2" r="1.2"/>
</g>
</svg>
