<?xml version="1.0" encoding="utf-8"?>
<!-- Generator: Adobe Illustrator 23.0.1, SVG Export Plug-In . SVG Version: 6.00 Build 0)  -->
<svg version="1.1" id="Layer_1" xmlns="http://www.w3.org/2000/svg" xmlns:xlink="http://www.w3.org/1999/xlink" x="0px" y="0px"
	 viewBox="0 0 34.8 34.8" style="enable-background:new 0 0 34.8 34.8;" xml:space="preserve">
<style type="text/css">
	.st0{fill:none;stroke:#FFC959;stroke-linecap:round;stroke-linejoin:round;stroke-miterlimit:10;}
</style>
<g>
	<g>
		<path class="st0" d="M12.4,4.1c2-2,4.8-3.3,7.9-3.3c6.1,0,11.1,5,11.1,11.1c0,0,2.2,5.9,2.5,6.6c0.3,0.7,0.1,1.3-0.8,1.3
			c-0.9,0-1.7,0-1.7,0s0,2.5,0,4.5s-1.1,3.5-3.5,3.5s-4.4,0-4.4,0"/>
		<path class="st0" d="M14.7,0.8c-6.1,0-11.1,5-11.1,11.1c0,0-2.2,5.9-2.5,6.6C0.9,19.2,1,19.8,2,19.8s1.7,0,1.7,0s0,2.5,0,4.5
			s1.1,3.5,3.5,3.5s4.4,0,4.4,0"/>
		<path class="st0" d="M22.5,24c-0.4,1.3-0.7,2.5-0.7,3.8c0,2.6,0,6.4,0,6.4"/>
		<line class="st0" x1="25" y1="27.8" x2="25" y2="34.2"/>
		<line class="st0" x1="10.1" y1="27.8" x2="10.1" y2="34.2"/>
	</g>
	<path class="st0" d="M26.5,13c-0.2,0.3-0.6,0.5-1,0.5c-0.7,0-1.3-0.6-1.3-1.3c0-0.2,0.1-0.4,0.1-0.6c-1.7-0.7-4.2-1.1-6.9-1.1
		c-5.2,0-9.4,1.6-9.4,3.6s4.2,3.6,9.4,3.6c5.2,0,9.4-1.6,9.4-3.6C26.9,13.6,26.8,13.3,26.5,13z"/>
	<path class="st0" d="M25.5,10.8c-0.5,0-1,0.3-1.2,0.7c-0.1,0.2-0.1,0.4-0.1,0.6c0,0.7,0.6,1.3,1.3,1.3c0.4,0,0.8-0.2,1-0.5
		c0.2-0.2,0.3-0.5,0.3-0.8C26.8,11.4,26.3,10.8,25.5,10.8z"/>
	<path class="st0" d="M11.9,21.2c0.4-0.1,0.7-0.3,0.9-0.6c0.4-0.6,0.2-1.4-0.4-1.8c-0.2-0.1-0.4-0.2-0.6-0.2
		c0.3-1.8,1.2-4.1,2.6-6.5c2.7-4.5,6.2-7.2,7.9-6.2s0.9,5.5-1.8,9.9c-2.7,4.5-6.2,7.2-7.9,6.2C12.3,21.9,12.1,21.6,11.9,21.2z"/>
	<path class="st0" d="M10.6,19.3c0.3-0.4,0.7-0.7,1.2-0.6c0.2,0,0.4,0.1,0.6,0.2c0.6,0.4,0.8,1.2,0.4,1.8c-0.2,0.3-0.5,0.6-0.9,0.6
		c-0.3,0-0.6,0-0.9-0.2C10.4,20.7,10.2,19.9,10.6,19.3z"/>
	<path class="st0" d="M12.1,6.7C12.5,6.8,12.8,7,13,7.3c0.4,0.6,0.1,1.4-0.5,1.8c-0.2,0.1-0.4,0.2-0.6,0.2c0.3,1.8,1.1,4.2,2.5,6.5
		c2.6,4.5,6.1,7.4,7.8,6.4s1-5.4-1.6-9.9c-2.6-4.5-6.1-7.4-7.8-6.4C12.5,6,12.3,6.3,12.1,6.7z"/>
	<path class="st0" d="M10.7,8.6C11,9.1,11.5,9.3,12,9.3c0.2,0,0.4-0.1,0.6-0.2C13.2,8.8,13.4,8,13,7.3c-0.2-0.3-0.5-0.6-0.9-0.6
		c-0.3-0.1-0.6,0-0.9,0.2C10.6,7.2,10.4,8,10.7,8.6z"/>
	<circle class="st0" cx="17.5" cy="14" r="1.9"/>
</g>
</svg>
