<?xml version="1.0" encoding="utf-8"?>
<!-- Generator: Adobe Illustrator 23.0.1, SVG Export Plug-In . SVG Version: 6.00 Build 0)  -->
<svg version="1.1" id="Layer_1" xmlns="http://www.w3.org/2000/svg" xmlns:xlink="http://www.w3.org/1999/xlink" x="0px" y="0px"
	 viewBox="0 0 34.8 34.8" style="enable-background:new 0 0 34.8 34.8;" xml:space="preserve">
<style type="text/css">
	.st0{fill:none;stroke:#FFC959;stroke-linecap:round;stroke-linejoin:round;stroke-miterlimit:10;}
</style>
<g>
	<polyline class="st0" points="28.1,26 28.1,32.9 1.2,32.9 1.2,1.8 28.1,1.8 28.1,7.7 	"/>
	<rect x="4.4" y="5.2" class="st0" width="20.3" height="2.3"/>
	<polyline class="st0" points="24.7,25.9 24.7,29.7 4.4,29.7 4.4,23.4 12.3,23.4 	"/>
	<line class="st0" x1="5.3" y1="10.3" x2="12.1" y2="10.3"/>
	<line class="st0" x1="5.3" y1="12.5" x2="12.1" y2="12.5"/>
	<line class="st0" x1="5.3" y1="14.7" x2="12.1" y2="14.7"/>
	<line class="st0" x1="5.3" y1="16.9" x2="12.1" y2="16.9"/>
	<path class="st0" d="M31.2,24.4H23l-6.4,3.1v-3.1c-1.2,0-2.3-1-2.3-2.3V11.8c0-1.2,1-2.3,2.3-2.3h14.6c1.2,0,2.3,1,2.3,2.3v10.3
		C33.4,23.4,32.4,24.4,31.2,24.4z"/>
	<line class="st0" x1="23.9" y1="11.9" x2="23.9" y2="21.9"/>
	<path class="st0" d="M21.1,20c0,0,0.7,0.9,2.8,0.9s2.6-1.1,2.6-1.9c0-0.8-0.4-1.7-2.6-2.3c-2.4-0.7-2.4-1.9-2.4-2.2
		c0-0.6,0.4-1.7,2.3-1.7c1.1,0,1.8,0.2,2.2,0.4"/>
</g>
</svg>
