<?xml version="1.0" encoding="utf-8"?>
<!-- Generator: Adobe Illustrator 23.0.1, SVG Export Plug-In . SVG Version: 6.00 Build 0)  -->
<svg version="1.1" id="Layer_1" xmlns="http://www.w3.org/2000/svg" xmlns:xlink="http://www.w3.org/1999/xlink" x="0px" y="0px"
	 viewBox="0 0 34.8 34.8" style="enable-background:new 0 0 34.8 34.8;" xml:space="preserve">
<style type="text/css">
	.st0{fill:none;stroke:#FFC959;stroke-linecap:round;stroke-linejoin:round;stroke-miterlimit:10;}
	.st1{fill:#FFC959;}
</style>
<g>
	<g>
		<path class="st0" d="M24.2,26c0,0,3.7,0.2,3.7-4v-2.5"/>
		<path class="st0" d="M24.2,20.5c1.2,0,3.3-0.6,3.7-1s0.7-1.1,0.7-1.1"/>
		<path class="st0" d="M24.2,18h4.4l1.1-2.3c0,0-3.2-2.1-5.6-2.1"/>
		<line class="st0" x1="24.2" y1="33.9" x2="27.6" y2="26.4"/>
		<path class="st0" d="M24.6,26c0,0,5,0,7,2.1c1.3,1.4,1.3,2.3,1.3,6"/>
		<line class="st0" x1="30.4" y1="30.3" x2="30.4" y2="27.3"/>
		<path class="st0" d="M25.6,30.7l-1.4-2.6c1.5,0,1.3-2,1.3-2"/>
	</g>
	<g>
		<path class="st0" d="M24.2,26c0,0-3.7,0.2-3.7-4v-2.5"/>
		<path class="st0" d="M24.2,20.5c-1.2,0-3.3-0.6-3.7-1s-0.7-1.1-0.7-1.1"/>
		<path class="st0" d="M24.2,18h-4.4l-1.1-2.3c0,0,3.2-2.1,5.6-2.1"/>
		<line class="st0" x1="24.2" y1="33.9" x2="20.9" y2="26.4"/>
		<path class="st0" d="M23.8,26c0,0-5,0-7,2.1c-1.3,1.4-1.3,2.3-1.3,6"/>
		<line class="st0" x1="18" y1="30.3" x2="18" y2="27.3"/>
		<path class="st0" d="M22.8,30.7l1.4-2.6c-1.5,0-1.3-2-1.3-2"/>
	</g>
	<circle class="st1" cx="24.2" cy="16.1" r="0.9"/>
	<polyline class="st0" points="13.6,29.7 2,29.7 2,0.7 21.8,0.7 21.8,12 	"/>
	<rect x="5.1" y="21.7" class="st0" width="4.9" height="4.9"/>
	<line class="st0" x1="12.5" y1="23" x2="17.5" y2="23"/>
	<line class="st0" x1="12.5" y1="25.4" x2="15.5" y2="25.4"/>
	<polyline class="st0" points="10,16.8 10,18 5.1,18 5.1,13.1 6.8,13.1 	"/>
	<line class="st0" x1="12.5" y1="14.4" x2="17.5" y2="14.4"/>
	<line class="st0" x1="12.5" y1="16.8" x2="15.5" y2="16.8"/>
	<polyline class="st0" points="6.9,14.9 8.2,16.1 10,13.6 	"/>
	<polyline class="st0" points="10,8.2 10,9.5 5.1,9.5 5.1,4.5 6.8,4.5 	"/>
	<line class="st0" x1="12.5" y1="5.8" x2="18.6" y2="5.8"/>
	<line class="st0" x1="12.5" y1="8.2" x2="18.6" y2="8.2"/>
	<polyline class="st0" points="6.9,6.3 8.2,7.5 10,5 	"/>
</g>
</svg>
