<?xml version="1.0" encoding="utf-8"?>
<!-- Generator: Adobe Illustrator 23.0.1, SVG Export Plug-In . SVG Version: 6.00 Build 0)  -->
<svg version="1.1" id="Layer_1" xmlns="http://www.w3.org/2000/svg" xmlns:xlink="http://www.w3.org/1999/xlink" x="0px" y="0px"
	 viewBox="0 0 38 38" style="enable-background:new 0 0 38 38;" xml:space="preserve">
<style type="text/css">
	.st0{fill:#FFC956;}
</style>
<path class="st0" d="M19,0C8.5,0,0,8.5,0,19s8.5,19,19,19s19-8.5,19-19C38,8.5,29.5,0,19,0z M14.2,27.5c0,0.2-0.1,0.3-0.3,0.3h-3.7
	c-0.2,0-0.3-0.1-0.3-0.3V15.2c0-0.2,0.1-0.3,0.3-0.3h3.7c0.2,0,0.3,0.1,0.3,0.3V27.5z M12,13.3c-1.3,0-2.3-1-2.3-2.3s1-2.3,2.3-2.3
	s2.3,1,2.3,2.3S13.2,13.3,12,13.3z M29.7,27.5c0,0.2-0.1,0.3-0.3,0.3h-3.7c-0.2,0-0.3-0.1-0.3-0.3v-6.6c0-1.7-0.6-2.9-2.2-2.9
	c-1.2,0-1.9,0.8-2.2,1.6c-0.1,0.3-0.1,0.7-0.1,1v6.9c0,0.2-0.1,0.3-0.3,0.3h-3.7c-0.2,0-0.3-0.1-0.3-0.3c0-1.8,0-10.3,0-12.3
	c0-0.2,0.1-0.3,0.3-0.3h3.6c0.2,0,0.3,0.1,0.3,0.3v1.5c0.6-0.9,1.6-2.1,3.9-2.1c2.8,0,4.9,1.8,4.9,5.8L29.7,27.5L29.7,27.5z"/>
</svg>
