<?xml version="1.0" encoding="utf-8"?>
<!-- Generator: Adobe Illustrator 23.0.1, SVG Export Plug-In . SVG Version: 6.00 Build 0)  -->
<svg version="1.1" id="Layer_1" xmlns="http://www.w3.org/2000/svg" xmlns:xlink="http://www.w3.org/1999/xlink" x="0px" y="0px"
	 viewBox="0 0 38 38" style="enable-background:new 0 0 38 38;" xml:space="preserve">
<style type="text/css">
	.st0{fill:#FFC956;}
</style>
<g>
	<g>
		<path class="st0" d="M17.4,15.9c-0.2-0.1-0.4,0-0.4,0.3v5.7c0,0.2,0.2,0.4,0.4,0.3l5-2.8c0.2-0.1,0.3-0.5,0-0.6L17.4,15.9z M19,0
			C8.5,0,0,8.5,0,19s8.5,19,19,19s19-8.5,19-19C38,8.5,29.5,0,19,0z M30.4,22c0,2.7-2.2,4.9-4.9,4.9H12.8C10.1,26.9,8,24.7,8,22
			v-5.9c0-2.7,2.2-4.9,4.9-4.9h12.6c2.7,0,4.9,2.2,4.9,4.9C30.4,16.1,30.4,22,30.4,22z"/>
	</g>
</g>
</svg>
