<?xml version="1.0" encoding="utf-8"?>
<!-- Generator: Adobe Illustrator 16.0.0, SVG Export Plug-In . SVG Version: 6.00 Build 0)  -->
<!DOCTYPE svg PUBLIC "-//W3C//DTD SVG 1.1//EN" "http://www.w3.org/Graphics/SVG/1.1/DTD/svg11.dtd">
<svg version="1.1" id="Layer_1" xmlns="http://www.w3.org/2000/svg" xmlns:xlink="http://www.w3.org/1999/xlink" x="0px" y="0px"
	 width="612px" height="792px" viewBox="0 0 612 792" enable-background="new 0 0 612 792" xml:space="preserve">
<g>
	<path fill="#FFC959" d="M213.324,98.584C213.324,98.584,223.141,98.584,213.324,98.584c117.803,0,225.788,0,333.774,0
		c29.45,0,58.901,29.451,58.901,58.901c0,157.071,0,314.142,0,481.029c0,29.449-29.451,58.901-58.901,58.901
		c-107.986,0-215.972,0-333.774,0c0,0,0,0-9.817,0c0,0,0,0,0-9.817c9.817-19.635,19.634-29.451,19.634-58.901
		c0-157.07,0-314.141,0-481.028C232.959,137.852,232.959,118.218,213.324,98.584L213.324,98.584z M429.296,206.57
		c-39.269,0-78.535,0-117.803,0c-9.817,0-19.633,0-19.633,19.634c0,29.451,0,49.085,0,78.536c0,9.816,0,19.633,19.633,19.633
		c78.534,0,166.888,0,245.422,0c9.817,0,19.634,0,19.634-19.633c0-29.451,0-49.085,0-78.536c0-9.817,0-19.634-19.634-19.634
		C507.831,206.57,468.564,206.57,429.296,206.57z M321.31,471.627c-9.816,0-19.634,0-19.634,0c-9.815,0-19.633,0-19.633,9.816
		c0,9.818,9.817,9.818,9.817,9.818c9.815,0,29.449,0,39.267,0c9.815,0,9.815-9.818,9.815-9.818c9.818-9.816,9.818-9.816,0-9.816
		C331.127,471.627,321.31,471.627,321.31,471.627z M527.466,471.627c0,0-9.818,0-19.635,0l0,0c-9.817,0-9.817,0-9.817,9.816
		c0,9.818,0,9.818,9.817,9.818c9.816,0,29.45,0,39.268,0c9.816,0,9.816-9.818,9.816-9.818c9.817-9.816,0-9.816-9.816-9.816
		C547.099,471.627,537.281,471.627,527.466,471.627z M321.31,559.979h-9.816h-9.817c-9.815,0-19.633,9.817-19.633,9.817
		c0,9.817,9.817,9.817,9.817,9.817c9.815,0,29.449,0,39.267,0c9.815,0,9.815-9.817,9.815-9.817c0-9.817-9.815-9.817-9.815-9.817
		H321.31z M321.31,402.909L321.31,402.909c9.817,0,9.817,0,19.633,0c9.818,0,9.818-9.818,9.818-9.818
		c0-9.816-9.818-9.816-9.818-9.816c-9.815,0-29.449,0-39.267,0c-9.815,0-9.815,9.816-9.815,9.816c0,9.818,9.815,9.818,9.815,9.818
		S311.493,402.909,321.31,402.909z M527.466,402.909L527.466,402.909c9.815,0,9.815,0,19.633,0c9.816,0,9.816-9.818,9.816-9.818
		c0-9.816-9.816-9.816-9.816-9.816c-9.817,0-29.451,0-39.268,0c-9.817,0-9.817,9.816-9.817,9.816c0,9.818,9.817,9.818,9.817,9.818
		C517.648,402.909,527.466,402.909,527.466,402.909z M419.48,491.262c9.816,0,9.816,0,19.633,0s9.816-9.818,9.816-9.818
		c9.817-9.816,0-9.816,0-9.816c-19.633,0-29.449,0-49.084,0c0,0-9.817,0-9.817,9.816c0,9.818,9.817,9.818,9.817,9.818
		C409.662,491.262,419.48,491.262,419.48,491.262z M419.48,559.979c-9.817,0-9.817,0-19.635,0c0,0-9.817,0-9.817,9.817
		s0,9.817,9.817,9.817s29.451,0,39.268,0s9.816-9.817,9.816-9.817c0-9.817-9.816-9.817-9.816-9.817S429.296,559.979,419.48,559.979z
		 M527.466,559.979c-9.818,0-9.818,0-19.635,0c-9.817,0-9.817,9.817-9.817,9.817c0,9.817,0,9.817,9.817,9.817
		c9.816,0,29.45,0,39.268,0c9.816,0,9.816-9.817,9.816-9.817c0-9.817-9.816-9.817-9.816-9.817S537.281,559.979,527.466,559.979z
		 M419.48,383.275c-9.817,0-9.817,0-19.635,0s-9.817,9.816-9.817,9.816c0,9.818,9.817,9.818,9.817,9.818c9.817,0,29.451,0,39.268,0
		s9.816-9.818,9.816-9.818c0-9.816-9.816-9.816-9.816-9.816S429.296,383.275,419.48,383.275z"/>
	<path fill="#FFC959" d="M203.507,393.091c0,78.536,0,157.072,0,235.606c0,39.267-29.45,58.901-58.902,58.901
		c-29.45,0-49.084,0-78.535,0c-39.267,9.817-58.901-19.635-58.901-49.084c0-157.071,0-314.142,0-471.212
		c0-39.268,29.451-58.902,58.901-58.902c29.451,0,49.085,0,78.535,0c29.452,0,58.902,29.451,58.902,58.902
		C203.507,236.021,203.507,314.556,203.507,393.091z"/>
</g>
</svg>
