<?xml version="1.0" encoding="utf-8"?>
<!-- Generator: Adobe Illustrator 23.0.1, SVG Export Plug-In . SVG Version: 6.00 Build 0)  -->
<svg version="1.1" id="Layer_1" xmlns="http://www.w3.org/2000/svg" xmlns:xlink="http://www.w3.org/1999/xlink" x="0px" y="0px"
	 viewBox="0 0 90 90" style="enable-background:new 0 0 90 90;" xml:space="preserve">
<style type="text/css">
	.st0{fill:#90A8C0;}
</style>
<g>
	<path class="st0" d="M44.85,14.36c9.47-0.05,17.4,7.77,17.48,17.24c0.07,9.28-7.9,17.34-17.18,17.37
		C35.68,49,27.73,41.11,27.69,31.67C27.66,22.38,35.56,14.41,44.85,14.36z M44.94,46.36c8.34,0.02,14.74-6.36,14.75-14.7
		c0.01-8.3-6.37-14.69-14.67-14.7c-8.31,0-14.68,6.36-14.69,14.68C30.31,39.91,36.69,46.34,44.94,46.36z"/>
	<path class="st0" d="M42.4,58.31c-0.02,8.62,6.71,16.19,15.25,17.18c9.15,1.06,17.66-5.43,19.11-14.57
		c1.22-7.69-3.27-15.65-10.5-18.57c-0.71-0.29-1.44-0.53-2.18-0.75c-0.78-0.23-1.49,0.17-1.67,0.88c-0.19,0.73,0.19,1.4,0.98,1.62
		c1.65,0.47,3.22,1.12,4.64,2.1c3.77,2.62,5.89,6.24,6.25,10.8c0.43,5.57-1.52,10.18-6.14,13.4c-8.08,5.63-20.46,2.02-22.83-8.91
		c-0.54-2.48-0.46-4.96,0.3-7.4c0.06-0.2,0.13-0.4,0.18-0.6c0.23-0.81-0.08-1.51-0.76-1.74c-0.74-0.25-1.5,0.09-1.7,0.92
		c-0.37,1.51-0.64,3.04-0.92,4.57C42.35,57.59,42.4,57.96,42.4,58.31z"/>
	<path class="st0" d="M29.96,75.64c4.67-0.09,8.42-1.46,11.66-4.19c0.23-0.2,0.46-0.44,0.59-0.71c0.25-0.52,0.06-1.16-0.4-1.51
		c-0.44-0.34-1.09-0.37-1.57-0.02c-0.62,0.45-1.2,0.97-1.84,1.4c-8.17,5.47-20.72,1.43-22.53-9.81c-1.02-6.34,1.69-12.1,7.14-15.2
		c1.11-0.63,2.36-1.02,3.56-1.47c0.53-0.2,0.93-0.47,1.05-1.04c0.19-0.98-0.64-1.77-1.63-1.51c-3.23,0.84-5.97,2.53-8.22,4.97
		c-3.13,3.41-4.78,7.43-4.73,12.08c0.09,8.05,6.44,15.42,14.37,16.72C28.39,75.51,29.39,75.58,29.96,75.64z"/>
	<path class="st0" d="M30.35,59.66c-3.68,0.15-6.61,1.7-8.95,4.41c-0.55,0.63-0.49,1.4,0.08,1.89c0.56,0.48,1.35,0.44,1.89-0.18
		c1.29-1.47,2.75-2.69,4.67-3.18c3.39-0.86,6.28,0.06,8.69,2.55c0.22,0.22,0.41,0.47,0.63,0.69c0.54,0.54,1.32,0.58,1.85,0.09
		c0.51-0.46,0.59-1.24,0.12-1.8C36.97,61.36,33.99,59.79,30.35,59.66z"/>
	<path class="st0" d="M59.63,62.36c-2.58,0-5.16,0-7.74,0c-0.96,0-1.5,0.47-1.51,1.27c-0.01,0.82,0.57,1.33,1.53,1.33
		c5.18,0,10.36,0,15.54,0c0.77,0,1.21-0.28,1.44-0.87c0.2-0.53,0.1-1.03-0.32-1.36c-0.29-0.22-0.71-0.36-1.07-0.37
		C64.88,62.35,62.25,62.36,59.63,62.36z"/>
	<path class="st0" d="M50.38,55.59c0,0.77,0.52,1.34,1.24,1.38c0.71,0.03,1.29-0.5,1.37-1.26c0.12-1.16,0.59-1.53,1.72-1.37
		c0.57,0.08,0.89,0.4,0.96,0.97c0.01,0.04,0.01,0.08,0.01,0.12c0.13,1.07,0.68,1.64,1.49,1.53c0.86-0.12,1.26-0.82,1.09-1.9
		c-0.3-1.86-2.3-3.5-4.08-3.37C52.19,51.83,50.37,53.7,50.38,55.59z"/>
	<path class="st0" d="M65.02,54.31c0.89,0.01,1.27,0.36,1.36,1.27c0.09,0.91,0.66,1.46,1.42,1.38c0.82-0.09,1.31-0.82,1.16-1.75
		c-0.31-1.92-2.14-3.55-3.96-3.53c-1.82,0.01-3.59,1.6-3.93,3.5c-0.16,0.93,0.3,1.67,1.12,1.78c0.78,0.1,1.36-0.45,1.45-1.41
		C63.73,54.65,64.12,54.3,65.02,54.31z"/>
	<path class="st0" d="M35.68,56.97c1.93,0,3.9-1.9,3.95-3.8c0.02-0.86-0.48-1.45-1.25-1.48c-0.74-0.03-1.29,0.52-1.35,1.33
		c-0.08,1.03-0.66,1.49-1.66,1.31c-0.68-0.12-0.96-0.42-1.03-1.19c-0.05-0.6-0.24-1.11-0.83-1.36c-0.9-0.38-1.84,0.31-1.81,1.32
		C31.77,55.08,33.72,56.96,35.68,56.97z"/>
	<path class="st0" d="M25.03,56.97c1.93-0.01,3.88-1.89,3.96-3.82c0.03-0.8-0.48-1.41-1.22-1.46c-0.75-0.05-1.31,0.47-1.38,1.28
		c-0.1,1.12-0.74,1.58-1.82,1.33c-0.65-0.15-0.85-0.59-0.92-1.18c-0.11-1.03-0.65-1.54-1.48-1.42c-0.84,0.12-1.27,0.86-1.07,1.85
		C21.47,55.45,23.24,56.98,25.03,56.97z"/>
	<path class="st0" d="M45.01,40.95c3.64-0.12,6.59-1.67,8.95-4.41c0.53-0.61,0.46-1.42-0.11-1.89c-0.54-0.46-1.28-0.37-1.85,0.16
		c-0.85,0.79-1.65,1.68-2.62,2.28c-3.54,2.18-7.86,1.5-10.73-1.59c-0.23-0.24-0.44-0.5-0.68-0.74c-0.52-0.52-1.28-0.56-1.8-0.12
		c-0.54,0.46-0.63,1.26-0.14,1.85c1.97,2.34,4.45,3.85,7.49,4.34c0.31,0.05,0.62,0.08,0.93,0.11
		C44.64,40.97,44.82,40.95,45.01,40.95z"/>
	<path class="st0" d="M50.33,25.01c-1.91,0-3.87,1.86-3.95,3.74c-0.04,0.89,0.41,1.47,1.19,1.53c0.79,0.06,1.35-0.49,1.41-1.39
		c0.06-0.88,0.48-1.28,1.36-1.27c0.85,0,1.24,0.36,1.34,1.22c0.11,0.96,0.6,1.48,1.37,1.45c0.75-0.03,1.28-0.64,1.25-1.43
		C54.24,26.89,52.29,25,50.33,25.01z"/>
	<path class="st0" d="M43.63,28.82c-0.05-1.94-2.06-3.84-4.01-3.81c-1.96,0.03-3.92,1.99-3.92,3.92c0,0.75,0.54,1.34,1.26,1.37
		c0.73,0.03,1.26-0.49,1.37-1.33c0.14-1.11,0.73-1.54,1.78-1.29c0.64,0.15,0.86,0.46,0.93,1.28c0.07,0.92,0.75,1.48,1.59,1.3
		C43.29,30.11,43.65,29.59,43.63,28.82z"/>
</g>
</svg>
