<?xml version="1.0" encoding="utf-8"?>
<!-- Generator: Adobe Illustrator 23.0.1, SVG Export Plug-In . SVG Version: 6.00 Build 0)  -->
<svg version="1.1" id="Layer_1" xmlns="http://www.w3.org/2000/svg" xmlns:xlink="http://www.w3.org/1999/xlink" x="0px" y="0px"
	 viewBox="0 0 90 90" style="enable-background:new 0 0 90 90;" xml:space="preserve">
<style type="text/css">
	.st0{fill:#90A8C0;}
</style>
<g>
	<path class="st0" d="M57.75,31.36c3.73,3.85,5.87,8.32,5.85,13.7c-0.01,5.34-2.16,9.78-5.84,13.61c0.86-0.39,1.74-0.74,2.59-1.16
		c4.35-2.15,8.1-5.08,11.19-8.83c0.13-0.16,0.27-0.32,0.41-0.47c0.55-0.6,1.33-0.67,1.89-0.18c0.54,0.48,0.63,1.27,0.1,1.84
		c-1.41,1.53-2.77,3.12-4.33,4.49c-5.43,4.78-11.76,7.78-18.91,8.82c-11.4,1.67-21.51-1.36-30.28-8.83
		c-2.81-2.4-5.12-5.23-7.06-8.37c-0.43-0.69-0.43-1.28,0.01-1.96c5.83-9.23,14.08-15.08,24.8-16.96
		c14.42-2.52,26.39,2.15,35.84,13.3c0.98,1.15,1.76,2.47,2.6,3.74c0.54,0.81,0.4,1.59-0.29,2.01c-0.68,0.41-1.44,0.17-1.93-0.65
		c-3.82-6.28-9.09-10.88-15.85-13.78C58.28,31.57,58.02,31.47,57.75,31.36z M32.06,31.45c0.02,0-0.02-0.01-0.05,0.01
		c-0.1,0.03-0.2,0.07-0.29,0.11c-6.56,2.72-11.75,7.09-15.62,13.04c-0.21,0.32-0.16,0.55,0.03,0.84
		c3.87,5.92,9.04,10.28,15.58,12.99c0.17,0.07,0.35,0.13,0.59,0.22c-0.05-0.13-0.05-0.16-0.06-0.17c-0.16-0.17-0.32-0.33-0.48-0.49
		c-3.43-3.58-5.31-7.8-5.39-12.79c-0.01-0.92,0.51-1.51,1.29-1.5c0.79,0,1.26,0.59,1.32,1.5c0.07,1.04,0.12,2.08,0.32,3.1
		c1.8,8.99,10.44,14.42,19.56,12.26c10.38-2.45,14.75-13.55,10.67-22.39c-2.5-5.42-6.88-8.43-12.81-9.08
		c-4.21-0.46-8.05,0.55-11.45,3.12c-2.28,1.72-3.9,3.96-5.04,6.56c-0.35,0.79-1.09,1.07-1.79,0.73c-0.67-0.32-0.93-1.05-0.57-1.8
		c0.43-0.9,0.85-1.82,1.41-2.63C30.14,33.82,31.13,32.64,32.06,31.45z"/>
	<path class="st0" d="M43.72,21.04c0.85,0,1.65,0,2.52,0c0,0.84,0,1.67,0,2.55c-0.83,0-1.65,0-2.52,0
		C43.72,22.74,43.72,21.9,43.72,21.04z"/>
	<path class="st0" d="M43.71,66.4c0.87,0,1.67,0,2.53,0c0,0.86,0,1.69,0,2.56c-0.85,0-1.67,0-2.53,0
		C43.71,68.11,43.71,67.29,43.71,66.4z"/>
	<path class="st0" d="M38.38,23.57c0-0.86,0-1.66,0-2.51c0.85,0,1.67,0,2.54,0c0,0.81,0,1.63,0,2.51
		C40.11,23.57,39.27,23.57,38.38,23.57z"/>
	<path class="st0" d="M51.57,21.07c0,0.83,0,1.65,0,2.52c-0.84,0-1.66,0-2.53,0c0-0.82,0-1.64,0-2.52
		C49.87,21.07,50.7,21.07,51.57,21.07z"/>
	<path class="st0" d="M40.92,68.95c-0.84,0-1.66,0-2.52,0c0-0.85,0-1.67,0-2.53c0.83,0,1.65,0,2.52,0
		C40.92,67.24,40.92,68.06,40.92,68.95z"/>
	<path class="st0" d="M49.03,68.94c0-0.84,0-1.65,0-2.51c0.83,0,1.67,0,2.54,0c0,0.83,0,1.65,0,2.51
		C50.74,68.94,49.92,68.94,49.03,68.94z"/>
	<path class="st0" d="M45,51.68c3.74-0.01,6.45-2.56,6.65-6.28c0.01-0.12,0.01-0.25,0.02-0.37c0.08-0.83,0.62-1.36,1.36-1.33
		c0.76,0.03,1.35,0.65,1.24,1.49c-0.14,1.06-0.29,2.16-0.68,3.15c-1.56,3.97-5.54,6.34-9.73,5.9c-3.87-0.41-7.39-3.83-8.08-7.87
		c-0.78-4.61,2.65-9.5,7.36-10.46c0.53-0.11,1.07-0.17,1.61-0.2c0.89-0.06,1.52,0.48,1.54,1.26c0.03,0.75-0.53,1.32-1.41,1.35
		c-1.73,0.04-3.28,0.56-4.55,1.75c-1.98,1.85-2.6,4.96-1.54,7.62C39.79,50.18,42.13,51.69,45,51.68z"/>
	<path class="st0" d="M44.94,44.56c1.89-1.91,3.65-3.68,5.42-5.45c0.16-0.16,0.32-0.33,0.5-0.47c0.53-0.4,1.25-0.35,1.71,0.1
		c0.48,0.47,0.53,1.15,0.13,1.71c-0.04,0.05-0.08,0.1-0.12,0.14c-2.22,2.22-4.44,4.45-6.68,6.67c-0.55,0.54-1.28,0.53-1.85-0.01
		c-0.9-0.87-1.78-1.75-2.65-2.65c-0.55-0.57-0.53-1.33,0-1.85c0.51-0.5,1.3-0.52,1.85,0.01C43.81,43.31,44.33,43.91,44.94,44.56z"/>
</g>
</svg>
