<?xml version="1.0" encoding="utf-8"?>
<!-- Generator: Adobe Illustrator 23.0.1, SVG Export Plug-In . SVG Version: 6.00 Build 0)  -->
<svg version="1.1" id="Layer_1" xmlns="http://www.w3.org/2000/svg" xmlns:xlink="http://www.w3.org/1999/xlink" x="0px" y="0px"
	 viewBox="0 0 28 28" style="enable-background:new 0 0 28 28;" xml:space="preserve">
<style type="text/css">
	.st0{fill:#FFC956;}
</style>
<g>
	<g>
		<path class="st0" d="M14,0.5C6.6,0.5,0.5,6.5,0.5,14s6,13.5,13.5,13.5S27.5,21.5,27.5,14S21.5,0.5,14,0.5z M19.3,15.4L19.3,15.4
			c-0.2,0.3-0.3,0.5-0.5,0.7L14,23l-4.7-6.8c-0.9-1-1.4-2.4-1.4-3.9c0-3.3,2.7-6.1,6.1-6.1c3.4,0,6.1,2.7,6.1,6.1
			C20.1,13.5,19.8,14.5,19.3,15.4L19.3,15.4z M13.9,9.4c-1.7,0-3.1,1.4-3.1,3s1.4,3,3.1,3c1.7,0,3.1-1.4,3.1-3
			C16.9,10.7,15.6,9.4,13.9,9.4z"/>
	</g>
</g>
</svg>
