<?xml version="1.0" encoding="utf-8"?>
<!-- Generator: Adobe Illustrator 23.0.1, SVG Export Plug-In . SVG Version: 6.00 Build 0)  -->
<svg version="1.1" id="Layer_1" xmlns="http://www.w3.org/2000/svg" xmlns:xlink="http://www.w3.org/1999/xlink" x="0px" y="0px"
	 viewBox="0 0 24.9 22.1" style="enable-background:new 0 0 24.9 22.1;" xml:space="preserve">
<style type="text/css">
	.st0{fill:#FF0000;}
	.st1{fill:#FFFFFF;}
	.st2{fill:none;stroke:#FFFFFF;stroke-width:1.3;stroke-linecap:round;stroke-linejoin:round;stroke-miterlimit:10;}
	.st3{fill:none;stroke:#FFFFFF;stroke-width:1.6;stroke-linecap:round;stroke-linejoin:round;stroke-miterlimit:10;}
</style>
<g>
	<path class="st0" d="M2.8,21.6c-0.8,0-1.5-0.4-1.9-1.1c-0.4-0.7-0.4-1.5,0-2.2l9.7-16.8c0.4-0.7,1.1-1.1,1.9-1.1
		c0.8,0,1.5,0.4,1.9,1.1L24,18.4c0.4,0.7,0.4,1.5,0,2.2s-1.1,1.1-1.9,1.1H2.8z"/>
	<path class="st1" d="M12.5,1c0.6,0,1.1,0.3,1.4,0.8l9.7,16.8c0.3,0.5,0.3,1.1,0,1.7c-0.3,0.5-0.8,0.8-1.4,0.8H2.8
		c-0.6,0-1.1-0.3-1.4-0.8c-0.3-0.5-0.3-1.1,0-1.7L11,1.8C11.3,1.3,11.9,1,12.5,1 M12.5,0c-0.9,0-1.8,0.4-2.3,1.3L0.4,18.1
		c-1,1.8,0.3,4,2.3,4h19.4c2.1,0,3.3-2.2,2.3-4L14.8,1.3C14.3,0.4,13.4,0,12.5,0L12.5,0z"/>
</g>
<line class="st2" x1="12.5" y1="6" x2="12.5" y2="14.6"/>
<line class="st3" x1="12.5" y1="17.5" x2="12.5" y2="17.5"/>
</svg>
