<svg id="Group_1148" data-name="Group 1148" xmlns="http://www.w3.org/2000/svg" xmlns:xlink="http://www.w3.org/1999/xlink" width="47.22" height="47.207" viewBox="0 0 47.22 47.207">
  <defs>
    <clipPath id="clip-path">
      <rect id="Rectangle_1957" data-name="Rectangle 1957" width="47.22" height="47.207" fill="#222"/>
    </clipPath>
  </defs>
  <g id="Group_1147" data-name="Group 1147" transform="translate(0 0)" clip-path="url(#clip-path)">
    <path id="Path_1854" data-name="Path 1854" d="M31.365,23.869,29.5,23.29c-.913-.282-1.058-.859-.367-1.5q3.168-2.936,6.343-5.861c.6-.552,1.2-.362,1.381.437q.974,4.273,1.937,8.548c.163.726-.311,1.153-1.037.94-.689-.2-1.375-.418-2.041-.621-.538,1.032-1.016,2.039-1.574,3A17.339,17.339,0,0,1,25.6,35.968a17.428,17.428,0,0,1-4.932,1.187,2.268,2.268,0,1,1-.433-4.514,12.175,12.175,0,0,0,9.629-6.077c.527-.853.977-1.752,1.5-2.695" transform="translate(-6.541 -5.634)" fill="#222"/>
    <path id="Path_1855" data-name="Path 1855" d="M29.448,7.266q-5.356,0-10.713,0a2.452,2.452,0,0,1-.292-4.9c.11-.008.22-.008.33-.008q10.666,0,21.332,0a2.453,2.453,0,1,1,.1,4.9c-2.486.014-4.971,0-7.457,0h-3.3" transform="translate(-5.836 -0.852)" fill="#222"/>
    <path id="Path_1856" data-name="Path 1856" d="M7.267,29.432c0,3.586.008,7.172,0,10.758a2.449,2.449,0,1,1-4.9.054c-.01-1.714,0-3.429,0-5.143q0-8.186,0-16.373a2.451,2.451,0,1,1,4.9-.055c.012,2.674,0,5.348,0,8.022v2.737" transform="translate(-0.852 -5.835)" fill="#222"/>
    <path id="Path_1857" data-name="Path 1857" d="M63.835,29.418q0-5.379,0-10.758a2.366,2.366,0,0,1,1.323-2.231,2.321,2.321,0,0,1,2.465.123,2.387,2.387,0,0,1,1.112,2.117c.005,1.761,0,3.523,0,5.284q0,8.069,0,16.138a2.453,2.453,0,1,1-4.9.084c-.009-3.272,0-6.543,0-9.814v-.944" transform="translate(-23.035 -5.822)" fill="#222"/>
    <path id="Path_1858" data-name="Path 1858" d="M29.425,68.726c-3.571,0-7.142.007-10.713,0a2.442,2.442,0,0,1-2.4-3.29,2.391,2.391,0,0,1,2.138-1.6,3.528,3.528,0,0,1,.377-.008q10.619,0,21.238,0a2.466,2.466,0,0,1,2.594,1.946,2.44,2.44,0,0,1-2.473,2.954c-3.036.012-6.072,0-9.108,0H29.425" transform="translate(-5.828 -23.031)" fill="#222"/>
    <path id="Path_1859" data-name="Path 1859" d="M1.673,65.405c-.4-.383-.772-.72-1.123-1.076A1.628,1.628,0,0,1,.5,61.936,1.628,1.628,0,0,1,2.862,62c.357.35.693.723,1.1,1.146.382-.4.708-.755,1.051-1.094a1.647,1.647,0,1,1,2.312,2.333c-.33.333-.684.644-1.086,1.02.414.4.78.738,1.129,1.094a1.646,1.646,0,1,1-2.325,2.321c-.348-.34-.685-.692-1.141-1.154-.348.4-.656.791-1.007,1.143A1.646,1.646,0,1,1,.585,66.475c.341-.344.69-.679,1.088-1.07" transform="translate(0 -22.179)" fill="#222"/>
    <path id="Path_1860" data-name="Path 1860" d="M65.44,67.685c-.408.428-.742.8-1.1,1.15a1.643,1.643,0,1,1-2.325-2.317c.352-.356.722-.693,1.139-1.092-.408-.394-.773-.733-1.124-1.088a1.644,1.644,0,1,1,2.327-2.316c.346.342.672.7,1.117,1.172.36-.41.66-.791,1-1.133A1.646,1.646,0,1,1,68.8,64.377c-.33.335-.68.651-1.182,1.129a4.109,4.109,0,0,1,.637.421c1.277,1.26,1.467,2.14.659,2.96s-1.708.637-3-.656c-.144-.144-.271-.306-.481-.545" transform="translate(-22.183 -22.179)" fill="#222"/>
    <path id="Path_1861" data-name="Path 1861" d="M63.154,3.966c-.435-.419-.806-.761-1.157-1.12A1.625,1.625,0,0,1,61.967.483a1.624,1.624,0,0,1,2.362.054c.359.35.692.728,1.1,1.157.385-.4.711-.759,1.055-1.1A1.644,1.644,0,1,1,68.816,2.9c-.337.347-.69.679-1.077,1.059.4.389.762.732,1.111,1.09A1.644,1.644,0,1,1,66.53,7.377c-.357-.351-.693-.722-1.08-1.129-.391.4-.724.751-1.069,1.091a1.647,1.647,0,1,1-2.333-2.312c.342-.345.7-.673,1.106-1.062" transform="translate(-22.183 0)" fill="#222"/>
    <path id="Path_1862" data-name="Path 1862" d="M1.663,3.956C1.257,3.565.9,3.237.558,2.888A1.641,1.641,0,1,1,2.875.564c.35.338.678.7,1.064,1.1.4-.4.772-.778,1.152-1.143a1.577,1.577,0,0,1,1.7-.4,1.574,1.574,0,0,1,1.1,1.354A1.573,1.573,0,0,1,7.4,2.854c-.354.357-.723.7-1.188,1.147.391.354.759.664,1.1,1a1.651,1.651,0,1,1-2.33,2.316c-.332-.33-.657-.668-1.025-1.042-.388.4-.731.761-1.09,1.11a1.632,1.632,0,0,1-2.4.045,1.629,1.629,0,0,1,.07-2.362c.35-.358.709-.706,1.119-1.113" transform="translate(0 -0.01)" fill="#222"/>
    <path id="Path_1863" data-name="Path 1863" d="M23.591,24.37a3.349,3.349,0,1,1-3.339,3.338,3.342,3.342,0,0,1,3.339-3.338" transform="translate(-7.308 -8.794)" fill="#222"/>
    <path id="Path_1864" data-name="Path 1864" d="M35.966,54.453a3.345,3.345,0,0,1-.019-6.69,3.345,3.345,0,1,1,.019,6.69" transform="translate(-11.77 -17.236)" fill="#222"/>
    <path id="Path_1865" data-name="Path 1865" d="M48.631,42.338a3.345,3.345,0,1,1,3.344-3.311,3.331,3.331,0,0,1-3.344,3.311" transform="translate(-16.344 -12.864)" fill="#222"/>
  </g>
</svg>
