<svg id="Group_1142" data-name="Group 1142" xmlns="http://www.w3.org/2000/svg" xmlns:xlink="http://www.w3.org/1999/xlink" width="46.884" height="50.298" viewBox="0 0 46.884 50.298">
  <defs>
    <clipPath id="clip-path">
      <rect id="Rectangle_1954" data-name="Rectangle 1954" width="46.884" height="50.298" fill="#222"/>
    </clipPath>
  </defs>
  <g id="Group_1141" data-name="Group 1141" transform="translate(0 0)" clip-path="url(#clip-path)">
    <path id="Path_1816" data-name="Path 1816" d="M58.624,26.3A23.488,23.488,0,0,1,39.061,49.542a2.04,2.04,0,0,1-.341.068,1.46,1.46,0,0,0-1.444.869,2.458,2.458,0,0,1-2.9,1.021,2.615,2.615,0,0,1,0-4.995,2.532,2.532,0,0,1,2.915,1.013.771.771,0,0,0,.918.413,21.68,21.68,0,0,0,2.6-42.4c-.206-.055-.417-.091-.619-.157A.869.869,0,1,1,40.659,3.7a22.042,22.042,0,0,1,6.593,2.684A23.125,23.125,0,0,1,58.427,23.633c.121.881.134,1.778.2,2.668" transform="translate(-11.74 -1.324)" fill="#222"/>
    <path id="Path_1817" data-name="Path 1817" d="M1.675,25.153A21.839,21.839,0,0,0,18.018,46.129c.872.23,1.212.6,1.062,1.166-.159.6-.632.781-1.532.513C7.971,44.955,2.1,38.625.345,28.8A23.278,23.278,0,0,1,17.317,2.57c1.009-.263,2.046-.428,3.075-.607a.912.912,0,0,0,.771-.555A2.521,2.521,0,0,1,23.987.065a2.556,2.556,0,0,1,2.038,2.379A2.571,2.571,0,0,1,24.29,5.055a2.53,2.53,0,0,1-3-1.033.649.649,0,0,0-.787-.339A21.586,21.586,0,0,0,2.208,20.892c-.293,1.4-.361,2.839-.534,4.26" transform="translate(0 0)" fill="#222"/>
    <path id="Path_1818" data-name="Path 1818" d="M30.985,33.665H23.6c.037-.715.021-1.427.121-2.122.233-1.627.513-3.248.8-4.867.03-.167.252-.426.387-.428,2.013-.027,4.026-.019,6.08-.019Z" transform="translate(-8.515 -9.465)" fill="#222"/>
    <path id="Path_1819" data-name="Path 1819" d="M30.992,48.273c-2.04,0-4.034,0-6.028-.01-.135,0-.364-.115-.39-.217a31.839,31.839,0,0,1-.968-7.195h7.386Z" transform="translate(-8.519 -14.742)" fill="#222"/>
    <path id="Path_1820" data-name="Path 1820" d="M45.59,33.672h-7.4V26.28h6.371a32.894,32.894,0,0,1,1.028,7.392" transform="translate(-13.782 -9.484)" fill="#222"/>
    <path id="Path_1821" data-name="Path 1821" d="M38.169,48.274V40.855h7.407c-.036.686-.02,1.379-.118,2.057-.236,1.646-.515,3.286-.807,4.924-.029.164-.256.418-.395.42-2.011.027-4.023.019-6.088.019" transform="translate(-13.774 -14.743)" fill="#222"/>
    <path id="Path_1822" data-name="Path 1822" d="M17.263,26.229c-.318,2.51-.627,4.942-.941,7.418H8.954a34.244,34.244,0,0,1,.621-3.405c.35-1.239.872-2.431,1.345-3.633a.634.634,0,0,1,.427-.364c1.992-.024,3.983-.016,5.916-.016" transform="translate(-3.231 -9.465)" fill="#222"/>
    <path id="Path_1823" data-name="Path 1823" d="M59.6,33.652H52.34l-.934-7.426h2.172c1.181,0,2.362.008,3.543-.005a.592.592,0,0,1,.634.355A17.346,17.346,0,0,1,59.6,33.652" transform="translate(-18.551 -9.462)" fill="#222"/>
    <path id="Path_1824" data-name="Path 1824" d="M17.312,48.273c-1.939,0-3.931.005-5.923-.012a.538.538,0,0,1-.375-.27,17.039,17.039,0,0,1-1.921-7.138h7.28l.938,7.42" transform="translate(-3.282 -14.743)" fill="#222"/>
    <path id="Path_1825" data-name="Path 1825" d="M52.343,40.833h7.37c-.213,1.215-.329,2.411-.649,3.548A34.6,34.6,0,0,1,57.732,47.9a.625.625,0,0,1-.438.345c-1.977.024-3.954.015-5.894.015l.944-7.432" transform="translate(-18.548 -14.735)" fill="#222"/>
    <path id="Path_1826" data-name="Path 1826" d="M31.864,19.131H26.05c1.231-3.03,2.445-5.977,5.814-7.343Z" transform="translate(-9.401 -4.254)" fill="#222"/>
    <path id="Path_1827" data-name="Path 1827" d="M38.174,19.157V11.9a4.891,4.891,0,0,1,2.313,1.322,14.772,14.772,0,0,1,3.492,5.94Z" transform="translate(-13.776 -4.293)" fill="#222"/>
    <path id="Path_1828" data-name="Path 1828" d="M31.9,55.435V62.7a4.944,4.944,0,0,1-2.312-1.325A14.75,14.75,0,0,1,26.1,55.435Z" transform="translate(-9.417 -20.005)" fill="#222"/>
    <path id="Path_1829" data-name="Path 1829" d="M38.179,62.765V55.418h5.833c-1.236,3.024-2.441,5.976-5.833,7.347" transform="translate(-13.778 -19.999)" fill="#222"/>
    <path id="Path_1830" data-name="Path 1830" d="M23.193,13.06a19.546,19.546,0,0,0-3.382,6.529H14.181a17.348,17.348,0,0,1,9.012-6.529" transform="translate(-5.117 -4.713)" fill="#222"/>
    <path id="Path_1831" data-name="Path 1831" d="M54.1,19.567H48.556c-.506-1.164-.932-2.33-1.507-3.417s-1.3-2.1-1.979-3.184a17.8,17.8,0,0,1,9.026,6.6" transform="translate(-16.264 -4.679)" fill="#222"/>
    <path id="Path_1832" data-name="Path 1832" d="M14.183,55.42h5.63a19.485,19.485,0,0,0,3.4,6.537,17.405,17.405,0,0,1-9.03-6.537" transform="translate(-5.118 -19.999)" fill="#222"/>
    <path id="Path_1833" data-name="Path 1833" d="M48.443,55.407h5.635a17.5,17.5,0,0,1-9.034,6.555,19.57,19.57,0,0,0,3.4-6.555" transform="translate(-16.255 -19.995)" fill="#222"/>
  </g>
</svg>
