<svg id="Group_1140" data-name="Group 1140" xmlns="http://www.w3.org/2000/svg" xmlns:xlink="http://www.w3.org/1999/xlink" width="49.95" height="49.972" viewBox="0 0 49.95 49.972">
  <defs>
    <clipPath id="clip-path">
      <rect id="Rectangle_1953" data-name="Rectangle 1953" width="49.95" height="49.972" fill="#222"/>
    </clipPath>
  </defs>
  <g id="Group_1139" data-name="Group 1139" transform="translate(0 0)" clip-path="url(#clip-path)">
    <path id="Path_1806" data-name="Path 1806" d="M46.131,17.7h-.573c-2.992,0-5.984.012-8.977-.008a2.244,2.244,0,0,0-1.774.733c-.847.9-1.744,1.751-2.61,2.633a.458.458,0,0,1-.587.129,4.57,4.57,0,0,0-5.1,1.134,4.511,4.511,0,0,0-.851,4.939,4.588,4.588,0,0,0,8.517-3.409.646.646,0,0,1,.178-.835c.732-.692,1.425-1.427,2.151-2.127a.882.882,0,0,1,.539-.253c2.959-.015,5.919-.01,8.878-.008a1.628,1.628,0,0,1,.227.036,15,15,0,0,1-.807,3.8,15.826,15.826,0,0,1-4.33,6.621,10.056,10.056,0,0,0-3.225,5.706c-.056.3-.185.359-.453.359q-7.464-.008-14.928,0c-.277,0-.394-.081-.447-.369A9.96,9.96,0,0,0,18.8,31.137a15.989,15.989,0,0,1-4.974-8.854c-.1-.522-.166-1.053-.259-1.664h.615c3.025,0,6.049-.01,9.074.008a2.1,2.1,0,0,0,1.646-.68c.852-.895,1.746-1.749,2.61-2.633a.519.519,0,0,1,.667-.16A4.594,4.594,0,1,0,28.2,8.6a4.706,4.706,0,0,0-2.894,4.836,4.775,4.775,0,0,0,.313,1.172.454.454,0,0,1-.1.591c-.77.748-1.517,1.519-2.286,2.268a.749.749,0,0,1-.455.221c-3.008.01-6.016,0-9.025,0a.266.266,0,0,1-.089-.033,15.781,15.781,0,0,1,15.224-14.7A15.942,15.942,0,0,1,46.131,17.7" transform="translate(-4.897 -1.052)" fill="#222"/>
    <path id="Path_1807" data-name="Path 1807" d="M27.022,61.067H42.391a8.25,8.25,0,0,1-2.27,7.166,7.954,7.954,0,0,1-3.569,2.011.559.559,0,0,0-.362.324c-.168.954-.7,1.471-1.531,1.441s-1.332-.578-1.418-1.551a1.149,1.149,0,0,0-.031-.136,7.87,7.87,0,0,1-5.22-3.789,9.065,9.065,0,0,1-.968-5.465" transform="translate(-9.734 -22.037)" fill="#222"/>
    <path id="Path_1808" data-name="Path 1808" d="M13.687,4.621a3.977,3.977,0,0,1-.833-.481c-.57-.5-1.1-1.06-1.625-1.611A1.471,1.471,0,0,1,11.2.466,1.438,1.438,0,0,1,13.255.435c.591.557,1.166,1.132,1.72,1.724a1.324,1.324,0,0,1,.26,1.575,1.57,1.57,0,0,1-1.549.887" transform="translate(-3.894 -0.006)" fill="#222"/>
    <path id="Path_1809" data-name="Path 1809" d="M2.613,28.957c-.406,0-.813.021-1.218,0A1.452,1.452,0,0,1,0,27.534a1.422,1.422,0,0,1,1.33-1.473,22.653,22.653,0,0,1,2.627.005,1.37,1.37,0,0,1,1.308,1.474A1.408,1.408,0,0,1,3.879,28.95c-.421.026-.844,0-1.266,0v0" transform="translate(0 -9.392)" fill="#222"/>
    <path id="Path_1810" data-name="Path 1810" d="M72.525,28.956c-.406,0-.813.02-1.217,0a1.446,1.446,0,0,1-1.395-1.415,1.414,1.414,0,0,1,1.324-1.475,22.652,22.652,0,0,1,2.627,0,1.381,1.381,0,0,1,1.315,1.471,1.414,1.414,0,0,1-1.389,1.411c-.42.027-.844.005-1.265.005v0" transform="translate(-25.23 -9.392)" fill="#222"/>
    <path id="Path_1811" data-name="Path 1811" d="M10.783,52.379a3.212,3.212,0,0,1,.426-.8c.514-.584,1.08-1.123,1.643-1.662a1.423,1.423,0,0,1,2.086-.008,1.405,1.405,0,0,1-.006,2.05c-.546.579-1.108,1.143-1.689,1.687a1.372,1.372,0,0,1-1.622.259,1.514,1.514,0,0,1-.839-1.525" transform="translate(-3.891 -17.848)" fill="#222"/>
    <path id="Path_1812" data-name="Path 1812" d="M64.79,52.41a1.5,1.5,0,0,1-.85,1.5A1.334,1.334,0,0,1,62.4,53.7c-.635-.579-1.244-1.19-1.825-1.824a1.45,1.45,0,0,1,2.046-2.045c.634.58,1.246,1.19,1.819,1.83a2.444,2.444,0,0,1,.354.753" transform="translate(-21.722 -17.845)" fill="#222"/>
    <path id="Path_1813" data-name="Path 1813" d="M61.828,4.613a1.513,1.513,0,0,1-1.473-.855,1.34,1.34,0,0,1,.2-1.547C61.149,1.566,61.767.94,62.418.354a1.38,1.38,0,0,1,1.938.093,1.386,1.386,0,0,1,.1,1.938,26.051,26.051,0,0,1-1.9,1.891,2.313,2.313,0,0,1-.736.337" transform="translate(-21.724 0)" fill="#222"/>
    <path id="Path_1814" data-name="Path 1814" d="M38.178,19.237a1.622,1.622,0,0,1-1.691-1.63,1.65,1.65,0,0,1,1.677-1.7,1.671,1.671,0,0,1,1.647,1.642,1.644,1.644,0,0,1-1.633,1.693" transform="translate(-13.167 -5.739)" fill="#222"/>
    <path id="Path_1815" data-name="Path 1815" d="M39.8,37.21a1.646,1.646,0,0,1-1.657,1.675,1.68,1.68,0,0,1-1.666-1.674,1.646,1.646,0,0,1,1.666-1.661A1.615,1.615,0,0,1,39.8,37.21" transform="translate(-13.163 -12.829)" fill="#222"/>
  </g>
</svg>
