<svg id="Group_1144" data-name="Group 1144" xmlns="http://www.w3.org/2000/svg" xmlns:xlink="http://www.w3.org/1999/xlink" width="46.417" height="51.272" viewBox="0 0 46.417 51.272">
  <defs>
    <clipPath id="clip-path">
      <rect id="Rectangle_1955" data-name="Rectangle 1955" width="46.417" height="51.272" fill="#222"/>
    </clipPath>
  </defs>
  <g id="Group_1143" data-name="Group 1143" transform="translate(0 0)" clip-path="url(#clip-path)">
    <path id="Path_1834" data-name="Path 1834" d="M26.178,71.084H9.267c-.965,0-1.073-.129-.922-1.081a18.123,18.123,0,0,1,35.667-.375c.277,1.375.2,1.467-1.195,1.467H26.178Z" transform="translate(-2.991 -19.823)" fill="#222"/>
    <path id="Path_1835" data-name="Path 1835" d="M37.24,37.232c.646.376,1.242.714,1.83,1.069.556.335.711.812.434,1.273a.906.906,0,0,1-1.328.229c-.677-.382-1.348-.776-2.046-1.179-.127.109-.251.21-.368.316a9.1,9.1,0,0,1-12.318-.017.565.565,0,0,0-.825-.082c-.518.332-1.059.629-1.6.929a.9.9,0,0,1-1.33-.234c-.273-.46-.11-.939.444-1.268.587-.35,1.18-.69,1.689-.986a20.533,20.533,0,0,1-1.115-3.1,17.248,17.248,0,0,1-.148-3.341c0-.369-.033-.592-.384-.773-.643-.332-1.262-.711-1.887-1.078a.907.907,0,0,1-.479-1.262c.263-.483.772-.577,1.365-.243.644.364,1.284.736,1.958,1.124a9.359,9.359,0,0,1,7.592-5.59c0-.539,0-1.095,0-1.65.006-.681.334-1.063.894-1.051.538.012.844.381.851,1.04.005.542,0,1.084,0,1.673A9.371,9.371,0,0,1,35,24.769a9.484,9.484,0,0,1,3.019,3.743c.626-.36,1.217-.708,1.816-1.044a.893.893,0,0,1,1.324.25c.263.459.1.936-.459,1.267-.607.361-1.23.7-1.827,1.073a.575.575,0,0,0-.236.451,9.394,9.394,0,0,1-1.393,6.724m-8.911-4.3c-.611-.627-1.24-1.3-1.9-1.942A1.335,1.335,0,1,0,24.54,32.87q1.425,1.459,2.882,2.886a1.3,1.3,0,0,0,1.978.012q2.659-2.647,5.28-5.334a1.321,1.321,0,0,0,.031-1.9,1.34,1.34,0,0,0-1.905.006c-.333.307-.636.646-.96.962-1.15,1.125-2.3,2.246-3.518,3.428" transform="translate(-6.388 -7.333)" fill="#222"/>
    <path id="Path_1836" data-name="Path 1836" d="M3.6,51.908q0,.516,0,1.032c0,.961.639,1.34,1.46.867.438-.253.873-.514,1.317-.757a.88.88,0,1,1,.853,1.522c-.479.29-.959.585-1.458.837a.654.654,0,0,0-.387.686c0,1.8.192,1.469-1.411,2.5a2.021,2.021,0,0,1-2.511,0C-.107,57.572.04,57.946.033,56.1a1.833,1.833,0,0,0,0-.272,1.472,1.472,0,0,1,1.035-1.784,1.122,1.122,0,0,0,.793-1.326,19.441,19.441,0,0,1-.012-2.226c.011-.61.34-.987.841-1s.885.387.905,1.007c.015.47,0,.942,0,1.413m.043,4.319c0-.5-.527-1.105-.945-1.082a1.184,1.184,0,0,0-.915,1.007,1.137,1.137,0,0,0,.947,1.074,1.135,1.135,0,0,0,.913-1" transform="translate(0 -17.859)" fill="#222"/>
    <path id="Path_1837" data-name="Path 1837" d="M64.776,51.829c0-.471-.017-.943,0-1.414a.9.9,0,0,1,.861-.938.879.879,0,0,1,.879.964q.025,1.359,0,2.72a.632.632,0,0,0,.366.647c1.678.943,1.432.655,1.45,2.574a2.508,2.508,0,0,1-.015.757,1.711,1.711,0,0,1-.466.848,9.094,9.094,0,0,1-1.735,1,1.34,1.34,0,0,1-.962-.019c-.562-.243-1.071-.6-1.609-.9a.925.925,0,0,1-.559-1.021,1.675,1.675,0,0,0-1.24-2.1,2.425,2.425,0,0,1-.56-.33.854.854,0,0,1-.264-1.152.84.84,0,0,1,1.131-.334c.5.251.977.551,1.467.824a.923.923,0,0,0,1.244-.712c.011-.471,0-.943,0-1.414Zm-.045,4.358a.935.935,0,1,0,1.859,0,.936.936,0,1,0-1.859,0" transform="translate(-21.943 -17.855)" fill="#222"/>
    <path id="Path_1838" data-name="Path 1838" d="M67.531,20.811c0,.489.012.978,0,1.466A.949.949,0,0,1,66.506,23.3c-.76.016-1.522.033-2.281,0a2.284,2.284,0,0,0-1.475.405,5.6,5.6,0,0,1-.9.5.821.821,0,0,1-1.108-.389.8.8,0,0,1,.265-1.1c.385-.268.81-.478,1.212-.721a1.269,1.269,0,0,0,0-1.8c-.828-.484-1.663-.954-2.49-1.439-.575-.337-.747-.786-.5-1.251a.9.9,0,0,1,1.355-.27,9.209,9.209,0,0,0,1.985,1.1,8.455,8.455,0,0,0,2.2-.013c.561-.009,1.123-.015,1.683,0A.985.985,0,0,1,67.529,19.4c.012.47,0,.941,0,1.412m-1.776-.689H64.35V21.51h1.405Z" transform="translate(-21.334 -6.148)" fill="#222"/>
    <path id="Path_1839" data-name="Path 1839" d="M.357,20.817c0-.471-.009-.942,0-1.412.017-.706.366-1.1,1.075-1.083,1.167.026,2.333.12,3.5.171a.814.814,0,0,0,.4-.128c.631-.355,1.255-.722,1.883-1.081s1.136-.3,1.422.173.107.957-.526,1.327c-.672.392-1.328.818-2.027,1.154a1.2,1.2,0,0,0-.771,1.3.99.99,0,0,0,.631,1.047,3.648,3.648,0,0,1,.658.379.859.859,0,0,1,.306,1.183.789.789,0,0,1-1.168.3c-1.2-.966-2.58-.874-3.972-.851C.626,23.321.358,23.038.356,21.9q0-.544,0-1.087m1.785-.755v1.455H3.528V20.061H2.142" transform="translate(-0.128 -6.153)" fill="#222"/>
    <path id="Path_1840" data-name="Path 1840" d="M36.137,4.956a1.669,1.669,0,0,1-.154.078,1.339,1.339,0,0,0-.909,1.621A.815.815,0,0,1,34.2,7.6a.859.859,0,0,1-.853-.926c-.008-.2,0-.4,0-.6,0-.179,0-.357,0-.512a6.776,6.776,0,0,0-.793-.442.714.714,0,0,0-.515-.012c-.681.322-1.144.267-1.419-.214s-.091-.875.5-1.3a.765.765,0,0,0,.266-.553A2.857,2.857,0,0,1,34.234,0a2.814,2.814,0,0,1,2.8,3.015.576.576,0,0,0,.3.613c.6.36.754.837.465,1.3s-.764.517-1.381.182c-.095-.052-.19-.1-.284-.151m-1.9-1.068a1.062,1.062,0,1,0-1.093-1.046,1.064,1.064,0,0,0,1.093,1.046" transform="translate(-11.005 0)" fill="#222"/>
    <path id="Path_1841" data-name="Path 1841" d="M22.683,8.96c.233.2.574.364.665.615a1.5,1.5,0,0,1-.122.9c-.05.14-.267.232-.422.322q-2.255,1.31-4.515,2.609c-.609.349-1.094.273-1.378-.2s-.107-.961.522-1.326q2.255-1.309,4.515-2.608a7.941,7.941,0,0,1,.734-.32" transform="translate(-6.054 -3.233)" fill="#222"/>
    <path id="Path_1842" data-name="Path 1842" d="M51.158,13.706a4.262,4.262,0,0,1-.532-.224q-2.311-1.32-4.613-2.656c-.58-.336-.752-.84-.469-1.305s.759-.541,1.331-.214q2.333,1.335,4.66,2.684a.88.88,0,0,1,.52,1.026.911.911,0,0,1-.9.688" transform="translate(-16.387 -3.287)" fill="#222"/>
    <path id="Path_1843" data-name="Path 1843" d="M2.883,35.369c0-.887-.007-1.775,0-2.662.008-.653.33-1.032.856-1.039s.886.378.891,1.014q.016,2.689,0,5.378c0,.635-.354,1.035-.867,1.046-.532.01-.875-.4-.881-1.074-.009-.887,0-1.775,0-2.662" transform="translate(-1.039 -11.428)" fill="#222"/>
    <path id="Path_1844" data-name="Path 1844" d="M68.765,35.367c0,.887.007,1.775,0,2.662-.007.677-.355,1.081-.89,1.067-.513-.015-.855-.414-.858-1.053q-.013-2.661,0-5.324c0-.67.363-1.077.9-1.064s.842.395.849,1.05c.01.887,0,1.775,0,2.662" transform="translate(-24.181 -11.423)" fill="#222"/>
    <path id="Path_1845" data-name="Path 1845" d="M57.061,52.595c.015.734-.594,1.2-1.156.946a9.773,9.773,0,0,1-1.552-.888.77.77,0,0,1-.232-1.064.759.759,0,0,1,1-.42,11.324,11.324,0,0,1,1.682.979c.155.1.208.36.254.446" transform="translate(-19.489 -18.441)" fill="#222"/>
    <path id="Path_1846" data-name="Path 1846" d="M14.881,53.651a4.528,4.528,0,0,1-.784-.807.706.706,0,0,1,.291-.947,14.222,14.222,0,0,1,1.453-.835.773.773,0,0,1,.979.222c.267.3.378.741.089.985a23.088,23.088,0,0,1-2.028,1.382" transform="translate(-5.056 -18.394)" fill="#222"/>
    <path id="Path_1847" data-name="Path 1847" d="M36.687,15.277a4.9,4.9,0,0,1-.006.706.863.863,0,0,1-1.719-.021,10.841,10.841,0,0,1,0-1.412.865.865,0,0,1,.87-.8.88.88,0,0,1,.855.825c.02.234,0,.471,0,.706Z" transform="translate(-12.609 -4.96)" fill="#222"/>
    <path id="Path_1848" data-name="Path 1848" d="M58.655,28.837c-.06.766-.8.87-1.292,1.216a.968.968,0,0,1-1.115.121.852.852,0,0,1-.086-1.418,7.366,7.366,0,0,1,1.262-.735.865.865,0,0,1,1.23.817" transform="translate(-20.145 -10.082)" fill="#222"/>
    <path id="Path_1849" data-name="Path 1849" d="M12.952,27.672a15.918,15.918,0,0,1,1.8,1.253c.15.135.1.706-.064.917a1,1,0,0,1-.882.3,4.615,4.615,0,0,1-1.48-.867,1.049,1.049,0,0,1-.141-.922c.082-.247.435-.4.764-.679" transform="translate(-4.382 -9.986)" fill="#222"/>
  </g>
</svg>
