<svg id="Group_1146" data-name="Group 1146" xmlns="http://www.w3.org/2000/svg" xmlns:xlink="http://www.w3.org/1999/xlink" width="50.401" height="50.418" viewBox="0 0 50.401 50.418">
  <defs>
    <clipPath id="clip-path">
      <rect id="Rectangle_1956" data-name="Rectangle 1956" width="50.401" height="50.418" fill="#222"/>
    </clipPath>
  </defs>
  <g id="Group_1145" data-name="Group 1145" transform="translate(0 0)" clip-path="url(#clip-path)">
    <path id="Path_1850" data-name="Path 1850" d="M27.535,35.651h5c3.082,0,6.165.006,9.247-.013a.811.811,0,0,0,.6-.293A19.637,19.637,0,0,0,45.1,27.22c.007-.069,0-.14,0-.267H41.761V23.488h3.286C44.8,15.483,37.888,6.157,26.962,5.213V8.638h-3.5V5.222A19.869,19.869,0,0,0,5.325,23.45H8.619v3.485H5.212c.212,1.1.376,2.128.611,3.139a19.384,19.384,0,0,0,2.068,5.119.792.792,0,0,0,.8.469c4.5-.017,8.993-.01,13.489-.01h.681c-.421.9-.793,1.737-1.216,2.549-.073.141-.357.209-.555.241q-1.9.308-3.813.58a1.752,1.752,0,0,0-1.559,1.168,1.715,1.715,0,0,0,.472,1.888c.925.946,1.832,1.91,2.778,2.836A.984.984,0,0,1,19.331,46a7.8,7.8,0,0,0-.161.9A22.542,22.542,0,0,1,2.626,26.98H0v-3.49H2.495C4.384,11.364,11.322,4.4,23.446,2.44V0h3.463V2.434C39.03,4.361,45.969,11.318,47.9,23.441h2.5v3.5H47.85c-1.384,10.16-6.877,16.819-16.6,20.1-.1-.58-.2-1.023-.229-1.471a.786.786,0,0,1,.248-.491q1.408-1.475,2.841-2.927a1.774,1.774,0,0,0,.562-1.916,1.8,1.8,0,0,0-1.632-1.229c-1.291-.182-2.58-.383-3.863-.613a.866.866,0,0,1-.537-.411c-.382-.734-.713-1.493-1.1-2.332" transform="translate(0 0)" fill="#222"/>
    <path id="Path_1851" data-name="Path 1851" d="M26.487,45.792H20.628a1.92,1.92,0,0,1-.229-.029V34.48l2.382-.58c1.354-.328,2.707-.665,4.067-.968a.745.745,0,0,1,.591.173,6.987,6.987,0,0,0,10.235.01.8.8,0,0,1,.639-.178c2.012.461,4.014.957,6.024,1.432.284.067.418.162.417.495-.015,3.554-.009,7.107-.01,10.661,0,.069-.015.139-.026.238H38.679V38.869H36.93v6.883H28.217V38.86H26.487Z" transform="translate(-7.361 -11.88)" fill="#222"/>
    <path id="Path_1852" data-name="Path 1852" d="M42.858,60.435c-1.258,1.287-2.417,2.484-3.59,3.665A.8.8,0,0,0,39,64.9c.282,1.55.52,3.107.77,4.663.022.137.019.279.032.509-.361-.2-.659-.357-.955-.521-1.062-.587-2.141-1.145-3.176-1.776a1.123,1.123,0,0,0-1.324.015c-1.153.682-2.338,1.31-3.511,1.958-.171.095-.348.18-.642.33.1-.654.177-1.21.267-1.765.187-1.162.393-2.321.555-3.487a.894.894,0,0,0-.2-.653c-1.032-1.094-2.094-2.161-3.145-3.238-.137-.14-.267-.286-.463-.5l3.483-.549a2.271,2.271,0,0,1,.483-.072c1.169.079,1.7-.582,2.092-1.593.483-1.244,1.116-2.431,1.726-3.733.111.2.194.321.257.455.664,1.408,1.333,2.813,1.981,4.229a.774.774,0,0,0,.684.5c1.612.225,3.219.487,4.942.754" transform="translate(-9.82 -19.666)" fill="#222"/>
    <path id="Path_1853" data-name="Path 1853" d="M41.7,22.87a5.221,5.221,0,1,1-5.227-5.215A5.232,5.232,0,0,1,41.7,22.87" transform="translate(-11.279 -6.371)" fill="#222"/>
  </g>
</svg>
