<?xml version="1.0" encoding="utf-8"?>
<!-- Generator: Adobe Illustrator 23.0.1, SVG Export Plug-In . SVG Version: 6.00 Build 0)  -->
<svg version="1.1" id="Layer_1" xmlns="http://www.w3.org/2000/svg" xmlns:xlink="http://www.w3.org/1999/xlink" x="0px" y="0px"
	 viewBox="0 0 38 38" style="enable-background:new 0 0 38 38;" xml:space="preserve">
<style type="text/css">
	.st0{fill:#FFC956;}
</style>
<path class="st0" d="M19,0C8.5,0,0,8.5,0,19s8.5,19,19,19s19-8.5,19-19S29.5,0,19,0z M24.3,11.3c0,0.2-0.1,0.3-0.3,0.3h-2.3
	c-0.6,0-1,0.4-1,1v2.4h3.2c0.2,0,0.3,0.1,0.3,0.3l-0.3,3.4c0,0.1-0.1,0.3-0.3,0.3h-3v11.2c0,0.2-0.1,0.3-0.3,0.3h-4.1
	c-0.2,0-0.3-0.1-0.3-0.3v-11v-0.2h-2c-0.2,0-0.3-0.1-0.3-0.3v-3.4c0-0.2,0.1-0.3,0.3-0.3h2v-3.2c0-2.3,1.8-4.1,4.1-4.1H24
	c0.2,0,0.3,0.1,0.3,0.3C24.3,7.9,24.3,11.3,24.3,11.3z"/>
</svg>
