<?xml version="1.0" encoding="utf-8"?>
<!-- Generator: Adobe Illustrator 16.0.0, SVG Export Plug-In . SVG Version: 6.00 Build 0)  -->
<!DOCTYPE svg PUBLIC "-//W3C//DTD SVG 1.1//EN" "http://www.w3.org/Graphics/SVG/1.1/DTD/svg11.dtd">
<svg version="1.1" id="Layer_1" xmlns="http://www.w3.org/2000/svg" xmlns:xlink="http://www.w3.org/1999/xlink" x="0px" y="0px"
	 width="612px" height="792px" viewBox="0 0 612 792" enable-background="new 0 0 612 792" xml:space="preserve">
<g>
	<path fill="#FFC959" d="M310.151,545.686c-8.902,0-8.902,0-17.803,0c-8.902,0-8.902,0-8.902,8.901s0,8.901,8.902,8.901
		c17.803,0,26.705,0,44.508,0c8.902,0,8.902,0,8.902-8.901c0,0,0-8.901-8.902-8.901
		C327.955,545.686,319.053,545.686,310.151,545.686z"/>
	<path fill="#FFC959" d="M309.45,91.688c-160.233,0-293.762,133.528-293.762,293.763c0,160.234,124.626,284.86,284.86,284.86
		c160.234,0,293.763-133.528,293.763-284.86C594.312,225.217,469.685,91.688,309.45,91.688z M425.175,554.587
		c-0.594,17.794-17.804,35.607-35.607,35.607c-17.803,0-35.607,0-53.411,0c-35.607,0-71.215,0-97.92,0c-8.902,0-17.804,0-17.804,0
		c-17.804-17.804-17.804-26.705-17.804-35.607c0-53.411,0-115.725,0-169.135c0-53.412,0-106.824,0-169.137
		c0-26.706,17.804-35.607,35.608-35.607c35.607,0,62.313,0,97.92,0c17.804,0,35.608,0,53.411,0c8.902,0,17.804,0,26.706,8.901
		c8.901,8.902,11.088,17.804,11.088,26.706C429.041,324.16,429.322,430.28,425.175,554.587z"/>
	<path fill="#FFC959" d="M390.268,216.314c-44.51,0-97.92,0-142.43,0c-17.804,0-17.804,0-17.804,8.902c0,97.921,0,195.842,0,284.861
		c0,17.803,0,17.803,8.902,17.803c44.51,0,97.92,0,142.43,0c8.902,0,17.805-8.9,17.805-17.803c0-44.51,0-97.922,0-142.431
		c0-44.51,0-97.921,0-142.431C399.17,216.314,399.17,216.314,390.268,216.314z"/>
</g>
</svg>
