<?xml version="1.0" encoding="utf-8"?>
<!-- Generator: Adobe Illustrator 23.0.1, SVG Export Plug-In . SVG Version: 6.00 Build 0)  -->
<svg version="1.1" id="Layer_1" xmlns="http://www.w3.org/2000/svg" xmlns:xlink="http://www.w3.org/1999/xlink" x="0px" y="0px"
	 viewBox="0 0 90 90" style="enable-background:new 0 0 90 90;" xml:space="preserve">
<style type="text/css">
	.st0{fill:#90A8C0;}
</style>
<g>
	<path class="st0" d="M69.02,26.33c-1.29,0-2.49-0.02-3.69,0.01c-1.12,0.02-1.68-0.55-1.66-1.67c0.03-1.98,0.02-3.96,0.02-5.94
		c0.01-3.31,2.41-5.72,5.71-5.71c1.04,0,2.1-0.05,3.11,0.11c2.54,0.42,4.46,2.77,4.47,5.34c0,0.4,0.02,0.79-0.01,1.19
		c-0.04,0.76-0.61,1.32-1.32,1.31c-0.71,0-1.26-0.56-1.28-1.33c-0.01-0.48,0.01-0.96-0.01-1.44c-0.08-1.57-1-2.51-2.57-2.57
		c-0.98-0.04-1.96-0.04-2.94,0c-1.56,0.07-2.49,0.99-2.52,2.53c-0.04,1.81-0.01,3.62-0.01,5.51c1.23,0,2.41,0,3.59,0
		c1.87,0,3.75-0.01,5.62,0.02c0.96,0.01,1.44,0.54,1.44,1.5c0,13.21,0,26.41-0.01,39.62c0,0.32-0.1,0.66-0.24,0.95
		c-1.7,3.43-3.42,6.85-5.12,10.27c-0.27,0.55-0.65,0.93-1.28,0.93c-0.64,0-1.01-0.39-1.28-0.94c-1.69-3.41-3.41-6.81-5.09-10.22
		c-0.17-0.34-0.26-0.75-0.26-1.13c-0.01-11.33-0.01-22.66-0.01-34c0-0.25,0.01-0.51,0.08-0.74c0.18-0.58,0.61-0.88,1.21-0.91
		c0.57-0.03,1.12,0.37,1.25,0.93c0.07,0.32,0.08,0.66,0.08,0.99c0,10.94,0,21.87,0.02,32.81c0,0.6,0.16,1.24,0.42,1.78
		c1.04,2.18,2.14,4.33,3.22,6.48c0.1,0.2,0.2,0.39,0.35,0.67c0.14-0.23,0.24-0.39,0.32-0.55c1.15-2.29,2.3-4.57,3.42-6.87
		c0.19-0.39,0.3-0.87,0.3-1.31c0.02-12.27,0.01-24.54,0.01-36.81c0-0.83,0-0.83-0.8-0.83c-0.62,0-1.24,0-1.94,0
		c0,0.36,0,0.65,0,0.94c0,12.25,0,24.5,0,36.75c0,0.35,0.01,0.71-0.01,1.06c-0.04,0.71-0.55,1.21-1.24,1.24
		c-0.67,0.03-1.25-0.45-1.35-1.14c-0.03-0.25-0.02-0.5-0.02-0.75c0-12.44,0-24.87,0-37.31C69.02,26.88,69.02,26.65,69.02,26.33z"/>
	<path class="st0" d="M23.74,72.42c0.93-0.93,1.83-1.8,2.68-2.7c0.48-0.51,1.01-0.71,1.71-0.71c6.83,0.02,13.67,0.01,20.5,0.01
		c1.41,0,1.74-0.32,1.74-1.71c0-13.1,0-26.21,0-39.31c0-1.36-0.33-1.68-1.71-1.68c-10.44,0-20.87,0-31.31,0
		c-1.42,0-1.73,0.31-1.73,1.72c0,13.06,0,26.12,0,39.19c0,1.41,0.14,1.58,1.53,1.8c0.69,0.11,1.17,0.68,1.14,1.35
		c-0.03,0.71-0.57,1.22-1.3,1.25c-1.91,0.06-3.89-1.85-3.98-3.85c-0.01-0.17,0-0.33,0-0.5c0-13.06,0-26.12,0-39.19
		c0-2.59,1.81-4.4,4.39-4.4c10.37,0,20.75,0,31.12,0c2.67,0,4.45,1.8,4.45,4.47c0,13.04-0.03,26.08,0.03,39.12
		c0.01,2.3-2.07,4.41-4.39,4.38c-6.56-0.09-13.12-0.03-19.69-0.04c-0.5,0-0.86,0.14-1.21,0.5c-1.41,1.44-2.86,2.86-4.28,4.29
		c-0.46,0.46-0.96,0.74-1.62,0.45c-0.64-0.28-0.82-0.82-0.81-1.48c0.01-1.67,0-3.33,0.01-5c0.01-0.66,0.37-1.14,0.96-1.3
		c0.59-0.17,1.09,0.04,1.41,0.53c0.15,0.23,0.2,0.54,0.22,0.82c0.03,0.58,0.02,1.17,0.02,1.75C23.64,72.22,23.67,72.25,23.74,72.42z
		"/>
	<path class="st0" d="M60.98,42.36c0,6.6,0,13.2,0,19.8c0,2.07-1.67,3.92-3.7,4.13c-0.85,0.09-1.49-0.38-1.57-1.14
		c-0.08-0.74,0.41-1.32,1.23-1.45c1.21-0.18,1.44-0.43,1.44-1.65c0-13.14,0-26.28,0-39.42c0-1.25-0.21-1.48-1.49-1.65
		c-0.72-0.1-1.22-0.68-1.18-1.37c0.04-0.71,0.57-1.21,1.32-1.23c2.02-0.04,3.96,1.96,3.96,4.12c0,5.91,0,11.83,0,17.74
		C60.98,40.94,60.98,41.65,60.98,42.36z"/>
	<path class="st0" d="M21.01,32.98c0,3.61,0,7.12,0,10.67c3.54,0,7.05,0,10.63,0c0.01-0.23,0.03-0.45,0.03-0.68
		c0-1.08-0.02-2.17,0.01-3.25c0.02-0.84,0.56-1.36,1.32-1.35c0.74,0.01,1.27,0.51,1.29,1.32c0.03,1.75,0.03,3.5,0,5.25
		c-0.02,0.94-0.57,1.37-1.64,1.37c-3.66,0-7.33,0-10.99,0c-0.6,0-1.21,0.01-1.81,0c-1.02-0.02-1.49-0.5-1.49-1.5
		c0-4.31,0-8.62,0-12.93c0-1.06,0.45-1.5,1.53-1.51c2.52,0,5.04,0,7.56,0c0.92,0,1.51,0.51,1.52,1.29c0,0.77-0.6,1.31-1.5,1.32
		c-1.92,0.01-3.83,0-5.75,0C21.5,32.98,21.28,32.98,21.01,32.98z"/>
	<path class="st0" d="M21,51.63c0,3.61,0,7.13,0,10.71c0.22,0.01,0.42,0.03,0.62,0.03c3.12,0,6.25-0.01,9.37,0.01
		c0.56,0,0.72-0.17,0.7-0.71c-0.04-1.02-0.02-2.04-0.01-3.06c0.01-0.98,0.5-1.58,1.3-1.59c0.79-0.01,1.32,0.59,1.33,1.55
		c0.01,1.62,0.01,3.25,0,4.87c-0.01,1.04-0.51,1.53-1.54,1.53c-4.29,0-8.58,0-12.87,0c-1.05,0-1.52-0.48-1.52-1.53
		c0-4.31,0-8.62,0-12.94c0-0.95,0.48-1.48,1.38-1.49c2.6-0.01,5.21-0.01,7.81,0c0.73,0,1.24,0.39,1.38,1.03
		c0.13,0.6-0.1,1.09-0.61,1.38c-0.25,0.14-0.59,0.18-0.9,0.18c-1.9,0.02-3.79,0.01-5.69,0.01C21.52,51.63,21.3,51.63,21,51.63z"/>
	<path class="st0" d="M50.21,17.63c-0.85,0.85-1.72,1.68-2.54,2.56c-0.54,0.58-1.13,0.81-1.92,0.8c-7.67-0.02-15.33-0.01-23-0.01
		c-0.1,0-0.21,0-0.31,0c-0.84-0.03-1.44-0.59-1.42-1.34c0.02-0.74,0.59-1.26,1.42-1.26c1.85-0.01,3.71,0,5.56,0
		c5.58,0,11.17-0.01,16.75,0.02c0.72,0,1.25-0.18,1.75-0.71c1.32-1.39,2.7-2.72,4.05-4.08c0.46-0.46,0.96-0.75,1.62-0.46
		c0.65,0.28,0.82,0.82,0.82,1.48c-0.01,1.67,0,3.33-0.01,5c-0.01,0.67-0.36,1.14-0.96,1.31c-0.59,0.17-1.09-0.03-1.41-0.53
		c-0.15-0.23-0.21-0.54-0.22-0.82c-0.03-0.62-0.01-1.24-0.01-1.86C50.32,17.69,50.26,17.66,50.21,17.63z"/>
	<path class="st0" d="M26.39,56.4c0.14-0.14,0.31-0.29,0.47-0.44c1.68-1.68,3.36-3.36,5.04-5.03c0.67-0.67,1.48-0.73,2.03-0.17
		c0.56,0.58,0.49,1.34-0.2,2.03c-2.1,2.11-4.21,4.21-6.32,6.31c-0.74,0.74-1.41,0.74-2.17-0.01c-0.8-0.79-1.6-1.58-2.38-2.39
		c-0.61-0.62-0.66-1.4-0.14-1.94c0.53-0.56,1.35-0.52,1.99,0.1c0.51,0.49,1.01,0.99,1.52,1.49C26.25,56.38,26.3,56.38,26.39,56.4z"
		/>
	<path class="st0" d="M26.38,37.77c1.72-1.72,3.42-3.43,5.13-5.14c0.21-0.21,0.4-0.42,0.63-0.61c0.54-0.45,1.28-0.43,1.76,0.04
		c0.5,0.48,0.55,1.27,0.06,1.8c-0.58,0.63-1.2,1.22-1.8,1.82c-1.56,1.56-3.12,3.12-4.69,4.68c-0.83,0.83-1.46,0.82-2.3,0
		c-0.78-0.78-1.57-1.56-2.34-2.34c-0.6-0.61-0.63-1.41-0.1-1.94c0.54-0.54,1.32-0.5,1.95,0.1c0.52,0.51,1.04,1.02,1.56,1.53
		C26.26,37.72,26.28,37.73,26.38,37.77z"/>
	<path class="st0" d="M37.04,32.93c0-0.86,0-1.67,0-2.52c3.51,0,7,0,10.53,0c0,0.82,0,1.65,0,2.52
		C44.09,32.93,40.59,32.93,37.04,32.93z"/>
	<path class="st0" d="M47.6,49.07c0,0.85,0,1.66,0,2.51c-3.51,0-7,0-10.53,0c0-0.81,0-1.64,0-2.51
		C40.54,49.07,44.04,49.07,47.6,49.07z"/>
	<path class="st0" d="M44.96,35.73c0,0.88,0,1.68,0,2.54c-2.64,0-5.27,0-7.92,0c0-0.86,0-1.68,0-2.54
		C39.68,35.73,42.29,35.73,44.96,35.73z"/>
	<path class="st0" d="M44.95,54.43c0,0.87,0,1.67,0,2.52c-2.63,0-5.24,0-7.89,0c0-0.82,0-1.64,0-2.52
		C39.67,54.43,42.29,54.43,44.95,54.43z"/>
</g>
</svg>
