<?xml version="1.0" encoding="utf-8"?>
<!-- Generator: Adobe Illustrator 23.0.1, SVG Export Plug-In . SVG Version: 6.00 Build 0)  -->
<svg version="1.1" id="Layer_1" xmlns="http://www.w3.org/2000/svg" xmlns:xlink="http://www.w3.org/1999/xlink" x="0px" y="0px"
	 viewBox="0 0 90 90" style="enable-background:new 0 0 90 90;" xml:space="preserve">
<style type="text/css">
	.st0{fill:#90A8C0;}
</style>
<g>
	<path class="st0" d="M63.63,41.01c0.59,0,1.07,0.02,1.54,0c0.73-0.03,1.16-0.38,1.17-1.11c0.04-1.94,0.04-3.87,0-5.81
		c-0.02-0.75-0.46-1.09-1.25-1.1c-0.85-0.02-1.71,0-2.56-0.01c-0.99-0.01-1.49-0.51-1.51-1.5c-0.16-7.89-5.24-14.08-12.95-15.54
		c-8.97-1.7-17.56,3.97-18.93,13.36c-0.11,0.76-0.15,1.53-0.15,2.3c-0.02,3.46-0.01,6.92-0.01,10.37c0,1.22-0.43,1.65-1.65,1.65
		c-0.75,0-1.5,0.01-2.25,0c-2.18-0.02-4.05-1.9-4.06-4.09c-0.01-1.69-0.01-3.37,0-5.06c0.01-2.23,1.87-4.08,4.1-4.1
		c0.39,0,0.79,0,1.24,0c0.66-6.08,3.48-10.86,8.52-14.26c3.31-2.23,7-3.28,10.99-3.07c4.68,0.25,8.71,2.08,12.06,5.34
		c3.35,3.26,5.23,7.26,5.68,11.98c0.45,0,0.86,0,1.27,0c2.23,0.02,4.08,1.88,4.09,4.11c0.01,1.67,0.01,3.33,0,5
		c-0.01,2.27-1.86,4.13-4.13,4.14c-1.2,0.01-1.2,0.01-1.44,1.19c-1.24,6.25-5.99,10.91-12.3,11.97c-0.72,0.12-1.14,0.35-1.55,0.98
		c-0.79,1.22-1.95,1.9-3.47,1.86c-0.75-0.02-1.5,0-2.25,0c-2.18-0.01-4.13-1.84-4.16-3.92c-0.03-2,1.82-3.91,3.95-4.01
		c0.91-0.05,1.83-0.04,2.75,0c1.47,0.07,2.57,0.82,3.31,2.05c0.28,0.46,0.55,0.57,1.04,0.51c4.92-0.6,9.13-4.45,9.99-9.33
		c0.29-1.62,0.22-3.31,0.28-4.97c0.04-0.94,0-1.87,0.01-2.81c0.01-0.86,0.54-1.44,1.31-1.44c0.77,0,1.29,0.57,1.29,1.44
		C63.63,38.4,63.63,39.67,63.63,41.01z M26.34,32.98c-0.51,0-0.98-0.01-1.45,0c-0.77,0.02-1.21,0.37-1.23,1.12
		c-0.04,1.93-0.03,3.86,0,5.8c0.01,0.6,0.35,1.04,0.99,1.09c0.55,0.05,1.11,0.01,1.69,0.01C26.34,38.31,26.34,35.68,26.34,32.98z
		 M44.94,57.01C44.94,57.01,44.94,57.02,44.94,57.01c0.5,0,1,0,1.5,0c0.04,0,0.08,0,0.12,0c0.75-0.07,1.1-0.47,1.11-1.3
		c0.01-0.88-0.31-1.34-1.09-1.37c-1.06-0.04-2.12-0.04-3.18,0c-0.77,0.03-1.1,0.49-1.08,1.37c0.02,0.83,0.37,1.25,1.12,1.29
		C43.94,57.04,44.44,57.01,44.94,57.01z"/>
	<path class="st0" d="M32.47,62.49c2.44,2.44,4.82,4.82,7.33,7.34c0.45-0.5,0.92-1.05,1.42-1.57c0.68-0.69,1.47-0.75,2.03-0.18
		c0.56,0.56,0.49,1.35-0.19,2.03c-0.79,0.8-1.58,1.6-2.38,2.4c-0.66,0.66-1.42,0.65-2.08-0.01c-2.76-2.78-5.52-5.55-8.3-8.31
		c-0.16-0.16-0.53-0.27-0.73-0.2c-2.51,0.81-5.02,1.64-7.51,2.51c-2.47,0.87-4.16,2.53-4.98,5.05c-0.47,1.46-0.98,2.92-1.48,4.37
		c-0.29,0.84-0.95,1.23-1.67,0.99c-0.77-0.25-1.09-0.95-0.81-1.81c0.46-1.42,0.92-2.85,1.42-4.26c1.25-3.58,3.76-5.86,7.3-7.06
		c2.36-0.8,4.78-1.46,7.08-2.41c1.48-0.61,2.79-1.62,4.16-2.48c0.15-0.09,0.22-0.34,0.28-0.53c0.34-0.98,0.66-1.97,1-2.95
		c0.28-0.82,0.96-1.2,1.69-0.97c0.72,0.22,1.05,0.96,0.79,1.78c-0.26,0.83-0.54,1.66-0.83,2.48c-0.11,0.31-0.04,0.49,0.24,0.66
		c2.81,1.75,5.61,3.51,8.43,5.24c0.17,0.11,0.55,0.03,0.75-0.09c2.97-1.84,5.95-3.67,8.89-5.57c0.95-0.61,1.77-0.77,2.64,0.05
		c0.03,0.03,0.07,0.04,0.1,0.07c2.66,2.24,5.97,3.03,9.15,4.11c1.12,0.38,2.26,0.74,3.33,1.22c2.89,1.29,4.83,3.49,5.87,6.47
		c0.49,1.41,0.95,2.84,1.42,4.26c0.28,0.86-0.03,1.56-0.8,1.81c-0.72,0.24-1.38-0.14-1.67-0.99c-0.52-1.51-1.02-3.03-1.54-4.55
		c-0.79-2.31-2.34-3.93-4.63-4.75c-2.6-0.94-5.23-1.79-7.86-2.65c-0.2-0.06-0.55,0.09-0.72,0.25c-2.65,2.62-5.28,5.26-7.92,7.9
		c-0.12,0.12-0.23,0.24-0.35,0.35c-0.71,0.67-1.38,0.68-2.07,0c-1.55-1.54-3.09-3.1-4.65-4.63c-0.31-0.3-0.65-0.58-1.02-0.81
		c-2.92-1.84-5.86-3.66-8.78-5.51c-0.37-0.24-0.64-0.25-0.99,0.02C33.42,61.88,32.94,62.17,32.47,62.49z M57.53,62.49
		c-0.47-0.32-0.95-0.61-1.39-0.95c-0.35-0.27-0.61-0.26-0.99-0.02c-2.49,1.58-5,3.14-7.5,4.71c-0.17,0.1-0.32,0.23-0.4,0.28
		c1.07,1.07,2.12,2.12,3.13,3.14C52.71,67.31,55.09,64.93,57.53,62.49z"/>
	<path class="st0" d="M39.68,28.8c-0.14,0.18-0.23,0.29-0.32,0.4c-1.74,2.03-3.99,2.67-6.56,2.41c-0.64-0.07-1.11-0.65-1.1-1.31
		c0.02-0.68,0.52-1.22,1.22-1.27c0.54-0.04,1.08,0,1.62-0.02c2.13-0.05,3.64-1.5,3.79-3.63c0.02-0.23,0.01-0.46,0.06-0.68
		c0.12-0.62,0.75-1.1,1.36-1.05c0.64,0.05,1.17,0.58,1.23,1.21c0.03,0.33,0.01,0.67,0.08,0.99c0.38,1.94,1.8,3.13,3.78,3.15
		c2.19,0.02,4.37,0.01,6.56,0.01c3.96,0,7.01,3.22,6.95,7.18c-0.05,3.11-0.42,6.14-1.6,9.03c-0.65,1.59-1.47,3.08-2.57,4.41
		c-0.61,0.74-1.39,0.88-2.01,0.36c-0.6-0.51-0.62-1.27-0.03-1.99c2.45-3.05,3.45-6.59,3.54-10.44c0.02-0.81,0.01-1.62-0.02-2.43
		c-0.09-1.96-1.72-3.46-3.79-3.48c-2.12-0.02-4.25-0.07-6.37-0.01c-2.29,0.05-4.12-0.82-5.58-2.54
		C39.84,29.03,39.78,28.94,39.68,28.8z"/>
	<path class="st0" d="M33,34.38c0.76,0,1.28,0.51,1.31,1.36c0.04,0.87,0,1.75,0.05,2.62c0.21,3.57,1.24,6.85,3.53,9.67
		c0.57,0.71,0.53,1.49-0.08,1.99c-0.6,0.49-1.38,0.36-1.96-0.36c-2.1-2.58-3.3-5.57-3.81-8.82c-0.25-1.64-0.28-3.31-0.35-4.97
		C31.66,34.93,32.2,34.38,33,34.38z"/>
	<path class="st0" d="M46.27,74.4c0,0.85,0,1.68,0,2.54c-0.85,0-1.67,0-2.54,0c0-0.83,0-1.67,0-2.54
		C44.59,74.4,45.41,74.4,46.27,74.4z"/>
</g>
</svg>
