<?xml version="1.0" encoding="utf-8"?>
<!-- Generator: Adobe Illustrator 23.0.1, SVG Export Plug-In . SVG Version: 6.00 Build 0)  -->
<svg version="1.1" id="Layer_1" xmlns="http://www.w3.org/2000/svg" xmlns:xlink="http://www.w3.org/1999/xlink" x="0px" y="0px"
	 viewBox="0 0 28 28" style="enable-background:new 0 0 28 28;" xml:space="preserve">
<style type="text/css">
	.st0{fill:#FFC956;}
</style>
<path class="st0" d="M14,0.5C6.6,0.5,0.5,6.5,0.5,14s6,13.5,13.5,13.5s13.5-6,13.5-13.5S21.5,0.5,14,0.5z M21.7,19.3
	c-0.4,1-2,1.9-2.7,1.9c-0.1,0-0.6,0.1-0.9,0.1c-0.6,0-1.5-0.2-3.8-1.1c-1.8-0.7-3.6-2-5.2-3.9c-0.5-0.6-1.5-2-1.5-2
	c-0.7-0.9-1.2-1.8-1.4-2.7C6.1,11.2,6,10.8,6,10.4c0-1.8,0.9-2.8,1.3-3.2l0.1-0.1c0.4-0.5,1.8-0.5,2-0.5c0.3,0,0.6,0,0.9,0.7
	c0.1,0.2,1.1,2.7,1.2,2.9c0.1,0.2,0.2,0.5,0,0.8c0,0-0.2,0.3-0.2,0.5c-0.1,0.1-0.6,0.8-0.7,0.9c-0.2,0.2-0.3,0.3-0.1,0.6
	c0.3,0.5,1,1.7,2.1,2.6c1.2,1.1,3,1.9,3.1,1.9c0.4,0.2,0.5,0.1,0.7-0.1c0.2-0.3,1-1.1,1.2-1.5c0.3-0.5,0.7-0.4,1-0.2
	c0.4,0.1,2.4,1.1,2.7,1.3c0,0,0.7,0.3,0.8,0.5C22,17.6,22,18.4,21.7,19.3z"/>
</svg>
