<?xml version="1.0" encoding="utf-8"?>
<!-- Generator: Adobe Illustrator 23.0.1, SVG Export Plug-In . SVG Version: 6.00 Build 0)  -->
<svg version="1.1" id="Layer_1" xmlns="http://www.w3.org/2000/svg" xmlns:xlink="http://www.w3.org/1999/xlink" x="0px" y="0px"
	 viewBox="0 0 90 90" style="enable-background:new 0 0 90 90;" xml:space="preserve">
<style type="text/css">
	.st0{fill:#90A8C0;}
</style>
<g>
	<g>
		<path class="st0" d="M23.91,72.48c0.12-0.2,0.2-0.43,0.36-0.59c1.61-1.63,3.25-3.23,4.85-4.87c0.46-0.47,0.95-0.66,1.6-0.65
			c11.23,0.01,22.46,0.01,33.68,0.01c0.21,0,0.42,0.01,0.62,0c0.9-0.04,1.28-0.42,1.34-1.31c0.01-0.15,0-0.29,0-0.44
			c0-11.31,0-22.62,0-33.93c0-1.38-0.33-1.71-1.68-1.71c-15.64,0-31.29,0-46.93,0c-0.31,0-0.63-0.01-0.94,0.01
			c-0.7,0.04-1.07,0.36-1.17,1.06c-0.04,0.27-0.03,0.54-0.03,0.81c0,11.23,0,22.46,0,33.68c0,0.17-0.01,0.33,0,0.5
			c0.05,0.88,0.39,1.24,1.26,1.32c0.97,0.1,1.5,0.65,1.4,1.45c-0.1,0.83-0.84,1.29-1.77,1.12c-2.01-0.36-3.5-2.14-3.5-4.19
			c0-11.39,0-22.79,0-34.18c0-2.34,1.85-4.2,4.2-4.2c15.85,0,31.7,0,47.56,0c2.35,0,4.2,1.85,4.2,4.19c0,11.37,0,22.75,0,34.12
			c0,2.45-1.85,4.29-4.31,4.29c-11.02,0-22.04,0.01-33.06-0.01c-0.55,0-0.92,0.17-1.3,0.55c-2.25,2.28-4.53,4.54-6.79,6.81
			c-0.47,0.47-0.95,0.83-1.65,0.54c-0.72-0.29-0.86-0.88-0.85-1.58c0.01-2.5,0.01-5,0-7.5c0-0.6,0.23-1.06,0.78-1.31
			c0.47-0.22,1-0.21,1.33,0.18c0.26,0.3,0.46,0.75,0.48,1.15c0.05,1.49,0.02,2.99,0.02,4.48C23.72,72.35,23.82,72.42,23.91,72.48z"
			/>
		<path class="st0" d="M46.33,38.64c0.81-1.21,1.56-2.34,2.31-3.46c0.62-0.94,1.24-1.88,1.88-2.8c0.64-0.94,1.72-0.91,2.36,0.04
			c1.72,2.58,3.44,5.16,5.16,7.74c0.43,0.65,0.4,1.14-0.07,1.77c-5.17,6.88-10.33,13.75-15.5,20.63c-0.12,0.17-0.23,0.34-0.36,0.51
			c-0.59,0.79-1.55,0.82-2.18,0.06c-4.37-5.25-8.74-10.51-13.09-15.77c-0.19-0.23-0.37-0.52-0.43-0.81
			c-0.14-0.59,0.17-1.14,0.69-1.4c0.57-0.28,1.16-0.16,1.62,0.39c1.36,1.61,2.7,3.23,4.04,4.85c1.68,2.02,3.36,4.03,5.04,6.05
			c0.12,0.14,0.25,0.26,0.47,0.35c-0.33-1.32-0.66-2.65-0.99-3.97c-0.82-3.27-1.64-6.53-2.44-9.81c-0.13-0.54-0.33-0.73-0.91-0.72
			c-2.9,0.03-5.79,0.01-8.69,0.01c-0.57,0-1.08-0.14-1.38-0.68c-0.3-0.56-0.18-1.08,0.18-1.57c0.05-0.07,0.09-0.14,0.14-0.21
			c1.66-2.5,3.32-4.99,4.97-7.49c0.31-0.47,0.74-0.7,1.31-0.7c4.64,0.01,9.29,0.02,13.93,0.03c0.29,0,0.59,0,0.87,0.06
			c0.62,0.12,1.02,0.63,1.03,1.24c0.01,0.64-0.41,1.16-1.05,1.28c-0.26,0.05-0.54,0.04-0.81,0.05c-0.27,0.01-0.54,0-0.98,0
			C44.44,35.8,45.35,37.17,46.33,38.64z M40.91,56.58c0.06,0,0.12,0,0.18,0c1.18-4.72,2.36-9.44,3.55-14.22c-2.46,0-4.84,0-7.29,0
			C38.55,47.13,39.73,51.86,40.91,56.58z M54.35,42.35c-0.34-0.02-0.53-0.03-0.71-0.03c-1.9,0-3.79,0.01-5.69-0.01
			c-0.45-0.01-0.64,0.13-0.75,0.59c-1.03,4.2-2.09,8.39-3.13,12.59c-0.04,0.15-0.06,0.31-0.09,0.47c0.04,0.02,0.08,0.04,0.12,0.06
			C47.49,51.5,50.87,46.98,54.35,42.35z M35.67,38.64c0.97-1.45,1.88-2.82,2.84-4.26c-1.94,0-3.76,0-5.68,0
			C33.8,35.83,34.71,37.2,35.67,38.64z M27.49,39.62c1.94,0,3.76,0,5.68,0c-0.97-1.45-1.88-2.82-2.84-4.26
			C29.35,36.84,28.44,38.19,27.49,39.62z M41,35.36c-0.97,1.46-1.88,2.83-2.85,4.28c1.95,0,3.76,0,5.71,0
			C42.88,38.19,41.97,36.82,41,35.36z M48.82,39.63c1.95,0,3.76,0,5.69,0c-0.97-1.46-1.88-2.82-2.85-4.27
			C50.69,36.82,49.79,38.18,48.82,39.63z"/>
		<path class="st0" d="M76.98,42.32c0,5.73,0,11.46,0,17.18c0,2.11-1.85,4.08-3.84,4.12c-0.83,0.01-1.4-0.47-1.44-1.23
			c-0.04-0.74,0.5-1.31,1.31-1.38c1.02-0.08,1.36-0.43,1.36-1.46c0-11.48,0-22.95,0-34.43c0-1.04-0.35-1.41-1.34-1.5
			c-0.87-0.08-1.39-0.63-1.32-1.41c0.07-0.79,0.74-1.28,1.6-1.19c1.98,0.22,3.67,2.09,3.67,4.11C76.98,30.87,76.98,36.6,76.98,42.32
			z"/>
		<path class="st0" d="M66.37,17.51c-0.3,0.28-0.46,0.43-0.61,0.58c-1.65,1.65-3.31,3.29-4.94,4.95c-0.41,0.42-0.85,0.6-1.44,0.59
			c-6.04-0.01-12.08-0.01-18.11,0c-0.64,0-1.16-0.14-1.45-0.75c-0.38-0.82,0.15-1.74,1.07-1.85c0.21-0.02,0.42-0.01,0.62-0.01
			c5.66,0,11.33-0.01,16.99,0.01c0.45,0,0.77-0.13,1.09-0.45c2.28-2.31,4.59-4.6,6.88-6.9c0.48-0.49,0.98-0.86,1.71-0.54
			c0.71,0.31,0.82,0.91,0.81,1.6c-0.01,2.48,0,4.96-0.01,7.43c-0.01,1.15-1.03,1.82-1.95,1.29c-0.48-0.27-0.67-0.71-0.66-1.25
			C66.38,20.72,66.37,19.22,66.37,17.51z"/>
		<path class="st0" d="M26.27,21.05c0,0.84,0,1.66,0,2.53c-0.84,0-1.65,0-2.53,0c0-0.83,0-1.66,0-2.53
			C24.58,21.05,25.4,21.05,26.27,21.05z"/>
		<path class="st0" d="M31.6,21.06c0,0.85,0,1.65,0,2.51c-0.84,0-1.68,0-2.55,0c0-0.83,0-1.65,0-2.51
			C29.89,21.06,30.71,21.06,31.6,21.06z"/>
		<path class="st0" d="M34.41,21.04c0.87,0,1.67,0,2.52,0c0,0.83,0,1.65,0,2.53c-0.81,0-1.65,0-2.52,0
			C34.41,22.74,34.41,21.92,34.41,21.04z"/>
	</g>
</g>
</svg>
