<?xml version="1.0" encoding="utf-8"?>
<!-- Generator: Adobe Illustrator 23.0.1, SVG Export Plug-In . SVG Version: 6.00 Build 0)  -->
<svg version="1.1" id="Layer_1" xmlns="http://www.w3.org/2000/svg" xmlns:xlink="http://www.w3.org/1999/xlink" x="0px" y="0px"
	 viewBox="0 0 90 90" style="enable-background:new 0 0 90 90;" xml:space="preserve">
<style type="text/css">
	.st0{fill:#90A8C0;}
</style>
<g>
	<path class="st0" d="M38.34,64.98c0,2.71,0,5.33,0,7.99c4.42,0,8.83,0,13.34,0c0-0.31,0-0.64,0-0.96c0-0.98-0.02-1.96,0.01-2.94
		c0.02-0.83,0.57-1.38,1.31-1.38c0.74,0,1.28,0.55,1.31,1.38c0.03,1.04,0.01,2.08,0.01,3.12c0,0.25,0,0.49,0,0.81
		c0.3,0,0.55,0,0.79,0c6.71,0,13.42,0,20.12,0c0.12,0,0.25,0,0.37,0c0.8,0.03,1.38,0.59,1.37,1.33c-0.01,0.74-0.58,1.28-1.4,1.28
		c-3.52,0.01-7.04,0-10.56,0c-9.02,0-18.04,0-27.06,0c-1.6,0-3.21,0-4.81,0c-0.88,0-1.45-0.52-1.45-1.28
		c-0.01-0.76,0.58-1.31,1.43-1.32c0.79-0.01,1.58-0.01,2.37-0.02c0.04,0,0.07-0.03,0.14-0.07c0-2.62,0-5.25,0-7.95
		c-0.28,0-0.53,0-0.77,0c-4.98,0-9.96,0-14.94,0c-3.88,0-6.92-3.05-6.92-6.95c0-12.25,0-24.5,0-36.75c0-3.87,3.02-6.91,6.87-6.91
		c8.69,0,17.37,0,26.06,0c0.27,0,0.55-0.01,0.8,0.06c0.57,0.16,0.92,0.73,0.87,1.36c-0.05,0.59-0.51,1.08-1.12,1.17
		c-0.2,0.03-0.42,0.02-0.62,0.02c-8.65,0-17.29,0-25.94,0c-2.81,0-4.31,1.51-4.31,4.33c0,12.25,0,24.5,0,36.75
		c0,2.76,1.54,4.31,4.29,4.31c5.69,0,11.37-0.02,17.06-0.02c10.96,0,21.91,0.02,32.87,0.02c0.48,0,0.96-0.03,1.43-0.11
		c1.55-0.27,2.82-1.42,2.95-2.98c0.14-1.61,0.03-3.23,0.03-4.92c-0.25-0.01-0.56-0.04-0.86-0.04c-17.69,0-35.37,0-53.06,0
		c-0.31,0-0.63,0-0.93-0.05c-0.65-0.12-1.05-0.63-1.04-1.28c0.01-0.65,0.41-1.14,1.08-1.25c0.28-0.05,0.58-0.04,0.87-0.04
		c17.71,0,35.41,0,53.12,0c1.04,0,0.92,0.09,0.93-0.95c0.01-1-0.01-2,0-3c0.01-0.84,0.53-1.36,1.3-1.36c0.76,0,1.3,0.55,1.3,1.37
		c0.01,3.6,0.05,7.21-0.01,10.81c-0.06,3.44-3.24,6.42-6.74,6.42c-10.33,0-20.67,0-31,0C38.95,64.98,38.68,64.98,38.34,64.98z"/>
	<path class="st0" d="M66.36,44.48c0-0.82-0.01-1.44,0-2.06c0.01-0.82,0.54-1.4,1.27-1.41c0.76-0.01,1.33,0.58,1.33,1.43
		c0.01,1.69,0,3.37,0,5.06c0,0.62-0.22,1.1-0.81,1.35c-0.6,0.26-1.09,0.07-1.53-0.37c-1.47-1.47-2.95-2.94-4.41-4.42
		c-0.32-0.32-0.65-0.46-1.1-0.45c-2.21,0.02-4.42,0.02-6.62,0.01c-2.29-0.01-4.13-1.84-4.13-4.12c-0.01-7.02-0.01-14.04,0-21.06
		c0-2.2,1.87-4.07,4.06-4.07c6.15-0.01,12.29-0.01,18.44,0c2.22,0,4.11,1.88,4.11,4.1c0.01,7.02,0.01,14.04,0,21.06
		c0,2.1-1.88,4.07-3.87,4.09c-0.82,0.01-1.39-0.5-1.41-1.26c-0.02-0.72,0.5-1.28,1.28-1.35c1.07-0.1,1.39-0.43,1.39-1.49
		c0-7.02,0.01-14.04,0-21.06c0-1.11-0.4-1.48-1.53-1.48c-6.1,0-12.21,0-18.31,0c-1.21,0-1.55,0.34-1.55,1.57c0,6.98,0,13.96,0,20.94
		c0,1.18,0.35,1.53,1.53,1.53c2.5,0,5,0.01,7.5-0.01c0.65,0,1.14,0.22,1.58,0.7C64.43,42.62,65.34,43.47,66.36,44.48z"/>
	<path class="st0" d="M43.01,35.56c0.29,0.13,0.5,0.24,0.72,0.33c1,0.41,2.01,0.8,3.01,1.21c0.58,0.24,0.88,0.66,0.87,1.3
		c-0.01,0.81-0.02,1.63,0,2.44c0.02,0.72-0.3,1.18-0.96,1.43c-1.01,0.39-2.01,0.8-3.01,1.21c-0.19,0.08-0.36,0.17-0.61,0.29
		c0.94,0.97,1.83,1.88,2.7,2.79c0.18,0.19,0.37,0.41,0.47,0.65c0.23,0.57,0,1.21-0.5,1.54c-0.52,0.34-1.13,0.32-1.6-0.15
		c-1.16-1.16-2.33-2.33-3.43-3.55c-0.25-0.27-0.23-0.79-0.31-1.2c-0.02-0.09,0.04-0.2,0.07-0.3c0.55-1.87,0.09-1.66,2.32-2.54
		c0.62-0.24,1.25-0.47,1.85-0.76c0.19-0.09,0.34-0.35,0.4-0.57c0.1-0.32-0.06-0.52-0.4-0.65c-0.99-0.37-1.97-0.79-2.96-1.17
		c-0.51-0.2-0.81-0.54-0.94-1.07c-0.49-2.08-0.81-1.61,0.72-3.53c0.42-0.52,0.85-1.03,1.22-1.58c0.11-0.17,0.12-0.51,0.02-0.68
		c-0.1-0.18-0.41-0.36-0.6-0.34c-0.95,0.1-1.9,0.25-2.84,0.41c-0.77,0.13-1.45,0.04-1.94-0.64c-0.14-0.2-0.34-0.37-0.53-0.53
		c-0.47-0.4-0.64-0.88-0.53-1.5c0.17-1.02,0.28-2.06,0.44-3.09c0.06-0.35-0.01-0.61-0.34-0.68c-0.24-0.05-0.57-0.03-0.76,0.1
		c-0.83,0.6-1.62,1.24-2.41,1.88c-0.46,0.38-0.95,0.46-1.52,0.29c-2-0.6-1.73-0.11-2.63-2.38c-0.23-0.58-0.48-1.15-0.69-1.74
		c-0.12-0.34-0.31-0.58-0.67-0.47c-0.23,0.07-0.51,0.25-0.61,0.46c-0.42,0.93-0.79,1.88-1.15,2.83c-0.21,0.55-0.58,0.86-1.16,1.01
		c-2.21,0.6-1.9,0.58-3.47-0.93c-0.76-0.74-1.53-1.48-2.29-2.22c-0.72-0.7-0.8-1.5-0.23-2.07c0.59-0.59,1.32-0.51,2.07,0.22
		c0.75,0.73,1.5,1.45,2.24,2.17c0.15,0.14,0.3,0.27,0.54,0.48c0.35-0.86,0.66-1.64,0.98-2.43c0.15-0.37,0.31-0.73,0.44-1.1
		c0.26-0.75,0.78-1.09,1.56-1.08c0.71,0.01,1.42,0,2.12,0c0.95,0.01,1.34,0.31,1.67,1.19c0.37,0.99,0.78,1.97,1.17,2.96
		c0.06,0.15,0.16,0.28,0.28,0.49c0.94-0.74,1.84-1.44,2.73-2.15c1.08-0.85,1.31-0.86,2.5-0.15c0.55,0.33,1.12,0.64,1.67,0.97
		c0.59,0.35,0.8,0.85,0.69,1.53c-0.2,1.25-0.36,2.5-0.56,3.9c0.65-0.07,1.21-0.12,1.77-0.19c0.7-0.09,1.4-0.22,2.1-0.32
		c0.85-0.12,1.32,0.13,1.74,0.89c0.32,0.58,0.66,1.16,0.99,1.74c0.48,0.84,0.45,1.26-0.16,2.04c-0.63,0.8-1.26,1.6-1.89,2.41
		C43.28,35.15,43.18,35.32,43.01,35.56z"/>
	<path class="st0" d="M28.36,30.37c1.7,0.03,3.81,0.86,5.6,2.46c0.75,0.67,0.85,1.47,0.3,2.07c-0.57,0.61-1.3,0.55-2.08-0.15
		c-2.11-1.92-4.55-2.25-7.14-1.28c-2.5,0.94-3.82,2.9-4.04,5.52c-0.23,2.74,0.7,5.03,3.16,6.46c3.9,2.26,9.92,0.39,10.18-5.58
		c0.03-0.64,0.19-1.15,0.81-1.41c0.88-0.37,1.8,0.27,1.8,1.27c0,1.48-0.37,2.89-1.11,4.18c-1.82,3.15-4.51,4.99-8.2,5.05
		c-4.07,0.07-7.98-3.05-9.02-7.07c-1.04-4.02,0.91-8.31,4.72-10.4C24.75,30.73,26.11,30.38,28.36,30.37z"/>
	<path class="st0" d="M20.99,75.63c-2.15,0-4.29,0-6.44,0c-0.94,0-1.52-0.49-1.54-1.26c-0.02-0.79,0.6-1.34,1.54-1.34
		c4.31,0,8.62,0,12.94,0c0.76,0,1.25,0.34,1.42,0.97c0.16,0.59-0.04,1.1-0.54,1.4c-0.26,0.16-0.63,0.22-0.95,0.22
		C25.28,75.64,23.14,75.63,20.99,75.63z"/>
	<path class="st0" d="M67.68,28.92c0-1.23,0-1.23,1.26-1.23c1.37,0,1.37,0,1.37,1.37c0,1.26,0,1.26-1.29,1.26
		C67.68,30.32,67.68,30.32,67.68,28.92z"/>
	<path class="st0" d="M59.56,30.28c-0.83,0-1.65,0-2.51,0c0-0.85,0-1.67,0-2.54c0.82,0,1.64,0,2.51,0
		C59.56,28.57,59.56,29.4,59.56,30.28z"/>
	<path class="st0" d="M64.95,27.75c0,0.86,0,1.67,0,2.52c-0.86,0-1.7,0-2.56,0c0-0.85,0-1.65,0-2.52
		C63.23,27.75,64.07,27.75,64.95,27.75z"/>
	<path class="st0" d="M43.74,57.04c0.86,0,1.67,0,2.52,0c0,0.86,0,1.7,0,2.56c-0.85,0-1.66,0-2.52,0
		C43.74,58.75,43.74,57.92,43.74,57.04z"/>
</g>
</svg>
