<?xml version="1.0" encoding="utf-8"?>
<!-- Generator: Adobe Illustrator 23.0.1, SVG Export Plug-In . SVG Version: 6.00 Build 0)  -->
<svg version="1.1" id="Layer_1" xmlns="http://www.w3.org/2000/svg" xmlns:xlink="http://www.w3.org/1999/xlink" x="0px" y="0px"
	 viewBox="0 0 28 28" style="enable-background:new 0 0 28 28;" xml:space="preserve">
<style type="text/css">
	.st0{fill:#FFC956;}
</style>
<path class="st0" d="M14,0.5C6.6,0.5,0.5,6.5,0.5,14s6,13.5,13.5,13.5s13.5-6,13.5-13.5S21.5,0.5,14,0.5z M6.1,11.8
	c0.3,0.3,0.6,0.5,0.9,0.8c1.2,0.9,2.3,1.5,3,2.1l-3.9,3.9C6.1,18.6,6.1,11.8,6.1,11.8z M20.5,20.2H7.5c-0.3,0-0.7-0.1-0.9-0.4
	l4.5-4.5c0.1,0.1,0.2,0.1,0.3,0.2c0.3,0.2,0.6,0.4,0.8,0.6s0.5,0.3,0.8,0.4s0.7,0.2,1,0.2h0h0c0.3,0,0.6-0.1,1-0.2
	c0.4-0.1,0.6-0.3,0.8-0.4s0.5-0.3,0.8-0.6c0.1-0.1,0.2-0.1,0.3-0.2l4.5,4.5C21.1,20.1,20.8,20.2,20.5,20.2z M21.9,18.6l-3.9-3.9
	c0.8-0.6,1.9-1.3,3-2.1c0.3-0.2,0.6-0.5,0.9-0.8C21.9,11.8,21.9,18.6,21.9,18.6z M21.4,10.5c-0.3,0.4-0.6,0.8-1.1,1.1
	c-1.4,1-2.5,1.7-3.2,2.2c-0.4,0.3-0.7,0.5-0.9,0.6c0,0-0.1,0.1-0.1,0.1c-0.1,0.1-0.1,0.1-0.2,0.2c-0.2,0.1-0.4,0.2-0.5,0.3
	c-0.1,0.1-0.3,0.2-0.5,0.3s-0.4,0.2-0.5,0.2c-0.2,0.1-0.3,0.1-0.4,0.1h0h0c-0.1,0-0.3,0-0.4-0.1s-0.3-0.1-0.5-0.2s-0.3-0.2-0.5-0.3
	s-0.3-0.2-0.5-0.3c-0.1-0.1-0.2-0.1-0.2-0.2c-0.1,0-0.1-0.1-0.1-0.1c-0.2-0.2-0.5-0.4-0.9-0.6c-0.4-0.3-0.9-0.6-1.4-1
	c-1-0.7-1.6-1.1-1.8-1.2c-0.4-0.2-0.7-0.6-1-1c-0.3-0.4-0.5-0.8-0.5-1.2c0-0.5,0.1-0.8,0.4-1.1c0.2-0.3,0.6-0.5,1-0.5h12.9
	c0.4,0,0.7,0.1,1,0.4c0.3,0.3,0.4,0.6,0.4,1C21.9,9.7,21.7,10.1,21.4,10.5z"/>
</svg>
