<svg id="Group_1105" data-name="Group 1105" xmlns="http://www.w3.org/2000/svg" xmlns:xlink="http://www.w3.org/1999/xlink" width="19.814" height="17.218" viewBox="0 0 19.814 17.218">
  <defs>
    <clipPath id="clip-path">
      <rect id="Rectangle_1932" data-name="Rectangle 1932" width="19.814" height="17.218" fill="#fff"/>
    </clipPath>
  </defs>
  <g id="Group_1104" data-name="Group 1104" clip-path="url(#clip-path)">
    <path id="Path_1772" data-name="Path 1772" d="M125.608,12.318a.481.481,0,0,1,.877-.395l.008.016a7.656,7.656,0,1,0,9.226-10.608,7.62,7.62,0,0,0-9.163,3.9,2.226,2.226,0,0,1-.409.626.431.431,0,0,1-.7-.441c.936-3.123,4.878-5.673,8.516-5.391a8.625,8.625,0,0,1,.848,17.114c-4.029.53-7.856-1.535-9.2-4.817" transform="translate(-122.204 0)" fill="#fff"/>
    <path id="Path_1773" data-name="Path 1773" d="M269.129,375.8c-.949,0-1.9.012-2.847,0a1.3,1.3,0,0,1-1.454-1.24c-.144-1.017.11-1.458.973-1.781a10.451,10.451,0,0,1,3.512-.58,8.765,8.765,0,0,1,3.273.572c.876.314,1.1.8.935,1.9a1.3,1.3,0,0,1-1.467,1.132c-.975.012-1.951,0-2.926,0" transform="translate(-257.992 -362.632)" fill="#fff"/>
    <path id="Path_1774" data-name="Path 1774" d="M344.645,162.6a2.466,2.466,0,0,1-2.361,2.486,2.507,2.507,0,0,1-2.553-2.484,2.473,2.473,0,0,1,2.429-2.434,2.431,2.431,0,0,1,2.485,2.432" transform="translate(-331.008 -156.054)" fill="#fff"/>
    <path id="Path_1775" data-name="Path 1775" d="M0,243.908H0a.465.465,0,0,1,.465-.465H6.237a10,10,0,0,1-1.06-1.153A.53.53,0,0,1,5.1,242.1a.464.464,0,0,1,.634-.52.366.366,0,0,1,.083.05c.727.59,1.421,1.219,2.162,1.876a.373.373,0,0,1,.024.535c-.827.877-1.5,1.609-2.213,2.3a.28.28,0,0,1-.123.065.477.477,0,0,1-.582-.591.321.321,0,0,1,.064-.122,8.751,8.751,0,0,0,1.122-1.314H.465A.465.465,0,0,1,0,243.908" transform="translate(0 -235.335)" fill="#fff"/>
  </g>
</svg>
