<?xml version="1.0" encoding="utf-8"?>
<!-- Generator: Adobe Illustrator 23.0.3, SVG Export Plug-In . SVG Version: 6.00 Build 0)  -->
<svg version="1.1" id="Layer_1" xmlns="http://www.w3.org/2000/svg" xmlns:xlink="http://www.w3.org/1999/xlink" x="0px" y="0px"
	 viewBox="0 0 47.6 34.8" style="enable-background:new 0 0 47.6 34.8;" xml:space="preserve">
<style type="text/css">
	.st0{fill:none;stroke:#FFC959;stroke-width:1.4;stroke-linecap:round;stroke-linejoin:round;stroke-miterlimit:10;}
</style>
<g>
	<path class="st0" d="M35.4,20.7c0,1.2-1,2.2-2.3,2.2s-2.3-1-2.3-2.2s1-2.2,2.3-2.2S35.4,19.4,35.4,20.7z M24.3,20.7
		c0,1.2-1,2.2-2.3,2.2s-2.3-1-2.3-2.2s1-2.2,2.3-2.2C23.3,18.4,24.3,19.4,24.3,20.7z M13.2,20.7c0,1.2-1,2.2-2.3,2.2s-2.3-1-2.3-2.2
		s1-2.2,2.3-2.2S13.2,19.4,13.2,20.7z M1,1h40.5v6.8H1V1z M41.5,0.9H1v28h40.5V0.9z M3,31.4h41V2.9 M5,33.9h41.6V4.8"/>
</g>
<path class="st0" d="M30.5,25.3H35 M19.6,25.3h4.6 M8.7,14.8h22.2 M8.7,13h20.9 M8.7,11.1h23.4 M8.7,25.3h4.6"/>
</svg>
