<?xml version="1.0" encoding="utf-8"?>
<!-- Generator: Adobe Illustrator 23.0.1, SVG Export Plug-In . SVG Version: 6.00 Build 0)  -->
<svg version="1.1" id="Layer_1" xmlns="http://www.w3.org/2000/svg" xmlns:xlink="http://www.w3.org/1999/xlink" x="0px" y="0px"
	 viewBox="0 0 34.8 34.8" style="enable-background:new 0 0 34.8 34.8;" xml:space="preserve">
<style type="text/css">
	.st0{fill:none;stroke:#6CD3FF;stroke-linecap:round;stroke-linejoin:round;stroke-miterlimit:10;}
</style>
<polygon class="st0" points="33.8,31.3 17.4,34.1 17.4,13.6 33.8,10.9 "/>
<polygon class="st0" points="1,10.9 1,31.3 8.8,32.6 8,30.8 9.8,28.7 8,25.4 11.3,18.4 10.7,25 13,28.6 12.1,30.8 13.7,33.4 
	17.4,34.1 17.4,13.6 "/>
<line class="st0" x1="20.8" y1="28.5" x2="30.7" y2="26.6"/>
<g>
	<polyline class="st0" points="20.8,22.5 22.8,20.2 24.8,21.7 	"/>
	<line class="st0" x1="22.8" y1="25.7" x2="22.8" y2="20.2"/>
</g>
<g>
	<polyline class="st0" points="26.7,21.4 28.7,19.1 30.7,20.6 	"/>
	<line class="st0" x1="28.7" y1="24.6" x2="28.7" y2="19.1"/>
</g>
<polyline class="st0" points="1,10.9 17.4,8.1 33.8,10.9 "/>
</svg>
