<?xml version="1.0" encoding="utf-8"?>
<!-- Generator: Adobe Illustrator 23.0.1, SVG Export Plug-In . SVG Version: 6.00 Build 0)  -->
<svg version="1.1" id="Layer_1" xmlns="http://www.w3.org/2000/svg" xmlns:xlink="http://www.w3.org/1999/xlink" x="0px" y="0px"
	 viewBox="0 0 34.8 34.8" style="enable-background:new 0 0 34.8 34.8;" xml:space="preserve">
<style type="text/css">
	.st0{fill:none;stroke:#6CD3FF;stroke-linecap:round;stroke-linejoin:round;stroke-miterlimit:10;}
</style>
<g>
	<g>
		<path class="st0" d="M28.5,16.4h-3.7v-4.5c0-0.5-0.3-0.9-0.6-1.1l0,0l-7.8-4.4l0,0c-0.2-0.1-0.4-0.2-0.7-0.2H9.9
			c-0.7,0-1.3,0.6-1.3,1.3v5c0,0.7,0.6,1.3,1.3,1.3c0.7,0,1.3-0.6,1.3-1.3V8.7h3.9l0.6,1.5l-4.5,7.2c0,0,0,0,0,0l0,0l0,0
			C11.1,17.7,11,18,11,18.2V26H3.7c-0.7,0-1.3,0.6-1.3,1.3c0,0.7,0.6,1.3,1.3,1.3h8.6c0.7,0,1.3-0.6,1.3-1.3v-6.9l6.9,4.8v7.8
			c0,0.7,0.6,1.3,1.3,1.3s1.3-0.6,1.3-1.3v-8.4c0-0.1,0-0.2,0-0.3c-0.1-0.3-0.2-0.6-0.5-0.8l-5.5-3.8l3.8-6.2h1.5v4.3
			c0,0.7,0.6,1.3,1.3,1.3h5c0.7,0,1.3-0.6,1.3-1.3C29.8,17,29.3,16.4,28.5,16.4z"/>
		<circle class="st0" cx="23.2" cy="4.2" r="3.2"/>
	</g>
	<path class="st0" d="M30.7,23.6L30.7,23.6L30.7,23.6c-0.1-0.1-0.1-0.1-0.1-0.1L29.2,21H27l-1.5,2.5c0,0,0,0,0,0.1l-0.1,0.1l0,0
		c-0.3,0.5-0.4,1-0.4,1.6c0,1.7,1.4,3.1,3.1,3.1s3.1-1.4,3.1-3.1C31.2,24.6,31,24.1,30.7,23.6z"/>
</g>
</svg>
