<?xml version="1.0" encoding="utf-8"?>
<!-- Generator: Adobe Illustrator 23.0.1, SVG Export Plug-In . SVG Version: 6.00 Build 0)  -->
<svg version="1.1" id="Layer_1" xmlns="http://www.w3.org/2000/svg" xmlns:xlink="http://www.w3.org/1999/xlink" x="0px" y="0px"
	 viewBox="0 0 34.8 34.8" style="enable-background:new 0 0 34.8 34.8;" xml:space="preserve">
<style type="text/css">
	.st0{fill:none;stroke:#6CD3FF;stroke-linecap:round;stroke-linejoin:round;stroke-miterlimit:10;}
</style>
<path class="st0" d="M11.6,19.2h5.8c2.4,0,4.3-1.9,4.3-4.3c0-2.1-1.5-3.8-3.5-4.2C18,8.4,16,6.5,13.6,6.5c-1.9,0-3.5,1.1-4.2,2.8
	C9.2,9.3,9,9.2,8.8,9.2c-2.2,0-4,1.6-4.5,3.6c0,0-0.1,0-0.1,0C2.5,12.9,1,14.3,1,16c0,1.7,1.4,3.2,3.2,3.2H6"/>
<path class="st0" d="M24.3,19.2c0-0.2-0.1-0.5-0.1-0.7c0-1.9,1.5-3.4,3.4-3.4s3.4,1.5,3.4,3.4s-1.5,3.4-3.4,3.4"/>
<path class="st0" d="M19.8,28.1c1.2,0,2.2,1,2.2,2.2c0,1.2-1,2.2-2.2,2.2s-2.2-1-2.2-2.2"/>
<path class="st0" d="M29.5,25.1c2.4,0,4.4,2,4.4,4.4s-2,4.4-4.4,4.4s-4.4-2-4.4-4.4c0-0.2,0-0.5,0.1-0.7"/>
<path class="st0" d="M11.3,28.1c0.2,0.1,8.4,0,8.4,0"/>
<line class="st0" x1="12.6" y1="25.1" x2="29.5" y2="25.1"/>
<line class="st0" x1="13.9" y1="21.9" x2="27.6" y2="21.9"/>
<polyline class="st0" points="9.8,17.5 7.9,21.9 10.3,21.9 7.9,28.1 "/>
</svg>
