<?xml version="1.0" encoding="utf-8"?>
<!-- Generator: Adobe Illustrator 23.0.1, SVG Export Plug-In . SVG Version: 6.00 Build 0)  -->
<svg version="1.1" id="Layer_1" xmlns="http://www.w3.org/2000/svg" xmlns:xlink="http://www.w3.org/1999/xlink" x="0px" y="0px"
	 viewBox="0 0 34.8 34.8" style="enable-background:new 0 0 34.8 34.8;" xml:space="preserve">
<style type="text/css">
	.st0{fill:none;stroke:#6CD3FF;stroke-linecap:round;stroke-linejoin:round;stroke-miterlimit:10;}
</style>
<path class="st0" d="M27,6.8H8c-3.7,0-6.7,3-6.7,6.7s3,6.7,6.7,6.7h3l3.1-3.1v-3.7l2.5,3.4l-1.2,3.4H27c3.7,0,6.7-3,6.7-6.7
	S30.7,6.8,27,6.8z"/>
<path class="st0" d="M15.5,25.2L15.5,25.2l-1.9-3.8l-1.9,3.7l0,0c-0.2,0.3-0.3,0.6-0.3,1c0,1.2,1,2.1,2.1,2.1s2.1-1,2.1-2.1
	C15.7,25.8,15.6,25.5,15.5,25.2z"/>
<path class="st0" d="M19.9,29.6c-2.2,0-4,0.5-4,1c0,0.1,0.1,0.2,0.3,0.3c-0.7-0.1-1.4-0.1-2.2-0.1c-3.2,0-5.8,0.7-5.8,1.5
	c0,0.8,2.6,1.5,5.8,1.5c3.2,0,5.8-0.7,5.8-1.5c0-0.3-0.3-0.5-0.8-0.7c0.3,0,0.6,0,0.9,0c2.2,0,4-0.5,4-1
	C24,30.1,22.2,29.6,19.9,29.6z"/>
</svg>
