<?xml version="1.0" encoding="utf-8"?>
<!-- Generator: Adobe Illustrator 23.0.1, SVG Export Plug-In . SVG Version: 6.00 Build 0)  -->
<svg version="1.1" id="Layer_1" xmlns="http://www.w3.org/2000/svg" xmlns:xlink="http://www.w3.org/1999/xlink" x="0px" y="0px"
	 viewBox="0 0 34.8 34.8" style="enable-background:new 0 0 34.8 34.8;" xml:space="preserve">
<style type="text/css">
	.st0{fill:none;stroke:#6CD3FF;stroke-linecap:round;stroke-linejoin:round;stroke-miterlimit:10;}
</style>
<g>
	<polyline class="st0" points="25.1,33.8 29.9,33.8 29.9,8 23,1 4.9,1 4.9,33.8 19.9,33.8 	"/>
	<polyline class="st0" points="29.9,8 23,8 23,1 	"/>
	<path class="st0" d="M23.1,33.8c0,0-4.5-1.8-2.6-6.3c0,0-1,0.5-1.4,1.5c0,0-1.1-1.4-1.1-3.7s1.8-3.5,3.9-3.5s3.9,1.7,3.9,3.5
		C25.7,28.7,23.1,27.8,23.1,33.8z"/>
	<line class="st0" x1="9.9" y1="13.6" x2="24" y2="13.6"/>
	<line class="st0" x1="9.9" y1="16.4" x2="24" y2="16.4"/>
	<line class="st0" x1="9.9" y1="19.1" x2="24" y2="19.1"/>
	<line class="st0" x1="9.9" y1="21.7" x2="15.9" y2="21.7"/>
</g>
</svg>
