<?xml version="1.0" encoding="utf-8"?>
<!-- Generator: Adobe Illustrator 23.0.3, SVG Export Plug-In . SVG Version: 6.00 Build 0)  -->
<svg version="1.1" id="Layer_1" xmlns="http://www.w3.org/2000/svg" xmlns:xlink="http://www.w3.org/1999/xlink" x="0px" y="0px"
	 viewBox="0 0 34.8 34.8" style="enable-background:new 0 0 34.8 34.8;" xml:space="preserve">
<style type="text/css">
	.st0{fill:#FFC959;}
</style>
<path class="st0" d="M32.7,32.4l-9.2-2.6V2.3l9.2,2.6V32.4z M22,29.8l-9.2,2.6V4.9L22,2.3V29.8z M11.3,32.4l-9.2-2.6V2.3l9.2,2.6
	V32.4z M33.7,3.6L23,0.6l0,0h-0.1l0,0h-0.1l0,0h-0.1l0,0h-0.1l0,0L12,3.5l-10.5-3C1.3,0.4,1,0.5,0.8,0.6C0.7,0.8,0.6,1,0.6,1.3v29.1
	c0,0.3,0.2,0.6,0.6,0.7l10.7,3l0,0H12l0,0h0.1h0.1l0,0h0.1l0,0l10.5-3l10.5,3c0.1,0,0.1,0,0.2,0c0.2,0,0.3-0.1,0.5-0.2
	c0.2-0.1,0.3-0.4,0.3-0.6v-29C34.2,4,34,3.7,33.7,3.6"/>
<path class="st0" d="M9.2,28l-4.6-1.3c-0.4-0.1-0.8,0.1-0.9,0.5c-0.1,0.4,0.1,0.8,0.5,0.9l4.6,1.3c0.1,0,0.1,0,0.2,0
	c0.3,0,0.6-0.2,0.7-0.6C9.8,28.6,9.6,28.1,9.2,28"/>
<path class="st0" d="M9.2,24.2l-4.6-1.3c-0.4-0.1-0.8,0.1-0.9,0.5c-0.1,0.4,0.1,0.8,0.5,0.9l4.6,1.3c0.1,0,0.1,0,0.2,0
	c0.3,0,0.6-0.2,0.7-0.6C9.8,24.8,9.6,24.3,9.2,24.2"/>
<path class="st0" d="M9.2,20.4l-4.6-1.3c-0.4-0.1-0.8,0.1-0.9,0.5c-0.1,0.4,0.1,0.8,0.5,0.9l4.6,1.3c0.1,0,0.1,0,0.2,0
	c0.3,0,0.6-0.2,0.7-0.6C9.8,20.9,9.6,20.5,9.2,20.4"/>
<path class="st0" d="M5.1,7l3.1,0.9v8.5l-3.1-0.9V7z M4.2,16.7L8.8,18c0.1,0,0.1,0,0.2,0c0.2,0,0.3-0.1,0.5-0.2s0.3-0.4,0.3-0.6V7.3
	c0-0.3-0.2-0.6-0.6-0.7L4.6,5.2c-0.2-0.1-0.5,0-0.7,0.1C3.7,5.5,3.6,5.7,3.6,6v10C3.6,16.4,3.8,16.7,4.2,16.7"/>
<path class="st0" d="M15.1,8c0.1,0,0.1,0,0.2,0l4.6-1.3c0.4-0.1,0.6-0.5,0.5-0.9s-0.5-0.6-0.9-0.5l-4.6,1.3
	c-0.4,0.1-0.6,0.5-0.5,0.9C14.5,7.8,14.8,8,15.1,8"/>
<path class="st0" d="M19.5,26.7L14.9,28c-0.4,0.1-0.6,0.5-0.5,0.9c0.1,0.3,0.4,0.6,0.7,0.6c0.1,0,0.1,0,0.2,0l4.6-1.3
	c0.4-0.1,0.6-0.5,0.5-0.9C20.3,26.8,19.9,26.6,19.5,26.7"/>
<path class="st0" d="M19.5,22.9l-4.6,1.3c-0.4,0.1-0.6,0.5-0.5,0.9c0.1,0.3,0.4,0.6,0.7,0.6c0.1,0,0.1,0,0.2,0l4.6-1.3
	c0.4-0.1,0.6-0.5,0.5-0.9C20.3,23,19.9,22.8,19.5,22.9"/>
<path class="st0" d="M19.5,19.1l-4.6,1.3c-0.4,0.1-0.6,0.5-0.5,0.9c0.1,0.3,0.4,0.6,0.7,0.6c0.1,0,0.1,0,0.2,0l4.6-1.3
	c0.4-0.1,0.6-0.5,0.5-0.9C20.3,19.2,19.9,19,19.5,19.1"/>
<path class="st0" d="M19.5,15.3l-4.6,1.3c-0.4,0.1-0.6,0.5-0.5,0.9c0.1,0.3,0.4,0.6,0.7,0.6c0.1,0,0.1,0,0.2,0l4.6-1.3
	c0.4-0.1,0.6-0.5,0.5-0.9C20.3,15.4,19.9,15.2,19.5,15.3"/>
<path class="st0" d="M25.6,6.7L30.2,8c0.1,0,0.1,0,0.2,0c0.3,0,0.6-0.2,0.7-0.6S31,6.6,30.6,6.5L26,5.2c-0.4-0.1-0.8,0.1-0.9,0.5
	C25,6.2,25.2,6.6,25.6,6.7"/>
<path class="st0" d="M25.6,10.5l4.6,1.3c0.1,0,0.1,0,0.2,0c0.3,0,0.6-0.2,0.7-0.6c0.1-0.4-0.1-0.8-0.5-0.9L26,9
	c-0.4-0.1-0.8,0.1-0.9,0.5C25,10,25.2,10.4,25.6,10.5"/>
<path class="st0" d="M25.6,14.3l4.6,1.3c0.1,0,0.1,0,0.2,0c0.3,0,0.6-0.2,0.7-0.6c0.1-0.4-0.1-0.8-0.5-0.9L26,12.8
	c-0.4-0.1-0.8,0.1-0.9,0.5C25,13.8,25.2,14.2,25.6,14.3"/>
<path class="st0" d="M26.6,18.4l3.1,0.9v8.5l-3.1-0.9V18.4z M25.6,28.2l4.6,1.3c0.1,0,0.1,0,0.2,0c0.2,0,0.3-0.1,0.5-0.2
	s0.3-0.4,0.3-0.6v-10c0-0.3-0.2-0.6-0.6-0.7L26,16.7c-0.2-0.1-0.5,0-0.7,0.1S25,17.2,25,17.4v10.1C25,27.8,25.3,28.1,25.6,28.2"/>
</svg>
