<?xml version="1.0" encoding="utf-8"?>
<!-- Generator: Adobe Illustrator 23.0.3, SVG Export Plug-In . SVG Version: 6.00 Build 0)  -->
<svg version="1.1" id="Layer_1" xmlns="http://www.w3.org/2000/svg" xmlns:xlink="http://www.w3.org/1999/xlink" x="0px" y="0px"
	 viewBox="0 0 34.8 34.8" style="enable-background:new 0 0 34.8 34.8;" xml:space="preserve">
<style type="text/css">
	.st0{fill:#FFC959;stroke:#FFC959;stroke-width:0.3;stroke-miterlimit:10;}
</style>
<g>
	<path class="st0" d="M33.4,31.9c0,0.7-0.6,1.3-1.3,1.3H2.7c-0.7,0-1.3-0.6-1.3-1.3V11.6c0-0.7,0.6-1.3,1.3-1.3h29.4
		c0.7,0,1.3,0.6,1.3,1.3C33.4,11.6,33.4,31.9,33.4,31.9z M32.1,9.2H2.7c-1.3,0-2.4,1.1-2.4,2.4v20.3c0,1.3,1.1,2.4,2.4,2.4h29.4
		c1.3,0,2.4-1.1,2.4-2.4V11.6C34.5,10.3,33.4,9.2,32.1,9.2"/>
	<path class="st0" d="M11.1,9.3L11.1,9.3c-0.2,0-0.4,0-0.6,0c0.1,0,0.2,0,0.3,0C10.9,9.3,11,9.3,11.1,9.3"/>
	<path class="st0" d="M11.7,9.4c-0.2,0-0.4,0-0.6,0c0.1,0,0.2,0,0.3,0S11.6,9.4,11.7,9.4"/>
	<path class="st0" d="M13.4,27.1v0.6c-0.1,0.1-0.3,0.1-0.7,0.2c-0.2,0-0.4,0.1-0.7,0.1c-0.2,0-0.4,0-0.6,0.1c-0.1,0-0.2,0-0.4,0
		c-0.6,0-1.3,0.1-2.2,0.1c-0.4,0-0.8,0-1.2,0c-0.4,0-0.7,0-1-0.1c-0.1,0-0.2,0-0.4,0c-0.2,0-0.4,0-0.6-0.1c-0.1,0-0.3,0-0.4-0.1
		c-0.1,0-0.2,0-0.3-0.1c-0.3-0.1-0.5-0.1-0.7-0.2V27l0,0c0-0.5,0.3-0.9,0.7-1.1l2.2-1.1c0.3-0.2,0.6-0.5,0.6-0.9v-1l-0.3-0.1
		c-0.9-0.4-1.4-1.1-1.7-2.2l-0.1-0.3H5.4H5.2c-0.1,0-0.2-0.1-0.3-0.2c-0.1-0.1-0.1-0.2-0.1-0.3V19c0-0.2,0.1-0.3,0.2-0.4
		c0,0,0.1,0,0.1-0.1l0.3-0.1l0,0l0,0v-0.3c0.2-1.6,1.1-2.3,2.8-2.5c0.2,0,0.4,0,0.6,0c0.2,0,0.4,0,0.6,0c1.7,0.1,2.6,0.9,2.8,2.5
		v0.3l0,0l0,0l0.3,0.1c0,0,0.1,0,0.1,0.1c0.1,0.1,0.2,0.3,0.2,0.4v0.6c0,0.1,0,0.2-0.1,0.3c-0.1,0.1-0.2,0.2-0.3,0.2h-0.2H12
		l-0.1,0.3c-0.3,1.1-0.9,1.8-1.7,2.2L10,22.9v1c0,0.4,0.2,0.7,0.6,0.9l2.2,1.1C13.2,26.1,13.4,26.5,13.4,27.1L13.4,27.1z M13.2,24.9
		l-2.1-1.1l0,0v-0.2c0.9-0.5,1.6-1.3,1.9-2.5c0.1-0.1,0.3-0.2,0.4-0.3l0.1-0.1c0.1-0.2,0.3-0.4,0.3-0.6c0-0.1,0.1-0.2,0.1-0.3
		c0-0.1,0-0.1,0-0.2V19c0,0,0,0,0-0.1v-0.1c0-0.2-0.1-0.4-0.2-0.5l0,0c0,0,0-0.1-0.1-0.1c0,0,0,0,0-0.1c0,0,0,0,0-0.1
		c-0.1-0.1-0.2-0.3-0.4-0.4c-0.3-2-1.6-3.1-3.9-3.2c-0.1,0-0.2,0-0.3,0s-0.2,0-0.4,0c-0.1,0-0.2,0-0.4,0c-0.1,0-0.2,0-0.3,0
		c-2.2,0.2-3.5,1.2-3.9,3.2c-0.1,0.1-0.3,0.2-0.4,0.4c0,0,0,0,0,0.1c0,0,0,0,0,0.1c0,0,0,0.1-0.1,0.1l0,0c-0.1,0.2-0.1,0.4-0.2,0.5
		c0,0,0,0,0,0.1V19v0.6c0,0.5,0.2,0.9,0.5,1.2C3.9,20.9,4,21,4.2,21.1c0.4,1.1,1,2,1.9,2.5v0.2l0,0L4,24.9c-0.8,0.4-1.3,1.3-1.3,2.2
		v0.7c0,0.3,0,1,2.1,1.3c0.2,0,0.4,0.1,0.6,0.1c0.4,0,0.9,0.1,1.5,0.1c0.4,0,0.9,0,1.5,0c0.5,0,1,0,1.5,0c0.6,0,1.1-0.1,1.5-0.1
		c0.2,0,0.4-0.1,0.6-0.1c0.6-0.1,1-0.2,1.3-0.3c0.1,0,0.2-0.1,0.3-0.1c0.6-0.3,0.6-0.7,0.6-0.9v-0.7C14.6,26.1,14.1,25.3,13.2,24.9"
		/>
	<path class="st0" d="M17.4,17.8h5.7c0.3,0,0.6-0.3,0.6-0.6c0-0.3-0.3-0.6-0.6-0.6h-5.7c-0.3,0-0.6,0.3-0.6,0.6
		C16.8,17.5,17.1,17.8,17.4,17.8"/>
	<path class="st0" d="M25.4,17.8H26c0.3,0,0.6-0.3,0.6-0.6c0-0.3-0.3-0.6-0.6-0.6h-0.6c-0.3,0-0.6,0.3-0.6,0.6S25.1,17.8,25.4,17.8"
		/>
	<path class="st0" d="M18,26.4h-0.6c-0.3,0-0.6,0.3-0.6,0.6s0.3,0.6,0.6,0.6H18c0.3,0,0.6-0.3,0.6-0.6S18.3,26.4,18,26.4"/>
	<path class="st0" d="M21.4,26.4h-1.1c-0.3,0-0.6,0.3-0.6,0.6s0.3,0.6,0.6,0.6h1.1c0.3,0,0.6-0.3,0.6-0.6S21.7,26.4,21.4,26.4"/>
	<path class="st0" d="M24.3,26.4h-0.6c-0.3,0-0.6,0.3-0.6,0.6s0.3,0.6,0.6,0.6h0.6c0.3,0,0.6-0.3,0.6-0.6S24.6,26.4,24.3,26.4"/>
	<path class="st0" d="M27.7,26.4h-1.1c-0.3,0-0.6,0.3-0.6,0.6s0.3,0.6,0.6,0.6h1.1c0.3,0,0.6-0.3,0.6-0.6S28,26.4,27.7,26.4"/>
	<path class="st0" d="M29.6,26.5c-0.1,0.1-0.2,0.3-0.2,0.4s0.1,0.3,0.2,0.4s0.3,0.2,0.4,0.2s0.3-0.1,0.4-0.2s0.2-0.3,0.2-0.4
		s-0.1-0.3-0.2-0.4C30.1,26.3,29.8,26.3,29.6,26.5"/>
	<path class="st0" d="M30,20.1H17.4c-0.3,0-0.6,0.3-0.6,0.6c0,0.3,0.3,0.6,0.6,0.6H30c0.3,0,0.6-0.3,0.6-0.6
		C30.5,20.3,30.3,20.1,30,20.1"/>
	<path class="st0" d="M30,23.5H17.4c-0.3,0-0.6,0.3-0.6,0.6c0,0.3,0.3,0.6,0.6,0.6H30c0.3,0,0.6-0.3,0.6-0.6
		C30.5,23.8,30.3,23.5,30,23.5"/>
</g>
</svg>
