<?xml version="1.0" encoding="utf-8"?>
<!-- Generator: Adobe Illustrator 23.0.3, SVG Export Plug-In . SVG Version: 6.00 Build 0)  -->
<svg version="1.1" id="Layer_1" xmlns="http://www.w3.org/2000/svg" xmlns:xlink="http://www.w3.org/1999/xlink" x="0px" y="0px"
	 viewBox="0 0 34.8 34.8" style="enable-background:new 0 0 34.8 34.8;" xml:space="preserve">
<style type="text/css">
	.st0{fill:#FFC959;stroke:#FFC959;stroke-width:0.3;stroke-miterlimit:10;}
</style>
<path class="st0" d="M31.7,32.7l-5-2l3.1-3.1L31.7,32.7z M8,8.9L8,8.9L8,8.9l-1.7,1.7L4.9,9.4l3.5-3.5l1.3,1.3L8,8.9z M2.6,7
	c-1-1-1-2.5,0-3.5s2.5-1,3.5,0l1.6,1.6L4.2,8.6L2.6,7z M17.1,22.9l-1,1l-1.2-1.2c-0.2-0.2-0.5-0.2-0.7,0s-0.2,0.5,0,0.7l1.2,1.2
	l-1.2,1.2l-2.7-2.7c-0.2-0.2-0.5-0.2-0.7,0s-0.2,0.5,0,0.7l2.7,2.7l-1.2,1.2L11,26.5c-0.2-0.2-0.5-0.2-0.7,0s-0.2,0.5,0,0.7l1.2,1.2
	l-1.2,1.2l-1.2-1.2c-0.2-0.2-0.5-0.2-0.7,0s-0.2,0.5,0,0.7l1.2,1.2l-1.2,1.2l-2.7-2.7c-0.2-0.2-0.5-0.2-0.7,0s-0.2,0.5,0,0.7
	l2.7,2.7l-1,1c-0.1,0.1-0.2,0.2-0.4,0.2c-0.1,0-0.3-0.1-0.4-0.2L1.7,29c-0.2-0.2-0.2-0.6,0-0.8L12,17.9L17.1,22.9z M33.1,6.1
	l-4.2-4.2c-0.6-0.6-1.6-0.6-2.2,0l-8,8c-0.2,0.2-0.2,0.5,0,0.7s0.5,0.2,0.7,0l8-8c0.1-0.1,0.2-0.2,0.4-0.2c0.1,0,0.3,0.1,0.4,0.2
	l4.2,4.2c0.1,0.1,0.2,0.2,0.2,0.4c0,0.1-0.1,0.3-0.2,0.4l-1,1l-2.7-2.7c-0.2-0.2-0.5-0.2-0.7,0s-0.2,0.5,0,0.7l2.7,2.7l-1.2,1.2
	l-1.2-1.2c-0.2-0.2-0.5-0.2-0.7,0s-0.2,0.5,0,0.7l1.2,1.2l-1.2,1.2l-1.2-1.2c-0.2-0.2-0.5-0.2-0.7,0s-0.2,0.5,0,0.7l1.2,1.2
	l-1.2,1.2L23,11.6c-0.2-0.2-0.5-0.2-0.7,0s-0.2,0.5,0,0.7L25,15l-1.2,1.2L22.6,15c-0.2-0.2-0.5-0.2-0.7,0s-0.2,0.5,0,0.7L23,17l-1,1
	l-5-5l0.9-0.9c0.2-0.2,0.2-0.5,0-0.7s-0.5-0.2-0.7,0l-0.9,0.9L6.8,2.8c-0.7-0.7-1.5-1-2.5-1c-0.9,0-1.8,0.4-2.5,1
	c-0.7,0.7-1,1.5-1,2.5c0,0.9,0.4,1.8,1,2.5l9.4,9.4L0.9,27.6c-0.6,0.6-0.6,1.6,0,2.2L5.1,34c0.3,0.3,0.7,0.5,1.1,0.5S7,34.3,7.3,34
	l10.4-10.4l0.7,0.7c0.2,0.2,0.5,0.2,0.7,0s0.2-0.5,0-0.7l-1-1c0,0,0-0.1-0.1-0.1l-0.1-0.1L7,11.4L8.3,10l0.8,0.8
	C9.3,11,9.4,11,9.6,11s0.3-0.1,0.4-0.1c0.2-0.2,0.2-0.5,0-0.7L9.1,9.3l1.4-1.4l5.4,5.4l0,0l0,0l5.7,5.7c0,0,0,0,0,0.1c0,0,0,0,0.1,0
	l7.6,7.6l-1.4,1.4l-7.7-7.7l0,0l-3.1-3.1l0,0L11.7,12c-0.2-0.2-0.5-0.2-0.7,0s-0.2,0.5,0,0.7l16.1,16.1l-1.4,1.4l-4.9-4.9
	c-0.2-0.2-0.5-0.2-0.7,0s-0.2,0.5,0,0.7l5.2,5.2c0.1,0,0.1,0.1,0.2,0.1l6.2,2.4c0.1,0,0.2,0.1,0.3,0.1c0.2,0,0.4-0.1,0.6-0.2
	c0.2-0.2,0.3-0.6,0.2-0.9l-2.4-6.2c0-0.1-0.1-0.1-0.1-0.2l-7.6-7.6L33.1,8.3C33.7,7.7,33.7,6.7,33.1,6.1"/>
</svg>
