<?xml version="1.0" encoding="utf-8"?>
<!-- Generator: Adobe Illustrator 23.0.1, SVG Export Plug-In . SVG Version: 6.00 Build 0)  -->
<svg version="1.1" id="Layer_1" xmlns="http://www.w3.org/2000/svg" xmlns:xlink="http://www.w3.org/1999/xlink" x="0px" y="0px"
	 viewBox="0 0 34.8 34.8" style="enable-background:new 0 0 34.8 34.8;" xml:space="preserve">
<style type="text/css">
	.st0{fill:none;stroke:#FFC959;stroke-linecap:round;stroke-linejoin:round;stroke-miterlimit:10;}
</style>
<g>
	<polyline class="st0" points="21.8,25.6 0.8,25.6 0.8,21.2 21.8,21.2 	"/>
	<path class="st0" d="M28.7,27.4h-3.3c-2.9,0-5.2,2.3-5.2,5.2v1.3h13.6v-1.3C33.9,29.7,31.6,27.4,28.7,27.4z"/>
	<path class="st0" d="M27.1,17.7V6.1H0.8v19.5"/>
	<path class="st0" d="M27.1,19.5C27.1,19.5,27.1,19.5,27.1,19.5c-2.2,0-3.9,1.8-3.9,3.9c0,1.6,1,3,2.3,3.6c0.5,0.2,1,0.3,1.6,0.3
		c2.2,0,3.9-1.8,3.9-3.9C31.1,21.3,29.3,19.5,27.1,19.5z"/>
	<g>
		<circle class="st0" cx="11.4" cy="13.5" r="1.8"/>
		<polyline class="st0" points="13.2,13.5 19.4,13.5 19.4,15.3 		"/>
		<line class="st0" x1="17" y1="13.5" x2="17" y2="15.3"/>
	</g>
	<line class="st0" x1="13.9" y1="25.6" x2="13.9" y2="28.6"/>
	<line class="st0" x1="10.1" y1="28.6" x2="17.8" y2="28.6"/>
</g>
</svg>
