<?xml version="1.0" encoding="utf-8"?>
<!-- Generator: Adobe Illustrator 23.0.1, SVG Export Plug-In . SVG Version: 6.00 Build 0)  -->
<svg version="1.1" id="Layer_1" xmlns="http://www.w3.org/2000/svg" xmlns:xlink="http://www.w3.org/1999/xlink" x="0px" y="0px"
	 viewBox="0 0 34.8 34.8" style="enable-background:new 0 0 34.8 34.8;" xml:space="preserve">
<style type="text/css">
	.st0{fill:none;stroke:#FFC959;stroke-linecap:round;stroke-linejoin:round;stroke-miterlimit:10;}
</style>
<g>
	<rect x="1.9" y="12.1" class="st0" width="30.9" height="19.3"/>
	<path class="st0" d="M32.8,12.1H2.1c-0.7,0-1.3-0.6-1.3-1.3v0c0-0.7,0.6-1.3,1.3-1.3h30.7c0.7,0,1.3,0.6,1.3,1.3v0
		C34.1,11.6,33.5,12.1,32.8,12.1z"/>
	<path class="st0" d="M32.8,34.1H2.1c-0.7,0-1.3-0.6-1.3-1.3l0,0c0-0.7,0.6-1.3,1.3-1.3h30.7c0.7,0,1.3,0.6,1.3,1.3l0,0
		C34.1,33.5,33.5,34.1,32.8,34.1z"/>
	<path class="st0" d="M17.1,21.8h-6c0.4,0.4,0.6,1,0.6,1.6c0,1.3-1,2.3-2.3,2.3c-1.3,0-2.3-1-2.3-2.3c0-0.6,0.2-1.1,0.6-1.6H1.9"/>
	<path class="st0" d="M17.1,21.8h6c-0.4-0.4-0.6-1-0.6-1.6c0-1.3,1-2.3,2.3-2.3c1.3,0,2.3,1,2.3,2.3c0,0.6-0.2,1.1-0.6,1.6h6.3"/>
	<path class="st0" d="M17.4,21.8V25c0.4-0.4,1-0.6,1.6-0.6c1.3,0,2.3,1,2.3,2.3c0,1.3-1,2.3-2.3,2.3c-0.6,0-1.1-0.2-1.6-0.6v3.1"/>
	<path class="st0" d="M17.4,21.8v-3.1c-0.4,0.4-1,0.6-1.6,0.6c-1.3,0-2.3-1-2.3-2.3c0-1.3,1-2.3,2.3-2.3c0.6,0,1.1,0.2,1.6,0.6
		l0-3.1"/>
</g>
</svg>
