<?xml version="1.0" encoding="utf-8"?>
<!-- Generator: Adobe Illustrator 23.0.3, SVG Export Plug-In . SVG Version: 6.00 Build 0)  -->
<svg version="1.1" id="Layer_1" xmlns="http://www.w3.org/2000/svg" xmlns:xlink="http://www.w3.org/1999/xlink" x="0px" y="0px"
	 viewBox="0 0 21.8 22" style="enable-background:new 0 0 21.8 22;" xml:space="preserve">
<style type="text/css">
	.st0{fill:#FFC959;}
</style>
<g>
	<path class="st0" d="M21.6,2.7l-2.6-2.6c-0.2-0.2-0.5-0.2-0.7,0L6.4,12.1c0,0,0,0,0,0c0,0,0,0,0,0c0,0.1-0.1,0.1-0.1,0.2
		c0,0,0,0,0,0l-0.7,3.2c0,0.2,0,0.3,0.1,0.5c0.1,0.1,0.2,0.1,0.4,0.1c0,0,0.1,0,0.1,0l3.2-0.7c0,0,0,0,0,0c0.1,0,0.1,0,0.2-0.1
		c0,0,0,0,0,0c0,0,0,0,0,0L21.6,3.4C21.8,3.2,21.8,2.9,21.6,2.7z M6.8,15l0.3-1.6l1.3,1.3L6.8,15z M9.4,14.3l-1.9-1.9L18.7,1.2
		l1.9,1.9L9.4,14.3z"/>
	<path class="st0" d="M17.6,9.9c-0.3,0-0.5,0.2-0.5,0.5V21H1V4.8h10.2c0.3,0,0.5-0.2,0.5-0.5c0-0.3-0.2-0.5-0.5-0.5H0.5
		C0.2,3.8,0,4,0,4.3v17.1C0,21.7,0.2,22,0.5,22h17.1c0.3,0,0.5-0.2,0.5-0.5V10.4C18.1,10.1,17.9,9.9,17.6,9.9z"/>
</g>
</svg>
