<?xml version="1.0" encoding="utf-8"?>
<!-- Generator: Adobe Illustrator 23.0.3, SVG Export Plug-In . SVG Version: 6.00 Build 0)  -->
<svg version="1.1" id="Layer_1" xmlns="http://www.w3.org/2000/svg" xmlns:xlink="http://www.w3.org/1999/xlink" x="0px" y="0px"
	 viewBox="0 0 21.8 22" style="enable-background:new 0 0 21.8 22;" xml:space="preserve">
<style type="text/css">
	.st0{fill:none;stroke:#FFC959;stroke-linecap:round;stroke-linejoin:round;stroke-miterlimit:10;}
</style>
<g>
	<path class="st0" d="M4,18.5c0,0,0.6-0.6,1.6-0.9c1-0.4,1.5-0.5,2.2-1c0.7-0.4,1-0.8,1.1-1.8c0-1,0-1,0-1s-1-0.9-1-2.1
		c0,0-0.6-0.1-0.7-0.9C7.2,10,7.3,9.8,7.5,9.7c0,0-0.8-3,0.1-4.5C8.3,4,9.4,3.6,11,3.6c0.8,0,1.7,0.4,1.9,0.7c0,0,1,0,1.5,0.9
		c0.5,0.8,0.7,2.6,0.1,4.4c0,0,0.4,0.3,0.2,1.2c-0.2,0.8-0.6,0.9-0.6,0.9s-0.4,1.5-1,2.1c0,0-0.1,0.6,0,0.9c0,0.4-0.2,1.4,0.8,1.8
		c1,0.5,2.8,1,3.6,1.7l0.3,0.3"/>
	<circle class="st0" cx="10.9" cy="11" r="10.2"/>
</g>
</svg>
