<?xml version="1.0" encoding="utf-8"?>
<!-- Generator: Adobe Illustrator 23.0.3, SVG Export Plug-In . SVG Version: 6.00 Build 0)  -->
<svg version="1.1" id="Layer_1" xmlns="http://www.w3.org/2000/svg" xmlns:xlink="http://www.w3.org/1999/xlink" x="0px" y="0px"
	 viewBox="0 0 7.7 6.5" style="enable-background:new 0 0 7.7 6.5;" xml:space="preserve">
<style type="text/css">
	.st0{fill:#FFC959;}
</style>
<path class="st0" d="M6.9,4C7,3.7,7,3.5,7,3.3c0-0.1,0-0.2,0-0.2C6.9,1.5,5.5,0.2,3.9,0.2c-0.2,0-0.4,0-0.5,0C3.1,0.1,2.8,0,2.4,0
	c-1,0-1.8,0.8-1.8,1.8c0,0.3,0.1,0.6,0.2,0.9c0,0.1,0,0.2,0,0.3c0,0.1,0,0.2,0,0.3c0,1.7,1.4,3.1,3.1,3.1c0.2,0,0.4,0,0.6-0.1
	C4.7,6.4,5,6.5,5.3,6.5c1,0,1.8-0.8,1.8-1.8C7.1,4.5,7.1,4.2,6.9,4z M5.5,4.8C5.4,5,5.1,5.1,4.9,5.2c-0.3,0.1-0.6,0.2-1,0.2
	c-0.4,0-0.8-0.1-1.1-0.2C2.6,5.1,2.4,4.9,2.3,4.7C2.1,4.5,2.1,4.3,2.1,4.2c0-0.1,0-0.2,0.1-0.3c0.1-0.1,0.2-0.1,0.3-0.1
	c0.1,0,0.2,0,0.3,0.1C2.9,3.9,2.9,4,3,4.1C3,4.2,3.1,4.3,3.2,4.4c0.1,0.1,0.1,0.1,0.3,0.2c0.1,0.1,0.3,0.1,0.5,0.1
	c0.3,0,0.5-0.1,0.6-0.2c0.2-0.1,0.2-0.2,0.2-0.4c0-0.1,0-0.2-0.1-0.3C4.5,3.8,4.4,3.7,4.3,3.7c-0.1,0-0.3-0.1-0.6-0.1
	C3.4,3.5,3.1,3.4,2.9,3.3C2.7,3.2,2.5,3.1,2.4,2.9c0-0.1-0.1-0.1-0.1-0.2C2.2,2.6,2.2,2.5,2.2,2.3c0-0.2,0.1-0.4,0.2-0.6
	C2.5,1.5,2.7,1.4,3,1.3c0.3-0.1,0.6-0.1,0.9-0.1c0.3,0,0.5,0,0.7,0.1C4.8,1.3,5,1.4,5.1,1.5s0.2,0.2,0.3,0.3
	c0.1,0.1,0.1,0.2,0.1,0.4c0,0.1,0,0.2-0.1,0.3C5.3,2.6,5.2,2.6,5.1,2.6c-0.1,0-0.2,0-0.3-0.1C4.8,2.5,4.7,2.4,4.6,2.3
	C4.5,2.1,4.5,2,4.3,1.9C4.2,1.9,4.1,1.8,3.8,1.8c-0.2,0-0.4,0-0.5,0.1C3.2,2,3.1,2.1,3.1,2.2c0,0.1,0,0.1,0.1,0.2
	c0,0.1,0.1,0.1,0.2,0.1c0.1,0,0.2,0.1,0.3,0.1c0,0,0,0,0.1,0c0.1,0,0.2,0.1,0.4,0.1c0.3,0.1,0.5,0.1,0.7,0.2C4.9,3,5.1,3.1,5.2,3.2
	c0.1,0.1,0.3,0.2,0.4,0.4c0.1,0.1,0.1,0.3,0.1,0.5C5.7,4.3,5.6,4.6,5.5,4.8z"/>
</svg>
