<?xml version="1.0" encoding="utf-8"?>
<!-- Generator: Adobe Illustrator 23.0.3, SVG Export Plug-In . SVG Version: 6.00 Build 0)  -->
<svg version="1.1" id="Layer_1" xmlns="http://www.w3.org/2000/svg" xmlns:xlink="http://www.w3.org/1999/xlink" x="0px" y="0px"
	 viewBox="0 0 18.7 18.7" style="enable-background:new 0 0 18.7 18.7;" xml:space="preserve">
<style type="text/css">
	.st0{fill:#FF0000;}
	.st1{fill:none;stroke:#FF0000;stroke-linecap:round;stroke-linejoin:round;stroke-miterlimit:10;}
</style>
<g>
	<g>
		<g>
			<path class="st0" d="M16.2,1c0.8,0,1.4,0.6,1.4,1.4v13.8c0,0.8-0.6,1.4-1.4,1.4H2.5C1.7,17.7,1,17,1,16.2V2.5C1,1.7,1.7,1,2.5,1
				H16.2 M16.2,0H2.5C1.1,0,0,1.1,0,2.5v13.8c0,1.3,1.1,2.4,2.4,2.4h13.8c1.3,0,2.4-1.1,2.4-2.4V2.5C18.7,1.1,17.6,0,16.2,0L16.2,0z
				"/>
		</g>
		<line class="st1" x1="5.6" y1="13.1" x2="13.1" y2="5.6"/>
		<line class="st1" x1="13.1" y1="13.1" x2="5.6" y2="5.6"/>
	</g>
</g>
</svg>
