<?xml version="1.0" encoding="utf-8"?>
<!-- Generator: Adobe Illustrator 23.0.1, SVG Export Plug-In . SVG Version: 6.00 Build 0)  -->
<svg version="1.1" id="Layer_1" xmlns="http://www.w3.org/2000/svg" xmlns:xlink="http://www.w3.org/1999/xlink" x="0px" y="0px"
	 viewBox="0 0 21 21" style="enable-background:new 0 0 21 21;" xml:space="preserve">
<style type="text/css">
	.st0{fill:#FFC956;}
</style>
<path class="st0" d="M21,10.5C21,4.7,16.3,0,10.5,0S0,4.7,0,10.5S4.7,21,10.5,21c2.8,0,5.3-1.1,7.2-2.9l0,0l0,0
	C19.7,16.2,21,13.5,21,10.5z M0.8,10.5c0-5.3,4.3-9.7,9.7-9.7c5.3,0,9.7,4.3,9.7,9.7c0,2.6-1.1,5-2.8,6.8c-0.7-0.5-1.5-0.9-2.3-1.2
	c-1-0.4-1.8-0.7-2.1-1.3c0-0.5,0-0.9,0-1.3v-0.2c0.4-0.4,0.8-1.2,0.9-1.9c0.3-0.2,0.7-0.5,0.8-1.4c0.1-0.5-0.1-0.8-0.3-1
	c0.2-0.8,0.7-3-0.1-4.4c-0.4-0.6-0.9-0.9-1.6-1.1c-0.4-0.5-1.2-0.8-2.2-0.8C9,2.7,7.8,3.2,7.1,4.1c-0.8,1.1-1,2.7-0.4,4.8
	C6.4,9.1,6.3,9.5,6.4,10c0.1,0.9,0.5,1.3,0.8,1.4c0.1,0.7,0.5,1.5,0.9,1.9v0.2c0,0.4,0,0.8,0,1.3C7.8,15.4,7,15.7,6,16.1
	c-0.8,0.3-1.6,0.6-2.3,1.2C1.9,15.5,0.8,13.1,0.8,10.5z M4.3,17.9c0.6-0.4,1.3-0.7,2-1C7.4,16.4,8.5,16,8.9,15v-0.1c0-0.5,0-1,0-1.4
	v-0.4v-0.2l-0.2-0.1c-0.2-0.1-0.7-1-0.8-1.7v-0.3H7.6c-0.1,0-0.3-0.2-0.3-0.8c0-0.3,0.1-0.5,0.1-0.5l0.3-0.2L7.5,8.9
	C7,7,7.1,5.5,7.8,4.6c0.5-0.7,1.4-1,2.7-1.1c0.8,0,1.4,0.2,1.6,0.5l0.1,0.2h0.2c0.6,0.1,1,0.3,1.2,0.7c0.6,1,0.3,3-0.1,3.9l-0.1,0.3
	l0.3,0.2c0,0,0.2,0.1,0.1,0.5c-0.1,0.7-0.3,0.8-0.3,0.8h-0.3v0.3c-0.1,0.8-0.6,1.6-0.7,1.7l-0.2,0.1v0.6c0,0.4,0,0.9,0,1.4v0.1
	c0.4,1,1.4,1.4,2.6,1.9c0.7,0.3,1.4,0.6,2,1C15.2,19.1,13,20,10.7,20C8.1,20.2,6,19.3,4.3,17.9z"/>
</svg>
