<?xml version="1.0" encoding="utf-8"?>
<!-- Generator: Adobe Illustrator 16.0.0, SVG Export Plug-In . SVG Version: 6.00 Build 0)  -->
<!DOCTYPE svg PUBLIC "-//W3C//DTD SVG 1.1//EN" "http://www.w3.org/Graphics/SVG/1.1/DTD/svg11.dtd">
<svg version="1.1" id="Layer_1" xmlns="http://www.w3.org/2000/svg" xmlns:xlink="http://www.w3.org/1999/xlink" x="0px" y="0px"
	 width="612px" height="792px" viewBox="0 0 612 792" enable-background="new 0 0 612 792" xml:space="preserve">
<path fill="#FDC956" d="M306.159,90C137.539,90,0.323,227.217,0.323,395.839s137.216,305.839,305.836,305.839
	C474.781,701.678,612,564.461,612,395.839S474.781,90,306.159,90z M391.034,271.345c0,2.577-2.094,4.67-4.67,4.67h-36.721
	c-9.02,0-16.427,7.248-16.427,16.267v38.491h52.342c2.737,0,4.831,2.255,4.671,4.993l-4.51,54.275
	c-0.161,2.416-2.255,4.188-4.671,4.188h-47.672v180.218c0,2.577-2.094,4.671-4.671,4.671h-65.869c-2.577,0-4.671-2.094-4.671-4.671
	V397.289v-2.899h-32.854c-2.577,0-4.671-2.094-4.671-4.671v-54.274c0-2.577,2.094-4.671,4.671-4.671h32.854v-52.342
	c0-36.398,29.634-66.032,66.03-66.032h62.166c2.577,0,4.671,2.094,4.671,4.67L391.034,271.345L391.034,271.345z"/>
</svg>
