<?xml version="1.0" encoding="utf-8"?>
<!-- Generator: Adobe Illustrator 16.0.0, SVG Export Plug-In . SVG Version: 6.00 Build 0)  -->
<!DOCTYPE svg PUBLIC "-//W3C//DTD SVG 1.1//EN" "http://www.w3.org/Graphics/SVG/1.1/DTD/svg11.dtd">
<svg version="1.1" id="Layer_1" xmlns="http://www.w3.org/2000/svg" xmlns:xlink="http://www.w3.org/1999/xlink" x="0px" y="0px"
	 width="612px" height="792px" viewBox="0 0 612 792" enable-background="new 0 0 612 792" xml:space="preserve">
<path fill="#FDC956" d="M306,90.161C137.378,90.161,0.161,227.378,0.161,396S137.378,701.839,306,701.839
	c168.621,0,305.839-137.217,305.839-305.839S474.62,90.161,306,90.161z M229.5,533.539c0,2.898-2.255,5.153-5.154,5.153h-58.945
	c-2.897,0-5.152-2.255-5.152-5.153V335.605c0-2.899,2.255-5.154,5.152-5.154h58.945c2.899,0,5.154,2.254,5.154,5.154V533.539
	L229.5,533.539z M192.941,304.039c-20.453,0-37.042-16.588-37.042-37.042s16.589-37.042,37.042-37.042
	c20.454,0,37.042,16.588,37.042,37.042S213.395,304.039,192.941,304.039z M478.97,533.539c0,2.898-2.255,5.153-5.153,5.153h-58.945
	c-2.898,0-5.152-2.255-5.152-5.153V427.405c0-28.022-9.985-47.027-35.109-47.027c-19.166,0-30.438,12.884-35.432,25.285
	c-1.772,4.51-2.255,10.63-2.255,16.91V533.7c0,2.897-2.255,5.153-5.154,5.153h-58.943c-2.899,0-5.154-2.256-5.154-5.153
	c0.161-28.347,0.645-165.563,0.161-197.773c0-2.899,2.255-5.154,5.153-5.154h58.783c2.899,0,5.154,2.255,5.154,5.154v24.319
	c9.18-14.172,25.606-34.304,62.326-34.304c45.578,0,79.561,29.795,79.561,93.572v114.025H478.97z"/>
</svg>
