<?xml version="1.0" encoding="utf-8"?>
<!-- Generator: Adobe Illustrator 16.0.0, SVG Export Plug-In . SVG Version: 6.00 Build 0)  -->
<!DOCTYPE svg PUBLIC "-//W3C//DTD SVG 1.1//EN" "http://www.w3.org/Graphics/SVG/1.1/DTD/svg11.dtd">
<svg version="1.1" id="Layer_1" xmlns="http://www.w3.org/2000/svg" xmlns:xlink="http://www.w3.org/1999/xlink" x="0px" y="0px"
	 width="612px" height="792px" viewBox="0 0 612 792" enable-background="new 0 0 612 792" xml:space="preserve">
<g>
	<g>
		<path fill="#FDC956" d="M279.426,345.913c-3.543-1.933-6.764,0.483-6.764,4.67v91.479c0,4.024,3.221,6.603,6.764,4.67
			l81.171-44.611c3.704-1.934,4.348-7.248,0.644-9.341L279.426,345.913z M306,90.161C137.378,90.161,0.161,227.378,0.161,396
			S137.378,701.839,306,701.839c168.621,0,305.839-137.217,305.839-305.839S474.62,90.161,306,90.161z M489.115,445.121
			c0,43.323-35.108,78.594-78.594,78.594h-203.73c-43.323,0-78.595-35.108-78.595-78.594v-95.504
			c0-43.323,35.109-78.594,78.595-78.594h203.73c43.323,0,78.594,35.11,78.594,78.594V445.121L489.115,445.121z"/>
	</g>
</g>
</svg>
