<?xml version="1.0" encoding="utf-8"?>
<!-- Generator: Adobe Illustrator 23.0.1, SVG Export Plug-In . SVG Version: 6.00 Build 0)  -->
<svg version="1.1" id="Layer_1" xmlns="http://www.w3.org/2000/svg" xmlns:xlink="http://www.w3.org/1999/xlink" x="0px" y="0px"
	 viewBox="0 0 34.8 34.8" style="enable-background:new 0 0 34.8 34.8;" xml:space="preserve">
<style type="text/css">
	.st0{fill:none;stroke:#FFC959;stroke-linecap:round;stroke-linejoin:round;stroke-miterlimit:10;}
</style>
<g>
	<g>
		<line class="st0" x1="15.9" y1="2.4" x2="15.9" y2="32.9"/>
		<path class="st0" d="M15.9,9.8c-8.4,0-15.3,3.5-15.3,7.8c0,4.3,6.8,7.8,15.3,7.8V9.8z"/>
		<path class="st0" d="M15.9,2.4c-4.3,0-7.8,6.8-7.8,15.3s3.5,15.3,7.8,15.3V2.4z"/>
		<path class="st0" d="M15.9,2.4L15.9,2.4C7.4,2.4,0.6,9.2,0.6,17.7s6.8,15.3,15.3,15.3l0,0V2.4z"/>
		<path class="st0" d="M34.1,16.7C34.1,16.7,34,16.7,34.1,16.7c-0.9-0.2-1.8-0.3-2.7-0.5c0-0.1,0-0.3-0.1-0.4
			c-0.1-0.4-0.2-0.9-0.3-1.3c0-0.2-0.1-0.4-0.2-0.6c0-0.1,0-0.1,0-0.1c0.7-0.5,1.4-1,2.2-1.5c0,0,0,0,0.1-0.1
			C33,12.2,33,12,32.9,11.8c-0.2-0.5-0.5-1.1-0.8-1.6c0-0.1-0.1-0.1-0.1-0.1c-0.6,0.2-1.2,0.3-1.8,0.5c-0.3,0.1-0.5,0.1-0.8,0.2
			c0,0-0.1,0-0.1,0c-0.4-0.6-0.9-1.2-1.4-1.8c0,0,0-0.1,0-0.1c0.4-0.7,0.9-1.5,1.3-2.2c0,0,0-0.1,0-0.1c-0.6-0.5-1.2-1-1.9-1.5
			c0,0,0,0-0.1,0.1c-0.7,0.6-1.3,1.2-1.9,1.7c0,0-0.1,0-0.1,0c-0.6-0.4-1.3-0.7-2-1c-0.1,0-0.1,0-0.1-0.1c0.1-0.9,0.1-1.7,0.2-2.6
			c0,0,0-0.1,0-0.1C22.6,3,21.8,2.8,21,2.7c-0.1,0.2-0.2,0.4-0.3,0.7C20.5,4,20.3,4.6,20,5.2c0,0.1,0,0.1-0.1,0.1
			c-0.4,0-0.8-0.1-1.2-0.1v3.3c3,0,6,1.5,7.7,4c0.5,0.7,0.8,1.4,1.1,2.2c0.8,2.3,0.7,4.6-0.3,6.8c-0.9,2-2.3,3.5-4.2,4.5
			c-0.7,0.4-1.5,0.6-2.3,0.8c-0.7,0.1-1.3,0.2-2,0.2v3.3c0.3,0,0.7,0,1,0c0,0,0.1,0,0.1,0c0.1,0.2,0.1,0.4,0.2,0.5
			c0.3,0.7,0.5,1.3,0.8,2c0,0,0,0,0.1,0c0.2,0,0.4-0.1,0.6-0.1c0,0,0.1,0,0.1,0c0.3-0.1,0.6-0.1,1-0.2c0.2,0,0.3-0.1,0.5-0.1
			c0.1,0,0.2,0,0.2-0.1c0,0,0-0.1,0-0.2c0-0.7-0.1-1.5-0.1-2.2c0-0.1,0-0.2,0-0.3c0.2-0.1,0.3-0.1,0.5-0.2c0.6-0.2,1.1-0.5,1.7-0.8
			c0.1,0,0.1,0,0.1,0c0.6,0.6,1.3,1.2,1.9,1.7c0,0,0,0,0.1,0.1c0.7-0.4,1.3-0.9,1.9-1.5c-0.1-0.1-0.1-0.2-0.2-0.3
			c-0.4-0.7-0.7-1.3-1.1-2c0,0,0-0.1,0-0.1c0.5-0.5,1-1.1,1.4-1.8c0,0,0.1-0.1,0.1,0c0.8,0.3,1.7,0.5,2.5,0.7c0,0,0.1,0,0.1,0
			c0.2-0.2,0.9-1.7,1.1-2.1c0,0-0.1-0.1-0.1-0.1c-0.7-0.5-1.4-1-2.1-1.4c0,0-0.1-0.1,0-0.1c0.2-0.7,0.4-1.4,0.5-2.2
			c0-0.1,0-0.1,0.1-0.1c0.7-0.1,1.3-0.2,2-0.3c0.2,0,0.4-0.1,0.6-0.1c0,0,0.1,0,0.1-0.1C34.1,18.2,34.1,17.5,34.1,16.7z"/>
		<line class="st0" x1="0.6" y1="17.7" x2="15.9" y2="17.7"/>
	</g>
</g>
</svg>
