<?xml version="1.0" encoding="utf-8"?>
<!-- Generator: Adobe Illustrator 16.0.0, SVG Export Plug-In . SVG Version: 6.00 Build 0)  -->
<!DOCTYPE svg PUBLIC "-//W3C//DTD SVG 1.1//EN" "http://www.w3.org/Graphics/SVG/1.1/DTD/svg11.dtd">
<svg version="1.1" id="Layer_1" xmlns="http://www.w3.org/2000/svg" xmlns:xlink="http://www.w3.org/1999/xlink" x="0px" y="0px"
	 width="1792px" height="1792px" viewBox="0 0 1792 1792" enable-background="new 0 0 1792 1792" xml:space="preserve">
<path fill="#F5B83E" d="M1664,1344v128c0,17.333-6.334,32.333-19,45c-12.667,12.667-27.667,19-45,19H192
	c-17.334,0-32.334-6.333-45-19c-12.667-12.667-19-27.667-19-45v-128c0-17.333,6.333-32.333,19-45c12.666-12.667,27.666-19,45-19
	h1408c17.333,0,32.333,6.333,45,19C1657.666,1311.667,1664,1326.667,1664,1344z M1664,832v128c0,17.333-6.334,32.333-19,45
	c-12.667,12.667-27.667,19-45,19H192c-17.334,0-32.334-6.333-45-19c-12.667-12.667-19-27.667-19-45V832c0-17.333,6.333-32.333,19-45
	c12.666-12.667,27.666-19,45-19h1408c17.333,0,32.333,6.333,45,19C1657.666,799.667,1664,814.667,1664,832z M1664,320v128
	c0,17.333-6.334,32.333-19,45c-12.667,12.667-27.667,19-45,19H192c-17.334,0-32.334-6.333-45-19c-12.667-12.667-19-27.667-19-45V320
	c0-17.333,6.333-32.333,19-45c12.666-12.667,27.666-19,45-19h1408c17.333,0,32.333,6.333,45,19
	C1657.666,287.667,1664,302.667,1664,320z"/>
</svg>
