<?xml version="1.0" encoding="utf-8"?>
<!-- Generator: Adobe Illustrator 23.0.3, SVG Export Plug-In . SVG Version: 6.00 Build 0)  -->
<svg version="1.1" id="Layer_1" xmlns="http://www.w3.org/2000/svg" xmlns:xlink="http://www.w3.org/1999/xlink" x="0px" y="0px"
	 viewBox="0 0 18.7 18.7" style="enable-background:new 0 0 18.7 18.7;" xml:space="preserve">
<style type="text/css">
	.st0{fill:#00A659;}
	.st1{fill:none;stroke:#00A659;stroke-linecap:round;stroke-linejoin:round;stroke-miterlimit:10;}
</style>
<g>
	<g>
		<g>
			<path class="st0" d="M16.2,1c0.8,0,1.4,0.6,1.4,1.4v13.8c0,0.8-0.6,1.4-1.4,1.4H2.4C1.7,17.6,1,17,1,16.2V2.4C1,1.7,1.7,1,2.4,1
				H16.2 M16.2,0H2.4C1.1,0,0,1.1,0,2.4v13.8c0,1.3,1.1,2.4,2.4,2.4h13.8c1.3,0,2.4-1.1,2.4-2.4V2.4C18.6,1.1,17.6,0,16.2,0L16.2,0z
				"/>
		</g>
		<polyline class="st1" points="4.1,9.8 7.9,13.6 15.4,6.1 		"/>
	</g>
</g>
</svg>
