<?xml version="1.0" encoding="utf-8"?>
<!-- Generator: Adobe Illustrator 23.0.3, SVG Export Plug-In . SVG Version: 6.00 Build 0)  -->
<svg version="1.1" id="Layer_1" xmlns="http://www.w3.org/2000/svg" xmlns:xlink="http://www.w3.org/1999/xlink" x="0px" y="0px"
	 viewBox="0 0 7.7 6.5" style="enable-background:new 0 0 7.7 6.5;" xml:space="preserve">
<style type="text/css">
	.st0{fill:#FFC959;}
</style>
<path class="st0" d="M6.8,0.5H1c-0.5,0-1,0.4-1,1v3.7c0,0.5,0.4,1,1,1h5.8c0.5,0,1-0.4,1-1V1.4C7.7,0.9,7.3,0.5,6.8,0.5z M6.9,5.1
	C6.9,5.1,6.8,5.2,6.9,5.1L1,5.2c0,0-0.1,0-0.1-0.1V2.9l3,1.9l3-1.9V5.1z M6.9,1.9l-3,1.9l-3-1.9V1.4c0,0,0-0.1,0.1-0.1h5.8
	c0,0,0.1,0,0.1,0.1V1.9z"/>
</svg>
