<?xml version="1.0" encoding="utf-8"?>
<!-- Generator: Adobe Illustrator 23.0.3, SVG Export Plug-In . SVG Version: 6.00 Build 0)  -->
<svg version="1.1" id="Layer_1" xmlns="http://www.w3.org/2000/svg" xmlns:xlink="http://www.w3.org/1999/xlink" x="0px" y="0px"
	 viewBox="0 0 15.6 19.7" style="enable-background:new 0 0 15.6 19.7;" xml:space="preserve">
<style type="text/css">
	.st0{fill:#F3C045;}
	.st1{fill:none;stroke:#F3C045;stroke-linecap:round;stroke-linejoin:round;stroke-miterlimit:10;}
</style>
<g>
	<g>
		<path class="st0" d="M11,1.1l3.5,3.5v13.9H1V1.1H11 M11,0.1H1c-0.6,0-1,0.4-1,1v17.5c0,0.6,0.4,1,1,1h13.5c0.6,0,1-0.4,1-1V4.7
			c0-0.3-0.1-0.5-0.3-0.7l-3.5-3.5C11.5,0.2,11.2,0.1,11,0.1L11,0.1z"/>
	</g>
	<g>
		<path class="st0" d="M11,1.1l3.5,3.5H11V1.1 M11,0.1c-0.1,0-0.3,0-0.4,0.1C10.2,0.4,10,0.7,10,1.1v3.5c0,0.6,0.4,1,1,1h3.5
			c0.4,0,0.8-0.2,0.9-0.6c0.2-0.4,0.1-0.8-0.2-1.1l-3.5-3.5C11.5,0.2,11.2,0.1,11,0.1L11,0.1z"/>
	</g>
	<line class="st1" x1="3.5" y1="8.4" x2="11.9" y2="8.4"/>
	<line class="st1" x1="3.5" y1="11.2" x2="11.9" y2="11.2"/>
	<line class="st1" x1="3.5" y1="14.1" x2="11.9" y2="14.1"/>
</g>
</svg>
