<?xml version="1.0" encoding="utf-8"?>
<!-- Generator: Adobe Illustrator 23.0.1, SVG Export Plug-In . SVG Version: 6.00 Build 0)  -->
<svg version="1.1" id="Layer_1" xmlns="http://www.w3.org/2000/svg" xmlns:xlink="http://www.w3.org/1999/xlink" x="0px" y="0px"
	 viewBox="0 0 21.8 21.8" style="enable-background:new 0 0 21.8 21.8;" xml:space="preserve">
<style type="text/css">
	.st0{fill:#FFC959;}
</style>
<g>
	<path class="st0" d="M13.8,6.1c-0.3-0.1-0.5,0-0.7,0.2c-0.1,0.3,0,0.5,0.2,0.7c2.1,1,3.5,3.1,3.5,5.5c0,3.3-2.7,6-6,6s-6-2.7-6-6
		C4.9,10.2,6.3,8,8.4,7c0.3-0.1,0.4-0.4,0.2-0.7C8.6,6.1,8.3,6,8,6.1c-2.5,1.1-4.1,3.6-4.1,6.4c0,3.9,3.1,7,7,7s7-3.1,7-7
		C17.9,9.8,16.3,7.3,13.8,6.1z"/>
	<path class="st0" d="M10.9,10.5c0.3,0,0.5-0.2,0.5-0.5V2.7c0-0.3-0.2-0.5-0.5-0.5s-0.5,0.2-0.5,0.5V10
		C10.4,10.3,10.6,10.5,10.9,10.5z"/>
</g>
</svg>
