<?xml version="1.0" encoding="utf-8"?>
<!-- Generator: Adobe Illustrator 23.0.3, SVG Export Plug-In . SVG Version: 6.00 Build 0)  -->
<svg version="1.1" id="Layer_1" xmlns="http://www.w3.org/2000/svg" xmlns:xlink="http://www.w3.org/1999/xlink" x="0px" y="0px"
	 viewBox="0 0 21.8 21.8" style="enable-background:new 0 0 21.8 21.8;" xml:space="preserve">
<style type="text/css">
	.st0{fill:#FFFFFF;}
</style>
<path class="st0" d="M21.1,20.3l-6.6-6.6c1.2-1.4,1.9-3.2,1.9-5.2c0-4.4-3.6-7.9-7.9-7.9c-4.4,0-7.9,3.6-7.9,7.9
	c0,4.4,3.6,7.9,7.9,7.9c2,0,3.9-0.8,5.3-2l6.6,6.6c0.1,0.1,0.2,0.1,0.4,0.1s0.3,0,0.4-0.1C21.3,20.8,21.3,20.5,21.1,20.3z M1.6,8.5
	c0-3.8,3.1-6.9,6.9-6.9s6.9,3.1,6.9,6.9s-3.1,6.9-6.9,6.9S1.6,12.3,1.6,8.5z"/>
</svg>
