<?xml version="1.0" encoding="utf-8"?>
<!-- Generator: Adobe Illustrator 23.0.1, SVG Export Plug-In . SVG Version: 6.00 Build 0)  -->
<svg version="1.1" id="Layer_1" xmlns="http://www.w3.org/2000/svg" xmlns:xlink="http://www.w3.org/1999/xlink" x="0px" y="0px"
	 viewBox="0 0 58.2 44.6" style="enable-background:new 0 0 58.2 44.6;" xml:space="preserve">
<style type="text/css">
	.st0{opacity:0.5;fill:#FFFFFF;}
</style>
<g>
	<path class="st0" d="M56.7,1c0.3,0,0.5,0.2,0.5,0.5v41.5c0,0.3-0.2,0.5-0.5,0.5H1.5c-0.3,0-0.5-0.2-0.5-0.5V1.5C1,1.2,1.2,1,1.5,1
		H56.7 M56.7,0H1.5C0.7,0,0,0.7,0,1.5v41.5c0,0.9,0.7,1.5,1.5,1.5h55.2c0.9,0,1.5-0.7,1.5-1.5V1.5C58.2,0.7,57.6,0,56.7,0L56.7,0z"
		/>
	<path class="st0" d="M22.7,10l7.6,13l6.7-4.8l11.6,17.7H9.5L22.7,10 M22.7,9C22.7,9,22.6,9,22.7,9c-0.4,0-0.7,0.2-0.9,0.5L8.6,35.5
		c-0.2,0.3-0.1,0.7,0,1s0.5,0.5,0.9,0.5h39.1c0.4,0,0.7-0.2,0.9-0.5s0.2-0.7,0-1L37.8,17.6c-0.1-0.2-0.4-0.4-0.7-0.4
		c-0.1,0-0.1,0-0.2,0c-0.2,0-0.4,0.1-0.6,0.2l-5.8,4.1l-7.1-12C23.3,9.2,23,9,22.7,9L22.7,9z"/>
	<path class="st0" d="M46,7c1.7,0,3.1,1.4,3.1,3.1s-1.4,3.1-3.1,3.1c-1.7,0-3.1-1.4-3.1-3.1S44.3,7,46,7 M46,6C43.8,6,42,7.8,42,10
		c0,2.2,1.8,4.1,4.1,4.1s4.1-1.8,4.1-4.1C50.1,7.8,48.3,6,46,6L46,6z"/>
</g>
</svg>
