<?xml version="1.0" encoding="utf-8"?>
<!-- Generator: Adobe Illustrator 23.0.1, SVG Export Plug-In . SVG Version: 6.00 Build 0)  -->
<svg version="1.1" id="Layer_1" xmlns="http://www.w3.org/2000/svg" xmlns:xlink="http://www.w3.org/1999/xlink" x="0px" y="0px"
	 viewBox="0 0 21.8 21.8" style="enable-background:new 0 0 21.8 21.8;" xml:space="preserve">
<style type="text/css">
	.st0{fill:#FFC959;}
</style>
<g>
	<path class="st0" d="M17.7,14.4l-0.1-0.2c-1-1.4-1-2.4-1-6c0-2.1-1.2-4-3-4.9c0,0,0,0,0-0.1c0-1.5-1.2-2.7-2.7-2.7
		c-1.5,0-2.7,1.2-2.7,2.7c0,0,0,0,0,0.1c-1.8,0.9-3,2.8-3,4.9c0,3.6,0,4.6-1,6l-0.1,0.2c-1,1.4-1.5,2.1-1.5,3.6
		c0,0.3,0.2,0.5,0.5,0.5h15.6c0.3,0,0.5-0.2,0.5-0.5C19.2,16.5,18.7,15.8,17.7,14.4z M10.9,1.5c0.8,0,1.5,0.6,1.6,1.3
		c-0.5-0.2-1.1-0.2-1.6-0.2c-0.6,0-1.1,0.1-1.6,0.2C9.4,2.1,10.1,1.5,10.9,1.5z M3.6,17.5c0.1-0.9,0.5-1.4,1.3-2.5l0.1-0.2
		c1.2-1.7,1.2-3.1,1.2-6.6c0-2.5,2.1-4.6,4.6-4.6s4.6,2.1,4.6,4.6c0,3.5,0,4.9,1.2,6.6l0.1,0.2c0.8,1.2,1.2,1.7,1.3,2.5H3.6z"/>
	<path class="st0" d="M12.8,19.5c-1.1,0.8-2.7,0.8-3.9,0c-0.2-0.2-0.5-0.1-0.7,0.1c-0.2,0.2-0.1,0.5,0.1,0.7
		c0.7,0.5,1.6,0.8,2.5,0.8c0.9,0,1.8-0.3,2.5-0.8c0.2-0.2,0.3-0.5,0.1-0.7C13.4,19.4,13.1,19.3,12.8,19.5z"/>
</g>
</svg>
