<?xml version="1.0" encoding="utf-8"?>
<!-- Generator: Adobe Illustrator 23.0.1, SVG Export Plug-In . SVG Version: 6.00 Build 0)  -->
<svg version="1.1" id="Layer_1" xmlns="http://www.w3.org/2000/svg" xmlns:xlink="http://www.w3.org/1999/xlink" x="0px" y="0px"
	 viewBox="0 0 21.8 21.8" style="enable-background:new 0 0 21.8 21.8;" xml:space="preserve">
<style type="text/css">
	.st0{fill:#FFC959;}
</style>
<g>
	<path class="st0" d="M19.6,3.3H2.2c-1.1,0-2,0.9-2,2v11c0,1.1,0.9,2,2,2h17.4c1.1,0,2-0.9,2-2v-11C21.6,4.2,20.7,3.3,19.6,3.3z
		 M20.6,16.3c0,0.6-0.5,1-1,1H2.2c-0.6,0-1-0.5-1-1V8.7l9.7,6.3l9.7-6.3V16.3z M20.6,7.5l-9.7,6.3L1.2,7.5V5.3c0-0.6,0.5-1,1-1h17.4
		c0.6,0,1,0.5,1,1V7.5z"/>
	<path class="st0" d="M13.1,8.2h-1.7V6.4c0-0.3-0.2-0.5-0.5-0.5s-0.5,0.2-0.5,0.5v1.7H8.7c-0.3,0-0.5,0.2-0.5,0.5s0.2,0.5,0.5,0.5
		h1.7v1.7c0,0.3,0.2,0.5,0.5,0.5s0.5-0.2,0.5-0.5V9.2h1.7c0.3,0,0.5-0.2,0.5-0.5S13.4,8.2,13.1,8.2z"/>
</g>
</svg>
