<?xml version="1.0" encoding="utf-8"?>
<!-- Generator: Adobe Illustrator 23.1.1, SVG Export Plug-In . SVG Version: 6.00 Build 0)  -->
<svg version="1.1" id="Layer_1" xmlns="http://www.w3.org/2000/svg" xmlns:xlink="http://www.w3.org/1999/xlink" x="0px" y="0px"
	 viewBox="0 0 218 143.4" style="enable-background:new 0 0 218 143.4;" xml:space="preserve">
<style type="text/css">
	.st0{fill:#FF0000;}
</style>
<path class="st0" d="M10.3,40.7v4.9H8.8c-1.9,0-2.8,0.7-2.8,3.5v45.8c0,2.7,0.9,3.5,2.8,3.5h1.5v4.9H8.4c-6,0-8.4-2.3-8.4-8.4V49.1
	c0-6.1,2.4-8.4,8.4-8.4H10.3z"/>
<path class="st0" d="M209.6,40.7c6,0,8.4,2.3,8.4,8.4v45.8c0,6.1-2.4,8.4-8.4,8.4h-1.9v-4.9h1.5c1.9,0,2.8-0.7,2.8-3.5V49.1
	c0-2.7-0.9-3.5-2.8-3.5h-1.5v-4.9C207.7,40.7,209.6,40.7,209.6,40.7z"/>
<g>
	<path class="st0" d="M21.7,51.5c6,0,9.1,3.6,9.1,9.8v1.2H25V61c0-2.8-1.1-3.9-3.1-3.9c-2,0-3.1,1.1-3.1,3.9c0,8.1,12,9.6,12,20.7
		c0,6.3-3.1,9.8-9.2,9.8s-9.2-3.6-9.2-9.8v-2.4h5.8v2.8c0,2.8,1.2,3.8,3.2,3.8s3.2-1,3.2-3.8c0-8.1-12-9.6-12-20.7
		C12.7,55.1,15.8,51.5,21.7,51.5z"/>
	<path class="st0" d="M40.2,52v30.2c0,2.8,1.2,3.8,3.2,3.8s3.2-1,3.2-3.8V52h5.8v29.8c0,6.3-3.1,9.8-9.2,9.8s-9.2-3.6-9.2-9.8V52
		H40.2z"/>
	<path class="st0" d="M64.9,51.5c6,0,9.1,3.6,9.1,9.8v1.2h-5.8V61c0-2.8-1.1-3.9-3.1-3.9c-2,0-3.1,1.1-3.1,3.9c0,8.1,12,9.6,12,20.7
		c0,6.3-3.1,9.8-9.2,9.8s-9.2-3.6-9.2-9.8v-2.4h5.8v2.8c0,2.8,1.2,3.8,3.2,3.8c2,0,3.2-1,3.2-3.8c0-8.1-12-9.6-12-20.7
		C55.8,55.1,58.9,51.5,64.9,51.5z"/>
	<path class="st0" d="M95.8,61.6v5.1c0,6.3-3,9.7-9.2,9.7h-2.9v14.7h-6.1V52h9.1C92.7,52,95.8,55.4,95.8,61.6z M83.7,57.6v13.2h2.9
		c2,0,3-0.9,3-3.7v-5.9c0-2.8-1.1-3.7-3-3.7H83.7z"/>
	<path class="st0" d="M104.8,68.5h8.4V74h-8.4v11.5h10.6v5.6H98.6V52h16.8v5.6h-10.6V68.5z"/>
	<path class="st0" d="M124.7,62.8v28.3h-5.5V52h7.7l6.3,23.4V52h5.5v39.1h-6.3L124.7,62.8z"/>
	<path class="st0" d="M143.1,52h9.7c6.2,0,9.2,3.4,9.2,9.7v19.8c0,6.3-3,9.7-9.2,9.7h-9.7V52z M149.2,57.6v28h3.5c2,0,3.1-1,3.1-3.8
		V61.4c0-2.8-1.2-3.8-3.1-3.8H149.2z"/>
	<path class="st0" d="M172,68.5h8.4V74H172v11.5h10.6v5.6h-16.8V52h16.8v5.6H172V68.5z"/>
	<path class="st0" d="M186.5,52h9.7c6.2,0,9.2,3.4,9.2,9.7v19.8c0,6.3-3,9.7-9.2,9.7h-9.7V52z M192.6,57.6v28h3.5c2,0,3.1-1,3.1-3.8
		V61.4c0-2.8-1.2-3.8-3.1-3.8H192.6z"/>
</g>
</svg>
