<?xml version="1.0" encoding="utf-8"?>
<!-- Generator: Adobe Illustrator 23.0.1, SVG Export Plug-In . SVG Version: 6.00 Build 0)  -->
<svg version="1.1" id="Layer_1" xmlns="http://www.w3.org/2000/svg" xmlns:xlink="http://www.w3.org/1999/xlink" x="0px" y="0px"
	 viewBox="0 0 34.8 34.8" style="enable-background:new 0 0 34.8 34.8;" xml:space="preserve">
<style type="text/css">
	.st0{fill:none;stroke:#FFC959;stroke-linecap:round;stroke-linejoin:round;stroke-miterlimit:10;}
</style>
<g>
	<g>
		<path class="st0" d="M23,0.8l4,11.3c0,0-4.9-1.8-11.8,0.8l-1.8-4.9C13.3,7.9,20.7,5.8,23,0.8z"/>
		<polyline class="st0" points="13.3,7.9 10.3,9 9.8,10 7.9,10.8 9.1,14 10.8,13.4 12.1,14 15.2,12.8 		"/>
		<line class="st0" x1="28.1" y1="5.5" x2="30.2" y2="4.8"/>
		<line class="st0" x1="27.1" y1="3.4" x2="28" y2="2.3"/>
		<line class="st0" x1="28.8" y1="8" x2="30.2" y2="8.4"/>
		<path class="st0" d="M10.3,13.6l3,5.8l4.3-1.5c0,0-1.9-1.1-3.1-4.8"/>
	</g>
	<path class="st0" d="M17.4,14.1h14.2c1.1,0,2.1,0.9,2.1,2.1V32c0,1.1-0.9,2.1-2.1,2.1H3.2c-1.1,0-2.1-0.9-2.1-2.1V16.2
		c0-1.1,0.9-2.1,2.1-2.1h3.7"/>
	<polyline class="st0" points="32.9,14.7 17.5,27.1 1.8,14.7 	"/>
	<line class="st0" x1="1.8" y1="33.5" x2="13.4" y2="23.9"/>
	<line class="st0" x1="32.9" y1="33.5" x2="21.3" y2="23.9"/>
</g>
</svg>
