<?xml version="1.0" encoding="utf-8"?>
<!-- Generator: Adobe Illustrator 23.0.1, SVG Export Plug-In . SVG Version: 6.00 Build 0)  -->
<svg version="1.1" id="Layer_1" xmlns="http://www.w3.org/2000/svg" xmlns:xlink="http://www.w3.org/1999/xlink" x="0px" y="0px"
	 viewBox="0 0 34.8 34.8" style="enable-background:new 0 0 34.8 34.8;" xml:space="preserve">
<style type="text/css">
	.st0{fill:none;stroke:#FFC959;stroke-linecap:round;stroke-linejoin:round;stroke-miterlimit:10;}
</style>
<g>
	<circle class="st0" cx="24.9" cy="5.5" r="3"/>
	<circle class="st0" cx="16" cy="7.9" r="2.1"/>
	<circle class="st0" cx="4.8" cy="9" r="2.1"/>
	<circle class="st0" cx="2.7" cy="18.5" r="2.1"/>
	<circle class="st0" cx="12.5" cy="24.9" r="2.1"/>
	<circle class="st0" cx="11.4" cy="15.8" r="2.1"/>
	<path class="st0" d="M29.9,21.8c0,0,0-7.4,0-8.8s-0.9-1.7-1.4-1.8c-0.5-0.1-2.8-0.6-2.8-0.6l-0.9,0.9l-0.9-0.9c0,0-2.4,0.5-2.8,0.6
		c-0.3,0.1-1.4,0.5-1.4,1.8s0,7.3,0,7.7c0,0.7,0.3,1.1,0.9,1.1c0.5,0,1.2,0,1.2,0"/>
	<rect x="24.9" y="21.8" class="st0" width="9.2" height="7.2"/>
	<line class="st0" x1="27.9" y1="14.7" x2="27.9" y2="21.8"/>
	<path class="st0" d="M27.2,29.5c0,0-0.2,3.4-0.2,3.7c0,0.6-0.4,0.9-0.9,0.9c-0.4,0-2.1,0-2.4,0c-0.5,0-0.8-0.3-0.9-0.9
		c0-0.4-0.9-11.4-0.9-11.4v-7.2"/>
	<line class="st0" x1="17.6" y1="9.2" x2="19" y2="10.2"/>
	<line class="st0" x1="14.1" y1="23.6" x2="17.8" y2="19.5"/>
	<line class="st0" x1="10.7" y1="24" x2="4.4" y2="19.7"/>
	<line class="st0" x1="3.1" y1="16.5" x2="4.1" y2="11.1"/>
	<line class="st0" x1="6.8" y1="8.7" x2="14" y2="8.2"/>
	<line class="st0" x1="6.2" y1="10.4" x2="9.9" y2="14.4"/>
	<line class="st0" x1="15" y1="9.7" x2="12.4" y2="14.1"/>
	<line class="st0" x1="4.6" y1="17.8" x2="9.4" y2="16.5"/>
	<line class="st0" x1="11.6" y1="17.9" x2="12.2" y2="22.8"/>
	<line class="st0" x1="13.4" y1="15.6" x2="17.8" y2="15.5"/>
</g>
</svg>
