<svg xmlns="http://www.w3.org/2000/svg" xmlns:xlink="http://www.w3.org/1999/xlink" width="68.128" height="59.967" viewBox="0 0 68.128 59.967">
  <defs>
    <clipPath id="clip-path">
      <rect id="Rectangle_2055" data-name="Rectangle 2055" width="68.128" height="59.967" fill="none"/>
    </clipPath>
  </defs>
  <g id="Group_1336" data-name="Group 1336" transform="translate(0)">
    <g id="Group_1335" data-name="Group 1335" transform="translate(0)" clip-path="url(#clip-path)">
      <path id="Path_2123" data-name="Path 2123" d="M34.053,59.967q-15.717,0-31.436,0A2.3,2.3,0,0,1,.042,58.15a3.171,3.171,0,0,1,.1-1.434c1.72-5.869,3.472-11.729,5.2-17.6a5.681,5.681,0,0,0,.239-1.562q.009-17.351-.01-34.7c0-1.51.6-2.441,1.8-2.759A3.919,3.919,0,0,1,8.355,0Q34.064,0,59.771,0a2.47,2.47,0,0,1,2.772,2.8q0,17.282,0,34.566a7.073,7.073,0,0,0,.3,1.951c1.694,5.784,3.42,11.56,5.125,17.341.577,1.951-.443,3.3-2.479,3.305q-15.717.006-31.435,0m28.6-4.677a.8.8,0,0,0,.006-.189c-1.277-4.336-2.563-8.67-3.826-13.011-.131-.45-.412-.432-.755-.432q-24.009,0-48.02-.007a.706.706,0,0,0-.822.611c-1.2,4.15-2.443,8.291-3.668,12.435-.054.183-.085.372-.135.594Zm-28.1-22.746a16.026,16.026,0,0,0,5.294-1.052c5.411-1.967,9.756-5.467,13.636-9.6a2.311,2.311,0,0,0-.056-3.407A37.357,37.357,0,0,0,41.5,9.587,17.052,17.052,0,0,0,27.68,9.154a36.294,36.294,0,0,0-12.8,9.116c-1.294,1.355-1.279,2.55,0,3.9a39.039,39.039,0,0,0,10.081,7.872,19.793,19.793,0,0,0,9.582,2.5" transform="translate(0 0)"/>
      <path id="Path_2124" data-name="Path 2124" d="M29.345,43.409c-2.35,0-4.7.017-7.049-.006a2.331,2.331,0,1,1,.04-4.644q7.016-.006,14.032,0c.09,0,.178,0,.266,0a2.311,2.311,0,0,1,.291,4.6,5.316,5.316,0,0,1-.8.043q-3.391,0-6.783,0" transform="translate(4.694 9.201)"/>
      <path id="Path_2125" data-name="Path 2125" d="M38.806,18.161A9.466,9.466,0,1,1,29.33,8.686a9.507,9.507,0,0,1,9.476,9.475m-4.809,0a4.658,4.658,0,1,0-4.682,4.651A4.669,4.669,0,0,0,34,18.162" transform="translate(4.718 2.062)"/>
    </g>
  </g>
</svg>
