<svg id="Group_1325" data-name="Group 1325" xmlns="http://www.w3.org/2000/svg" xmlns:xlink="http://www.w3.org/1999/xlink" width="66.039" height="60.772" viewBox="0 0 66.039 60.772">
  <defs>
    <clipPath id="clip-path">
      <rect id="Rectangle_2052" data-name="Rectangle 2052" width="66.039" height="60.772" fill="none"/>
    </clipPath>
  </defs>
  <g id="Group_1324" data-name="Group 1324" clip-path="url(#clip-path)">
    <path id="Path_2081" data-name="Path 2081" d="M14.753,7.8l-.026.021.026-.021" transform="translate(3.496 1.853)"/>
    <path id="Path_2082" data-name="Path 2082" d="M14.857,7.732l-.109.088.109-.088" transform="translate(3.501 1.836)"/>
    <path id="Path_2083" data-name="Path 2083" d="M12.661,11.441a29.723,29.723,0,0,0-4.119,8.731.521.521,0,0,0,.192-.314,31.844,31.844,0,0,1,3.627-7.929A22.314,22.314,0,0,1,16.2,7.82a23.136,23.136,0,0,0-3.534,3.621" transform="translate(2.028 1.857)"/>
    <path id="Path_2084" data-name="Path 2084" d="M56.212,18.8a25.749,25.749,0,0,0-4.4-8.423A26.269,26.269,0,0,0,33.121.123a26.4,26.4,0,0,0-18.711,5.5A26.2,26.2,0,0,0,4.89,20.227c.145,0,.272,0,.4-.009a5.636,5.636,0,0,1,3.753,1.835c.119.124.283.026.368-.026A29.784,29.784,0,0,1,13.528,13.3a23.188,23.188,0,0,1,3.535-3.619l.025-.021.109-.088a21.5,21.5,0,0,1,10.02-4.43,21.187,21.187,0,0,1,10.165.739A21.937,21.937,0,0,1,51.874,21.251a20.353,20.353,0,0,1,.652,5.883c-.01.269.035.429.348.469.444.058.884.136,1.319.229a17.288,17.288,0,0,1,2.772.846c.243.1.354.061.371-.229A26.9,26.9,0,0,0,56.212,18.8" transform="translate(1.161 0.001)"/>
    <path id="Path_2085" data-name="Path 2085" d="M59.036,40.036A14.77,14.77,0,1,1,44.382,25.243,14.768,14.768,0,0,1,59.036,40.036m-20.83,3.6c-.011-.036-.022-.073-.032-.11.5-.286,1-.575,1.507-.859a8.486,8.486,0,0,0,2.453-1.819,4.221,4.221,0,0,0,.824-4.505,4.549,4.549,0,0,0-6-2.434,4.3,4.3,0,0,0-2.732,3.925,1.416,1.416,0,0,0,2,1.3,1.382,1.382,0,0,0,.834-1.289,1.575,1.575,0,0,1,1.367-1.432,1.8,1.8,0,0,1,1.823.78,1.532,1.532,0,0,1-.323,1.862,8.609,8.609,0,0,1-1.272.935c-.8.5-1.636.938-2.415,1.464a4.362,4.362,0,0,0-1.979,3.027c-.179,1.131.359,1.965,1.388,1.977,2.071.027,4.144.012,6.215,0a1.4,1.4,0,0,0,1.244-2.04,1.385,1.385,0,0,0-1.289-.78c-1.081-.011-2.163,0-3.246,0h-.359M49.94,37.566h0c0,.875-.009,1.751.006,2.626,0,.275-.092.363-.359.355-.506-.016-1.013-.017-1.52,0-.295.01-.364-.105-.3-.372.142-.6.276-1.21.408-1.817.231-1.056.489-2.106.678-3.169a1.359,1.359,0,0,0-1.08-1.6,1.421,1.421,0,0,0-1.7,1.145q-.75,3.384-1.492,6.769a1.431,1.431,0,0,0,1.5,1.868c1.174,0,2.349.007,3.523,0,.257,0,.346.074.335.334a11.881,11.881,0,0,0,0,1.277,2.028,2.028,0,0,0,.172.728,1.359,1.359,0,0,0,1.5.725,1.316,1.316,0,0,0,1.114-1.158,11.3,11.3,0,0,0,.033-1.448c-.006-.295.043-.438.387-.5a1.4,1.4,0,0,0-.038-2.756c-.293-.046-.344-.186-.343-.441.006-1.635.01-3.269,0-4.905a2.269,2.269,0,0,0-.139-.841,1.377,1.377,0,0,0-1.594-.793,1.409,1.409,0,0,0-1.091,1.345c-.016.875,0,1.751,0,2.626" transform="translate(7.003 5.993)"/>
    <path id="Path_2086" data-name="Path 2086" d="M32.856,26.266c-.932,0-1.865-.012-2.8.01a1.107,1.107,0,0,0-.615.215,3.7,3.7,0,0,1-4.236.192,3.571,3.571,0,0,1-1.543-3.993,1.152,1.152,0,0,0-.155-.963q-1.7-3.018-3.382-6.048a1.939,1.939,0,1,1,3.412-1.836q1.528,2.723,3.043,5.45c.01.02.021.041.03.062A.942.942,0,0,0,27.6,20a3.16,3.16,0,0,1,2.3,1.182.674.674,0,0,0,.565.249q2.573-.011,5.144,0a2.39,2.39,0,0,1,2.472,2.8,2.424,2.424,0,0,1-2.357,2.033c-.954.016-1.911,0-2.866,0Z" transform="translate(4.713 3.024)"/>
    <path id="Path_2087" data-name="Path 2087" d="M17.462,34.461a3.311,3.311,0,0,1,1.2-1.907A1.439,1.439,0,0,1,20.7,34.392a8.094,8.094,0,0,1-.639,1.1,1.422,1.422,0,0,1-1.627.517,1.514,1.514,0,0,1-.974-1.552" transform="translate(4.145 7.679)"/>
    <path id="Path_2088" data-name="Path 2088" d="M39.983,23.405A6.753,6.753,0,0,1,39,23.247a1.435,1.435,0,0,1-.046-2.667,3.369,3.369,0,0,1,2-.022,1.387,1.387,0,0,1,.97,1.5,1.464,1.464,0,0,1-1.32,1.3c-.205.02-.415,0-.621,0l-.006.053" transform="translate(9.039 4.848)"/>
    <path id="Path_2089" data-name="Path 2089" d="M12.108,23.586a5.017,5.017,0,0,1-.888-.089A1.413,1.413,0,0,1,10.2,22.1a1.313,1.313,0,0,1,1.062-1.35,5.586,5.586,0,0,1,1.8.02,1.321,1.321,0,0,1,.981,1.5,1.408,1.408,0,0,1-1.313,1.281c-.207.012-.415,0-.621,0l0,.032" transform="translate(2.421 4.911)"/>
    <path id="Path_2090" data-name="Path 2090" d="M34.573,9.535a2.643,2.643,0,0,1-1.74,2.281A1.37,1.37,0,0,1,31.5,11.26a1.345,1.345,0,0,1-.179-1.433A7.007,7.007,0,0,1,32,8.667a1.417,1.417,0,0,1,1.635-.489,1.447,1.447,0,0,1,.943,1.356" transform="translate(7.405 1.922)"/>
    <path id="Path_2091" data-name="Path 2091" d="M17.268,9.825a1.52,1.52,0,0,1,.973-1.546,1.4,1.4,0,0,1,1.6.492,7.172,7.172,0,0,1,.724,1.32A1.346,1.346,0,0,1,20.1,11.63a1.375,1.375,0,0,1-1.64.105,3.378,3.378,0,0,1-1.189-1.911" transform="translate(4.099 1.947)"/>
    <path id="Path_2092" data-name="Path 2092" d="M17.462,34.461a3.311,3.311,0,0,1,1.2-1.907A1.439,1.439,0,0,1,20.7,34.392a8.094,8.094,0,0,1-.639,1.1,1.422,1.422,0,0,1-1.627.517,1.514,1.514,0,0,1-.974-1.552" transform="translate(4.145 7.679)"/>
    <path id="Path_2093" data-name="Path 2093" d="M39.983,23.405A6.753,6.753,0,0,1,39,23.247a1.435,1.435,0,0,1-.046-2.667,3.369,3.369,0,0,1,2-.022,1.387,1.387,0,0,1,.97,1.5,1.464,1.464,0,0,1-1.32,1.3c-.205.02-.415,0-.621,0l-.006.053" transform="translate(9.039 4.848)"/>
    <path id="Path_2094" data-name="Path 2094" d="M12.108,23.586a5.017,5.017,0,0,1-.888-.089A1.413,1.413,0,0,1,10.2,22.1a1.313,1.313,0,0,1,1.062-1.35,5.586,5.586,0,0,1,1.8.02,1.321,1.321,0,0,1,.981,1.5,1.408,1.408,0,0,1-1.313,1.281c-.207.012-.415,0-.621,0l0,.032" transform="translate(2.421 4.911)"/>
    <path id="Path_2095" data-name="Path 2095" d="M34.573,9.535a2.643,2.643,0,0,1-1.74,2.281A1.37,1.37,0,0,1,31.5,11.26a1.345,1.345,0,0,1-.179-1.433A7.007,7.007,0,0,1,32,8.667a1.417,1.417,0,0,1,1.635-.489,1.447,1.447,0,0,1,.943,1.356" transform="translate(7.405 1.922)"/>
    <path id="Path_2096" data-name="Path 2096" d="M17.268,9.825a1.52,1.52,0,0,1,.973-1.546,1.4,1.4,0,0,1,1.6.492,7.172,7.172,0,0,1,.724,1.32A1.346,1.346,0,0,1,20.1,11.63a1.375,1.375,0,0,1-1.64.105,3.378,3.378,0,0,1-1.189-1.911" transform="translate(4.099 1.947)"/>
    <path id="Path_2097" data-name="Path 2097" d="M38.429,13.494a3.311,3.311,0,0,0-1.907,1.2,1.439,1.439,0,0,0,1.838,2.043,8.093,8.093,0,0,0,1.1-.638,1.422,1.422,0,0,0,.517-1.627,1.514,1.514,0,0,0-1.552-.974" transform="translate(8.62 3.204)"/>
    <path id="Path_2098" data-name="Path 2098" d="M27.374,36.015a6.754,6.754,0,0,0-.158-.979,1.435,1.435,0,0,0-2.667-.046,3.369,3.369,0,0,0-.022,2,1.387,1.387,0,0,0,1.5.97,1.464,1.464,0,0,0,1.3-1.32c.02-.205,0-.413,0-.621l.053-.006" transform="translate(5.789 8.098)"/>
    <path id="Path_2099" data-name="Path 2099" d="M27.554,8.14a5.017,5.017,0,0,0-.089-.888,1.413,1.413,0,0,0-1.4-1.022,1.313,1.313,0,0,0-1.35,1.062,5.586,5.586,0,0,0,.02,1.8,1.321,1.321,0,0,0,1.5.981A1.408,1.408,0,0,0,27.52,8.763c.012-.207,0-.415,0-.621l.032,0" transform="translate(5.852 1.479)"/>
    <path id="Path_2100" data-name="Path 2100" d="M13.5,30.6a2.643,2.643,0,0,0,2.281-1.74,1.37,1.37,0,0,0-.556-1.333,1.345,1.345,0,0,0-1.433-.179,7.008,7.008,0,0,0-1.159.674,1.417,1.417,0,0,0-.489,1.635A1.447,1.447,0,0,0,13.5,30.6" transform="translate(2.863 6.463)"/>
    <path id="Path_2101" data-name="Path 2101" d="M13.793,13.3a1.52,1.52,0,0,0-1.546.973,1.4,1.4,0,0,0,.492,1.6,7.172,7.172,0,0,0,1.32.724,1.346,1.346,0,0,0,1.538-.468,1.375,1.375,0,0,0,.105-1.64A3.378,3.378,0,0,0,13.793,13.3" transform="translate(2.889 3.158)"/>
    <path id="Path_2102" data-name="Path 2102" d="M26.006,53.353a18.48,18.48,0,0,1-7.423-2.694A43.654,43.654,0,0,1,3.011,34.745,22.16,22.16,0,0,1,.186,27.291a6.981,6.981,0,0,1,.058-3.43,4.073,4.073,0,0,1,.822-1.485,24.374,24.374,0,0,1,2.409-2.221,3.288,3.288,0,0,1,4.667-.012,11.429,11.429,0,0,1,3.274,4.7,3.28,3.28,0,0,1-.83,3.681c-.413.424-.83.848-1.275,1.239a1.572,1.572,0,0,0-.533,1.8,10,10,0,0,0,1.016,2.22,39.774,39.774,0,0,0,8.8,9.352,5.774,5.774,0,0,0,2.382,1.2,1.6,1.6,0,0,0,1.506-.428c.476-.447.953-.895,1.453-1.315a3.243,3.243,0,0,1,3.652-.556,11.194,11.194,0,0,1,4.627,3.73,3.154,3.154,0,0,1-.257,4.293,29.9,29.9,0,0,1-2.57,2.516,4.4,4.4,0,0,1-3.378.78" transform="translate(0 4.553)"/>
  </g>
</svg>
