<svg xmlns="http://www.w3.org/2000/svg" xmlns:xlink="http://www.w3.org/1999/xlink" width="74.922" height="66.429" viewBox="0 0 74.922 66.429">
  <defs>
    <clipPath id="clip-path">
      <rect id="Rectangle_1990" data-name="Rectangle 1990" width="74.922" height="66.429" transform="translate(0 0)" fill="#fff"/>
    </clipPath>
  </defs>
  <g id="Group_1221" data-name="Group 1221" transform="translate(0 0)">
    <g id="Group_1220" data-name="Group 1220" clip-path="url(#clip-path)">
      <path id="Path_1956" data-name="Path 1956" d="M38.763,0A19.094,19.094,0,1,1,19.6,19.058,19.106,19.106,0,0,1,38.763,0m.985,7.824c0-.316,0-.575,0-.834-.005-1.358-.394-1.949-1.29-1.963-.927-.015-1.37.6-1.323,2a1.025,1.025,0,0,1-.784,1.191,6.236,6.236,0,0,0,.694,11.832c.779.2,1.61.185,2.4.337a3.581,3.581,0,0,1,2.823,4.226,3.643,3.643,0,0,1-7.208-.532c-.115-1.024-.619-1.542-1.437-1.479s-1.276.673-1.2,1.69a5.744,5.744,0,0,0,3.06,4.959c1.156.6,1.867,1.15,1.69,2.586-.084.686.541,1.136,1.288,1.117a1.224,1.224,0,0,0,1.269-1.181A2.691,2.691,0,0,0,39.741,31c-.1-.66.149-.936.806-1.141A6.26,6.26,0,0,0,38.58,17.631a3.6,3.6,0,1,1,3.753-3.651c.1.871.654,1.409,1.39,1.347a1.346,1.346,0,0,0,1.2-1.537,6.609,6.609,0,0,0-.26-1.538,6.248,6.248,0,0,0-4.918-4.428" fill="#fff"/>
      <path id="Path_1957" data-name="Path 1957" d="M74.922,48.262q-3.588,2.325-7.157,4.639C62.04,56.6,56.3,60.284,50.6,64.017a14.325,14.325,0,0,1-10.223,2.238,81.009,81.009,0,0,1-8.925-2.231c-3.553-.96-7.1-1.934-10.629-2.988a8.9,8.9,0,0,0-7.528.846c-.3.18-.615.326-.927.48-.044.022-.11,0-.24,0-.011-.161-.037-.321-.033-.48.14-4.847.294-9.693.412-14.54a1.205,1.205,0,0,1,.682-1.168,16.583,16.583,0,0,1,16.7-.425,17.539,17.539,0,0,0,7.989,2.087c3.366.03,6.732.173,10.1.278a6.781,6.781,0,0,1,6.279,4.8c.073.242.112.494.157.7-2.145,0-4.226.033-6.307-.007-3.309-.064-6.616-.185-9.925-.265-1-.025-1.589.5-1.578,1.326.011.785.567,1.267,1.529,1.3q5.093.159,10.185.307,3.525.1,7.052.187c1.408.031,2-.436,1.786-1.774-.224-1.387.39-1.869,1.519-2.374,3.6-1.611,7.135-3.354,10.706-5.025a4.63,4.63,0,0,1,5.547.971" fill="#fff"/>
      <path id="Path_1958" data-name="Path 1958" d="M10.008,41.806c-.219,8-.433,15.818-.645,23.566H0c.22-7.982.435-15.8.649-23.566Z" fill="#fff"/>
    </g>
  </g>
</svg>
