<svg xmlns="http://www.w3.org/2000/svg" xmlns:xlink="http://www.w3.org/1999/xlink" width="61.355" height="70.861" viewBox="0 0 61.355 70.861">
  <defs>
    <clipPath id="clip-path">
      <rect id="Rectangle_2061" data-name="Rectangle 2061" width="61.355" height="70.861" fill="none"/>
    </clipPath>
  </defs>
  <g id="Group_1370" data-name="Group 1370" transform="translate(0 0)">
    <g id="Group_1369" data-name="Group 1369" transform="translate(0 0)" clip-path="url(#clip-path)">
      <path id="Path_2136" data-name="Path 2136" d="M.007,27.05q0-5.177,0-10.354c0-1.71.61-2.23,2.292-2.18A29.25,29.25,0,0,0,14.5,12.1,37.092,37.092,0,0,0,28.526,1.632c.245-.288.482-.583.727-.87a1.674,1.674,0,0,1,2.818.015,40.231,40.231,0,0,0,8.855,8.161,32.469,32.469,0,0,0,16.9,5.606c.5.02,1.007-.023,1.51-.045A1.676,1.676,0,0,1,61.3,16.337c.021,1.688.013,3.376,0,5.063-.025,5.138.19,10.292-.133,15.413-.761,12.063-6.474,21.27-16.887,27.381-4.112,2.414-8.5,4.368-12.783,6.48a2.015,2.015,0,0,1-1.567.051c-4.724-2.362-9.592-4.5-14.077-7.262C7.123,58.086,2.05,50.1.407,39.951c-.58-3.578-.357-7.186-.4-10.785-.008-.7,0-1.41,0-2.116M8.4,37.112A22.257,22.257,0,1,0,30.639,14.821,22.278,22.278,0,0,0,8.4,37.112" transform="translate(0 0)"/>
      <path id="Path_2137" data-name="Path 2137" d="M47.054,34.078a18.365,18.365,0,1,1-18.393-18.4,18.378,18.378,0,0,1,18.393,18.4M26.745,24.334c-.589.113-1.07.173-1.533.3A5.78,5.78,0,0,0,26.6,35.986c1.3.038,2.6-.018,3.9.026a1.936,1.936,0,0,1,2.014,2.319A1.984,1.984,0,0,1,30.373,39.9c-2.085.021-4.169,0-6.254.011-1.361.01-2.161.723-2.169,1.893-.008,1.194.832,1.936,2.223,1.949.836.008,1.67,0,2.469,0a1.435,1.435,0,0,1,.085.286c.008.755.006,1.51.02,2.266.025,1.387.776,2.272,1.926,2.282s1.932-.874,1.958-2.25c.017-.838,0-1.676,0-2.543.271-.031.448-.044.621-.071a5.806,5.806,0,0,0-.813-11.574c-1.118-.008-2.236,0-3.354,0-1.383-.01-2.242-.752-2.247-1.929,0-1.2.813-1.919,2.232-1.929,2.024-.012,4.05.054,6.071-.037a2.673,2.673,0,0,0,1.81-.75,2.567,2.567,0,0,0,.288-1.908A1.659,1.659,0,0,0,33.5,24.413c-.925-.033-1.851-.007-2.865-.007,0-.963.017-1.8,0-2.642a1.95,1.95,0,1,0-3.88-.023c-.023.842,0,1.685,0,2.592" transform="translate(1.968 2.989)"/>
    </g>
  </g>
</svg>
