<svg xmlns="http://www.w3.org/2000/svg" xmlns:xlink="http://www.w3.org/1999/xlink" width="62.812" height="62.772" viewBox="0 0 62.812 62.772">
  <defs>
    <clipPath id="clip-path">
      <rect id="Rectangle_2053" data-name="Rectangle 2053" width="62.812" height="62.772" fill="none"/>
    </clipPath>
  </defs>
  <g id="Group_1332" data-name="Group 1332" transform="translate(0)">
    <g id="Group_1331" data-name="Group 1331" transform="translate(0)" clip-path="url(#clip-path)">
      <path id="Path_2103" data-name="Path 2103" d="M44.1,10.474c0,1.9,0,3.791,0,5.687a4.584,4.584,0,0,1-4.75,4.771c-1.684.014-3.367-.01-5.051.017a1.07,1.07,0,0,0-.7.317c-1.2,1.335-2.373,2.7-3.566,4.045a1.977,1.977,0,0,1-3.351-.144c-.958-1.263-1.912-2.529-2.847-3.807a.928.928,0,0,0-.85-.434c-1.8.021-3.595.014-5.393.007a4.6,4.6,0,0,1-4.882-4.889q0-5.687,0-11.373A4.573,4.573,0,0,1,16.574.054,4.951,4.951,0,0,1,17.453,0Q28.411,0,39.37,0A4.571,4.571,0,0,1,44.1,4.739v5.735" transform="translate(3.016 0)"/>
      <path id="Path_2104" data-name="Path 2104" d="M28.1,53.241H15.989a1.985,1.985,0,0,1-2.22-2.2c-.006-1.225-.016-2.451,0-3.676a7.186,7.186,0,0,1,7.249-7.209c1.667-.017,3.334,0,5,0,3.056,0,6.113-.009,9.169,0a7.161,7.161,0,0,1,7.231,6,12.739,12.739,0,0,1,.11,2.1c.016.964.014,1.928,0,2.892a1.955,1.955,0,0,1-2.127,2.095q-6.153,0-12.306,0" transform="translate(3.267 9.531)"/>
      <path id="Path_2105" data-name="Path 2105" d="M11.9,2.156C11.694,6.8,11.8,11.4,11.818,16a8.266,8.266,0,0,0,3.6,6.8c.13.1.262.191.427.309-.1.129-.171.25-.265.356q-1.709,1.956-3.425,3.908a1.988,1.988,0,0,1-3.409-.121c-.945-1.251-1.9-2.5-2.821-3.764a.971.971,0,0,0-.935-.455,4.541,4.541,0,0,1-4.081-1.9,4.41,4.41,0,0,1-.882-2.7c0-3.906-.006-7.81,0-11.716A4.485,4.485,0,0,1,4.257,2.158c2.495-.115,5-.037,7.5-.04a.29.29,0,0,1,.14.037" transform="translate(0.005 0.497)"/>
      <path id="Path_2106" data-name="Path 2106" d="M41.845,2.145c.151-.012.293-.035.436-.036,2.272,0,4.544-.017,6.816,0A4.589,4.589,0,0,1,53.73,5.968a5.029,5.029,0,0,1,.058.927q.006,5.687,0,11.374a4.565,4.565,0,0,1-4.8,4.76,1.32,1.32,0,0,0-1.246.622c-.862,1.23-1.783,2.42-2.688,3.621a1.982,1.982,0,0,1-3.377.124q-1.715-1.953-3.426-3.908c-.094-.108-.176-.226-.273-.354.412-.333.822-.627,1.19-.965a8.358,8.358,0,0,0,2.837-6.338q.028-5.858,0-11.717c0-.632-.1-1.263-.165-1.969" transform="translate(9.017 0.499)"/>
      <path id="Path_2107" data-name="Path 2107" d="M26.921,40a7.847,7.847,0,1,1,7.823-7.891A7.849,7.849,0,0,1,26.921,40" transform="translate(4.522 5.769)"/>
      <path id="Path_2108" data-name="Path 2108" d="M17.519,39.126c-.171.111-.275.163-.361.236a10.815,10.815,0,0,0-4.036,8.513c-.007.632-.014.634-.655.634-3.348,0-6.7-.041-10.044.02A2.214,2.214,0,0,1,0,46.084a8.542,8.542,0,0,1,1.1-4.6,6.974,6.974,0,0,1,5.983-3.425c2.3-.056,4.606-.024,6.908,0a6.878,6.878,0,0,1,3.532,1.068" transform="translate(0 9.028)"/>
      <path id="Path_2109" data-name="Path 2109" d="M36.623,39.132a6.651,6.651,0,0,1,3.43-1.069c2.4-.03,4.8-.049,7.2,0A7.2,7.2,0,0,1,54.111,45q.011.759,0,1.518a1.952,1.952,0,0,1-1.9,1.977c-.782.035-1.567.012-2.351.014-2.743,0-5.488-.009-8.231.009-.45,0-.622-.093-.624-.587a10.763,10.763,0,0,0-4.056-8.6,3.019,3.019,0,0,0-.332-.2" transform="translate(8.694 9.029)"/>
      <path id="Path_2110" data-name="Path 2110" d="M48.526,32.7a5.226,5.226,0,1,1-5.24-5.228,5.227,5.227,0,0,1,5.24,5.228" transform="translate(9.039 6.522)"/>
      <path id="Path_2111" data-name="Path 2111" d="M4.26,32.725a5.227,5.227,0,1,1,5.252,5.218A5.227,5.227,0,0,1,4.26,32.725" transform="translate(1.011 6.522)"/>
    </g>
  </g>
</svg>
