<svg xmlns="http://www.w3.org/2000/svg" xmlns:xlink="http://www.w3.org/1999/xlink" width="72.086" height="69.877" viewBox="0 0 72.086 69.877">
  <defs>
    <clipPath id="clip-path">
      <rect id="Rectangle_1989" data-name="Rectangle 1989" width="72.086" height="69.877" transform="translate(0 0)" fill="#fff"/>
    </clipPath>
  </defs>
  <g id="Group_1219" data-name="Group 1219" transform="translate(0 0)">
    <g id="Group_1218" data-name="Group 1218" clip-path="url(#clip-path)">
      <path id="Path_1944" data-name="Path 1944" d="M43.181,57.684c.063,1.6.123,3.142.185,4.686.083,2.067.173,4.134.249,6.2a1.128,1.128,0,0,1-1.247,1.3q-1.729.007-3.461,0a1.134,1.134,0,0,1-1.294-1.045q-.78-3.513-1.556-7.027a.228.228,0,0,0-.1-.152c-.035.134-.074.268-.1.4q-.753,3.409-1.5,6.819a1.112,1.112,0,0,1-1.223,1q-1.785.012-3.569,0a1.069,1.069,0,0,1-1.2-1.246c.1-2.686.213-5.371.321-8.056.038-.948.074-1.9.113-2.886-.674,0-1.313,0-1.951,0a1.186,1.186,0,0,1-1.263-1.275c0-4.389-.042-8.778.013-13.166a9.159,9.159,0,0,1,4.739-8.177,1.272,1.272,0,0,1,1.9.253l3.755,3.763c.107-.1.2-.187.289-.277l3.457-3.456a1.2,1.2,0,0,1,1.695-.237,9.279,9.279,0,0,1,4.978,8.4c.023,4.269.005,8.539.005,12.809a1.206,1.206,0,0,1-1.353,1.364H43.181" fill="#fff"/>
      <path id="Path_1945" data-name="Path 1945" d="M18.514,47.328l-3.1,1.814-1.093-1.885,3.167-1.863a19.988,19.988,0,0,1-2.216-8.3H11.555V34.874H15.27a19.493,19.493,0,0,1,2.22-8.3l-3.159-1.856,1.114-1.873,3.15,1.84a20.2,20.2,0,0,1,6.088-6.087c-.628-1.074-1.243-2.128-1.84-3.15l1.869-1.121,1.859,3.162a19.5,19.5,0,0,1,8.3-2.213v-3.72h2.206v3.716a19.478,19.478,0,0,1,8.315,2.219l1.864-3.172,1.886,1.1-1.861,3.183a20.186,20.186,0,0,1,6.086,6.089l3.15-1.839c.377.628.741,1.235,1.122,1.868l-3.162,1.861a23.326,23.326,0,0,1,2.213,8.289h3.718v2.217H56.695a21.863,21.863,0,0,1-2.218,8.311l3.164,1.863-1.1,1.879-3.149-1.84c-.47.631-.9,1.261-1.384,1.841-.573.681-1.181,1.335-1.807,1.97a1.1,1.1,0,1,1-1.507-1.583A18.523,18.523,0,0,0,54.256,39.3a17.935,17.935,0,0,0-4.191-15.418A18.044,18.044,0,0,0,38.259,17.52,18.588,18.588,0,0,0,17.713,32.563a18.145,18.145,0,0,0,4.776,16.159,1.1,1.1,0,0,1,.049,1.692,1.06,1.06,0,0,1-1.579-.127c-.813-.96-1.6-1.939-2.445-2.959" fill="#fff"/>
      <path id="Path_1946" data-name="Path 1946" d="M35.981,21.037A6.974,6.974,0,1,1,29,27.992a6.981,6.981,0,0,1,6.98-6.955" fill="#fff"/>
      <path id="Path_1947" data-name="Path 1947" d="M72.086,35.981a4.765,4.765,0,1,1-4.766-4.765,4.783,4.783,0,0,1,4.766,4.765" fill="#fff"/>
      <path id="Path_1948" data-name="Path 1948" d="M0,35.953a4.755,4.755,0,1,1,4.726,4.8A4.762,4.762,0,0,1,0,35.953" fill="#fff"/>
      <path id="Path_1949" data-name="Path 1949" d="M35.963,9.511a4.755,4.755,0,1,1,4.785-4.739,4.766,4.766,0,0,1-4.785,4.739" fill="#fff"/>
      <path id="Path_1950" data-name="Path 1950" d="M8.833,15.63a4.744,4.744,0,0,1,.015,9.487,4.793,4.793,0,0,1-4.672-4.8A4.682,4.682,0,0,1,8.833,15.63" fill="#fff"/>
      <path id="Path_1951" data-name="Path 1951" d="M20.351,13.589a4.758,4.758,0,0,1-4.773-4.676,4.611,4.611,0,0,1,4.588-4.737A4.771,4.771,0,0,1,25,8.872a4.623,4.623,0,0,1-4.648,4.717" fill="#fff"/>
      <path id="Path_1952" data-name="Path 1952" d="M63.126,46.884c2.379.039,4.562,1.63,4.591,4.945a4.674,4.674,0,0,1-4.751,4.522,4.783,4.783,0,0,1-4.617-4.768,4.727,4.727,0,0,1,4.777-4.7" fill="#fff"/>
      <path id="Path_1953" data-name="Path 1953" d="M62.9,15.7a4.763,4.763,0,0,1,4.841,4.64,4.591,4.591,0,0,1-4.6,4.7,4.731,4.731,0,0,1-4.818-4.576A4.593,4.593,0,0,1,62.9,15.7" fill="#fff"/>
      <path id="Path_1954" data-name="Path 1954" d="M8.84,56.249a4.564,4.564,0,0,1-4.664-4.571,4.693,4.693,0,0,1,9.384-.2,4.763,4.763,0,0,1-4.72,4.772" fill="#fff"/>
      <path id="Path_1955" data-name="Path 1955" d="M56.337,8.941a4.687,4.687,0,0,1-9.373-.035,4.783,4.783,0,0,1,4.7-4.684,4.692,4.692,0,0,1,4.672,4.719" fill="#fff"/>
    </g>
  </g>
</svg>
