<svg xmlns="http://www.w3.org/2000/svg" xmlns:xlink="http://www.w3.org/1999/xlink" width="69.018" height="69.021" viewBox="0 0 69.018 69.021">
  <defs>
    <clipPath id="clip-path">
      <rect id="Rectangle_2057" data-name="Rectangle 2057" width="69.018" height="69.021" fill="none"/>
    </clipPath>
  </defs>
  <g id="Group_1340" data-name="Group 1340" transform="translate(0)">
    <g id="Group_1339" data-name="Group 1339" transform="translate(0)" clip-path="url(#clip-path)">
      <path id="Path_2127" data-name="Path 2127" d="M6.963,55.2a11.467,11.467,0,0,1,.589-1.345q1.019-1.665,2.1-3.29a2.13,2.13,0,0,0,.131-2.4,28.08,28.08,0,0,1-2.811-7.325A2.144,2.144,0,0,0,5.1,39.078c-1.058-.193-2.1-.449-3.158-.678A2.071,2.071,0,0,1,0,36.016C0,34.444,0,32.872,0,31.3a1.968,1.968,0,0,1,1.753-2.183c1.226-.275,2.449-.563,3.683-.8a2.2,2.2,0,0,0,1.887-1.672,28.012,28.012,0,0,1,3.221-7.229A2.119,2.119,0,0,0,10.5,16.9c-.625-.932-1.225-1.881-1.82-2.832a1.944,1.944,0,0,1,.312-2.78q1.706-1.724,3.431-3.43a1.972,1.972,0,0,1,2.84-.291c1.044.658,2.091,1.314,3.117,2a2.126,2.126,0,0,0,2.4.1,28.194,28.194,0,0,1,7.509-2.889,2.153,2.153,0,0,0,1.765-1.87c.205-1.056.447-2.106.682-3.155A1.978,1.978,0,0,1,32.93,0q2.426-.011,4.852,0a1.966,1.966,0,0,1,2.189,1.75c.271,1.157.528,2.318.75,3.486A2.3,2.3,0,0,0,42.491,7.2a27.106,27.106,0,0,1,7.217,3.242,2.17,2.17,0,0,0,2.629-.028c.869-.6,1.768-1.151,2.662-1.711a1.94,1.94,0,0,1,2.784.275q1.754,1.724,3.476,3.48a1.938,1.938,0,0,1,.282,2.783c-.646,1.026-1.288,2.054-1.966,3.059a2.177,2.177,0,0,0-.136,2.46,28.266,28.266,0,0,1,2.852,7.594,2.074,2.074,0,0,0,1.782,1.693c1.077.218,2.149.457,3.221.7a1.946,1.946,0,0,1,1.718,2.143q.015,2.459,0,4.92A1.959,1.959,0,0,1,67.262,40c-1.246.287-2.493.568-3.746.823A2,2,0,0,0,61.859,42.3a29.687,29.687,0,0,1-3.383,7.45,1.992,1.992,0,0,0,.035,2.335q.96,1.464,1.886,2.95a1.95,1.95,0,0,1-.316,2.78q-1.706,1.726-3.43,3.431a1.951,1.951,0,0,1-2.832.286c-1.083-.683-2.165-1.366-3.23-2.076a2.151,2.151,0,0,0-2.4-.127,28.305,28.305,0,0,1-7.34,2.769,2.132,2.132,0,0,0-1.771,1.857c-.217,1.146-.481,2.283-.757,3.415a1.885,1.885,0,0,1-2.057,1.643q-2.528.02-5.055,0a1.916,1.916,0,0,1-2.091-1.69c-.283-1.246-.577-2.491-.814-3.747a2.307,2.307,0,0,0-1.774-1.964,26.374,26.374,0,0,1-6.851-3.077,2.3,2.3,0,0,0-2.808.068c-.917.645-1.88,1.227-2.831,1.82a1.947,1.947,0,0,1-2.733-.3c-1.169-1.148-2.346-2.293-3.467-3.489A7.858,7.858,0,0,1,6.963,55.2m6.249-20.276A21.14,21.14,0,1,0,34.345,13.808,21.151,21.151,0,0,0,13.212,34.924" transform="translate(0 0)"/>
      <path id="Path_2128" data-name="Path 2128" d="M29.169,36.928q-2.7,0-5.389,0c-1,0-1.028-.058-1.056-1.079a7.173,7.173,0,0,1,1.589-5.005,6.408,6.408,0,0,1,10.282.939,8.583,8.583,0,0,1,.9,4.62c-.012.474-.287.53-.667.528-1.887-.009-3.773,0-5.659,0" transform="translate(5.394 6.809)"/>
      <path id="Path_2129" data-name="Path 2129" d="M26.614,28.6a8.21,8.21,0,0,0-3.789,6.568,3.111,3.111,0,0,1-.416.058c-1.885,0-3.769.009-5.652,0-.833,0-1.015-.219-1.044-1.036A6.743,6.743,0,0,1,18.406,28.2a6.577,6.577,0,0,1,8.208.4" transform="translate(3.729 6.399)"/>
      <path id="Path_2130" data-name="Path 2130" d="M31.427,28.573a6.394,6.394,0,0,1,8.943.4A7.467,7.467,0,0,1,42.1,34.595a.613.613,0,0,1-.705.635c-1.93,0-3.859.009-5.789-.017a.618.618,0,0,1-.452-.391A8.172,8.172,0,0,0,31.5,28.672a.418.418,0,0,1-.078-.1" transform="translate(7.461 6.395)"/>
      <path id="Path_2131" data-name="Path 2131" d="M21.773,27.1a3.321,3.321,0,1,1,3.353-3.331A3.345,3.345,0,0,1,21.773,27.1" transform="translate(4.378 4.858)"/>
      <path id="Path_2132" data-name="Path 2132" d="M35.465,27.1a3.321,3.321,0,1,1,3.368-3.313A3.348,3.348,0,0,1,35.465,27.1" transform="translate(7.633 4.857)"/>
      <path id="Path_2133" data-name="Path 2133" d="M28.648,22.2a3.322,3.322,0,1,1-3.361,3.316A3.331,3.331,0,0,1,28.648,22.2" transform="translate(6.003 5.27)"/>
    </g>
  </g>
</svg>
