<svg id="Group_1227" data-name="Group 1227" xmlns="http://www.w3.org/2000/svg" xmlns:xlink="http://www.w3.org/1999/xlink" width="61.984" height="61.983" viewBox="0 0 61.984 61.983">
  <defs>
    <clipPath id="clip-path">
      <rect id="Rectangle_1993" data-name="Rectangle 1993" width="61.984" height="61.983" fill="#fff"/>
    </clipPath>
  </defs>
  <g id="Group_1226" data-name="Group 1226" transform="translate(0 0)" clip-path="url(#clip-path)">
    <path id="Path_1964" data-name="Path 1964" d="M49.9,55.253a12.323,12.323,0,0,1-1.514-.613q-2.125-1.225-4.205-2.525a.879.879,0,0,0-1.059-.034,24.226,24.226,0,0,1-5.845,2.44,1.016,1.016,0,0,0-.6.6c-.447,1.618-.839,3.253-1.25,4.882a2.271,2.271,0,0,1-2.508,1.976c-1.314,0-2.628.006-3.941,0a2.25,2.25,0,0,1-2.4-1.861c-.422-1.649-.843-3.3-1.233-4.957a.778.778,0,0,0-.652-.672,22.35,22.35,0,0,1-5.847-2.423.838.838,0,0,0-1,.028c-1.411.871-2.835,1.719-4.262,2.564a2.25,2.25,0,0,1-3.118-.372c-.951-.941-1.9-1.883-2.835-2.837A2.207,2.207,0,0,1,7.267,48.5c.852-1.449,1.713-2.893,2.6-4.322A.877.877,0,0,0,9.9,43.118,24.26,24.26,0,0,1,7.46,37.274a1.02,1.02,0,0,0-.6-.6c-1.618-.447-3.252-.842-4.882-1.247A2.277,2.277,0,0,1,0,32.916Q0,30.98,0,29.044a2.271,2.271,0,0,1,2-2.489c1.608-.4,3.21-.822,4.822-1.2a.78.78,0,0,0,.67-.655,22.12,22.12,0,0,1,2.421-5.849.835.835,0,0,0-.025-1c-.872-1.411-1.72-2.835-2.565-4.262A2.245,2.245,0,0,1,7.7,10.47q1.41-1.426,2.837-2.835a2.209,2.209,0,0,1,2.952-.365q2.2,1.294,4.381,2.635a.838.838,0,0,0,1,0,24.755,24.755,0,0,1,5.845-2.441,1.014,1.014,0,0,0,.6-.6c.451-1.641.843-3.3,1.262-4.95A2.256,2.256,0,0,1,29,.005Q31,0,33.009.006A2.242,2.242,0,0,1,35.4,1.867c.422,1.649.843,3.3,1.232,4.957a.774.774,0,0,0,.653.67,22.131,22.131,0,0,1,5.85,2.418.836.836,0,0,0,1-.018c1.408-.874,2.834-1.722,4.259-2.569a2.252,2.252,0,0,1,3.119.373q1.427,1.409,2.835,2.836a2.212,2.212,0,0,1,.364,2.953c-.851,1.45-1.712,2.894-2.6,4.322a.877.877,0,0,0-.036,1.058,24.359,24.359,0,0,1,2.441,5.844,1.015,1.015,0,0,0,.6.6c1.618.447,3.253.834,4.879,1.252a2.265,2.265,0,0,1,1.976,2.508c0,1.313.007,2.628,0,3.941a2.244,2.244,0,0,1-1.861,2.4c-1.648.428-3.3.848-4.954,1.236a.773.773,0,0,0-.674.648,22.3,22.3,0,0,1-2.42,5.849.835.835,0,0,0,.023,1c.871,1.411,1.72,2.835,2.565,4.262a2.254,2.254,0,0,1-.37,3.119c-.939.952-1.859,1.926-2.849,2.821a8.718,8.718,0,0,1-1.542.917M31.021,13.287A17.7,17.7,0,1,0,48.7,31.055,17.716,17.716,0,0,0,31.021,13.287" transform="translate(0 0)" fill="#fff"/>
    <path id="Path_1965" data-name="Path 1965" d="M33.068,18.637A14.447,14.447,0,1,1,18.636,33.083,14.451,14.451,0,0,1,33.068,18.637M31.023,31.022h-.5c-1.892,0-3.783-.012-5.675.005a2.048,2.048,0,0,0-2.078,2.026,2.07,2.07,0,0,0,2.083,2.091c.494.013.988,0,1.483,0h4.686V35.9c0,1.806-.013,3.612.005,5.418a2.057,2.057,0,1,0,4.115-.006c.019-.945,0-1.892.005-2.837v-3.33H35.9c1.807,0,3.612.013,5.418-.006a2.057,2.057,0,1,0-.01-4.115c-1.053-.018-2.107,0-3.16,0h-3v-.7c0-1.741,0-3.483,0-5.223a3.2,3.2,0,0,0-.067-.767,2.052,2.052,0,0,0-4.046.453c-.022,2.042-.006,4.084-.006,6.233" transform="translate(-2.092 -2.092)" fill="#fff"/>
  </g>
</svg>
