<svg xmlns="http://www.w3.org/2000/svg" xmlns:xlink="http://www.w3.org/1999/xlink" width="62.179" height="62.19" viewBox="0 0 62.179 62.19">
  <defs>
    <clipPath id="clip-path">
      <rect id="Rectangle_1992" data-name="Rectangle 1992" width="62.179" height="62.19" transform="translate(0 0)" fill="#fff"/>
    </clipPath>
  </defs>
  <g id="Group_1225" data-name="Group 1225" transform="translate(0 0)">
    <g id="Group_1224" data-name="Group 1224" clip-path="url(#clip-path)">
      <path id="Path_1963" data-name="Path 1963" d="M62.179,29.79a37.028,37.028,0,0,1-.576,7.093,31.237,31.237,0,0,1-3.317,9.193.466.466,0,0,0-.007.487,27.034,27.034,0,0,1,2.253,6.1,9.537,9.537,0,0,1,.11,4.323A4.907,4.907,0,0,1,56.268,60.8a12.72,12.72,0,0,1-5.739-.834c-1.321-.472-2.6-1.053-3.891-1.615a.682.682,0,0,0-.683.029,30.37,30.37,0,0,1-10.743,3.533,30.794,30.794,0,0,1-18.958-3.5.807.807,0,0,0-.844-.014,24.664,24.664,0,0,1-6.531,2.29,8.777,8.777,0,0,1-3.662-.017A4.951,4.951,0,0,1,1.356,56.1a12.49,12.49,0,0,1,.765-5.224c.51-1.444,1.144-2.845,1.742-4.258a.586.586,0,0,0-.019-.583A30.359,30.359,0,0,1,.177,34.422,30.876,30.876,0,0,1,3.745,16.334a.927.927,0,0,0,.02-.967,24.122,24.122,0,0,1-2.294-6.64,8.763,8.763,0,0,1,.013-3.385A4.947,4.947,0,0,1,6.068,1.371a12.474,12.474,0,0,1,5.225.758c1.457.51,2.868,1.153,4.293,1.752a.52.52,0,0,0,.519-.008,30.986,30.986,0,0,1,29.984,0,.464.464,0,0,0,.486,0A25.653,25.653,0,0,1,53.1,1.56a9.038,9.038,0,0,1,3.975.007,4.875,4.875,0,0,1,3.709,4.268,12.281,12.281,0,0,1-.753,5.608c-.492,1.413-1.119,2.78-1.7,4.16a.554.554,0,0,0,.011.553A31.138,31.138,0,0,1,61.893,26.9c.141,1.018.2,2.046.286,2.9M12.985,5.869c0-.048,0-.095,0-.143-1.232-.4-2.455-.839-3.7-1.2a8.021,8.021,0,0,0-2.773-.3A2.2,2.2,0,0,0,4.217,6.5a9.081,9.081,0,0,0,.105,1.871A21.529,21.529,0,0,0,6.453,14.4a69.843,69.843,0,0,0,7.719,11.915A127.345,127.345,0,0,0,28.45,41.693c.877.808,1.772,1.6,2.664,2.4.1-.081.173-.137.243-.2A132.842,132.842,0,0,0,42.788,32.6,96.838,96.838,0,0,0,53.765,18.076a36.59,36.59,0,0,0,3.641-7.628,10.224,10.224,0,0,0,.608-4.075,2.119,2.119,0,0,0-1.972-2.141,6.445,6.445,0,0,0-1.2-.038,12.965,12.965,0,0,0-3.719.846c-.759.273-1.5.587-2.316.907.181.138.29.225.4.307a31.8,31.8,0,0,1,5.13,4.728.347.347,0,0,1,.064.462c-.263.489-.5.995-.754,1.485a83.625,83.625,0,0,1-7.794,11.749c-.507.661-.965,1-1.759.625a.184.184,0,0,0-.035,0,22.214,22.214,0,0,1-4.41-1.3,1.54,1.54,0,0,1-.455-.267c-1.407-1.243-2.879-2.434-3.552-4.286a.123.123,0,0,0-.035-.061,1.5,1.5,0,0,0-.383-.247,2.688,2.688,0,0,0-2.512.513,9.022,9.022,0,0,1-.918.546c.717.39,1.339.784,2.006,1.077a3.483,3.483,0,0,1,1.719,1.514c.48.856.981,1.7,1.469,2.55a.831.831,0,0,0,.8.466c2.236-.015,4.472-.007,6.708-.007h.439A136.843,136.843,0,0,1,31.17,40.317c-.113-.1-.194-.168-.272-.24A139.626,139.626,0,0,1,18.657,27.393a2.118,2.118,0,0,1-.634-1.721,3.3,3.3,0,0,1,1.627-2.7c2.171-1.3,4.331-2.614,6.5-3.909.247-.147.326-.285.238-.56a1.609,1.609,0,0,1,.188-1.36c.493-.834.967-1.68,1.452-2.519a1.506,1.506,0,0,1,2.1-.7c.231.1.463.192.709.293a1.563,1.563,0,0,1,1.731-1.751c.9-.02,1.8-.043,2.7-.063.195,0,.39,0,.608,0-.061-.452-.124-.837-.162-1.224a1.468,1.468,0,0,1,1.026-1.661c1.513-.571,3.032-1.13,4.546-1.7a1.505,1.505,0,0,1,1.645.306c.45.4.931.774,1.343,1.211a.781.781,0,0,0,1.149.183,2.455,2.455,0,0,1,.581-.26.37.37,0,0,0,.291-.443c-.039-.423-.02-.853-.067-1.275a.623.623,0,0,0-.243-.407A27.156,27.156,0,0,0,40.64,4.538c-.366-.132-.74-.243-1.162-.381a1.433,1.433,0,0,1-.7,2.3c-1.419.618-2.83,1.252-4.256,1.854a2.278,2.278,0,0,1-.923.173c-1.537-.037-3.075-.086-4.61-.175a8.231,8.231,0,0,1-1.515-.3,1.5,1.5,0,0,1-1.235-1.313c-.22.2-.4.368-.58.533A20.02,20.02,0,0,1,23.94,8.76c-.805.577-1.684,1.05-2.531,1.569a1.415,1.415,0,0,1-1.482.052c-.535-.278-1.065-.565-1.606-.829a1.142,1.142,0,0,0-.5-.111c-1.4.026-2.791.086-4.186.093a1.63,1.63,0,0,0-1.328.513,8.45,8.45,0,0,1-.651.6L9.714,12.4,7.722,10.649a31.649,31.649,0,0,1,5.263-4.78m-6,15.247a1.554,1.554,0,0,0,0,.217c.364,1.889.714,3.782,1.1,5.667a7.265,7.265,0,0,0,.543,1.781c.576,1.15,1.23,2.263,1.882,3.373a.689.689,0,0,1-.02.844c-1.526,2.4-3.025,4.826-4.544,7.235a8.43,8.43,0,0,1-.832,1.1.475.475,0,0,0-.1.588,28.619,28.619,0,0,0,6.815,9.839c.22.208.448.408.681.619l-1.863,2.13a31.022,31.022,0,0,1-4.862-5.368c-.385,1.083-.759,2.052-1.071,3.042a9.782,9.782,0,0,0-.51,3.49,2.205,2.205,0,0,0,2.383,2.34,11.782,11.782,0,0,0,2.493-.251,25.393,25.393,0,0,0,6.528-2.6,76.746,76.746,0,0,0,11.575-7.791c.572-.453,1.135-.918,1.725-1.4A124.606,124.606,0,0,1,6.981,21.116m33.9,27.18-5.46-4.244-2.114,1.891c.087.08.152.146.224.2a92.654,92.654,0,0,0,9.328,6.82,42.235,42.235,0,0,0,8.323,4.23,11.439,11.439,0,0,0,4.5.829,2.14,2.14,0,0,0,2.223-1.67,4.9,4.9,0,0,0,.112-.983,10.772,10.772,0,0,0-.7-3.778c-.266-.8-.586-1.581-.911-2.449a30.545,30.545,0,0,1-4.846,5.36c-.629-.722-1.24-1.421-1.862-2.134a28.368,28.368,0,0,0,3.663-3.89,30.05,30.05,0,0,0,2.858-4.476,21.143,21.143,0,0,0,1.891-4.949c-.2.379-.38.725-.573,1.061A1.469,1.469,0,0,1,54.8,39.6c-.032-.222-.046-.447-.058-.671a27.7,27.7,0,0,0-.838-6.381c-.06-.209-.108-.356-.39-.287a4.7,4.7,0,0,0-.053.48,2.457,2.457,0,0,1-.828,1.845c-.807.764-1.554,1.59-2.335,2.382a2.94,2.94,0,0,1-1.481,1.1,3.5,3.5,0,0,1-.489,2.242c-.206.385-.4.778-.582,1.174A3.473,3.473,0,0,1,46.4,42.992c-1.452.911-2.889,1.844-4.343,2.752a1.424,1.424,0,0,0-.675.9c-.134.525-.309,1.039-.493,1.647m2.453,8.3-.32-.2q-3.031-2-6.062-4.007c-.406-.269-.536-.269-.862.1-.994,1.125-2,2.246-2.979,3.381a2.746,2.746,0,0,1-2.72.91,21.953,21.953,0,0,1-2.437-.617,2.984,2.984,0,0,1-2.112-2.739c-.022-.444-.047-.887-.071-1.315l-6.826,4.531A28.4,28.4,0,0,0,43.338,56.6" fill="#fff"/>
    </g>
  </g>
</svg>
