<svg xmlns="http://www.w3.org/2000/svg" xmlns:xlink="http://www.w3.org/1999/xlink" width="50.987" height="66.31" viewBox="0 0 50.987 66.31">
  <defs>
    <clipPath id="clip-path">
      <rect id="Rectangle_1994" data-name="Rectangle 1994" width="50.987" height="66.31" transform="translate(0 0)" fill="#fff"/>
    </clipPath>
  </defs>
  <g id="Group_1229" data-name="Group 1229" transform="translate(0 0)">
    <g id="Group_1228" data-name="Group 1228" clip-path="url(#clip-path)">
      <path id="Path_1966" data-name="Path 1966" d="M16.032,4.75H4.737V37.715A2.4,2.4,0,0,1,3.213,40.1,2.365,2.365,0,0,1,0,37.852Q-.007,31.728,0,25.6,0,14.116,0,2.628A2.39,2.39,0,0,1,2.644,0H48.371a2.386,2.386,0,0,1,2.615,2.618V63.742a2.377,2.377,0,0,1-2.553,2.569H2.594A2.384,2.384,0,0,1,0,63.707C0,61.413,0,59.119,0,56.825A2.364,2.364,0,0,1,4.292,55.46a2.386,2.386,0,0,1,.445,1.422q0,2.127,0,4.255v.417H46.221V4.763H34.972c-.018.091-.044.2-.057.3A2.355,2.355,0,0,1,34.2,6.487Q33.086,7.6,31.976,8.711a2.494,2.494,0,0,1-1.858.765q-4.642-.008-9.285,0a2.412,2.412,0,0,1-1.767-.714c-.778-.774-1.551-1.553-2.329-2.328a2.5,2.5,0,0,1-.7-1.683" fill="#fff"/>
      <path id="Path_1967" data-name="Path 1967" d="M11.313,36.97a16.571,16.571,0,1,1,5.568,5.591,1.508,1.508,0,0,1-.218.379Q12.754,46.877,8.831,50.8a4.041,4.041,0,0,1-6.046-5.359c.145-.169.3-.328.458-.484q3.87-3.875,7.742-7.744a2.723,2.723,0,0,1,.328-.246m14.18-20.391a11.84,11.84,0,1,0,11.839,11.83,11.856,11.856,0,0,0-11.839-11.83" fill="#fff"/>
      <path id="Path_1968" data-name="Path 1968" d="M26.656,59.206q-5.287,0-10.576,0a2.367,2.367,0,1,1-.012-4.733q5.028-.008,10.058,0,5.565,0,11.13,0a2.367,2.367,0,1,1,.05,4.732c-2.934.008-5.868,0-8.8,0H26.656" fill="#fff"/>
      <path id="Path_1969" data-name="Path 1969" d="M29.062,47.365c2.761,0,5.522-.011,8.282.006a2.364,2.364,0,0,1,1.774,3.907,2.373,2.373,0,0,1-1.936.826q-6.008-.009-12.016,0c-1.492,0-2.983.012-4.474-.006a2.332,2.332,0,0,1-2.241-1.857,2.306,2.306,0,0,1,1.264-2.615,2.976,2.976,0,0,1,1.176-.247c2.723-.021,5.447-.011,8.171-.011" fill="#fff"/>
      <path id="Path_1970" data-name="Path 1970" d="M27.362,28.786c.613-2.47,1.242-4.936,1.85-7.407A1.893,1.893,0,0,0,27.3,18.946q-1.807-.006-3.615,0a1.89,1.89,0,0,0-1.91,2.411c.615,2.51,1.25,5.015,1.882,7.521a1.87,1.87,0,0,0,1.331,1.385c.051.016.1.038.176.067h.656l-.024-.007a2,2,0,0,0,1.568-1.537" fill="#fff"/>
      <path id="Path_1971" data-name="Path 1971" d="M25.115,32.806a2.384,2.384,0,0,0,.256,4.716,2.379,2.379,0,0,0,2.471-1.711,2.317,2.317,0,0,0-.107-1.59A2.492,2.492,0,0,0,25.9,32.792h-.82l.036.014" fill="#fff"/>
    </g>
  </g>
</svg>
