<svg id="Group_1223" data-name="Group 1223" xmlns="http://www.w3.org/2000/svg" xmlns:xlink="http://www.w3.org/1999/xlink" width="47.84" height="63.362" viewBox="0 0 47.84 63.362">
  <defs>
    <clipPath id="clip-path">
      <rect id="Rectangle_1991" data-name="Rectangle 1991" width="47.84" height="63.362" fill="#fff"/>
    </clipPath>
  </defs>
  <g id="Group_1222" data-name="Group 1222" transform="translate(0 0)" clip-path="url(#clip-path)">
    <path id="Path_1959" data-name="Path 1959" d="M36.516,43.676A2.029,2.029,0,0,0,34.367,45a3.763,3.763,0,0,1-5.107,1.858,2.267,2.267,0,0,0-2.652.484,3.732,3.732,0,0,1-5.38-.007,2.251,2.251,0,0,0-2.7-.457,3.737,3.737,0,0,1-5.018-1.822,2.3,2.3,0,0,0-2.369-1.387,3.705,3.705,0,0,1-4.1-3.405,2.38,2.38,0,0,0-1.859-2.17,3.727,3.727,0,0,1-2.613-4.551,2.356,2.356,0,0,0-.969-2.684,3.713,3.713,0,0,1-.906-5.211,2.326,2.326,0,0,0,.005-2.8,3.726,3.726,0,0,1,.941-5.254,2.305,2.305,0,0,0,.946-2.581,3.715,3.715,0,0,1,2.651-4.629A2.345,2.345,0,0,0,7.022,8.288,3.7,3.7,0,0,1,11.2,4.827a2.259,2.259,0,0,0,2.281-1.338,3.735,3.735,0,0,1,5.1-1.865,2.26,2.26,0,0,0,2.651-.48A3.732,3.732,0,0,1,26.565,1.1a2.359,2.359,0,0,0,2.816.477A3.7,3.7,0,0,1,34.3,3.38,2.4,2.4,0,0,0,36.83,4.825a3.711,3.711,0,0,1,3.99,3.4,2.28,2.28,0,0,0,1.731,2.131,3.733,3.733,0,0,1,2.706,4.707,2.258,2.258,0,0,0,.9,2.485,3.756,3.756,0,0,1,.933,5.4,2.215,2.215,0,0,0,0,2.589,3.767,3.767,0,0,1-.936,5.4,2.209,2.209,0,0,0-.906,2.423,3.762,3.762,0,0,1-2.758,4.786,2.214,2.214,0,0,0-1.656,1.99c-.311,2.318-1.812,3.569-4.318,3.542M23.936,40.706A16.46,16.46,0,1,0,7.452,24.268,16.508,16.508,0,0,0,23.936,40.706" transform="translate(0 0)" fill="#fff"/>
    <path id="Path_1960" data-name="Path 1960" d="M27.224,57.952a8.281,8.281,0,0,0,4.244-1.462.846.846,0,0,1,.582-.02,7.531,7.531,0,0,0,8.082-2.948.981.981,0,0,1,.585-.374,7.847,7.847,0,0,0,4.55-2.015,1.1,1.1,0,0,1,.193-.1l3.623,7.579c.151.315.316.625.453.947a1.909,1.909,0,0,1-.2,2.044,1.831,1.831,0,0,1-1.939.661c-1.349-.281-2.69-.605-4.035-.91-1.225-.277-2.457-.522-3.671-.842-.453-.119-.6.025-.784.4q-1.678,3.477-3.4,6.93a1.83,1.83,0,0,1-2.589,1.021,1.987,1.987,0,0,1-.825-.791c-1.628-3.325-3.219-6.668-4.874-10.116" transform="translate(-3.057 -5.73)" fill="#fff"/>
    <path id="Path_1961" data-name="Path 1961" d="M11.874,60.406,5.519,61.845c-.6.137-1.2.293-1.8.413a1.9,1.9,0,0,1-1.964-.6A1.747,1.747,0,0,1,1.46,59.7c1.355-2.883,2.732-5.757,4.1-8.62A17.85,17.85,0,0,0,7.715,52.4a24.461,24.461,0,0,0,2.465.738,1.577,1.577,0,0,1,.748.424A7.519,7.519,0,0,0,18.9,56.49a1.033,1.033,0,0,1,.7.024,8.321,8.321,0,0,0,4.205,1.444c-.149.315-.269.573-.392.829Q21.258,63.3,19.1,67.806a1.854,1.854,0,0,1-2.733.993,2.845,2.845,0,0,1-.881-1.072c-1.213-2.407-2.388-4.832-3.61-7.321" transform="translate(-0.144 -5.735)" fill="#fff"/>
    <path id="Path_1962" data-name="Path 1962" d="M25.332,38.406a12.713,12.713,0,1,1,12.712-12.7,12.732,12.732,0,0,1-12.712,12.7M23.79,27.136c-1.268-1.28-2.459-2.505-3.676-3.7a1.871,1.871,0,1,0-2.678,2.611q2.485,2.538,5.024,5.024a1.789,1.789,0,0,0,2.656.029q4.112-4.056,8.171-8.167a1.749,1.749,0,0,0,.488-1.7,1.864,1.864,0,0,0-3.2-.867C29.23,21.66,27.921,23,26.6,24.326l-2.805,2.81" transform="translate(-1.42 -1.458)" fill="#fff"/>
  </g>
</svg>
