<?xml version="1.0" encoding="utf-8"?>
<!-- Generator: Adobe Illustrator 28.0.0, SVG Export Plug-In . SVG Version: 6.00 Build 0)  -->
<svg version="1.1" id="Layer_1" xmlns="http://www.w3.org/2000/svg" xmlns:xlink="http://www.w3.org/1999/xlink" x="0px" y="0px"
	 viewBox="0 0 24.5 24.5" style="enable-background:new 0 0 24.5 24.5;" xml:space="preserve">
<style type="text/css">
	.st0{fill:#E20000;}
</style>
<path id="_1_icon_fb_1_" class="st0" d="M12.3,0C5.5,0,0,5.5,0,12.3s5.5,12.3,12.3,12.3S24.5,19,24.5,12.3C24.5,5.5,19,0,12.3,0z
	 M15.7,7.3c0,0.1-0.1,0.2-0.2,0.2l0,0H14c-0.4,0-0.7,0.3-0.7,0.7v1.5h2.1c0.1,0,0.2,0.1,0.2,0.2c0,0,0,0,0,0L15.4,12
	c0,0.1-0.1,0.2-0.2,0.2h-1.9v7.2c0,0.1-0.1,0.2-0.2,0.2c0,0,0,0,0,0h-2.6c-0.1,0-0.2-0.1-0.2-0.2l0,0v-7.2H9c-0.1,0-0.2-0.1-0.2-0.2
	c0,0,0,0,0,0V9.8c0-0.1,0.1-0.2,0.2-0.2c0,0,0,0,0,0h1.3V7.5c0-1.5,1.2-2.6,2.6-2.6h2.5c0.1,0,0.2,0.1,0.2,0.2l0,0L15.7,7.3
	L15.7,7.3z"/>
</svg>
