<?xml version="1.0" encoding="utf-8"?>
<!-- Generator: Adobe Illustrator 28.0.0, SVG Export Plug-In . SVG Version: 6.00 Build 0)  -->
<svg version="1.1" id="Layer_1" xmlns="http://www.w3.org/2000/svg" xmlns:xlink="http://www.w3.org/1999/xlink" x="0px" y="0px"
	 viewBox="0 0 24.5 24.5" style="enable-background:new 0 0 24.5 24.5;" xml:space="preserve">
<style type="text/css">
	.st0{fill:#E20000;}
</style>
<path id="_2_icon_in_1_" class="st0" d="M12.3,0C5.5,0,0,5.5,0,12.3s5.5,12.3,12.3,12.3S24.5,19,24.5,12.3C24.5,5.5,19,0,12.3,0z
	 M9.2,17.8C9.2,17.9,9.1,18,9,18c0,0,0,0,0,0H6.6c-0.1,0-0.2-0.1-0.2-0.2c0,0,0,0,0,0V9.8c0-0.1,0.1-0.2,0.2-0.2c0,0,0,0,0,0H9
	c0.1,0,0.2,0.1,0.2,0.2c0,0,0,0,0,0V17.8z M7.7,8.6c-0.8,0-1.5-0.7-1.5-1.5s0.7-1.5,1.5-1.5s1.5,0.7,1.5,1.5c0,0,0,0,0,0
	C9.2,7.9,8.5,8.6,7.7,8.6z M19.2,17.8c0,0.1-0.1,0.2-0.2,0.2c0,0,0,0,0,0h-2.4c-0.1,0-0.2-0.1-0.2-0.2c0,0,0,0,0,0v-4.3
	c0-1.1-0.4-1.9-1.4-1.9c-0.6,0-1.2,0.4-1.4,1c-0.1,0.2-0.1,0.4-0.1,0.7v4.5c0,0.1-0.1,0.2-0.2,0.2c0,0,0,0,0,0h-2.4
	c-0.1,0-0.2-0.1-0.2-0.2c0,0,0,0,0,0c0-1.1,0-6.6,0-7.9c0-0.1,0.1-0.2,0.2-0.2c0,0,0,0,0,0h2.4c0.1,0,0.2,0.1,0.2,0.2c0,0,0,0,0,0v1
	C14,9.9,15,9.4,16,9.4c1.8,0,3.2,1.2,3.2,3.7L19.2,17.8L19.2,17.8z"/>
</svg>
