<svg id="Group_1188" data-name="Group 1188" xmlns="http://www.w3.org/2000/svg" xmlns:xlink="http://www.w3.org/1999/xlink" width="50.2" height="50.949" viewBox="0 0 50.2 50.949">
  <defs>
    <clipPath id="clip-path">
      <rect id="Rectangle_1975" data-name="Rectangle 1975" width="50.2" height="50.949" fill="none"/>
    </clipPath>
  </defs>
  <g id="Group_1187" data-name="Group 1187" transform="translate(0 0)" clip-path="url(#clip-path)">
    <path id="Path_1922" data-name="Path 1922" d="M31.274,65.022a13.187,13.187,0,0,0,4.861-.757,19.323,19.323,0,0,0,7.436-4.756,14.5,14.5,0,0,1,2.482-2.144,3.069,3.069,0,0,1,1.353-.517,2.053,2.053,0,0,1,2.062,1.823,3.262,3.262,0,0,1-.489,2.036c-.265.456-.6.873-.907,1.3-.37.514-.735,1.031-1.125,1.529a23.229,23.229,0,0,1-8.956,6.906q-2.01.9-4.067,1.7a16.361,16.361,0,0,1-6.053.929,32.071,32.071,0,0,1-7.56-1.008,44.373,44.373,0,0,0-4.643-.825c-2.1-.284-4.213-.5-6.324-.712-1.908-.189-3.82-.33-5.73-.485-.964-.079-1.929-.138-2.894-.209a.754.754,0,0,1-.678-.574A1.423,1.423,0,0,1,0,68.906q0-4.366,0-8.733a1.225,1.225,0,0,1,.074-.451.821.821,0,0,1,.873-.491c2.508.005,5.017,0,7.525.008a.813.813,0,0,0,.535-.188,12.078,12.078,0,0,1,7.133-2.524,16.527,16.527,0,0,1,5.693.913A27.2,27.2,0,0,0,26.375,58.5a15.373,15.373,0,0,0,4.248-.047c1.075-.151,2.146-.341,3.226-.454a6.954,6.954,0,0,1,3.216.328,2.781,2.781,0,0,1,1.8,1.8,1.825,1.825,0,0,1-.229,1.685A4.325,4.325,0,0,1,37.095,63.1a17.712,17.712,0,0,1-4.252,1.548c-.521.133-1.045.248-1.568.372" transform="translate(0 -22.125)"/>
    <path id="Path_1923" data-name="Path 1923" d="M20.4,24.872a14.924,14.924,0,0,1-1.448-.79,1.912,1.912,0,0,0-1.978-.178c-.854.343-1.755.568-2.637.84a.83.83,0,0,1-1.114-.528.817.817,0,0,1,.622-1.038c.668-.212,1.338-.417,2.007-.625.063-.02.124-.046.226-.083L14.1,21.409c-.414-.223-.832-.438-1.242-.668a.806.806,0,0,1-.1-1.4.678.678,0,0,1,.79-.055c1.067.58,2.14,1.148,3.211,1.72.052.028.107.052.2.1-.058-.2-.1-.368-.156-.533q-.267-.857-.535-1.714a.819.819,0,0,1,.563-1.089.8.8,0,0,1,1.016.578c.332,1.024.679,2.045.957,3.085a1.489,1.489,0,0,0,.9,1.092c.574.251,1.115.581,1.725.906-.206-.669-.394-1.279-.583-1.888-.04-.131-.084-.26-.124-.391a.818.818,0,0,1,.542-1.061.8.8,0,0,1,1.028.516c.155.434.282.879.42,1.319.24.767.484,1.532.715,2.3a.527.527,0,0,0,.289.357c.764.384,1.51.8,2.284,1.165.711.332,1.464.576,2.174.909a15.066,15.066,0,0,1,4.492,3.065.577.577,0,0,0,.086.054c.074-.271.139-.532.217-.789.176-.59.333-1.187.545-1.763a2.7,2.7,0,0,0,.088-1.455,40.093,40.093,0,0,0-2.679-8.812,16.53,16.53,0,0,0-1.067-1.869.447.447,0,0,0-.249-.151c-.771-.224-1.545-.439-2.318-.659a.765.765,0,0,1-.6-.945.774.774,0,0,1,1.008-.567c.314.075.63.142.989.223-.186-.318-.341-.6-.517-.872a.413.413,0,0,0-.235-.125c-.72-.185-1.443-.36-2.163-.547a1.319,1.319,0,0,1-.4-.167.811.811,0,0,1-.314-.951.827.827,0,0,1,.877-.441c.343.061.682.146,1.07.231L26.26,8.8c-.063-.111-.131-.221-.192-.333a.809.809,0,0,1,.29-1.117.783.783,0,0,1,1.1.26c.3.461.564.938.843,1.409l.228.383c.081-.323.143-.586.213-.846a.8.8,0,0,1,1.129-.609.867.867,0,0,1,.385,1.022,14.63,14.63,0,0,1-.414,1.613,1.462,1.462,0,0,0,.237,1.563c.037.045.065.1.127.195.068-.266.109-.495.184-.711a1.9,1.9,0,0,1,.263-.546.686.686,0,0,1,.921-.176.752.752,0,0,1,.394.863c-.195.788-.4,1.574-.587,2.364a.6.6,0,0,0,.055.4A28.882,28.882,0,0,1,33.958,20.6c.34,1.011.6,2.051.891,3.077.016.057.038.112.059.176.324-.574.627-1.146.961-1.7A18.921,18.921,0,0,1,38.722,18.5c.612-.61,1.228-1.218,1.829-1.84a.637.637,0,0,0,.166-.4c.013-1.173.007-2.345.009-3.519,0-.1,0-.206.011-.307a.741.741,0,0,1,.776-.724.78.78,0,0,1,.8.747c.021.641.009,1.283.011,1.926v.479c.082-.065.134-.1.177-.141.534-.532,1.07-1.061,1.593-1.6a.567.567,0,0,0,.141-.355c.01-1.25,0-2.5.009-3.75a.758.758,0,0,1,.562-.768.747.747,0,0,1,.86.288,1.16,1.16,0,0,1,.162.552c.019.658.007,1.318.007,1.977v.3c.1-.095.173-.152.237-.215.794-.792,1.584-1.588,2.381-2.376a.782.782,0,0,1,1.338.669,1.211,1.211,0,0,1-.3.517c-.808.826-1.629,1.64-2.448,2.455a2.4,2.4,0,0,1-.221.176l.028.06c.06.007.12.019.18.019.659,0,1.319,0,1.978,0a.867.867,0,0,1,.8.811.774.774,0,0,1-.688.843,2.758,2.758,0,0,1-.333.013c-1.173,0-2.346,0-3.519.008a.638.638,0,0,0-.4.166c-.519.5-1.022,1.011-1.53,1.521-.057.057-.11.119-.208.226h1.077c.4,0,.805,0,1.207,0a.8.8,0,0,1,.888.785.811.811,0,0,1-.9.806c-1.215,0-2.431,0-3.647.008a.626.626,0,0,0-.4.162c-.839.831-1.694,1.65-2.489,2.522-1.667,1.828-2.36,3.984-3.231,6.28-.926,2.44-1.384,10.793-1.4,10.876a7.057,7.057,0,0,1-3.136-.119c.033-.441.142-.829.2-1.247.206-1.386.543-2.778.771-4.161a.5.5,0,0,0-.1-.421,8.171,8.171,0,0,0-2.329-2.107,22.079,22.079,0,0,0-2.628-1.439c-1.466-.643-2.88-1.381-4.288-2.135a.807.807,0,0,0-.7-.066c-1.193.391-2.4.758-3.594,1.132a.771.771,0,0,1-.81-.366.641.641,0,0,1-.007-.829,1.29,1.29,0,0,1,.531-.371c.719-.248,1.449-.461,2.243-.708" transform="translate(-4.853 -2.828)"/>
    <path id="Path_1924" data-name="Path 1924" d="M22.536,29.532c-.3-.133-.56-.239-.811-.362-.506-.251-1.01-.506-1.506-.774a.519.519,0,0,1-.236-.271c-.236-.786-.446-1.579-.678-2.365a4.167,4.167,0,0,0-.713-1.468,2.343,2.343,0,0,0-3.382-.22c-.024.023-.05.045-.107.1-.057-.206-.1-.391-.161-.569a9.579,9.579,0,0,0-.476-1.267,2.157,2.157,0,0,0-2.245-1.173,2.229,2.229,0,0,0-2.054,1.6c-.031.087-.054.177-.089.293a2.412,2.412,0,0,0-2.364-.35,2.467,2.467,0,0,0-1.339,1.385,2.229,2.229,0,0,0,1.287,3.044c-.041.056-.077.111-.117.162a2.371,2.371,0,0,0-.216,2.672,2.34,2.34,0,0,0,2.394,1.2c.511-.081,1.008-.257,1.512-.389.055-.015.112-.026.18-.041a5.387,5.387,0,0,0,0,.674A2.382,2.382,0,0,0,14.563,33.4c.961-.3,1.919-.62,2.876-.939a.5.5,0,0,1,.433.034c.79.422,1.586.836,2.4,1.262a6.387,6.387,0,0,1-1.616,1.093,9.467,9.467,0,0,1-6.682.509,9.32,9.32,0,0,1-4.9-3.337,37.378,37.378,0,0,1-4.148-6.44C2.265,24.306,1.659,23,1.04,21.707a.786.786,0,0,1,.633-1.215,55.029,55.029,0,0,1,6.277-.854,34.028,34.028,0,0,1,4.593-.092,11.392,11.392,0,0,1,4.232.826,9.52,9.52,0,0,1,5.7,7.054,7.318,7.318,0,0,1,.1,1.15c.011.3-.023.6-.039.958" transform="translate(-0.361 -7.635)"/>
    <path id="Path_1925" data-name="Path 1925" d="M55.574,18.664a1.988,1.988,0,0,1,.139-.182c.561-.553,1.12-1.108,1.689-1.651a.467.467,0,0,1,.3-.1c1-.007,2-.04,3,0a2.431,2.431,0,0,0,2.355-3.371c-.012-.03-.021-.063-.048-.139.273,0,.523.009.773,0a6.245,6.245,0,0,0,1.173-.08A2.21,2.21,0,0,0,66.7,11.268a2.214,2.214,0,0,0-.933-2.316c-.088-.065-.18-.124-.3-.2a2.521,2.521,0,0,0,1.037-2.165,2.426,2.426,0,0,0-.779-1.549c-1.016-.972-2.155-.933-3.459.119A2.379,2.379,0,0,0,57.821,6.24c-.015.452,0,.9,0,1.372a6.6,6.6,0,0,0-.686-.188A2.4,2.4,0,0,0,54.3,9.819c-.012,1.036,0,2.071-.01,3.107a.6.6,0,0,1-.156.373c-.565.585-1.145,1.156-1.72,1.731-.052.052-.11.1-.185.168a6.364,6.364,0,0,1-.562-1.821,9.386,9.386,0,0,1,2-7.21,9.286,9.286,0,0,1,4.164-3.012,32.98,32.98,0,0,1,6.252-1.787c1.738-.331,3.489-.594,5.237-.87.747-.118,1.146.3,1.045,1.091a52.826,52.826,0,0,1-1.861,9.136A32.158,32.158,0,0,1,67.256,14a8.8,8.8,0,0,1-4.786,4.531,8.5,8.5,0,0,1-5.812.5c-.353-.1-.695-.233-1.084-.366" transform="translate(-20.186 -0.187)"/>
    <path id="Path_1926" data-name="Path 1926" d="M38.2,6.493A2.353,2.353,0,0,0,37.52,4.21a2.259,2.259,0,0,0-2.412-.566.286.286,0,0,1-.333-.079,2.206,2.206,0,0,0-2.308-.506,2.3,2.3,0,0,0-1.642,1.8,5.446,5.446,0,0,0-.009.892.411.411,0,0,1-.087.279,2.353,2.353,0,0,0,.8,4.1.151.151,0,0,1,.052.022,7.423,7.423,0,0,0,.087,1.207,2.338,2.338,0,0,0,1.77,1.779c.534.15,1.079.266,1.614.414a.526.526,0,0,1,.281.218c.24.4.46.813.708,1.259a5.231,5.231,0,0,1-1.877-.285A6.6,6.6,0,0,1,29.617,9.46a21.59,21.59,0,0,1-.181-5.529c.069-1.024.186-2.045.286-3.066a.859.859,0,0,1,1.2-.794,33.569,33.569,0,0,1,6.65,3.41A7.476,7.476,0,0,1,39.96,5.775a6.623,6.623,0,0,1,.389,6.43c-.064.138-.147.265-.242.434-.238-.416-.467-.8-.671-1.187a.517.517,0,0,1,.012-.319c.14-.582.307-1.157.43-1.743a2.422,2.422,0,0,0-1.529-2.831c-.046-.019-.091-.041-.146-.066" transform="translate(-11.487 0)"/>
  </g>
</svg>
