<svg xmlns="http://www.w3.org/2000/svg" xmlns:xlink="http://www.w3.org/1999/xlink" width="46.881" height="50.298" viewBox="0 0 46.881 50.298">
  <defs>
    <clipPath id="clip-path">
      <rect id="Rectangle_1978" data-name="Rectangle 1978" width="46.881" height="50.298" fill="none"/>
    </clipPath>
  </defs>
  <g id="Group_1200" data-name="Group 1200" clip-path="url(#clip-path)">
    <path id="Path_1936" data-name="Path 1936" d="M23.488,0c1.06.24,2.117.488,3.181.711a.848.848,0,0,0,.565-.066A2.928,2.928,0,0,1,31.713,3.81a.844.844,0,0,0,.159.592c.572.793,1.193,1.551,1.753,2.353a.887.887,0,0,0,.787.44A16.99,16.99,0,0,1,41.22,8.789,9.9,9.9,0,0,1,46.5,20.611a37.792,37.792,0,0,1-1.645,4.278.7.7,0,0,0,.018.67A15.931,15.931,0,0,1,46.8,31.375a9.858,9.858,0,0,1-3.028,8.578.937.937,0,0,0-.242.615,2.872,2.872,0,0,1-1.578,2.73,2.738,2.738,0,0,1-3.16-.327.89.89,0,0,0-.8-.179q-1.859.287-3.73.494a.792.792,0,0,0-.66.395,15.649,15.649,0,0,1-5.215,5.214,9.6,9.6,0,0,1-11.281-.948,16.552,16.552,0,0,1-3.688-4.091,1.06,1.06,0,0,0-.966-.564A17.812,17.812,0,0,1,6.86,42.185a.739.739,0,0,0-.564.063,2.923,2.923,0,0,1-4.443-3.316A.728.728,0,0,0,1.77,38.4,10.214,10.214,0,0,1,.4,29.79c.4-1.466,1.091-2.853,1.628-4.284a.845.845,0,0,0-.018-.61,17.534,17.534,0,0,1-1.9-5.675,9.835,9.835,0,0,1,6.136-10.7A17.021,17.021,0,0,1,12.382,7.2a1.07,1.07,0,0,0,.982-.543,15.246,15.246,0,0,1,5.589-5.365,9.564,9.564,0,0,1,4.5-1.155c.01-.044.021-.088.031-.133M36.816,25.246a37.758,37.758,0,0,0-.658-7.2,1.172,1.172,0,0,0-.389-.632A39.8,39.8,0,0,0,23.8,10.69a1.128,1.128,0,0,0-.7,0,39.414,39.414,0,0,0-11.97,6.714,1.3,1.3,0,0,0-.416.717,39.087,39.087,0,0,0,.005,14.211,1.236,1.236,0,0,0,.4.677,39.434,39.434,0,0,0,11.97,6.715,1.137,1.137,0,0,0,.7-.005A39.1,39.1,0,0,0,35.8,32.993a1.1,1.1,0,0,0,.361-.594,38.063,38.063,0,0,0,.651-7.154M12.029,8.795c-.694.094-1.309.156-1.916.263a11.927,11.927,0,0,0-4.967,1.948,8.128,8.128,0,0,0-3.4,7.769,13.5,13.5,0,0,0,1.439,4.683c.071-.049.105-.062.122-.086a33.88,33.88,0,0,1,5.8-6.477.985.985,0,0,0,.24-.456c.432-1.435.806-2.889,1.293-4.3.379-1.1.893-2.161,1.39-3.34m22.835,0c.088.211.12.3.162.386a33.345,33.345,0,0,1,2.51,7.179,1.445,1.445,0,0,0,.383.64c1.1,1.117,2.252,2.177,3.3,3.334.884.974,1.651,2.054,2.548,3.185.376-1.089.791-2.113,1.083-3.171a8.435,8.435,0,0,0-.924-7.058c-2.085-3.232-5.412-4.1-9.065-4.494M15,43.276a2.7,2.7,0,0,0,.141.263,13.929,13.929,0,0,0,3.188,3.293,8.063,8.063,0,0,0,8.582.983,12.344,12.344,0,0,0,4.931-4.426c.013-.019-.006-.059-.01-.092-.026-.013-.053-.038-.08-.04a33.529,33.529,0,0,1-8-1.541.906.906,0,0,0-.522-.015A33.728,33.728,0,0,1,15,43.276M3.1,37.345a2.883,2.883,0,0,1,3.29.173,2.889,2.889,0,0,1,1.082,3.1,15.571,15.571,0,0,0,4.539.953c-.07-.176-.109-.3-.164-.412a32.824,32.824,0,0,1-2.486-7.039,1.694,1.694,0,0,0-.425-.725c-1.377-1.458-2.792-2.88-4.148-4.356-.581-.632-1.049-1.367-1.574-2.062-1.847,3.583-2.154,7.3-.114,10.371M37.675,41.2a2.922,2.922,0,0,1,1.545-3.13,2.87,2.87,0,0,1,3.466.557c3.036-2.744,3.255-7.593.956-11.639-.034.044-.066.081-.093.12a33.653,33.653,0,0,1-5.729,6.4,1.109,1.109,0,0,0-.274.49c-.594,1.843-1.156,3.7-1.775,5.529-.232.688-.589,1.333-.94,2.112l2.844-.442M26.049,2.279a7.481,7.481,0,0,0-4.008-.337,9.954,9.954,0,0,0-5.4,3.15c-.6.631-1.128,1.326-1.76,2.077a34.517,34.517,0,0,1,8.389,1.569.925.925,0,0,0,.521-.045,32.726,32.726,0,0,1,6.252-1.34c.6-.067,1.2-.128,1.9-.2l-1.355-1.7a2.9,2.9,0,0,1-3.295.049,2.9,2.9,0,0,1-1.238-3.224M8.727,30.83a47.265,47.265,0,0,1,0-11.234A25.649,25.649,0,0,0,4.266,25a.488.488,0,0,0,0,.428,25.491,25.491,0,0,0,4.461,5.4M38.286,19.521l-.182.1a43.868,43.868,0,0,1,.064,11.217A25.561,25.561,0,0,0,42.644,25.4a.543.543,0,0,0-.06-.465,24.183,24.183,0,0,0-1.393-2.006c-.941-1.157-1.934-2.272-2.9-3.4m-26.853-4.49a43.13,43.13,0,0,1,9.311-5.243,1.977,1.977,0,0,0-.253-.117,28.675,28.675,0,0,0-6.23-.885.692.692,0,0,0-.493.333,26.2,26.2,0,0,0-2.189,5.319c-.044.15-.075.3-.146.594M26.142,40.639c.161.064.219.1.281.111a28.614,28.614,0,0,0,6.235.877.644.644,0,0,0,.464-.3,26.319,26.319,0,0,0,2.2-5.369c.039-.136.065-.275.129-.548a42.91,42.91,0,0,1-9.311,5.233M26.2,9.688c0,.042,0,.084,0,.126A45.176,45.176,0,0,1,35.374,14.9a24.375,24.375,0,0,0-2.367-5.948.546.546,0,0,0-.439-.175c-1.089.084-2.182.153-3.262.307-1.042.149-2.069.4-3.1.6M11.5,35.443a1.362,1.362,0,0,0,0,.266,26.246,26.246,0,0,0,2.32,5.689.553.553,0,0,0,.43.2,18.515,18.515,0,0,0,2.05-.131c1.461-.208,2.915-.465,4.371-.7,0-.053,0-.106.007-.159a42.294,42.294,0,0,1-9.18-5.161M4.612,41.088A1.243,1.243,0,1,0,3.38,39.833a1.255,1.255,0,0,0,1.232,1.255m35.952-1.662a1.253,1.253,0,1,0,1.277,1.218,1.274,1.274,0,0,0-1.277-1.218M27.642,3.078A1.24,1.24,0,1,0,28.853,1.81a1.24,1.24,0,0,0-1.211,1.268" transform="translate(0)"/>
    <path id="Path_1937" data-name="Path 1937" d="M26.071,31.3,27.715,29.7c.533.378,1.025.717,1.5,1.074a1.207,1.207,0,0,0,1.363.085,25.209,25.209,0,0,1,2.421-1,1.24,1.24,0,0,0,.933-1.068c.082-.559.178-1.115.277-1.725h2.32c.087.54.189,1.071.256,1.607a1.319,1.319,0,0,0,1.061,1.218,13.874,13.874,0,0,1,2.257.94,1.246,1.246,0,0,0,1.464-.081c.449-.341.915-.658,1.464-1.05l1.579,1.691c-.331.465-.657.945-1.007,1.407a1.228,1.228,0,0,0-.1,1.412,24.676,24.676,0,0,1,1,2.421,1.207,1.207,0,0,0,1.02.909c.577.086,1.154.184,1.774.283v2.326c-.535.086-1.047.188-1.564.248a1.339,1.339,0,0,0-1.271,1.077,13.6,13.6,0,0,1-.94,2.255,1.243,1.243,0,0,0,.091,1.463c.343.446.658.913,1.049,1.46L42.989,48.24c-.492-.351-.973-.677-1.435-1.027a1.226,1.226,0,0,0-1.412-.1,24.159,24.159,0,0,1-2.422,1,1.207,1.207,0,0,0-.9,1.024c-.087.577-.188,1.152-.289,1.77H34.208c-.09-.563-.189-1.1-.258-1.634a1.308,1.308,0,0,0-1.02-1.191,16.176,16.176,0,0,1-2.312-.958,1.244,1.244,0,0,0-1.462.1c-.445.343-.913.657-1.451,1.042l-1.612-1.645c.376-.526.706-1.005,1.056-1.47a1.211,1.211,0,0,0,.106-1.363c-.375-.809-.715-1.637-1.023-2.474a1.183,1.183,0,0,0-.98-.877c-.593-.091-1.184-.2-1.812-.309v-2.3c.561-.094,1.108-.2,1.661-.274a1.3,1.3,0,0,0,1.173-1.04,14.429,14.429,0,0,1,.937-2.257,1.269,1.269,0,0,0-.1-1.513c-.336-.429-.638-.884-1.04-1.446m16.3,7.717a7,7,0,1,0-7.038,6.964,7.033,7.033,0,0,0,7.038-6.964" transform="translate(-11.924 -13.767)"/>
    <path id="Path_1938" data-name="Path 1938" d="M37.552,46.2a5,5,0,1,1,5.031,4.948A5.032,5.032,0,0,1,37.552,46.2" transform="translate(-19.103 -20.933)"/>
  </g>
</svg>
