<svg xmlns="http://www.w3.org/2000/svg" xmlns:xlink="http://www.w3.org/1999/xlink" width="49.005" height="52.804" viewBox="0 0 49.005 52.804">
  <defs>
    <clipPath id="clip-path">
      <rect id="Rectangle_1976" data-name="Rectangle 1976" width="49.005" height="52.804" fill="#fff"/>
    </clipPath>
  </defs>
  <g id="Group_1190" data-name="Group 1190" transform="translate(0)">
    <g id="Group_1189" data-name="Group 1189" transform="translate(0)" clip-path="url(#clip-path)">
      <path id="Path_1927" data-name="Path 1927" d="M23.174,30.28a33.272,33.272,0,0,0,7.4-15.436L49.743,34.017a33.023,33.023,0,0,0-15.362,7.478L23.174,30.28" transform="translate(-9.623 -6.164)" fill="#fff"/>
      <path id="Path_1928" data-name="Path 1928" d="M24.007,56.407c-.692.688-1.424,1.41-2.152,2.137q-2.589,2.587-5.176,5.176a4.652,4.652,0,0,1-7.056.013q-2.006-2-4.009-4.01a4.626,4.626,0,0,1-.019-6.8c2.495-2.51,5-5.01,7.46-7.474L24.007,56.407m-12.5-.165a1.759,1.759,0,0,0,.977,1.461,1.446,1.446,0,0,0,1.716-.274c.747-.71,1.472-1.443,2.189-2.182a1.532,1.532,0,0,0,.026-2.216,1.549,1.549,0,0,0-2.217.051c-.713.7-1.434,1.386-2.1,2.121a5.173,5.173,0,0,0-.587,1.038" transform="translate(-1.709 -18.874)" fill="#fff"/>
      <path id="Path_1929" data-name="Path 1929" d="M63.732,24.467a3.024,3.024,0,0,1-1.75,2.714,2.974,2.974,0,0,1-3.251-.336,4.2,4.2,0,0,1-.457-.415Q48.135,16.3,38,6.158a3.1,3.1,0,0,1,4.032-4.705c.091.077.179.161.264.246Q52.524,11.925,62.751,22.153a3.262,3.262,0,0,1,.981,2.314" transform="translate(-15.34 -0.298)" fill="#fff"/>
      <path id="Path_1930" data-name="Path 1930" d="M32.762,70.544l4.369-4.377,3.048,2.94c.772-.753,1.552-1.453,2.259-2.221a1.474,1.474,0,0,0-.123-2.093c-.295-.312-.6-.616-.909-.914s-.606-.557-.983-.9l2.446-1.856a23.7,23.7,0,0,1,1.984,1.89,4.534,4.534,0,0,1-.215,6.068c-.7.747-1.481,1.426-2.2,2.116.55.572,1,1.061,1.477,1.531a3.1,3.1,0,1,1-4.3,4.459c-2.3-2.219-4.591-4.447-6.854-6.64" transform="translate(-13.605 -25.38)" fill="#fff"/>
      <path id="Path_1931" data-name="Path 1931" d="M67.9,9.717a3.67,3.67,0,0,1,.509-.9c.98-1.036,2-2.036,3.017-3.034a1.538,1.538,0,0,1,2.219-.039,1.514,1.514,0,0,1,.005,2.178q-1.538,1.595-3.137,3.132a1.438,1.438,0,0,1-1.717.264,1.646,1.646,0,0,1-.9-1.6" transform="translate(-28.196 -2.196)" fill="#fff"/>
      <path id="Path_1932" data-name="Path 1932" d="M57.353,3.095c0-.515-.01-1.029,0-1.543A1.538,1.538,0,0,1,58.829,0a1.519,1.519,0,0,1,1.6,1.42c.049,1.112.049,2.23,0,3.342a1.521,1.521,0,0,1-1.6,1.423,1.538,1.538,0,0,1-1.475-1.549c-.012-.514,0-1.029,0-1.543" transform="translate(-23.815 0)" fill="#fff"/>
      <path id="Path_1933" data-name="Path 1933" d="M76.308,21.161c.515,0,1.029-.011,1.543,0a1.544,1.544,0,1,1-.009,3.088c-1.011.016-2.023.014-3.035,0a1.546,1.546,0,1,1,.009-3.09c.5-.009.995,0,1.492,0" transform="translate(-30.409 -8.786)" fill="#fff"/>
      <path id="Path_1934" data-name="Path 1934" d="M9.376,3.4l1.743,3.532a1.1,1.1,0,0,0,.827.6l3.9.565a1.1,1.1,0,0,1,.608,1.872l-2.821,2.749a1.1,1.1,0,0,0-.316.971l.666,3.882a1.1,1.1,0,0,1-1.592,1.157L8.9,16.9a1.1,1.1,0,0,0-1.022,0L4.4,18.733A1.1,1.1,0,0,1,2.8,17.576l.665-3.882a1.1,1.1,0,0,0-.315-.971L.333,9.974A1.1,1.1,0,0,1,.941,8.1l3.9-.565a1.1,1.1,0,0,0,.826-.6L7.408,3.4a1.1,1.1,0,0,1,1.968,0" transform="translate(0 -1.159)" fill="#fff"/>
    </g>
  </g>
</svg>
