<svg xmlns="http://www.w3.org/2000/svg" xmlns:xlink="http://www.w3.org/1999/xlink" width="54.037" height="53.832" viewBox="0 0 54.037 53.832">
  <defs>
    <clipPath id="clip-path">
      <rect id="Rectangle_1974" data-name="Rectangle 1974" width="54.037" height="53.832" fill="#fff"/>
    </clipPath>
  </defs>
  <g id="Group_1186" data-name="Group 1186" transform="translate(0)">
    <g id="Group_1185" data-name="Group 1185" transform="translate(0 0)" clip-path="url(#clip-path)">
      <path id="Path_1911" data-name="Path 1911" d="M18.805,38.109c.6.244,1.123.5,1.674.673a7.771,7.771,0,0,0,3.776-.151,28.26,28.26,0,0,1,3.605-.49,9.806,9.806,0,0,1,2.168.389,34.794,34.794,0,0,1-7.018,5.664c-1.709.936-1.442,1.778-.423,2.882a6.283,6.283,0,0,0,6.9,1.879c1.466-.442,2.877-1.065,4.33-1.56a20.8,20.8,0,0,1,2.434-.654,2.893,2.893,0,0,1,2.057.382q4.323,2.463,8.643,4.93a1.729,1.729,0,0,1,.968,1.91,1.667,1.667,0,0,1-2.494,1.043c-1.9-1.054-3.789-2.131-5.683-3.2a2.631,2.631,0,0,0-.5-.256.845.845,0,0,0-1.06.407.819.819,0,0,0,.164,1.075,2.466,2.466,0,0,0,.515.338q2.715,1.537,5.433,3.07a3.959,3.959,0,0,1,.568.361,1.653,1.653,0,0,1-1.773,2.768c-.9-.469-1.768-.984-2.65-1.48-1.732-.974-3.46-1.953-5.2-2.915-.236-.131-.575-.305-.772-.226a1.483,1.483,0,0,0-.766.7c-.173.4.084.758.464.974Q36,57.664,37.837,58.7c.9.507,1.8,1.007,2.692,1.521a1.673,1.673,0,1,1-1.621,2.907C37.5,62.342,36.1,61.544,34.7,60.748a1.831,1.831,0,0,1-.407-.293,3.53,3.53,0,0,0-3.483-1.066,1.457,1.457,0,0,1-.213.019c-1.234-2.209-2.384-2.819-4.545-2.4a3.656,3.656,0,0,0-4.1-2.535,3.591,3.591,0,0,0-6.06-2.037c-.261-1.305-.712-2.432-2.182-2.813l5.089-11.517" transform="translate(-4.961 -13.784)" fill="#fff"/>
      <path id="Path_1912" data-name="Path 1912" d="M45.783,14.237c-.11,1.661-.1,3.342-.361,4.979a8.483,8.483,0,0,1-3.175,5.221,1.181,1.181,0,0,1-.592.261,8.764,8.764,0,0,0-3.7,1.241.774.774,0,0,1-.813.019c-.773-.322-1.581-.559-2.371-.84a2.821,2.821,0,0,1-.756-.333A9.118,9.118,0,0,1,30.139,17.4c-.056-2.269-.008-4.54-.021-6.809A.533.533,0,0,1,30.5,10c2.348-.99,4.684-2,7.034-2.989A1.041,1.041,0,0,1,38.262,7c2.35.982,4.686,2,7.035,2.985a.573.573,0,0,1,.389.641c-.015,1.2-.006,2.4-.006,3.6l.1.007M36.573,17.4c-.666-.675-1.33-1.361-2.009-2.032a1.449,1.449,0,1,0-2.055,2.023q1.478,1.5,2.983,2.983a1.453,1.453,0,0,0,2.273,0q2.779-2.789,5.537-5.6a1.446,1.446,0,1,0-2.067-2c-.8.794-1.579,1.6-2.377,2.4-.742.739-1.5,1.466-2.284,2.235" transform="translate(-10.891 -2.511)" fill="#fff"/>
      <path id="Path_1913" data-name="Path 1913" d="M29.647,45.625c.176-.116.326-.22.481-.315a30.065,30.065,0,0,0,4.963-3.856c.772-.736,1.585-1.434,2.424-2.094a7.2,7.2,0,0,1,7.806-1.023c.412.179.836.329,1.25.5,1.6.67,3.206,1.09,4.917.126l4.522,11.657c-.375.163-.725.331-1.087.465a.466.466,0,0,1-.352-.05c-.9-.563-1.781-1.169-2.7-1.7-2.007-1.169-4.093-2.212-6.036-3.476a6.62,6.62,0,0,0-6.424-.5c-1.483.573-2.964,1.166-4.483,1.625a4.813,4.813,0,0,1-5.282-1.356" transform="translate(-10.723 -13.611)" fill="#fff"/>
      <path id="Path_1914" data-name="Path 1914" d="M42.081,22.432c.154-.186.27-.328.389-.467a10.886,10.886,0,0,0,2.7-7.1c.036-2.531,0-5.063.018-7.6a1.082,1.082,0,0,0-.746-1.118c-2.757-1.171-5.5-2.373-8.269-3.518A1.687,1.687,0,0,0,35,2.651c-2.733,1.132-5.442,2.321-8.168,3.47a1.176,1.176,0,0,0-.815,1.245q.039,3.487.006,6.976a11.212,11.212,0,0,0,3.154,8.112c.038.04.065.089.152.209-.811.183-1.578.374-2.353.513-.117.021-.309-.175-.414-.311A12.777,12.777,0,0,1,23.8,15.225c-.073-3.28-.028-6.563-.011-9.845a.7.7,0,0,1,.338-.523q5.589-2.431,11.2-4.811a.892.892,0,0,1,.627.026c3.705,1.575,7.4,3.169,11.108,4.746a.532.532,0,0,1,.38.583c-.014,3.225.029,6.451-.027,9.676a13.079,13.079,0,0,1-2.737,7.768.587.587,0,0,1-.838.236c-.543-.244-1.118-.417-1.759-.649" transform="translate(-8.594 0)" fill="#fff"/>
      <path id="Path_1915" data-name="Path 1915" d="M77.411,47.072a1.571,1.571,0,0,1-.94,1.51c-1.107.456-2.219.905-3.35,1.3a1.537,1.537,0,0,1-2.027-1.1q-1.694-4.342-3.372-8.689-1.442-3.716-2.884-7.433a1.649,1.649,0,0,1,1.09-2.481c.907-.354,1.812-.712,2.723-1.054a1.566,1.566,0,0,1,2.253,1q3.177,8.163,6.336,16.333a5.589,5.589,0,0,1,.173.62M69.432,32.706a1.034,1.034,0,0,0-1.06-1.058,1.05,1.05,0,0,0-1.049,1.077,1.084,1.084,0,0,0,1.041,1.044,1.06,1.06,0,0,0,1.068-1.062" transform="translate(-23.374 -10.476)" fill="#fff"/>
      <path id="Path_1916" data-name="Path 1916" d="M13.5,30.3a6.575,6.575,0,0,1-.244.756Q9.746,39.016,6.22,46.971a1.6,1.6,0,0,1-2.341.9c-.927-.4-1.854-.8-2.773-1.224a1.589,1.589,0,0,1-.89-2.346q3.511-7.963,7.035-15.92a1.6,1.6,0,0,1,2.378-.917c.945.409,1.883.832,2.825,1.249A1.69,1.69,0,0,1,13.5,30.3m-3.831-.313a1.05,1.05,0,1,0,1.051,1.062,1.025,1.025,0,0,0-1.051-1.062" transform="translate(0 -9.857)" fill="#fff"/>
      <path id="Path_1917" data-name="Path 1917" d="M21.4,72.342a7.013,7.013,0,0,1,.352-.929c.754-1.381,1.527-2.751,2.3-4.122a1.579,1.579,0,0,1,2.147-.572,1.649,1.649,0,0,1,.812,2.1q-1.12,2.235-2.314,4.431a1.706,1.706,0,0,1-1.983.8A1.887,1.887,0,0,1,21.4,72.342" transform="translate(-7.739 -24.06)" fill="#fff"/>
      <path id="Path_1918" data-name="Path 1918" d="M32.678,70.336a1.7,1.7,0,0,1,1.639,2.448q-.887,1.721-1.8,3.43a1.651,1.651,0,0,1-1.677.9,1.6,1.6,0,0,1-1.467-1.2,1.743,1.743,0,0,1,.078-1.069c.589-1.232,1.253-2.428,1.874-3.645a1.522,1.522,0,0,1,1.354-.867" transform="translate(-10.607 -25.441)" fill="#fff"/>
      <path id="Path_1919" data-name="Path 1919" d="M15.751,66.511a6.644,6.644,0,0,1,.311-.884c.487-.948.993-1.886,1.5-2.821A1.742,1.742,0,1,1,20.6,64.484c-.538.963-1.084,1.921-1.628,2.882a1.574,1.574,0,0,1-1.863.857,1.836,1.836,0,0,1-1.359-1.712" transform="translate(-5.697 -22.338)" fill="#fff"/>
      <path id="Path_1920" data-name="Path 1920" d="M38.432,80.5a1.666,1.666,0,0,1-1.518-2.435q.791-1.517,1.587-3.031a1.649,1.649,0,0,1,2.187-.777,1.691,1.691,0,0,1,.9,2.205,28.343,28.343,0,0,1-1.79,3.3c-.259.4-.843.592-1.279.878l-.091-.139" transform="translate(-13.283 -26.802)" fill="#fff"/>
      <path id="Path_1921" data-name="Path 1921" d="M46.783,77.373c.394.234.845.463,1.254.751a1.659,1.659,0,0,1-1.752,2.812c-.313-.163-.613-.349-.916-.523l1.414-3.041" transform="translate(-16.41 -27.986)" fill="#fff"/>
    </g>
  </g>
</svg>
