<svg xmlns="http://www.w3.org/2000/svg" xmlns:xlink="http://www.w3.org/1999/xlink" width="45.302" height="45.129" viewBox="0 0 45.302 45.129">
  <defs>
    <clipPath id="clip-path">
      <rect id="Rectangle_1973" data-name="Rectangle 1973" width="45.302" height="45.129" fill="none"/>
    </clipPath>
  </defs>
  <g id="Group_1184" data-name="Group 1184" transform="translate(0 0)">
    <g id="Group_1183" data-name="Group 1183" transform="translate(0 0)" clip-path="url(#clip-path)">
      <path id="Path_1904" data-name="Path 1904" d="M5.972,11.565c-.417-.4-.806-.766-1.177-1.144A1.313,1.313,0,0,1,4.8,8.426Q6.607,6.6,8.429,4.8a1.315,1.315,0,0,1,2,0c.378.371.739.76,1.136,1.171a20.281,20.281,0,0,1,7.021-2.911c0-.548,0-1.076,0-1.6A1.335,1.335,0,0,1,20,0Q22.569,0,25.134,0a1.32,1.32,0,0,1,1.409,1.371q.011,4.844,0,9.688a1.308,1.308,0,0,1-.015.149c-5.894-1.523-10.789-.071-14.107,5.141a10.972,10.972,0,0,0,.069,12.53c3.337,5.127,8.2,6.549,14.054,5.023v.421q0,4.6,0,9.2c0,1.1-.5,1.6-1.587,1.6q-2.433,0-4.866,0a1.354,1.354,0,0,1-1.511-1.495c0-.513,0-1.026,0-1.56a20.268,20.268,0,0,1-7.043-2.933c-.362.39-.71.787-1.083,1.16a1.328,1.328,0,0,1-2.059,0q-1.773-1.762-3.535-3.535a1.344,1.344,0,0,1-.007-2.123c.352-.357.711-.705,1.1-1.091a20.212,20.212,0,0,1-2.9-7.007c-.546,0-1.074,0-1.6,0A1.342,1.342,0,0,1,0,25.086Q0,22.564,0,20.043A1.34,1.34,0,0,1,1.46,18.583c.515,0,1.03,0,1.592,0a20.289,20.289,0,0,1,2.92-7.018" transform="translate(0 0)"/>
      <path id="Path_1905" data-name="Path 1905" d="M39.747,35.784c0,2.654-.005,5.308.007,7.962a.5.5,0,0,1-.355.557,9.294,9.294,0,1,1-.012-17.119.5.5,0,0,1,.368.549c-.015,2.683-.009,5.367-.009,8.05" transform="translate(-13.2 -13.181)"/>
      <path id="Path_1906" data-name="Path 1906" d="M58.226,25.57V22.932H58.7c1.827,0,3.656.008,5.483-.01a1.1,1.1,0,0,0,.629-.222c.762-.6,1.493-1.247,2.253-1.853a.637.637,0,0,0,.269-.732,3.525,3.525,0,0,1,5.047-3.865,3.377,3.377,0,0,1,1.931,3.274A3.514,3.514,0,0,1,69.566,22.7a.662.662,0,0,0-.775.144c-.918.787-1.836,1.574-2.789,2.316a1.882,1.882,0,0,1-1.031.408c-2.166.037-4.333.019-6.5.018-.07,0-.14-.01-.245-.017" transform="translate(-29.017 -7.888)"/>
      <path id="Path_1907" data-name="Path 1907" d="M58.248,57.332V54.7c.142-.007.283-.02.424-.02,2.049,0,4.1.007,6.147-.006a1.815,1.815,0,0,1,1.25.454c.931.794,1.88,1.565,2.811,2.359a.53.53,0,0,0,.626.1,3.531,3.531,0,1,1,.132,6.626,3.554,3.554,0,0,1-2.381-3.558.444.444,0,0,1,.015-.175c.329-.662-.088-1-.548-1.355-.641-.5-1.24-1.046-1.879-1.542a1.187,1.187,0,0,0-.666-.242c-1.96-.019-3.92-.011-5.932-.011" transform="translate(-29.028 -27.245)"/>
      <path id="Path_1908" data-name="Path 1908" d="M58.25,42.792V40.135h.462c2.8,0,5.6,0,8.4.007a.549.549,0,0,0,.573-.34,3.5,3.5,0,0,1,4-1.765,3.541,3.541,0,0,1-.01,6.854,3.5,3.5,0,0,1-4-1.778.549.549,0,0,0-.581-.328c-2.784.009-5.568.006-8.352.006Z" transform="translate(-29.029 -18.898)"/>
      <path id="Path_1909" data-name="Path 1909" d="M58.241,5.754V3.1c.858,0,1.707-.022,2.554.01a.7.7,0,0,0,.74-.434A3.5,3.5,0,0,1,65.5,1a3.54,3.54,0,0,1-.033,6.852,3.5,3.5,0,0,1-3.95-1.71.633.633,0,0,0-.671-.4c-.852.026-1.705.009-2.607.009" transform="translate(-29.025 -0.441)"/>
      <path id="Path_1910" data-name="Path 1910" d="M58.223,79.826V77.2c.115-.012.226-.032.337-.033.516,0,1.033-.03,1.546.006a1.575,1.575,0,0,0,1.705-.8,3.33,3.33,0,0,1,4-1.191,3.536,3.536,0,0,1-.421,6.763,3.5,3.5,0,0,1-3.871-1.71.668.668,0,0,0-.707-.415c-.849.023-1.7.008-2.589.008" transform="translate(-29.016 -37.352)"/>
    </g>
  </g>
</svg>
