<?xml version="1.0" encoding="utf-8"?>
<!-- Generator: Adobe Illustrator 16.0.0, SVG Export Plug-In . SVG Version: 6.00 Build 0)  -->
<!DOCTYPE svg PUBLIC "-//W3C//DTD SVG 1.1//EN" "http://www.w3.org/Graphics/SVG/1.1/DTD/svg11.dtd">
<svg version="1.1" id="Layer_1" xmlns="http://www.w3.org/2000/svg" xmlns:xlink="http://www.w3.org/1999/xlink" x="0px" y="0px"
	 width="612px" height="792px" viewBox="0 0 612 792" enable-background="new 0 0 612 792" xml:space="preserve">
<path fill="#FDC956" d="M305.839,90.161C137.217,90.161,0,227.378,0,396s137.217,305.839,305.839,305.839
	S611.678,564.622,611.678,396S474.461,90.161,305.839,90.161z M482.995,284.713c0,0.966,0.161,3.221-1.771,5.637
	c-8.375,11.273-17.232,21.259-28.345,29.634c-1.611,1.288-4.35,2.416-4.35,4.832c0,58.945-14.979,117.729-57.979,160.409
	c-54.758,54.274-136.733,69.092-209.529,48.96c-14.172-3.864-27.54-9.342-40.585-16.267c-4.349-2.416-8.536-4.832-12.562-7.569
	c-0.967-0.806-1.772-1.609-0.967-2.255c0.967-0.482,1.609-0.482,4.832,0c20.292,1.934,41.39-0.967,60.556-7.729
	c10.629-3.704,33.338-11.112,39.939-21.099c0.161-0.161,0.322-0.161,0.483-0.482c-2.738-0.646-5.314-0.646-7.892-1.128
	c-19.811-5.638-46.223-15.622-58.462-48.96c-0.807-1.934,0-2.898,2.094-2.576c16.267,1.288,22.063,0.322,27.861-0.807
	c-3.222-0.482-6.441-1.609-9.503-2.897c-24.963-9.503-43.162-33.821-46.383-60.073c-0.322-3.06-0.645-5.637-0.482-8.375
	c0.16-1.933,0.967-2.577,2.737-1.45c12.885,6.604,27.219,8.214,28.347,7.892c-3.223-2.416-6.12-5.153-9.021-7.892
	c-21.581-20.454-29.956-62.166-12.723-88.096c1.449-2.094,2.415-2.094,4.025-0.161c39.618,45.095,88.258,66.032,147.04,74.89
	c1.61,0.161,1.771,0,1.45-1.771c-1.45-10.308-1.771-20.454,0.805-30.761c2.577-10.629,7.73-20.615,14.495-29.15
	c6.604-8.214,14.979-14.978,24.318-19.81c9.342-4.832,19.647-7.892,30.117-8.536c10.791-0.645,21.741,0.966,31.728,5.154
	c7.569,3.06,14.334,7.247,20.775,12.723c1.289,1.127,2.416,2.416,3.704,3.865c0.806,0.805,1.771,1.127,2.898,0.805
	c14.979-3.704,29.15-9.019,42.84-16.427c0.646-0.322,1.127-0.483,1.934-0.161c0.645,0.483,0.321,1.288,0,1.933
	c-2.416,7.892-6.765,15.3-11.918,21.903c-3.383,4.187-11.918,14.816-17.717,15.783c12.24-2.093,24.643-5.153,36.076-10.307
	c1.449-0.645,1.288-0.966,1.288,0C482.995,284.391,482.995,284.552,482.995,284.713z"/>
</svg>
