<?xml version="1.0" encoding="utf-8"?>
<!-- Generator: Adobe Illustrator 16.0.0, SVG Export Plug-In . SVG Version: 6.00 Build 0)  -->
<!DOCTYPE svg PUBLIC "-//W3C//DTD SVG 1.1//EN" "http://www.w3.org/Graphics/SVG/1.1/DTD/svg11.dtd">
<svg version="1.1" id="icon-insta" xmlns="http://www.w3.org/2000/svg" xmlns:xlink="http://www.w3.org/1999/xlink" x="0px" y="0px"
	 width="24.563px" height="24.51px" viewBox="0 0 24.563 24.51" enable-background="new 0 0 24.563 24.51" xml:space="preserve">
<path id="Path_963" fill="#FDC956" d="M0,12.256C-0.014,5.474,5.472-0.037,12.256-0.051c6.782-0.014,12.292,5.473,12.307,12.255
	c0.014,6.783-5.473,12.292-12.256,12.306c-0.035,0-0.071,0-0.106,0C5.46,24.466,0.014,18.997,0,12.256z M4.861,12.256L4.861,12.256
	v2.9c0,0.471,0.052,0.94,0.155,1.399c0.316,1.507,1.493,2.684,3,3c0.664,0.129,1.341,0.182,2.017,0.155h4.4
	c0.675,0,1.35-0.052,2.017-0.155c1.549-0.324,2.752-1.546,3.051-3.1c0.104-0.65,0.155-1.307,0.155-1.965v-4.304
	c0.025-0.676-0.026-1.353-0.155-2.017c-0.167-1.013-0.746-1.911-1.6-2.482c-0.677-0.447-1.465-0.698-2.275-0.724
	c-0.621-0.052-1.188-0.052-1.81-0.052c-1.5,0-2.947,0-4.447,0.052c-0.452-0.002-0.903,0.05-1.344,0.155
	c-1.391,0.289-2.507,1.324-2.9,2.689C4.937,8.481,4.85,9.178,4.866,9.876C4.809,10.601,4.861,11.428,4.861,12.256z"/>
<path id="Path_964" fill="#FDC956" d="M6.205,12.255V9.618c-0.011-0.508,0.059-1.014,0.207-1.5C6.647,7.206,7.396,6.517,8.325,6.36
	c0.423-0.105,0.857-0.158,1.293-0.155c1.5,0,3.051-0.052,4.55,0c0.569,0,1.139,0.052,1.655,0.1c0.891,0.054,1.69,0.562,2.12,1.344
	c0.198,0.405,0.321,0.844,0.362,1.293c0.1,1.862,0.052,3.775,0.052,5.636c0.02,0.502-0.014,1.005-0.101,1.5
	c-0.152,1.12-1.048,1.993-2.172,2.12c-0.394,0.059-0.791,0.092-1.188,0.1h-4.762c-0.467,0.009-0.935-0.009-1.399-0.052
	c-0.837-0.052-1.602-0.492-2.068-1.188c-0.213-0.364-0.354-0.766-0.414-1.183c-0.086-0.945-0.119-1.896-0.1-2.844
	C6.142,12.771,6.16,12.511,6.205,12.255z M8.428,12.255c-0.015,2.099,1.676,3.811,3.774,3.825c2.099,0.014,3.812-1.677,3.825-3.775
	s-1.677-3.811-3.775-3.825c-0.017,0-0.033,0-0.05,0c-2.06-0.025-3.75,1.625-3.774,3.685C8.427,12.195,8.427,12.225,8.428,12.255z
	 M16.184,9.155c0.485,0,0.879-0.393,0.879-0.879c0-0.485-0.394-0.879-0.879-0.879c-0.488-0.026-0.904,0.348-0.93,0.836
	c-0.001,0.014-0.002,0.029-0.002,0.043c0.04,0.488,0.442,0.867,0.932,0.877V9.155z"/>
<path id="Path_965" fill="#FDC956" d="M14.737,12.255c-0.001,1.371-1.111,2.481-2.482,2.482c-1.37,0-2.481-1.111-2.481-2.482
	c0-1.371,1.111-2.482,2.481-2.482C13.626,9.773,14.737,10.884,14.737,12.255z"/>
</svg>
