<?xml version="1.0" encoding="utf-8"?>
<!-- Generator: Adobe Illustrator 23.0.1, SVG Export Plug-In . SVG Version: 6.00 Build 0)  -->
<svg version="1.1" id="Layer_1" xmlns="http://www.w3.org/2000/svg" xmlns:xlink="http://www.w3.org/1999/xlink" x="0px" y="0px"
	 viewBox="0 0 34.8 34.8" style="enable-background:new 0 0 34.8 34.8;" xml:space="preserve">
<style type="text/css">
	.st0{fill:none;stroke:#FFC959;stroke-linecap:round;stroke-linejoin:round;stroke-miterlimit:10;}
</style>
<g>
	<path class="st0" d="M13.1,21.7c0,0-5.3-3.4-5.6-3.7c-0.6-0.6-1.4-0.9-2.3-0.9H4c-1.5,0-2.8,0.9-3.2,2.3c-0.2,0.7,0.1,1.9,0.1,1.9
		l0.9,3.6"/>
	<line class="st0" x1="2.4" y1="26.8" x2="3.1" y2="29.7"/>
	<line class="st0" x1="2.8" y1="21.3" x2="4.4" y2="27.6"/>
	<circle class="st0" cx="4.5" cy="14.8" r="2.3"/>
	<line class="st0" x1="8.9" y1="27.6" x2="4.4" y2="27.6"/>
	<line class="st0" x1="7.5" y1="29.7" x2="3.1" y2="29.7"/>
	<line class="st0" x1="7.5" y1="33.7" x2="3.1" y2="33.7"/>
	<path class="st0" d="M7.5,33.7"/>
	<line class="st0" x1="7" y1="21.3" x2="8.6" y2="27.6"/>
	<polyline class="st0" points="14.7,33.7 13.1,27.6 8.9,27.6 10.5,33.7 	"/>
	<line class="st0" x1="9.9" y1="23.4" x2="24.7" y2="23.4"/>
	<line class="st0" x1="17.3" y1="23.4" x2="17.3" y2="33.7"/>
	<line class="st0" x1="5.3" y1="33.7" x2="5.3" y2="29.7"/>
	<path class="st0" d="M21.7,21.7c0,0,5.4-3.5,5.8-3.8c0.6-0.5,1.3-0.8,2.2-0.8h1.2c1.5,0,2.8,0.9,3.2,2.3c0.2,0.7-0.1,1.9-0.1,1.9
		l-0.9,3.6"/>
	<line class="st0" x1="32.5" y1="26.8" x2="31.8" y2="29.7"/>
	<line class="st0" x1="32" y1="21.3" x2="30.5" y2="27.6"/>
	<circle class="st0" cx="30.3" cy="14.8" r="2.3"/>
	<line class="st0" x1="26" y1="27.6" x2="30.5" y2="27.6"/>
	<line class="st0" x1="27.4" y1="29.7" x2="31.8" y2="29.7"/>
	<line class="st0" x1="27.4" y1="33.7" x2="31.8" y2="33.7"/>
	<path class="st0" d="M27.4,33.7"/>
	<line class="st0" x1="27.8" y1="21.3" x2="26.3" y2="27.6"/>
	<polyline class="st0" points="20.2,33.7 21.7,27.6 25.9,27.6 24.4,33.7 	"/>
	<line class="st0" x1="29.6" y1="33.7" x2="29.6" y2="29.7"/>
</g>
</svg>
