<?xml version="1.0" encoding="utf-8"?>
<!-- Generator: Adobe Illustrator 23.0.1, SVG Export Plug-In . SVG Version: 6.00 Build 0)  -->
<svg version="1.1" id="Layer_1" xmlns="http://www.w3.org/2000/svg" xmlns:xlink="http://www.w3.org/1999/xlink" x="0px" y="0px"
	 viewBox="0 0 34.8 34.8" style="enable-background:new 0 0 34.8 34.8;" xml:space="preserve">
<style type="text/css">
	.st0{fill:none;stroke:#FFC956;stroke-linecap:round;stroke-linejoin:round;stroke-miterlimit:10;}
</style>
<g>
	<g>
		<path class="st0" d="M15.1,17.3l-4.9-8.7c0,0,1.2-0.3,1.6-0.4c1-0.3,1.8,0.2,2.7,0.9c0.8,0.6,8.2,6.2,8.2,6.2s4-1.1,6.2-1.7
			c2.2-0.6,4.7-0.3,5.1,1s-1.2,2.9-3.8,3.6C27.7,19,11.1,23.5,10,23.8S6.1,25.3,3.7,22s-2.5-3.5-2.5-3.5s-0.5-0.7,0-1
			c0.5-0.4,1.2,0,1.4,0.1c0.3,0.2,2.5,1.6,2.9,1.8c0.4,0.2,1.2,0.4,1.9,0.2C8.2,19.3,15.1,17.3,15.1,17.3z"/>
		<path class="st0" d="M14.8,24.5l-1.4,5.7c0,0,1.5-0.5,2-0.6c1.3-0.4,2-1.2,2.7-2.1c0.7-0.9,3.7-4.7,3.7-4.7"/>
		<line class="st0" x1="10.8" y1="20.3" x2="10.9" y2="20.7"/>
		<line class="st0" x1="13.4" y1="19.6" x2="13.5" y2="20"/>
		<line class="st0" x1="16.1" y1="18.8" x2="16.2" y2="19.2"/>
		<line class="st0" x1="18.7" y1="18.1" x2="18.8" y2="18.5"/>
		<line class="st0" x1="21.4" y1="17.4" x2="21.5" y2="17.8"/>
		<line class="st0" x1="24" y1="16.6" x2="24.1" y2="17"/>
		<line class="st0" x1="26.7" y1="15.9" x2="26.8" y2="16.3"/>
	</g>
	<line class="st0" x1="1" y1="34" x2="21.4" y2="34"/>
</g>
</svg>
