<?xml version="1.0" encoding="utf-8"?>
<!-- Generator: Adobe Illustrator 23.0.1, SVG Export Plug-In . SVG Version: 6.00 Build 0)  -->
<svg version="1.1" id="Layer_1" xmlns="http://www.w3.org/2000/svg" xmlns:xlink="http://www.w3.org/1999/xlink" x="0px" y="0px"
	 viewBox="0 0 21.8 21.8" style="enable-background:new 0 0 21.8 21.8;" xml:space="preserve">
<style type="text/css">
	.st0{fill:#FFC959;}
</style>
<g>
	<path class="st0" d="M19.6,3.3H2.2c-1.1,0-2,0.9-2,2v11c0,1.1,0.9,2,2,2h17.4c1.1,0,2-0.9,2-2v-11C21.6,4.2,20.7,3.3,19.6,3.3z
		 M2.2,4.3h17.4c0.6,0,1,0.5,1,1v2.1l-9.7,6.3L1.2,7.5V5.3C1.2,4.8,1.6,4.3,2.2,4.3z M19.6,17.3H2.2c-0.6,0-1-0.5-1-1V8.7l9.7,6.3
		l9.7-6.3v7.6C20.6,16.9,20.1,17.3,19.6,17.3z"/>
	<path class="st0" d="M19.6,3.3H2.2c-1.1,0-2,0.9-2,2v11c0,1.1,0.9,2,2,2h17.4c1.1,0,2-0.9,2-2v-11C21.6,4.2,20.7,3.3,19.6,3.3
		L19.6,3.3z M10.9,13.7L1.2,7.5V5.3c0-0.6,0.5-1,1-1h17.4c0.6,0,1,0.5,1,1v2.1L10.9,13.7L10.9,13.7z M10.9,14.9l9.7-6.3v7.6
		c0,0.6-0.5,1-1,1H2.2c-0.6,0-1-0.5-1-1V8.7L10.9,14.9L10.9,14.9z"/>
</g>
</svg>
