<?xml version="1.0" encoding="utf-8"?>
<!-- Generator: Adobe Illustrator 23.0.4, SVG Export Plug-In . SVG Version: 6.00 Build 0)  -->
<svg version="1.1" id="Layer_1" xmlns="http://www.w3.org/2000/svg" xmlns:xlink="http://www.w3.org/1999/xlink" x="0px" y="0px"
	 viewBox="0 0 218 143.4" style="enable-background:new 0 0 218 143.4;" xml:space="preserve">
<style type="text/css">
	.st0{enable-background:new    ;}
	.st1{fill:#FF0000;}
	.st2{fill:none;}
</style>
<g>
	<g class="st0">
		<path class="st1" d="M27.9,69h10.9v7.3H27.9v14.9h13.8v7.3H19.9V47.6h21.8v7.3H27.9V69z"/>
		<path class="st1" d="M73.2,47.6l-8.3,24.7l8.9,26.1h-8.4l-6.5-20.1l-6.6,20.1h-7.5l8.9-26.1l-8.3-24.7h8.3l6,18.7l6.2-18.7H73.2z"
			/>
		<path class="st1" d="M101.4,60.1v6.6c0,8.1-3.9,12.5-11.9,12.5h-3.8v19.1h-8V47.6h11.7C97.5,47.6,101.4,52,101.4,60.1z M85.8,54.8
			V72h3.8c2.5,0,3.9-1.2,3.9-4.8v-7.6c0-3.6-1.4-4.8-3.9-4.8H85.8z"/>
		<path class="st1" d="M105.5,47.6h8v50.8h-8V47.6z"/>
		<path class="st1" d="M135.9,98.3c-0.4-1.3-0.7-2.1-0.7-6.2v-8c0-4.7-1.6-6.5-5.2-6.5h-2.8v20.7h-8V47.6h12
			c8.3,0,11.8,3.8,11.8,11.7v4c0,5.2-1.7,8.6-5.2,10.3c4,1.7,5.3,5.5,5.3,10.8v7.8c0,2.5,0.1,4.3,0.9,6.2H135.9z M127.2,54.8v15.6
			h3.1c3,0,4.8-1.3,4.8-5.4v-5c0-3.6-1.2-5.2-4.1-5.2H127.2z"/>
		<path class="st1" d="M156.4,69h10.9v7.3h-10.9v14.9h13.8v7.3h-21.8V47.6h21.8v7.3h-13.8V69z"/>
		<path class="st1" d="M175.1,47.6h12.6c8,0,11.9,4.4,11.9,12.5v25.7c0,8.1-3.9,12.5-11.9,12.5h-12.6V47.6z M183.1,54.8v36.3h4.5
			c2.5,0,4.1-1.3,4.1-4.9V59.7c0-3.6-1.5-4.9-4.1-4.9H183.1z"/>
	</g>
	<path class="st1" d="M14,31.6v6.5h-2c-2.5,0-3.7,0.9-3.7,4.6v60.7c0,3.6,1.2,4.6,3.7,4.6h2v6.5h-2.5c-8,0-11.2-3-11.2-11.1V42.7
		c0-8.1,3.2-11.1,11.2-11.1H14z"/>
	<path class="st1" d="M206.5,31.6c8,0,11.2,3,11.2,11.1v60.7c0,8.1-3.2,11.1-11.2,11.1H204V108h2c2.5,0,3.7-0.9,3.7-4.6V42.7
		c0-3.6-1.2-4.6-3.7-4.6h-2v-6.5C204,31.6,206.5,31.6,206.5,31.6z"/>
</g>
<rect y="0" class="st2" width="218" height="143.4"/>
</svg>
