<?xml version="1.0" encoding="utf-8"?>
<!-- Generator: Adobe Illustrator 23.0.1, SVG Export Plug-In . SVG Version: 6.00 Build 0)  -->
<svg version="1.1" id="Layer_1" xmlns="http://www.w3.org/2000/svg" xmlns:xlink="http://www.w3.org/1999/xlink" x="0px" y="0px"
	 viewBox="0 0 21.8 21.8" style="enable-background:new 0 0 21.8 21.8;" xml:space="preserve">
<style type="text/css">
	.st0{fill:#32383A;}
</style>
<g>
	<path class="st0" d="M6.5,4.8C6.3,5,6.3,5.3,6.5,5.5s0.5,0.2,0.7,0l3.2-3.2v10.1c0,0.3,0.2,0.5,0.5,0.5s0.5-0.2,0.5-0.5V2.2
		l3.2,3.2c0.1,0.1,0.2,0.1,0.4,0.1s0.3,0,0.4-0.1c0.2-0.2,0.2-0.5,0-0.7l-4.1-4.1c-0.1-0.1-0.2-0.1-0.4-0.1s-0.3,0.1-0.4,0.1
		L6.5,4.8z"/>
	<path class="st0" d="M20.8,0.5H15c-0.3,0-0.5,0.2-0.5,0.5s0.2,0.5,0.5,0.5h5.2v18.7H1.5V1.5h5.2C7,1.5,7.2,1.3,7.2,1S7,0.5,6.7,0.5
		H1C0.8,0.5,0.5,0.8,0.5,1v19.7c0,0.3,0.2,0.5,0.5,0.5h19.7c0.3,0,0.5-0.2,0.5-0.5V1C21.3,0.8,21,0.5,20.8,0.5z"/>
</g>
</svg>
