<?xml version="1.0" encoding="utf-8"?>
<!-- Generator: Adobe Illustrator 23.0.1, SVG Export Plug-In . SVG Version: 6.00 Build 0)  -->
<svg version="1.1" id="Layer_1" xmlns="http://www.w3.org/2000/svg" xmlns:xlink="http://www.w3.org/1999/xlink" x="0px" y="0px"
	 viewBox="0 0 21.8 21.8" style="enable-background:new 0 0 21.8 21.8;" xml:space="preserve">
<style type="text/css">
	.st0{fill:#FFC959;}
</style>
<g>
	<path class="st0" d="M15,0.5c-0.3,0-0.5,0.2-0.5,0.5s0.2,0.5,0.5,0.5h5.2v18.7H1.5V1.5h5.2C7,1.5,7.2,1.3,7.2,1S7,0.5,6.7,0.5H1.1
		c-0.3,0-0.6,0.2-0.6,0.6v19.6c0,0.3,0.2,0.6,0.6,0.6h19.6c0.3,0,0.6-0.2,0.6-0.6V1.1c0-0.3-0.2-0.6-0.6-0.6H15z"/>
	<path class="st0" d="M7.2,10.4c-0.3,0-0.5,0.2-0.5,0.5s0.2,0.5,0.5,0.5h3.2v3.2c0,0.3,0.2,0.5,0.5,0.5s0.5-0.2,0.5-0.5v-3.2h3.2
		c0.3,0,0.5-0.2,0.5-0.5s-0.2-0.5-0.5-0.5h-3.2V7.2c0-0.3-0.2-0.5-0.5-0.5s-0.5,0.2-0.5,0.5v3.2H7.2z"/>
</g>
</svg>
