<?xml version="1.0" encoding="utf-8"?>
<!-- Generator: Adobe Illustrator 23.0.3, SVG Export Plug-In . SVG Version: 6.00 Build 0)  -->
<svg version="1.1" id="Layer_1" xmlns="http://www.w3.org/2000/svg" xmlns:xlink="http://www.w3.org/1999/xlink" x="0px" y="0px"
	 viewBox="0 0 21.4 19.7" style="enable-background:new 0 0 21.4 19.7;" xml:space="preserve">
<style type="text/css">
	.st0{fill:#FFC959;}
</style>
<g>
	<path class="st0" d="M0.5,4.4c0-0.8,0.7-1.5,1.5-1.5h17.4c0.8,0,1.5,0.7,1.5,1.5c0-0.8-0.7-1.5-1.5-1.5H2C1.2,2.9,0.5,3.5,0.5,4.4
		v11V4.4z"/>
	<path class="st0" d="M19.4,2.4H2c-1.1,0-2,0.9-2,2v11c0,1.1,0.9,2,2,2h17.4c1.1,0,2-0.9,2-2v-11C21.4,3.3,20.5,2.4,19.4,2.4
		L19.4,2.4z M10.7,12.8L1,6.5V4.4c0-0.6,0.5-1,1-1h17.4c0.6,0,1,0.5,1,1v2.1L10.7,12.8L10.7,12.8z M10.7,14l9.7-6.3v7.6
		c0,0.6-0.5,1-1,1H2c-0.6,0-1-0.5-1-1V7.7L10.7,14L10.7,14z"/>
</g>
</svg>
