<?xml version="1.0" encoding="utf-8"?>
<!-- Generator: Adobe Illustrator 23.0.3, SVG Export Plug-In . SVG Version: 6.00 Build 0)  -->
<svg version="1.1" id="Layer_1" xmlns="http://www.w3.org/2000/svg" xmlns:xlink="http://www.w3.org/1999/xlink" x="0px" y="0px"
	 viewBox="0 0 21.4 19.7" style="enable-background:new 0 0 21.4 19.7;" xml:space="preserve">
<style type="text/css">
	.st0{fill:#FF0000;}
</style>
<g>
	<g>
		<path class="st0" d="M15.9,12h-1.2v6c-2.1,0-7.1,0-9.2,0V1.7h9.2c0,0.5,0,6,0,6h1.1c0,0,0-5.8,0-6.4c0-0.3-0.1-0.5-0.3-0.6
			c-0.1-0.1-0.3-0.1-0.6-0.1H5.4c-0.1,0-0.2,0-0.3,0C4.7,0.7,4.4,1.1,4.4,1.5c0,3.8,0,12.8,0,16.6c0,0.5,0.4,1,0.9,1
			c2.4,0,7.4,0,9.8,0c0.5,0,0.8-0.3,0.8-0.8c0-0.5,0-5.6,0-6.1V12z M1.9,2.9h1.2V1.7c-0.4,0-1.4,0-1.8,0C1.2,1.7,1,1.8,0.9,1.9
			C0.8,2,0.7,2.2,0.7,2.5v14.9c0,0.1,0,0.2,0,0.2C0.9,17.9,1.2,18,1.5,18c0.3,0,1.1,0,1.4,0h0.2v-1.2H1.9V2.9z M20.4,9.3
			c-0.7-0.7-1.4-1.5-2.2-2.2C18.2,7,18.2,7,18.1,6.9c-0.3-0.3-0.8-0.1-0.9,0.2c-0.1,0.3,0,0.5,0.2,0.7c0.4,0.4,0.8,0.8,1.2,1.2
			c0,0,0.1,0.1,0.1,0.1h-0.2c-1.3,0-3.9,0-5.1,0c-0.4,0-0.8,0-1.1,0c-0.2,0-0.4,0.1-0.5,0.4c-0.1,0.2,0,0.4,0.1,0.6
			c0.1,0.2,0.3,0.2,0.5,0.2c1.6,0,4.5,0,6.1,0h0.2c-0.1,0.1-0.1,0.1-0.1,0.1c-0.4,0.4-0.8,0.8-1.2,1.2c0,0-0.1,0.1-0.1,0.2
			c-0.2,0.3-0.1,0.8,0.2,0.9c0.3,0.1,0.5,0,0.7-0.2c0.7-0.8,1.5-1.5,2.2-2.3C20.8,10,20.8,9.7,20.4,9.3z"/>
	</g>
</g>
</svg>
