<?xml version="1.0" encoding="utf-8"?>
<!-- Generator: Adobe Illustrator 23.0.1, SVG Export Plug-In . SVG Version: 6.00 Build 0)  -->
<svg version="1.1" id="Layer_1" xmlns="http://www.w3.org/2000/svg" xmlns:xlink="http://www.w3.org/1999/xlink" x="0px" y="0px"
	 viewBox="0 0 34.8 34.8" style="enable-background:new 0 0 34.8 34.8;" xml:space="preserve">
<style type="text/css">
	.st0{fill:none;stroke:#FFC956;stroke-linecap:round;stroke-linejoin:round;stroke-miterlimit:10;}
</style>
<g>
	<path class="st0" d="M4.8,30.9H30c2.1,0,3.9-1.7,3.9-3.9v-0.5h-33V27C0.9,29.1,2.6,30.9,4.8,30.9z"/>
	<rect x="1.9" y="21.2" class="st0" width="3.3" height="5.3"/>
	<rect x="0.9" y="18.7" class="st0" width="4.4" height="2.5"/>
	<line class="st0" x1="33.5" y1="28.7" x2="1.3" y2="28.7"/>
	<g>
		<path class="st0" d="M33.5,33.4c0,0-0.6-0.7-1.3,0s-1.3,0-1.3,0s-0.7-0.7-1.3,0c-0.7,0.7-1.3,0-1.3,0s-0.7-0.7-1.3,0
			c-0.7,0.7-1.3,0-1.3,0s-0.7-0.6-1.3,0c-0.6,0.6-1.3,0-1.3,0s-0.7-0.6-1.3,0c-0.6,0.6-1.3,0-1.3,0s-0.6-0.7-1.3,0
			c-0.7,0.7-1.3,0-1.3,0s-0.7-0.6-1.3,0"/>
		<path class="st0" d="M16.6,33.5c-0.7,0.7-1.3,0-1.3,0s-0.7-0.7-1.3,0c-0.7,0.7-1.3,0-1.3,0s-0.7-0.7-1.3,0c-0.7,0.7-1.3,0-1.3,0
			s-0.7-0.6-1.3,0s-1.3,0-1.3,0s-0.7-0.6-1.3,0s-1.3,0-1.3,0s-0.6-0.7-1.3,0s-1.3,0-1.3,0S1.7,33,1,33.6"/>
	</g>
	<rect x="26.5" y="21.7" class="st0" width="4.4" height="2.5"/>
	<rect x="22.1" y="21.7" class="st0" width="4.4" height="2.5"/>
	<rect x="17.7" y="21.7" class="st0" width="4.4" height="2.5"/>
	<rect x="13.3" y="21.7" class="st0" width="4.4" height="2.5"/>
	<rect x="8.9" y="21.7" class="st0" width="4.4" height="2.5"/>
	<rect x="26.5" y="19.2" class="st0" width="4.4" height="2.5"/>
	<rect x="22.1" y="19.2" class="st0" width="4.4" height="2.5"/>
	<rect x="17.7" y="19.2" class="st0" width="4.4" height="2.5"/>
	<rect x="13.3" y="19.2" class="st0" width="4.4" height="2.5"/>
	<rect x="8.9" y="19.2" class="st0" width="4.4" height="2.5"/>
	<rect x="26.5" y="16.8" class="st0" width="4.4" height="2.5"/>
	<rect x="22.1" y="16.8" class="st0" width="4.4" height="2.5"/>
	<rect x="17.7" y="16.8" class="st0" width="4.4" height="2.5"/>
	<rect x="13.3" y="16.8" class="st0" width="4.4" height="2.5"/>
	<rect x="8.9" y="16.8" class="st0" width="4.4" height="2.5"/>
</g>
</svg>
