<?xml version="1.0" encoding="utf-8"?>
<!-- Generator: Adobe Illustrator 23.0.1, SVG Export Plug-In . SVG Version: 6.00 Build 0)  -->
<svg version="1.1" id="Layer_1" xmlns="http://www.w3.org/2000/svg" xmlns:xlink="http://www.w3.org/1999/xlink" x="0px" y="0px"
	 viewBox="0 0 34.8 34.8" style="enable-background:new 0 0 34.8 34.8;" xml:space="preserve">
<style type="text/css">
	.st0{fill:none;stroke:#FFC959;stroke-linecap:round;stroke-miterlimit:10;}
	.st1{fill:none;stroke:#FFC959;stroke-linecap:round;stroke-linejoin:round;stroke-miterlimit:10;}
</style>
<g>
	<line class="st0" x1="27.9" y1="8.6" x2="24.6" y2="11.9"/>
	<line class="st0" x1="33.5" y1="15.6" x2="30.9" y2="18.3"/>
	<path class="st0" d="M27.4,21.8l-1.2,1.1c0,0,0.6,1.2-0.5,2"/>
	<path class="st0" d="M7,21.8l1.2,1.1c0,0-0.4,1.2,0.7,2"/>
	<path class="st1" d="M21.2,15.6c0,0-1,1.1-1.6,1.5c-0.5,0.5-1.1,0.8-1.6,0.4c-0.4-0.4-1.2-0.8-2.4-0.1s-3.4,2.5-4,3.1
		s-0.5,1.2,0,1.8c0.5,0.5,1.4,0.6,2,0.2c0.7-0.5,1.2-0.9,4.3-2.9c0,0,6.9,4.5,8.2,5.6c1.4,1.1,1.6,2.2,0.8,3.1
		c-0.8,0.9-1.8,0.9-2.3,0.4c0,0,0.6,0.6-0.1,1.4s-1.5,1.1-2.2,0.4c0,0,0.3,0.6-0.4,1.3c-0.7,0.7-1.4,0.8-2.1,0.2
		c0,0,0.4,0.5-0.3,1.2s-1.3,0.6-1.9,0.1c-0.3-0.2-0.7-0.6-0.7-0.6"/>
	<path class="st1" d="M17,32.6c0,0-0.2,0.3-0.7,0.8s-1,0.6-1.6-0.1c-0.6-0.7-0.2-1.2-0.2-1.2c-0.6,0.6-1.2,0.5-1.8-0.2
		s-0.3-1.4-0.3-1.4c-0.6,0.7-1.3,0.4-1.9-0.4c-0.6-0.9-0.1-1.5-0.1-1.5c-0.5,0.5-1.3,0.5-2-0.5S7.9,26.2,9,25c0.2-0.2,1.4-1.2,1.8-1
		c0.4,0.2,1.3,0.4,4.1,3.8S17,32.6,17,32.6z"/>
	<rect x="23.6" y="11.6" transform="matrix(0.7071 -0.7071 0.7071 0.7071 -4.367 23.3808)" class="st1" width="4.9" height="10.7"/>
	<circle class="st1" cx="27.9" cy="19.7" r="0.3"/>
	<line class="st0" x1="6.5" y1="8.5" x2="9.9" y2="11.8"/>
	<line class="st0" x1="1.3" y1="15.9" x2="3.6" y2="18.2"/>
	<rect x="3" y="14.4" transform="matrix(0.7071 -0.7071 0.7071 0.7071 -9.4912 10.8771)" class="st1" width="10.7" height="4.9"/>
	<circle class="st1" cx="6.5" cy="19.6" r="0.3"/>
	<line class="st1" x1="13.1" y1="15.6" x2="15.1" y2="17.6"/>
</g>
</svg>
