<?xml version="1.0" encoding="utf-8"?>
<!-- Generator: Adobe Illustrator 23.0.1, SVG Export Plug-In . SVG Version: 6.00 Build 0)  -->
<svg version="1.1" id="Layer_1" xmlns="http://www.w3.org/2000/svg" xmlns:xlink="http://www.w3.org/1999/xlink" x="0px" y="0px"
	 viewBox="0 0 34.8 34.8" style="enable-background:new 0 0 34.8 34.8;" xml:space="preserve">
<style type="text/css">
	.st0{fill:none;stroke:#FFC959;stroke-linecap:round;stroke-linejoin:round;stroke-miterlimit:10;}
</style>
<g>
	<g>
		<path class="st0" d="M20.8,26.4h-7c-2.4,0-4.3,1.9-4.3,4.3v3.1h15.6v-3.1C25.2,28.3,23.2,26.4,20.8,26.4z"/>
		<path class="st0" d="M17.4,17.4C17.4,17.4,17.4,17.4,17.4,17.4c-2.5,0-4.5,2-4.5,4.5c0,1.8,1.1,3.4,2.7,4.1
			c0.6,0.2,1.2,0.4,1.8,0.4c2.5,0,4.5-2,4.5-4.5C21.9,19.4,19.9,17.4,17.4,17.4z"/>
		<path class="st0" d="M24.1,21.9c0-3.7-3-6.7-6.7-6.7c0,0-0.1,0-0.1,0c-3.7,0-6.6,3-6.6,6.7"/>
		<path class="st0" d="M10.2,19.7c-0.2,0.7-0.3,1.4-0.3,2.2"/>
		<path class="st0" d="M25,21.9c0-0.8-0.1-1.5-0.3-2.2"/>
		<path class="st0" d="M16.7,23.4c2,0,3.9-0.9,5.1-2.4"/>
		<path class="st0" d="M16.7,24.3c0.8,0,1.5-0.1,2.2-0.3"/>
	</g>
	<path class="st0" d="M27.1,32h6.5v0c0-2.2-1.8-4-4-4h-0.4c-0.9,0-1.8,0.3-2.5,0.8"/>
	<path class="st0" d="M7.7,32H1.2v0c0-2.2,1.8-4,4-4h0.4c0.9,0,1.8,0.3,2.5,0.8"/>
	<path class="st0" d="M29.5,23.2C29.4,23.2,29.4,23.2,29.5,23.2c-1.4,0-2.4,1.1-2.4,2.4c0,1,0.6,1.8,1.4,2.2c0.3,0.1,0.6,0.2,1,0.2
		c1.3,0,2.4-1.1,2.4-2.4C31.9,24.3,30.8,23.2,29.5,23.2z"/>
	<path class="st0" d="M33.6,25.6c0-2.3-1.9-4.2-4.2-4.2c0,0,0,0,0,0c-2.3,0-4.1,1.9-4.1,4.2"/>
	<path class="st0" d="M25,24.2c-0.1,0.4-0.2,0.9-0.2,1.4"/>
	<path class="st0" d="M34.1,25.6c0-0.5-0.1-0.9-0.2-1.4"/>
	<path class="st0" d="M29,26.1c1.1,0,2.1-0.5,2.8-1.3"/>
	<path class="st0" d="M29,26.5c0.5,0,0.8-0.1,1.2-0.2"/>
	<path class="st0" d="M5.3,23.2C5.3,23.2,5.3,23.2,5.3,23.2c-1.4,0-2.4,1.1-2.4,2.4c0,1,0.6,1.8,1.4,2.2C4.7,28,5,28,5.3,28
		c1.3,0,2.4-1.1,2.4-2.4C7.8,24.3,6.7,23.2,5.3,23.2z"/>
	<path class="st0" d="M9.5,25.6c0-2.3-1.9-4.2-4.2-4.2c0,0,0,0,0,0c-2.3,0-4.1,1.9-4.1,4.2"/>
	<path class="st0" d="M0.9,24.2c-0.1,0.4-0.2,0.9-0.2,1.4"/>
	<path class="st0" d="M10,25.6c0-0.5-0.1-0.9-0.2-1.4"/>
	<path class="st0" d="M4.9,26.1c1.1,0,2.1-0.5,2.8-1.3"/>
	<path class="st0" d="M4.9,26.5c0.5,0,0.8-0.1,1.2-0.2"/>
</g>
</svg>
