<?xml version="1.0" encoding="utf-8"?>
<!-- Generator: Adobe Illustrator 23.0.1, SVG Export Plug-In . SVG Version: 6.00 Build 0)  -->
<svg version="1.1" id="Layer_1" xmlns="http://www.w3.org/2000/svg" xmlns:xlink="http://www.w3.org/1999/xlink" x="0px" y="0px"
	 viewBox="0 0 34.8 34.8" style="enable-background:new 0 0 34.8 34.8;" xml:space="preserve">
<style type="text/css">
	.st0{fill:none;stroke:#FFC959;stroke-linecap:round;stroke-linejoin:round;stroke-miterlimit:10;}
</style>
<rect x="1.1" y="31.4" class="st0" width="8.7" height="2.3"/>
<rect x="1.1" y="29.2" class="st0" width="6.5" height="2.1"/>
<rect x="2.6" y="17.2" class="st0" width="3.3" height="12"/>
<path class="st0" d="M4.8,17.2H2.6v-7.1C2.6,9.5,3.1,9,3.7,9l0,0c0.6,0,1.1,0.5,1.1,1.1L4.8,17.2z"/>
<rect x="0.5" y="11.4" class="st0" width="2.1" height="2.1"/>
<rect x="4.8" y="11.4" class="st0" width="16" height="2.1"/>
<polygon class="st0" points="15.7,16.7 11.3,16.7 15.1,13.5 19.6,13.5 "/>
<line class="st0" x1="14.7" y1="20.4" x2="14.7" y2="17.2"/>
<rect x="10.8" y="20.4" class="st0" width="7.8" height="4.4"/>
<line class="st0" x1="12.7" y1="21.8" x2="12.7" y2="23.3"/>
<line class="st0" x1="14.7" y1="21.8" x2="14.7" y2="23.3"/>
<line class="st0" x1="16.7" y1="21.8" x2="16.7" y2="23.3"/>
<rect x="25.2" y="31.3" class="st0" width="8.7" height="2.3"/>
<rect x="27.4" y="29.3" class="st0" width="6.5" height="2"/>
<rect x="29" y="17.1" class="st0" width="3.4" height="12.2"/>
<path class="st0" d="M30.2,17.1h2.2v-6.8c0-0.6-0.5-1.1-1.1-1.1l0,0c-0.6,0-1.1,0.5-1.1,1.1V17.1z"/>
<rect x="32.4" y="11.3" class="st0" width="1.9" height="2.1"/>
<polyline class="st0" points="22.7,13.4 30.2,13.4 30.2,11.3 22.7,11.3 "/>
<rect x="11.3" y="13.5" class="st0" width="4.4" height="3.2"/>
<line class="st0" x1="14.7" y1="20.4" x2="14.7" y2="17.2"/>
<rect x="10.8" y="20.4" class="st0" width="7.8" height="4.4"/>
<line class="st0" x1="16.7" y1="21.8" x2="16.7" y2="23.3"/>
<line class="st0" x1="14.7" y1="21.8" x2="14.7" y2="23.3"/>
<line class="st0" x1="12.7" y1="21.8" x2="12.7" y2="23.3"/>
<path class="st0" d="M21.2,31.4h-6.6c-2.1,0-3.8-1.7-3.8-3.8v-0.5H25v0.5C25,29.7,23.3,31.4,21.2,31.4z"/>
<line class="st0" x1="11.3" y1="29.3" x2="24.6" y2="29.3"/>
<rect x="20.7" y="23.9" class="st0" width="3.2" height="3.2"/>
<rect x="20.7" y="22.1" class="st0" width="4.3" height="1.8"/>
<path class="st0" d="M9.8,33.6c0,0,0.6-0.6,1.2,0c0.6,0.6,1.2,0,1.2,0s0.6-0.6,1.2,0c0.6,0.6,1.2,0,1.2,0s0.6-0.6,1.2,0
	c0.6,0.6,1.2,0,1.2,0s0.6-0.6,1.2,0s1.2,0,1.2,0s0.6-0.6,1.2,0s1.2,0,1.2,0s0.6-0.6,1.2,0s1.2,0,1.2,0s0.6-0.6,1.2,0"/>
</svg>
