<?xml version="1.0" encoding="utf-8"?>
<!-- Generator: Adobe Illustrator 23.0.1, SVG Export Plug-In . SVG Version: 6.00 Build 0)  -->
<svg version="1.1" id="Layer_1" xmlns="http://www.w3.org/2000/svg" xmlns:xlink="http://www.w3.org/1999/xlink" x="0px" y="0px"
	 viewBox="0 0 34.8 34.8" style="enable-background:new 0 0 34.8 34.8;" xml:space="preserve">
<style type="text/css">
	.st0{fill:none;stroke:#FFC959;stroke-linecap:round;stroke-linejoin:round;stroke-miterlimit:10;}
</style>
<rect x="9.8" y="21.6" class="st0" width="15.2" height="11.4"/>
<rect x="11.7" y="25.4" class="st0" width="3.7" height="7.6"/>
<rect x="11.7" y="30.5" class="st0" width="11.4" height="2.5"/>
<rect x="11.7" y="27.9" class="st0" width="7.5" height="5.1"/>
<polyline class="st0" points="26.9,21.6 26.9,33 7.9,33 7.9,21.6 "/>
<polyline class="st0" points="7.9,21.6 6.9,21.6 6.9,19.6 17.4,16.2 27.9,19.6 27.9,21.6 26.9,21.6 "/>
<g>
	<polyline class="st0" points="28.8,15.2 26.6,17.3 24.4,15.1 26.6,13 	"/>
	<polyline class="st0" points="26.6,13 25.2,11.5 29.6,12.1 30.2,16.6 28.8,15.2 	"/>
</g>
<g>
	<polyline class="st0" points="3.3,26.1 6.3,26.1 6.3,29.8 3.3,29.8 	"/>
	<polyline class="st0" points="3.3,29.8 3.3,32.1 0.5,28 3.3,23.8 3.3,26.1 	"/>
</g>
<g>
	<polyline class="st0" points="4.9,15.3 7.1,17.5 9.6,14.9 7.5,12.8 	"/>
	<polyline class="st0" points="7.5,12.8 9.1,11.2 4.2,12.1 3.3,17 4.9,15.3 	"/>
</g>
<g>
	<polyline class="st0" points="31.6,26.1 28.5,26.1 28.5,29.8 31.6,29.8 	"/>
	<polyline class="st0" points="31.6,29.8 31.6,32.1 34.3,28 31.6,23.8 31.6,26.1 	"/>
</g>
<g>
	<polyline class="st0" points="81.7,101.6 81.7,103.9 56.8,103.9 56.8,78.2 63.8,71.3 81.7,71.3 81.7,83.6 	"/>
	<polyline class="st0" points="56.8,78.2 63.8,78.2 63.8,71.3 	"/>
	<line class="st0" x1="74.6" y1="80.9" x2="60.6" y2="80.9"/>
	<line class="st0" x1="74.6" y1="83.6" x2="60.6" y2="83.6"/>
	<line class="st0" x1="74.6" y1="86.3" x2="60.6" y2="86.3"/>
	<line class="st0" x1="72.9" y1="88.9" x2="60.6" y2="88.9"/>
	<line class="st0" x1="74.6" y1="99.7" x2="60.6" y2="99.7"/>
	<line class="st0" x1="73.5" y1="96.9" x2="60.6" y2="96.9"/>
	<line class="st0" x1="72.1" y1="94.2" x2="60.6" y2="94.2"/>
	<line class="st0" x1="72.1" y1="91.6" x2="60.6" y2="91.6"/>
	<g>
		<g>
			<path class="st0" d="M77,95.6l-1.1,0.7c0.6,0.9,1.3,1.6,2.2,2.2l0.7-1.1"/>
			<path class="st0" d="M86.5,89.5l1.1-0.7c-0.6-0.9-1.3-1.6-2.2-2.2l-0.7,1.1"/>
			<path class="st0" d="M78.7,87.8L78,86.7c-0.9,0.6-1.6,1.3-2.2,2.2l1.1,0.7"/>
			<path class="st0" d="M76.2,91.4L75,91.1c-0.1,0.5-0.2,1-0.2,1.5s0.1,1,0.2,1.6v0.1l0.6-0.2l0.6-0.2"/>
			<path class="st0" d="M80.5,98.1l-0.3,1.3c0.5,0.1,1,0.2,1.5,0.2s1.1-0.1,1.6-0.2l0.1-0.1L83,98.1"/>
			<path class="st0" d="M84.8,97.4l0.7,1.1c0.9-0.6,1.6-1.3,2.2-2.2l-1.1-0.7"/>
			<path class="st0" d="M87.3,93.8l1.3,0.3c0.1-0.5,0.2-1,0.2-1.5s-0.1-1.1-0.2-1.5V91l-1.2,0.3"/>
			<path class="st0" d="M83,87.1l0.3-1.3c-1-0.2-2.1-0.2-3.1,0l0,0l0.3,1.2"/>
			<path class="st0" d="M76.2,91.4c0.1-0.6,0.4-1.2,0.7-1.8"/>
			<path class="st0" d="M77,95.6c-0.3-0.5-0.6-1.1-0.7-1.8"/>
			<path class="st0" d="M80.5,98.1c-0.6-0.1-1.2-0.4-1.8-0.7"/>
			<path class="st0" d="M84.8,97.4c-0.5,0.3-1.1,0.6-1.7,0.7"/>
			<path class="st0" d="M87.3,93.8c-0.1,0.6-0.4,1.2-0.7,1.8"/>
			<path class="st0" d="M86.5,89.5c0.4,0.5,0.6,1.1,0.8,1.8"/>
			<path class="st0" d="M82.9,87.1c0.6,0.1,1.2,0.4,1.8,0.7"/>
			<path class="st0" d="M78.7,87.8c0.5-0.3,1.1-0.6,1.8-0.7"/>
		</g>
		<circle class="st0" cx="81.7" cy="92.6" r="2.9"/>
	</g>
</g>
</svg>
