<?xml version="1.0" encoding="utf-8"?>
<!-- Generator: Adobe Illustrator 23.0.1, SVG Export Plug-In . SVG Version: 6.00 Build 0)  -->
<svg version="1.1" id="Layer_1" xmlns="http://www.w3.org/2000/svg" xmlns:xlink="http://www.w3.org/1999/xlink" x="0px" y="0px"
	 viewBox="0 0 34.8 34.8" style="enable-background:new 0 0 34.8 34.8;" xml:space="preserve">
<style type="text/css">
	.st0{fill:none;stroke:#FFC959;stroke-linecap:round;stroke-linejoin:round;stroke-miterlimit:10;}
</style>
<g>
	<polyline class="st0" points="26.4,31.5 26.4,33.7 1.5,33.7 1.5,8.1 8.4,1.1 26.4,1.1 26.4,13.5 	"/>
	<polyline class="st0" points="1.5,8.1 8.4,8.1 8.4,1.1 	"/>
	<line class="st0" x1="19.3" y1="10.7" x2="5.2" y2="10.7"/>
	<line class="st0" x1="19.3" y1="13.5" x2="5.2" y2="13.5"/>
	<line class="st0" x1="19.3" y1="16.1" x2="5.2" y2="16.1"/>
	<line class="st0" x1="17.6" y1="18.8" x2="5.2" y2="18.8"/>
	<line class="st0" x1="19.3" y1="29.5" x2="5.2" y2="29.5"/>
	<line class="st0" x1="18.1" y1="26.7" x2="5.2" y2="26.7"/>
	<line class="st0" x1="16.8" y1="24.1" x2="5.2" y2="24.1"/>
	<line class="st0" x1="16.8" y1="21.4" x2="5.2" y2="21.4"/>
	<g>
		<g>
			<path class="st0" d="M21.6,25.5l-1.1,0.7c0.6,0.9,1.3,1.6,2.2,2.2l0.7-1.1"/>
			<path class="st0" d="M31.2,19.4l1.1-0.7c-0.6-0.9-1.3-1.6-2.2-2.2l-0.7,1.1"/>
			<path class="st0" d="M23.4,17.7l-0.7-1.1c-0.9,0.6-1.6,1.3-2.2,2.2l1.1,0.7"/>
			<path class="st0" d="M20.9,21.2l-1.3-0.3c-0.1,0.5-0.2,1-0.2,1.5c0,0.5,0.1,1,0.2,1.6c0,0,0,0.1,0,0.1l0.6-0.2l0.6-0.2"/>
			<path class="st0" d="M25.2,28l-0.3,1.3c0.5,0.1,1,0.2,1.5,0.2c0.5,0,1.1-0.1,1.6-0.2l0.1-0.1l-0.4-1.2"/>
			<path class="st0" d="M29.4,27.2l0.7,1.1c0.9-0.6,1.6-1.3,2.2-2.2l-1.1-0.7"/>
			<path class="st0" d="M31.9,23.7l1.3,0.3c0.1-0.5,0.2-1,0.2-1.5c0-0.5-0.1-1.1-0.2-1.5l0-0.1l-1.2,0.3"/>
			<path class="st0" d="M27.6,16.9l0.3-1.3c-1-0.2-2.1-0.2-3.1,0l0,0l0.3,1.2"/>
			<path class="st0" d="M20.9,21.2c0.1-0.6,0.4-1.2,0.7-1.8"/>
			<path class="st0" d="M21.6,25.5c-0.3-0.5-0.6-1.1-0.7-1.8"/>
			<path class="st0" d="M25.2,28c-0.6-0.1-1.2-0.4-1.8-0.7"/>
			<path class="st0" d="M29.4,27.2c-0.5,0.3-1.1,0.6-1.7,0.7"/>
			<path class="st0" d="M31.9,23.7c-0.1,0.6-0.4,1.2-0.7,1.8"/>
			<path class="st0" d="M31.1,19.3c0.4,0.5,0.6,1.1,0.8,1.8"/>
			<path class="st0" d="M27.6,16.9c0.6,0.1,1.2,0.4,1.8,0.7"/>
			<path class="st0" d="M23.4,17.7c0.5-0.3,1.1-0.6,1.8-0.7"/>
		</g>
		<circle class="st0" cx="26.3" cy="22.5" r="2.9"/>
	</g>
</g>
</svg>
