<?xml version="1.0" encoding="utf-8"?>
<!-- Generator: Adobe Illustrator 23.0.3, SVG Export Plug-In . SVG Version: 6.00 Build 0)  -->
<svg version="1.1" id="Layer_1" xmlns="http://www.w3.org/2000/svg" xmlns:xlink="http://www.w3.org/1999/xlink" x="0px" y="0px"
	 viewBox="0 0 21.8 22" style="enable-background:new 0 0 21.8 22;" xml:space="preserve">
<style type="text/css">
	.st0{fill:#FFC959;}
</style>
<g>
	<path class="st0" d="M19.6,5.2H2.2c-1.1,0-2,0.9-2,2v11c0,1.1,0.9,2,2,2h17.4c1.1,0,2-0.9,2-2v-11C21.6,6.1,20.7,5.2,19.6,5.2z
		 M2.2,6.2h17.4c0.6,0,1,0.5,1,1v2.1l-9.7,6.3L1.2,9.4V7.2C1.2,6.7,1.6,6.2,2.2,6.2z M19.6,19.2H2.2c-0.6,0-1-0.5-1-1v-7.7l9.7,6.3
		l9.7-6.3v7.6C20.6,18.7,20.1,19.2,19.6,19.2z"/>
	<path class="st0" d="M8.7,11h1.7v1.7c0,0.3,0.2,0.5,0.5,0.5s0.5-0.2,0.5-0.5V11h1.7c0.3,0,0.5-0.2,0.5-0.5S13.4,10,13.1,10h-1.7
		V8.3c0-0.3-0.2-0.5-0.5-0.5S10.4,8,10.4,8.3V10H8.7c-0.3,0-0.5,0.2-0.5,0.5S8.4,11,8.7,11z"/>
</g>
</svg>
