<?xml version="1.0" encoding="utf-8"?>
<!-- Generator: Adobe Illustrator 23.0.3, SVG Export Plug-In . SVG Version: 6.00 Build 0)  -->
<svg version="1.1" id="Layer_1" xmlns="http://www.w3.org/2000/svg" xmlns:xlink="http://www.w3.org/1999/xlink" x="0px" y="0px"
	 viewBox="0 0 7.7 6.5" style="enable-background:new 0 0 7.7 6.5;" xml:space="preserve">
<style type="text/css">
	.st0{fill:#FFC959;}
</style>
<path class="st0" d="M3.9,0C2.1,0,0.6,1.5,0.6,3.3c0,1.8,1.4,3.2,3.2,3.2S7.1,5,7.1,3.3C7.1,1.5,5.7,0,3.9,0z M6,4.6
	C6,4.8,5.5,5.1,5.3,5.1c-0.2,0-0.2,0.2-1.3-0.3C3,4.4,2.3,3.3,2.3,3.2c0-0.1-0.3-0.4-0.4-0.7c0-0.1-0.1-0.2-0.1-0.4
	c0-0.5,0.3-0.8,0.4-0.9c0.1-0.1,0.2-0.1,0.3-0.1c0.1,0,0.1,0,0.2,0c0.1,0,0.2,0,0.2,0.2C3,1.6,3.2,2.1,3.3,2.1c0,0.1,0,0.1,0,0.2
	c0,0.1,0,0.1-0.1,0.1c0,0,0,0,0,0.1C3.1,2.5,3.1,2.6,3,2.7C3,2.7,2.9,2.8,3,2.9C3,3,3.2,3.3,3.5,3.6c0.4,0.4,0.7,0.5,0.8,0.5
	c0.1,0.1,0.2,0,0.2,0C4.7,4,4.9,3.8,5,3.7C5,3.6,5.1,3.6,5.2,3.6c0.1,0,0.6,0.3,0.7,0.3C6,4,6.1,4,6.1,4.1C6.1,4.1,6.1,4.3,6,4.6z"
	/>
</svg>
