<?xml version="1.0" encoding="utf-8"?>
<!-- Generator: Adobe Illustrator 23.0.1, SVG Export Plug-In . SVG Version: 6.00 Build 0)  -->
<svg version="1.1" id="Layer_1" xmlns="http://www.w3.org/2000/svg" xmlns:xlink="http://www.w3.org/1999/xlink" x="0px" y="0px"
	 viewBox="0 0 21.8 21.8" style="enable-background:new 0 0 21.8 21.8;" xml:space="preserve">
<style type="text/css">
	.st0{fill:#FF0000;}
</style>
<g>
	<g>
		<path class="st0" d="M16.1,13H15v6c-2.1,0-7.1,0-9.2,0V2.7H15c0,0.5,0,6,0,6h1.1c0,0,0-5.8,0-6.4c0-0.3-0.1-0.5-0.3-0.6
			c-0.1-0.1-0.3-0.1-0.6-0.1H5.6c-0.1,0-0.2,0-0.3,0C4.9,1.7,4.6,2.1,4.6,2.5c0,3.8,0,12.8,0,16.6c0,0.5,0.4,1,0.9,1
			c2.4,0,7.4,0,9.8,0c0.5,0,0.8-0.3,0.8-0.8c0-0.5,0-5.6,0-6.1V13z M2,3.8h1.2V2.7c-0.4,0-1.4,0-1.8,0c-0.2,0-0.3,0.1-0.5,0.3
			C1,3,0.9,3.2,0.9,3.4v14.9c0,0.1,0,0.2,0,0.2C1.1,18.8,1.3,19,1.7,19c0.3,0,1.1,0,1.4,0h0.2v-1.2H2V3.8z M20.6,10.3
			c-0.7-0.7-1.4-1.5-2.2-2.2C18.4,8,18.4,8,18.3,7.9c-0.3-0.3-0.8-0.1-0.9,0.2c-0.1,0.3,0,0.5,0.2,0.7l1.3,1.4c0,0-6,0-6.4,0
			c-0.2,0-0.4,0.1-0.5,0.4c-0.1,0.2,0,0.4,0.1,0.6c0.1,0.2,0.3,0.2,0.5,0.2l6.3,0l-1.3,1.3c0,0-0.1,0.1-0.1,0.2
			c-0.2,0.3-0.1,0.8,0.2,0.9c0.3,0.1,0.5,0,0.7-0.2l2.2-2.3C21,11,21,10.6,20.6,10.3z"/>
	</g>
</g>
</svg>
