<?xml version="1.0" encoding="utf-8"?>
<!-- Generator: Adobe Illustrator 23.0.1, SVG Export Plug-In . SVG Version: 6.00 Build 0)  -->
<svg version="1.1" id="Layer_1" xmlns="http://www.w3.org/2000/svg" xmlns:xlink="http://www.w3.org/1999/xlink" x="0px" y="0px"
	 viewBox="0 0 21.8 21.8" style="enable-background:new 0 0 21.8 21.8;" xml:space="preserve">
<style type="text/css">
	.st0{fill:#00AF00;}
</style>
<g>
	<g>
		<path class="st0" d="M19.5,1.6h-4.6c-0.3,0-0.5,0.2-0.5,0.5s0.2,0.5,0.5,0.5H19v16.5H2.8V2.6h3.8c0.3,0,0.5-0.2,0.5-0.5
			S6.9,1.6,6.6,1.6H2.3C2,1.6,1.8,1.8,1.8,2.1v17.5c0,0.3,0.2,0.5,0.5,0.5h17.2c0.3,0,0.5-0.2,0.5-0.5V2.1C20,1.8,19.8,1.6,19.5,1.6
			z"/>
		<path class="st0" d="M10.3,11.1v2.9c-0.7,0-1.4-0.1-2-0.4v0.9c0.5,0.2,1.2,0.3,2,0.3v1c0,0.3,0.2,0.5,0.5,0.5s0.5-0.2,0.5-0.5v-1
			c1.5-0.2,2.3-0.9,2.3-2.1c0-1.1-0.5-1.8-2.3-2.2V7.7c0.7,0,1.3,0.1,1.8,0.3V7.1C12.7,7,12,6.9,11.3,6.9v-1c0-0.3-0.2-0.5-0.5-0.5
			s-0.5,0.2-0.5,0.5v1C8.8,7.1,8.1,7.8,8.1,9C8.1,10.1,8.7,10.7,10.3,11.1z M12.6,12.7c0,0.8-0.4,1.1-1.3,1.2v-2.6
			C12.2,11.6,12.6,12,12.6,12.7z M10.3,7.8v2.4C9.4,9.9,9.1,9.6,9.1,9C9.1,8.3,9.5,7.9,10.3,7.8z"/>
	</g>
</g>
</svg>
