<?xml version="1.0" encoding="utf-8"?>
<!-- Generator: Adobe Illustrator 23.0.1, SVG Export Plug-In . SVG Version: 6.00 Build 0)  -->
<svg version="1.1" id="Layer_1" xmlns="http://www.w3.org/2000/svg" xmlns:xlink="http://www.w3.org/1999/xlink" x="0px" y="0px"
	 viewBox="0 0 100 100" style="enable-background:new 0 0 100 100;" xml:space="preserve">
<style type="text/css">
	.st0{fill:#FFFFFF;}
	.st1{fill:#6A6968;}
	.st2{fill:#231F20;}
	.st3{fill:#274084;}
</style>
<g>
	<path d="M43.8,38.43c-2.69,0-4.88,2.18-4.88,4.88s2.18,4.88,4.88,4.88c0.44,0,0.86-0.06,1.26-0.17V43.3h3.61
		C48.67,40.61,46.49,38.43,43.8,38.43z"/>
	<path class="st0" d="M61.97,43.3c0,0,0,0.01,0,0.01h4.33V43.3H61.97z"/>
	<g>
		<path class="st1" d="M18.86,79.37h0.59v3.08h-0.59V79.37z"/>
		<path class="st1" d="M22.49,79.37h0.57v3.08H22.5l-1.58-2.12v2.12h-0.58v-3.08h0.56l1.59,2.13V79.37z"/>
		<path class="st1" d="M23.6,79.37h2.51v0.52h-0.96v2.56h-0.59v-2.56H23.6V79.37z"/>
		<path class="st1" d="M26.67,79.37h2.26v0.51h-1.67v0.76h1.5v0.52h-1.5v0.77h1.72v0.52h-2.31V79.37z"/>
		<path class="st1" d="M29.71,79.37h0.59v2.55h1.33v0.53h-1.92V79.37z"/>
		<path class="st1" d="M32.22,79.37h0.59v2.55h1.33v0.53h-1.92V79.37z"/>
		<path class="st1" d="M34.73,79.37h0.59v3.08h-0.59V79.37z"/>
		<path class="st1" d="M38.3,80.92h0.52v1.17c-0.16,0.12-0.35,0.22-0.57,0.29s-0.44,0.11-0.65,0.11c-0.3,0-0.58-0.07-0.83-0.21
			c-0.25-0.14-0.44-0.33-0.59-0.57c-0.14-0.24-0.22-0.51-0.22-0.8c0-0.29,0.07-0.56,0.22-0.8c0.15-0.24,0.35-0.43,0.6-0.57
			c0.25-0.14,0.53-0.21,0.84-0.21c0.22,0,0.44,0.04,0.65,0.12c0.21,0.08,0.4,0.19,0.55,0.33l-0.33,0.44
			c-0.12-0.11-0.25-0.2-0.41-0.26c-0.15-0.06-0.31-0.09-0.46-0.09c-0.19,0-0.37,0.05-0.53,0.14c-0.16,0.09-0.29,0.22-0.39,0.38
			c-0.09,0.16-0.14,0.34-0.14,0.53c0,0.19,0.05,0.37,0.14,0.53c0.1,0.16,0.22,0.29,0.38,0.38c0.16,0.09,0.34,0.14,0.54,0.14
			c0.11,0,0.22-0.02,0.33-0.05c0.12-0.03,0.23-0.08,0.33-0.14V80.92z"/>
		<path class="st1" d="M39.63,79.37h2.26v0.51h-1.67v0.76h1.5v0.52h-1.5v0.77h1.72v0.52h-2.31V79.37z"/>
		<path class="st1" d="M44.82,79.37h0.57v3.08h-0.56l-1.58-2.12v2.12h-0.58v-3.08h0.56l1.59,2.13V79.37z"/>
		<path class="st1" d="M45.94,79.37h2.51v0.52h-0.96v2.56H46.9v-2.56h-0.96V79.37z"/>
		<path class="st1" d="M50.21,79.37h0.67l1.02,1.98l1.01-1.98h0.67v3.08h-0.54v-2.21l-0.96,1.89h-0.38l-0.96-1.89v2.21h-0.54V79.37z
			"/>
		<path class="st1" d="M56.76,82.45l-0.27-0.65h-1.51l-0.27,0.65H54.1l1.35-3.08h0.61l1.33,3.08H56.76z M55.19,81.29h1.08L55.74,80
			L55.19,81.29z"/>
		<path class="st1" d="M60.05,79.37h0.57v3.08h-0.56l-1.58-2.12v2.12H57.9v-3.08h0.56l1.59,2.13V79.37z"/>
		<path class="st1" d="M63.79,82.45l-0.27-0.65h-1.51l-0.27,0.65h-0.61l1.35-3.08h0.61l1.33,3.08H63.79z M62.22,81.29h1.08L62.77,80
			L62.22,81.29z"/>
		<path class="st1" d="M66.94,80.92h0.52v1.17c-0.16,0.12-0.35,0.22-0.57,0.29s-0.44,0.11-0.65,0.11c-0.3,0-0.58-0.07-0.83-0.21
			c-0.25-0.14-0.44-0.33-0.59-0.57c-0.14-0.24-0.22-0.51-0.22-0.8c0-0.29,0.07-0.56,0.22-0.8c0.15-0.24,0.35-0.43,0.6-0.57
			c0.25-0.14,0.53-0.21,0.84-0.21c0.22,0,0.44,0.04,0.65,0.12c0.21,0.08,0.4,0.19,0.55,0.33l-0.33,0.44
			c-0.12-0.11-0.25-0.2-0.41-0.26c-0.15-0.06-0.31-0.09-0.46-0.09c-0.19,0-0.37,0.05-0.53,0.14c-0.16,0.09-0.29,0.22-0.39,0.38
			c-0.09,0.16-0.14,0.34-0.14,0.53c0,0.19,0.05,0.37,0.14,0.53c0.1,0.16,0.22,0.29,0.38,0.38c0.16,0.09,0.34,0.14,0.54,0.14
			c0.11,0,0.22-0.02,0.33-0.05c0.12-0.03,0.23-0.08,0.33-0.14V80.92z"/>
		<path class="st1" d="M68.27,79.37h2.26v0.51h-1.67v0.76h1.5v0.52h-1.5v0.77h1.72v0.52h-2.31V79.37z"/>
		<path class="st1" d="M71.31,79.37h0.67L73,81.36l1.01-1.98h0.67v3.08h-0.54v-2.21l-0.96,1.89h-0.38l-0.96-1.89v2.21h-0.54V79.37z"
			/>
		<path class="st1" d="M75.58,79.37h2.26v0.51h-1.67v0.76h1.5v0.52h-1.5v0.77h1.72v0.52h-2.31V79.37z"/>
		<path class="st1" d="M80.76,79.37h0.57v3.08h-0.56l-1.58-2.12v2.12h-0.58v-3.08h0.56l1.59,2.13V79.37z"/>
		<path class="st1" d="M81.88,79.37h2.51v0.52h-0.96v2.56h-0.59v-2.56h-0.96V79.37z"/>
	</g>
	<g>
		<path class="st1" d="M29.56,69.15h1.57l2.38,4.63l2.36-4.63h1.57v7.18h-1.26v-5.15l-2.24,4.41h-0.88l-2.25-4.41v5.15h-1.25V69.15z
			"/>
		<path class="st1" d="M44.72,69.54c0.58,0.32,1.04,0.76,1.38,1.32c0.33,0.56,0.5,1.18,0.5,1.87s-0.17,1.31-0.5,1.87
			c-0.34,0.56-0.8,1.01-1.38,1.34c-0.59,0.33-1.23,0.49-1.94,0.49c-0.71,0-1.36-0.16-1.94-0.49c-0.58-0.33-1.05-0.77-1.38-1.34
			c-0.34-0.56-0.5-1.19-0.5-1.87s0.17-1.31,0.5-1.87c0.33-0.56,0.8-1,1.38-1.32c0.59-0.32,1.23-0.48,1.94-0.48
			C43.48,69.05,44.13,69.21,44.72,69.54z M41.57,70.61c-0.38,0.22-0.67,0.51-0.89,0.88c-0.22,0.37-0.33,0.78-0.33,1.24
			s0.11,0.87,0.33,1.24c0.22,0.38,0.52,0.67,0.89,0.89c0.37,0.22,0.78,0.33,1.22,0.33c0.43,0,0.83-0.11,1.2-0.33
			c0.37-0.22,0.66-0.52,0.88-0.89c0.22-0.38,0.32-0.79,0.32-1.24s-0.11-0.86-0.32-1.24c-0.22-0.37-0.51-0.67-0.88-0.88
			c-0.37-0.22-0.77-0.32-1.2-0.32C42.36,70.29,41.95,70.39,41.57,70.61z"/>
		<path class="st1" d="M53.13,69.15h1.33v7.18h-1.3l-3.69-4.95v4.95h-1.34v-7.18h1.3l3.7,4.96V69.15z"/>
		<path class="st1" d="M61.74,69.54c0.58,0.32,1.04,0.76,1.38,1.32c0.33,0.56,0.5,1.18,0.5,1.87s-0.17,1.31-0.5,1.87
			c-0.34,0.56-0.8,1.01-1.38,1.34c-0.59,0.33-1.23,0.49-1.94,0.49c-0.71,0-1.36-0.16-1.94-0.49c-0.58-0.33-1.05-0.77-1.38-1.34
			c-0.34-0.56-0.5-1.19-0.5-1.87s0.17-1.31,0.5-1.87c0.33-0.56,0.8-1,1.38-1.32c0.59-0.32,1.23-0.48,1.94-0.48
			C60.51,69.05,61.15,69.21,61.74,69.54z M58.59,70.61c-0.38,0.22-0.67,0.51-0.89,0.88c-0.22,0.37-0.33,0.78-0.33,1.24
			s0.11,0.87,0.33,1.24c0.22,0.38,0.52,0.67,0.89,0.89c0.37,0.22,0.78,0.33,1.22,0.33c0.43,0,0.83-0.11,1.2-0.33
			c0.37-0.22,0.66-0.52,0.88-0.89c0.22-0.38,0.32-0.79,0.32-1.24s-0.11-0.86-0.32-1.24c-0.22-0.37-0.51-0.67-0.88-0.88
			c-0.37-0.22-0.77-0.32-1.2-0.32C59.38,70.29,58.97,70.39,58.59,70.61z"/>
		<path class="st1" d="M69.2,70.53c-0.35-0.16-0.7-0.25-1.05-0.25c-0.44,0-0.85,0.11-1.22,0.32c-0.37,0.21-0.66,0.5-0.87,0.88
			c-0.21,0.37-0.32,0.78-0.32,1.23c0,0.44,0.11,0.85,0.32,1.23c0.21,0.37,0.5,0.67,0.87,0.88c0.37,0.22,0.78,0.32,1.22,0.32
			c0.34,0,0.69-0.08,1.03-0.23c0.35-0.15,0.65-0.36,0.92-0.63l0.81,0.9c-0.38,0.38-0.81,0.69-1.31,0.91
			c-0.5,0.22-1.01,0.33-1.52,0.33c-0.69,0-1.32-0.16-1.9-0.49c-0.57-0.33-1.03-0.77-1.35-1.34c-0.33-0.56-0.49-1.19-0.49-1.87
			s0.17-1.31,0.5-1.87c0.33-0.56,0.79-1,1.37-1.32c0.58-0.32,1.22-0.48,1.92-0.48c0.51,0,1.02,0.1,1.51,0.31
			c0.49,0.21,0.91,0.49,1.26,0.85l-0.8,1.01C69.84,70.92,69.54,70.7,69.2,70.53z"/>
		<path class="st1" d="M72.34,69.15h1.37v5.94h3.1v1.24h-4.47V69.15z"/>
		<path class="st1" d="M78.2,69.15h5.26v1.2h-3.89v1.78h3.49v1.2h-3.49v1.81h4.01v1.2H78.2V69.15z"/>
	</g>
	<g>
		<path class="st2" d="M61.99,45.98h4.3v20.08h-4.13l-9.72-12.91v12.91h-4.33V45.98h4.13l9.75,12.96V45.98z"/>
		<path class="st2" d="M68.96,45.98h15.03v3.76h-10.5v4.36h10.5v3.76h-10.5v4.45h10.5v3.76H68.96V45.98z"/>
	</g>
	<path class="st3" d="M66.32,43.31c0-12.42-10.1-22.52-22.52-22.52c-11.51,0-21.02,8.68-22.35,19.83c-0.31,0.76-1.89,0.41-2.52,0.43
		c-0.03,0-0.05,0-0.07,0.01c-0.02,0-0.03,0-0.05,0c-1.23,0.06-2.19,1.1-2.14,2.34c0.05,1.07,0.84,1.93,1.85,2.1v18.9
		c-0.23,0.13-0.38,0.38-0.38,0.66c0,0.43,0.34,0.77,0.77,0.77c0.43,0,0.77-0.34,0.77-0.77c0-0.28-0.16-0.53-0.39-0.66V45.53
		c0.79-0.05,2.02-0.33,2.16,0.57c0.01,0.06,0.02,0.11,0.03,0.17c1.45,11.03,10.9,19.57,22.32,19.57c0.42,0,0.84-0.02,1.26-0.04
		v-4.36c-0.42,0.03-0.84,0.05-1.26,0.05c-10.02,0-18.17-8.15-18.17-18.17c0-10.02,8.15-18.17,18.17-18.17
		c10.01,0,18.16,8.14,18.17,18.16h4.33v0.01H66.32z M17.82,43.35c-0.03-0.6,0.44-1.1,1.03-1.13c0.6-0.03,1.1,0.44,1.13,1.03
		c0.02,0.48-0.27,0.89-0.7,1.06v-0.14c0-0.21-0.17-0.38-0.38-0.38s-0.38,0.17-0.38,0.38v0.15C18.13,44.16,17.84,43.79,17.82,43.35z"
		/>
</g>
</svg>
