<?xml version="1.0" encoding="utf-8"?>
<!-- Generator: Adobe Illustrator 23.0.1, SVG Export Plug-In . SVG Version: 6.00 Build 0)  -->
<svg version="1.1" id="Layer_1" xmlns="http://www.w3.org/2000/svg" xmlns:xlink="http://www.w3.org/1999/xlink" x="0px" y="0px"
	 viewBox="0 0 100 100" style="enable-background:new 0 0 100 100;" xml:space="preserve">
<style type="text/css">
	.st0{fill:#BC1F26;}
	.st1{fill:#FFFFFF;}
</style>
<g>
	<rect x="0" y="0" class="st0" width="100" height="100"/>
	<g>
		<g>
			<polygon class="st1" points="17.72,75.04 26.15,66.61 21.28,47.82 39.7,53.05 48.51,44.25 19.27,37.57 13.15,10.21 4.77,18.59 
				9.71,36.25 0,33.41 0,43.61 11.2,46.21 			"/>
			<path class="st1" d="M43.46,2.13c1.77,1.77,2.71,4.1,2.8,6.99c0.05,1.87-0.37,5.45-1.25,10.76c-1.02,6.11-0.87,10.77,0.45,14.01
				c1.04,3.01,2.74,5.78,5.13,8.29l23.38-23.38l-5.91-5.91l-14.9,14.9c-0.28-1.13-0.38-2.27-0.29-3.43
				c0.09-1.15,0.37-3.17,0.86-6.04l0.78-4.6c0.66-3.86,0.84-6.94,0.53-9.24C54.83,2.89,54.39,1.4,53.74,0h-13.7
				C41.26,0.37,42.41,1.07,43.46,2.13z"/>
			<path class="st1" d="M23.36,11.02c0.85,2.73,2.67,5.61,5.46,8.62l6.52-6.52c-1.83-1.99-2.98-3.64-3.44-4.94
				c-0.78-2.26-0.16-4.41,1.88-6.45C34.64,0.87,35.55,0.31,36.5,0H24.87C22.67,3.51,22.16,7.18,23.36,11.02z"/>
		</g>
		<g>
			<path class="st1" d="M23.07,76.85l9.07,4.13l-1.51,1.51l-1.97-0.97l-2.47,2.47l0.95,1.99l-1.46,1.46l-4.11-9.1L23.07,76.85z
				 M27.21,80.82l-3.26-1.59l-0.02,0.02l1.56,3.28L27.21,80.82z"/>
			<path class="st1" d="M32.02,77.86c0.23,0.07,0.47,0.09,0.69,0.06c0.23-0.04,0.45-0.12,0.68-0.25c0.22-0.13,0.43-0.3,0.62-0.49
				c0.13-0.13,0.26-0.28,0.38-0.45c0.13-0.17,0.22-0.35,0.29-0.54c0.07-0.19,0.09-0.38,0.07-0.58c-0.02-0.19-0.12-0.37-0.28-0.54
				c-0.18-0.18-0.38-0.27-0.6-0.26c-0.23,0-0.47,0.06-0.73,0.17c-0.26,0.11-0.53,0.26-0.82,0.44c-0.29,0.18-0.59,0.35-0.9,0.53
				c-0.31,0.19-0.62,0.35-0.95,0.49c-0.32,0.15-0.65,0.24-0.98,0.28c-0.33,0.04-0.65,0.02-0.98-0.08c-0.33-0.1-0.64-0.3-0.94-0.6
				c-0.34-0.34-0.56-0.71-0.67-1.1c-0.1-0.39-0.12-0.79-0.06-1.19c0.07-0.4,0.21-0.79,0.42-1.17c0.22-0.37,0.47-0.71,0.77-1.01
				c0.35-0.34,0.72-0.64,1.11-0.88c0.39-0.24,0.8-0.4,1.22-0.47c0.42-0.07,0.84-0.05,1.25,0.07c0.41,0.12,0.81,0.37,1.19,0.76
				l-1.41,1.41c-0.21-0.19-0.41-0.31-0.62-0.36c-0.2-0.06-0.4-0.07-0.59-0.02c-0.19,0.04-0.38,0.13-0.56,0.24
				c-0.18,0.12-0.36,0.27-0.54,0.45c-0.12,0.12-0.22,0.25-0.31,0.39c-0.09,0.14-0.16,0.29-0.19,0.45c-0.03,0.16-0.04,0.31,0,0.47
				c0.03,0.15,0.12,0.3,0.26,0.44c0.13,0.13,0.26,0.21,0.39,0.24s0.3,0.01,0.51-0.07c0.21-0.08,0.48-0.21,0.8-0.4
				c0.32-0.19,0.74-0.44,1.26-0.74c0.15-0.1,0.36-0.23,0.65-0.38c0.28-0.15,0.61-0.27,0.96-0.34c0.36-0.07,0.73-0.07,1.13,0.01
				c0.4,0.08,0.78,0.31,1.15,0.67c0.3,0.3,0.52,0.64,0.67,1.02c0.14,0.37,0.19,0.77,0.15,1.19c-0.04,0.42-0.18,0.85-0.42,1.3
				c-0.24,0.45-0.58,0.9-1.03,1.35c-0.36,0.36-0.76,0.67-1.19,0.93c-0.43,0.25-0.87,0.41-1.33,0.49c-0.45,0.07-0.91,0.04-1.36-0.11
				c-0.45-0.14-0.88-0.42-1.28-0.83l1.41-1.41C31.55,77.64,31.78,77.78,32.02,77.86z"/>
			<path class="st1" d="M33.2,66.72l6.6,6.6l-1.45,1.45l-6.6-6.6L33.2,66.72z"/>
			<path class="st1" d="M37.59,62.34l9.07,4.13l-1.51,1.51l-1.97-0.97l-2.47,2.47l0.95,1.99l-1.46,1.46l-4.11-9.1L37.59,62.34z
				 M41.72,66.3l-3.26-1.59l-0.02,0.02l1.56,3.28L41.72,66.3z"/>
			<path class="st1" d="M53.3,59.73c-0.18,0.45-0.43,0.83-0.75,1.15c-0.51,0.5-1.05,0.87-1.63,1.1c-0.58,0.23-1.16,0.33-1.75,0.3
				c-0.59-0.03-1.16-0.18-1.73-0.45c-0.56-0.27-1.09-0.64-1.57-1.12c-0.49-0.49-0.88-1.03-1.15-1.59c-0.27-0.57-0.43-1.15-0.47-1.74
				c-0.04-0.59,0.06-1.18,0.28-1.76c0.23-0.58,0.59-1.13,1.1-1.63c0.34-0.34,0.72-0.62,1.14-0.83s0.86-0.35,1.31-0.41
				c0.45-0.06,0.91-0.03,1.36,0.1c0.46,0.12,0.89,0.35,1.31,0.69l-1.39,1.39c-0.46-0.28-0.9-0.39-1.33-0.33
				c-0.43,0.06-0.82,0.27-1.17,0.62c-0.33,0.33-0.54,0.67-0.64,1.02c-0.1,0.35-0.12,0.71-0.05,1.06c0.07,0.35,0.21,0.7,0.42,1.04
				c0.21,0.34,0.46,0.65,0.74,0.94c0.28,0.28,0.58,0.52,0.91,0.71c0.33,0.2,0.67,0.33,1.02,0.4c0.35,0.07,0.7,0.05,1.06-0.05
				c0.35-0.1,0.7-0.32,1.02-0.64c0.48-0.48,0.73-0.97,0.75-1.48c0.02-0.5-0.18-1.01-0.6-1.52l-1.46,1.46l-1.08-1.08l2.77-2.78
				l3.57,3.57l-0.92,0.92l-0.9-0.6C53.53,58.77,53.48,59.28,53.3,59.73z"/>
			<path class="st1" d="M51.12,48.8l5.38,5.38l3.22-3.22l1.22,1.22l-4.67,4.67l-6.6-6.6L51.12,48.8z"/>
			<path class="st1" d="M56.86,46.98c-0.27-0.57-0.43-1.15-0.47-1.75c-0.04-0.59,0.06-1.18,0.28-1.76c0.23-0.58,0.59-1.13,1.1-1.63
				c0.51-0.51,1.06-0.88,1.64-1.1c0.58-0.22,1.17-0.32,1.76-0.28c0.59,0.04,1.17,0.19,1.74,0.47s1.1,0.66,1.59,1.15
				c0.48,0.48,0.86,1,1.12,1.57c0.27,0.57,0.42,1.14,0.45,1.73c0.03,0.58-0.07,1.17-0.29,1.74c-0.22,0.58-0.59,1.12-1.11,1.63
				c-0.51,0.51-1.05,0.87-1.63,1.1c-0.58,0.23-1.16,0.33-1.75,0.3s-1.16-0.18-1.73-0.45c-0.56-0.27-1.09-0.64-1.57-1.12
				C57.52,48.08,57.13,47.55,56.86,46.98z M60.37,47.83c0.33,0.2,0.67,0.33,1.02,0.4c0.35,0.07,0.7,0.05,1.06-0.05
				c0.35-0.1,0.7-0.32,1.02-0.64c0.33-0.33,0.54-0.67,0.64-1.02c0.1-0.35,0.12-0.71,0.05-1.06c-0.07-0.35-0.2-0.69-0.4-1.02
				s-0.43-0.63-0.71-0.91c-0.29-0.29-0.6-0.54-0.94-0.75c-0.34-0.21-0.68-0.34-1.04-0.42c-0.35-0.07-0.71-0.05-1.06,0.05
				c-0.35,0.1-0.69,0.32-1.02,0.64c-0.33,0.33-0.54,0.67-0.64,1.02c-0.1,0.35-0.12,0.71-0.05,1.06c0.07,0.35,0.21,0.7,0.42,1.04
				c0.21,0.34,0.46,0.65,0.74,0.94C59.74,47.4,60.04,47.63,60.37,47.83z"/>
			<path class="st1" d="M65.09,34.84c0.31-0.31,0.63-0.57,0.94-0.78c0.31-0.2,0.63-0.34,0.94-0.39c0.31-0.06,0.62-0.03,0.93,0.07
				c0.31,0.11,0.62,0.32,0.93,0.62c0.33,0.33,0.53,0.69,0.61,1.06c0.07,0.37,0.03,0.78-0.12,1.22c0.52-0.29,1.03-0.39,1.53-0.3
				c0.49,0.09,0.95,0.35,1.36,0.76c0.33,0.33,0.56,0.69,0.67,1.06c0.11,0.37,0.14,0.75,0.07,1.12c-0.06,0.37-0.2,0.74-0.41,1.09
				c-0.21,0.36-0.46,0.68-0.75,0.98l-3.2,3.2l-6.6-6.6L65.09,34.84z M67.57,37.69c0.26-0.26,0.41-0.53,0.45-0.82
				c0.04-0.29-0.07-0.57-0.35-0.85c-0.15-0.15-0.31-0.25-0.46-0.3c-0.15-0.04-0.3-0.05-0.45-0.01c-0.15,0.04-0.29,0.11-0.43,0.2
				c-0.14,0.1-0.28,0.21-0.41,0.34l-1.36,1.36l1.54,1.54L67.57,37.69z M70.46,40.41c0.14-0.14,0.26-0.29,0.36-0.45
				c0.1-0.16,0.17-0.32,0.2-0.48c0.03-0.16,0.02-0.33-0.03-0.5c-0.05-0.17-0.17-0.34-0.34-0.51c-0.34-0.34-0.68-0.49-1.01-0.44
				c-0.34,0.05-0.66,0.23-0.98,0.54l-1.58,1.58l1.81,1.81L70.46,40.41z"/>
			<path class="st1" d="M71.6,28.32l9.07,4.13l-1.51,1.51L77.19,33l-2.47,2.47l0.95,1.99l-1.46,1.46l-4.11-9.1L71.6,28.32z
				 M75.73,32.29l-3.26-1.59l-0.02,0.02L74.02,34L75.73,32.29z"/>
			<path class="st1" d="M75.91,24.01l5.38,5.38l3.22-3.22l1.22,1.22l-4.67,4.67l-6.6-6.6L75.91,24.01z"/>
		</g>
	</g>
</g>
</svg>
