<?xml version="1.0" encoding="utf-8"?>
<!-- Generator: Adobe Illustrator 23.0.1, SVG Export Plug-In . SVG Version: 6.00 Build 0)  -->
<svg version="1.1" id="Layer_1" xmlns="http://www.w3.org/2000/svg" xmlns:xlink="http://www.w3.org/1999/xlink" x="0px" y="0px"
	 viewBox="0 0 60.7 60.7" style="enable-background:new 0 0 60.7 60.7;" xml:space="preserve">
<style type="text/css">
	.st0{clip-path:url(#SVGID_2_);fill:#192752;}
	.st1{clip-path:url(#SVGID_2_);fill:#FFFFFF;}
	.st2{clip-path:url(#SVGID_2_);}
	.st3{fill:#FFFFFF;}
</style>
<g>
	<g>
		<defs>
			<rect id="SVGID_1_" x="0" y="0" width="60.6" height="60.6"/>
		</defs>
		<clipPath id="SVGID_2_">
			<use xlink:href="#SVGID_1_"  style="overflow:visible;"/>
		</clipPath>
		<rect x="0" y="0" class="st0" width="60.6" height="60.6"/>
		<path class="st1" d="M15.6,49.2c0-0.5,0.2-0.9,0.5-1.3c0.5-0.5,1-0.7,1.6-0.6c0.3,0.1,0.6,0.2,0.8,0.4l-0.6,0.6
			c-0.2-0.1-0.3-0.2-0.5-0.2c-0.2,0-0.5,0.1-0.7,0.3c-0.2,0.2-0.3,0.5-0.3,0.8c0.1,0.3,0.2,0.6,0.6,1c0.3,0.3,0.7,0.5,1,0.5
			c0.3,0,0.6-0.1,0.8-0.3c0.2-0.2,0.3-0.4,0.3-0.7c0-0.1-0.1-0.3-0.2-0.5l0.6-0.6c0.3,0.4,0.4,0.8,0.4,1.2c0,0.4-0.2,0.8-0.5,1.2
			c-0.4,0.4-0.9,0.6-1.4,0.6c-0.5,0-1-0.3-1.5-0.8C15.9,50.3,15.6,49.8,15.6,49.2z"/>
		<path class="st1" d="M18.9,45.3l0.7-0.7l4,1.9L23,47.2l-0.8-0.4l-1.1,1.1l0.4,0.8l-0.7,0.7L18.9,45.3z M20.7,47.2l0.8-0.8
			l-1.6-0.8L20.7,47.2z"/>
		<path class="st1" d="M23,41.4c0.2-0.1,0.3-0.1,0.5-0.1c0.1,0,0.3,0,0.4,0.1c0.1,0.1,0.3,0.1,0.4,0.3c0.1,0.1,0.2,0.3,0.3,0.5
			c0.1,0.2,0,0.4-0.1,0.6c0.2-0.1,0.4-0.1,0.5-0.1c0.2,0,0.3,0.2,0.6,0.4l0.2,0.2c0.1,0.1,0.2,0.2,0.3,0.3c0.1,0.1,0.2,0.1,0.3,0.1
			l0.1,0.1l-0.7,0.7c-0.1,0-0.2-0.1-0.2-0.1c-0.1-0.1-0.2-0.1-0.3-0.2L25,43.8c-0.2-0.2-0.4-0.3-0.5-0.3c-0.1,0-0.3,0.1-0.5,0.3
			l-0.6,0.6l1.2,1.2L24,46.2l-3-3l1.4-1.4C22.7,41.6,22.9,41.4,23,41.4z M22.2,43.1l0.8,0.8l0.7-0.7c0.1-0.1,0.2-0.2,0.3-0.3
			c0.1-0.2,0-0.3-0.2-0.5c-0.2-0.2-0.4-0.2-0.5-0.2c-0.1,0-0.2,0.1-0.3,0.2L22.2,43.1z"/>
		<path class="st1" d="M27,39.1c-0.3-0.2-0.5-0.2-0.8-0.1c-0.1,0.1-0.3,0.1-0.4,0.3c-0.2,0.2-0.3,0.5-0.3,0.9c0,0.3,0.2,0.7,0.6,1.1
			c0.4,0.4,0.7,0.5,1,0.5c0.3,0,0.6-0.1,0.8-0.3c0.2-0.2,0.3-0.4,0.3-0.7c0-0.3-0.1-0.5-0.2-0.7l-0.7,0.7l-0.5-0.5l1.2-1.2l1.6,1.6
			L29.2,41l-0.4-0.3c0,0.3,0,0.5,0,0.6c-0.1,0.3-0.2,0.5-0.5,0.8c-0.4,0.4-0.9,0.6-1.4,0.6c-0.5,0-1-0.3-1.5-0.7
			c-0.5-0.5-0.7-1-0.8-1.6c0-0.6,0.2-1.1,0.6-1.5c0.4-0.4,0.8-0.6,1.2-0.6c0.4,0,0.8,0.1,1.1,0.3L27,39.1z"/>
		<path class="st1" d="M32.3,37.4c0,0.5-0.2,0.9-0.6,1.3c-0.4,0.4-0.9,0.6-1.3,0.6c-0.6,0-1.2-0.2-1.7-0.8c-0.5-0.5-0.8-1.1-0.8-1.7
			c0-0.5,0.2-0.9,0.6-1.3c0.4-0.4,0.9-0.6,1.3-0.6c0.6,0,1.1,0.2,1.7,0.8C32,36.2,32.3,36.8,32.3,37.4z M31.4,37.3
			c0-0.3-0.2-0.7-0.6-1c-0.3-0.3-0.7-0.5-1-0.6c-0.3,0-0.6,0.1-0.9,0.3c-0.2,0.2-0.4,0.5-0.3,0.9s0.2,0.7,0.6,1
			c0.3,0.3,0.7,0.5,1,0.6c0.3,0,0.6-0.1,0.9-0.3C31.4,37.9,31.5,37.7,31.4,37.3z"/>
		<g class="st2">
			<path class="st3" d="M35.4,32.3c0,0.3-0.2,0.6-0.5,1l-0.6,0.6l1.1,1.1l-0.6,0.6l-3-3l1.3-1.3c0.3-0.3,0.6-0.5,0.9-0.5
				c0.3,0,0.7,0.1,1,0.5C35.2,31.6,35.4,32,35.4,32.3z M33.8,31.7c-0.1,0-0.3,0.1-0.4,0.2l-0.6,0.6l0.9,0.9l0.6-0.6
				c0.1-0.1,0.2-0.3,0.2-0.4c0-0.2-0.1-0.3-0.2-0.5C34.1,31.7,33.9,31.7,33.8,31.7z"/>
			<path class="st3" d="M36.4,28c0.2-0.1,0.3-0.1,0.5-0.1c0.1,0,0.3,0,0.4,0.1c0.1,0.1,0.3,0.1,0.4,0.3c0.1,0.1,0.2,0.3,0.3,0.5
				c0.1,0.2,0,0.4-0.1,0.6c0.2-0.1,0.4-0.1,0.5-0.1c0.2,0,0.3,0.2,0.6,0.4l0.2,0.2c0.1,0.1,0.2,0.2,0.3,0.3c0.1,0.1,0.2,0.1,0.3,0.1
				l0.1,0.1L39.2,31C39.1,31,39,31,39,30.9c-0.1-0.1-0.2-0.1-0.3-0.2l-0.3-0.3c-0.2-0.2-0.4-0.3-0.5-0.3c-0.1,0-0.3,0.1-0.5,0.3
				L36.9,31l1.2,1.2l-0.6,0.6l-3-3l1.4-1.4C36.1,28.2,36.3,28,36.4,28z M35.6,29.7l0.8,0.8l0.7-0.7c0.1-0.1,0.2-0.2,0.3-0.3
				c0.1-0.2,0-0.3-0.2-0.5c-0.2-0.2-0.4-0.2-0.5-0.2c-0.1,0-0.2,0.1-0.3,0.2L35.6,29.7z"/>
			<path class="st3" d="M42.4,27.2c0,0.5-0.2,0.9-0.6,1.3c-0.4,0.4-0.9,0.6-1.3,0.6c-0.6,0-1.2-0.2-1.7-0.8
				c-0.5-0.5-0.8-1.1-0.8-1.7c0-0.5,0.2-0.9,0.6-1.3c0.4-0.4,0.9-0.6,1.3-0.6c0.6,0,1.1,0.2,1.7,0.8C42.2,26.1,42.5,26.7,42.4,27.2z
				 M41.6,27.2c0-0.3-0.2-0.7-0.6-1c-0.3-0.3-0.7-0.5-1-0.6c-0.3,0-0.6,0.1-0.9,0.3c-0.2,0.2-0.4,0.5-0.3,0.9c0,0.3,0.2,0.7,0.6,1
				c0.3,0.3,0.7,0.5,1,0.6c0.3,0,0.6-0.1,0.9-0.3C41.5,27.8,41.6,27.5,41.6,27.2z"/>
			<path class="st3" d="M42.8,21.4l0.5,0.5l-0.9,0.9l2.5,2.5l-0.6,0.6l-2.5-2.5l-0.9,0.9l-0.5-0.5L42.8,21.4z"/>
			<path class="st3" d="M45.9,19.4L44.3,21l0.6,0.6l1.5-1.5l0.5,0.5l-1.5,1.5l0.8,0.8l1.7-1.7l0.5,0.5L46.2,24l-3-3l2.2-2.2
				L45.9,19.4z"/>
			<path class="st3" d="M46.6,18.3c0-0.5,0.2-0.9,0.5-1.3c0.5-0.5,1-0.7,1.6-0.6c0.3,0.1,0.6,0.2,0.8,0.4l-0.6,0.6
				c-0.2-0.1-0.3-0.2-0.5-0.2c-0.2,0-0.5,0.1-0.7,0.3c-0.2,0.2-0.3,0.5-0.3,0.8c0.1,0.3,0.2,0.6,0.6,1c0.3,0.3,0.7,0.5,1,0.5
				c0.3,0,0.6-0.1,0.8-0.3c0.2-0.2,0.3-0.4,0.3-0.7c0-0.1-0.1-0.3-0.2-0.5l0.6-0.6c0.3,0.4,0.4,0.8,0.4,1.2c0,0.4-0.2,0.8-0.5,1.2
				c-0.4,0.4-0.9,0.6-1.4,0.6c-0.5,0-1-0.3-1.5-0.8C46.8,19.4,46.6,18.9,46.6,18.3z"/>
			<path class="st3" d="M51.1,13.1l0.5,0.5l-0.9,0.9l2.5,2.5l-0.6,0.6l-2.5-2.5l-0.9,0.9l-0.5-0.5L51.1,13.1z"/>
		</g>
		<path class="st1" d="M-7.1,25.4l5.4-5.4l10.9,2.6L6.8,11.5l5.1-5.1l3.3,17l18.5,3.7l-5.6,5.6l-12-2.7L18.8,42l-5.2,5.2L9.8,28.7
			L-7.1,25.4z"/>
		<path class="st1" d="M18.9,9.6c-0.7-1.3-1.1-2.7-1.2-4.1c-0.1-1.4,0.1-2.8,0.6-4.2c0.5-1.4,1.4-2.7,2.7-4c1-1,2-1.7,3.2-2.3
			c1.2-0.6,2.3-0.9,3.6-1c1.2-0.1,2.4,0.1,3.6,0.5c1.2,0.4,2.3,1.1,3.3,2.2c1.1,1.1,1.8,2.1,2.2,3.2c0.4,1.1,0.6,2.2,0.7,3.3
			c0,1.1-0.1,2.3-0.3,3.5c-0.2,1.2-0.5,2.4-0.7,3.5c-0.2,1.2-0.4,2.4-0.6,3.6c-0.1,1.2-0.1,2.4,0.1,3.7l9.8-9.8l3.6,3.6L34.2,26.6
			c-1.2-1.2-2.1-2.4-2.6-3.7c-0.5-1.2-0.9-2.5-1-3.8c-0.1-1.3-0.1-2.6,0.1-4c0.2-1.4,0.5-2.9,0.7-4.4c0.1-0.8,0.3-1.6,0.5-2.4
			c0.2-0.8,0.3-1.7,0.3-2.5c0-0.8-0.1-1.6-0.3-2.4c-0.2-0.8-0.6-1.5-1.3-2.1c-1-1-2.1-1.5-3.2-1.5c-1.2,0-2.2,0.5-3.1,1.4
			c-0.6,0.6-1,1.3-1.1,2c-0.1,0.7-0.1,1.4,0.1,2.2c0.2,0.7,0.5,1.4,1,2.1c0.5,0.7,1,1.3,1.5,1.8l-4,4C20.6,12.2,19.6,10.9,18.9,9.6z
			"/>
	</g>
</g>
</svg>
