<?xml version="1.0" encoding="utf-8"?>
<!-- Generator: Adobe Illustrator 23.0.1, SVG Export Plug-In . SVG Version: 6.00 Build 0)  -->
<svg version="1.1" id="Layer_1" xmlns="http://www.w3.org/2000/svg" xmlns:xlink="http://www.w3.org/1999/xlink" x="0px" y="0px"
	 viewBox="0 0 140 140" style="enable-background:new 0 0 140 140;" xml:space="preserve">
<style type="text/css">
	.st0{fill:none;}
	.st1{fill:#E0E0E0;}
</style>
<rect width="140" height="140"/>
<path class="st0" d="M44.02,102.89c0.27,0.43,0.59,0.84,0.96,1.21c0.36,0.36,0.75,0.66,1.17,0.92c0.42,0.25,0.86,0.43,1.31,0.51
	c0.45,0.09,0.91,0.07,1.36-0.07c0.46-0.13,0.9-0.41,1.32-0.83c0.42-0.42,0.7-0.86,0.83-1.32c0.13-0.46,0.15-0.91,0.07-1.36
	c-0.09-0.45-0.26-0.89-0.51-1.31c-0.25-0.42-0.56-0.81-0.92-1.17c-0.37-0.37-0.78-0.69-1.21-0.96c-0.43-0.27-0.88-0.44-1.33-0.54
	c-0.46-0.09-0.91-0.07-1.37,0.06c-0.46,0.13-0.9,0.41-1.32,0.83c-0.42,0.42-0.7,0.86-0.83,1.32c-0.13,0.46-0.15,0.91-0.06,1.37
	C43.57,102.01,43.75,102.46,44.02,102.89z"/>
<path class="st0" d="M102.18,65.1c-0.4,0.03-0.82,0.26-1.25,0.68l-2.05,2.05l2.39,2.39l2.05-2.05c0.43-0.43,0.65-0.85,0.68-1.25
	c0.02-0.4-0.18-0.82-0.61-1.25C102.99,65.26,102.58,65.07,102.18,65.1z"/>
<path class="st0" d="M95.66,78.82c-0.25-0.42-0.56-0.81-0.92-1.17c-0.37-0.37-0.78-0.69-1.21-0.96c-0.43-0.27-0.88-0.44-1.33-0.54
	c-0.46-0.09-0.91-0.07-1.37,0.06c-0.46,0.13-0.9,0.41-1.32,0.83c-0.42,0.42-0.7,0.86-0.83,1.32c-0.13,0.46-0.15,0.91-0.06,1.37
	c0.09,0.46,0.27,0.9,0.54,1.33c0.27,0.43,0.59,0.84,0.96,1.21c0.36,0.36,0.75,0.66,1.17,0.92c0.42,0.25,0.86,0.43,1.31,0.51
	c0.45,0.09,0.91,0.07,1.36-0.07c0.46-0.13,0.9-0.41,1.32-0.83c0.42-0.42,0.7-0.86,0.83-1.32s0.15-0.91,0.07-1.36
	C96.08,79.67,95.91,79.24,95.66,78.82z"/>
<polygon class="st1" points="26.79,107.37 38.61,95.55 32.7,68.29 59.76,74.4 72.32,61.84 30.55,53.52 23.03,15.25 11.48,26.8 
	17.06,51.84 0,47.76 0,61.99 18.4,65.54 "/>
<path class="st1" d="M36.09,13.13c0.29,3.16,1.23,6.25,2.82,9.27c1.59,3.02,3.77,5.83,6.55,8.43l9.13-9.13
	c-1.25-1.25-2.4-2.64-3.42-4.16c-1.03-1.52-1.78-3.1-2.25-4.73c-0.47-1.63-0.55-3.26-0.23-4.87c0.31-1.61,1.16-3.11,2.55-4.5
	c2.06-2.06,4.39-3.11,6.98-3.16c2.6-0.04,5.04,1.07,7.32,3.36c1.43,1.43,2.38,3.03,2.85,4.8c0.47,1.77,0.67,3.58,0.6,5.44
	c-0.07,1.86-0.31,3.74-0.74,5.64c-0.43,1.9-0.79,3.73-1.11,5.47c-0.63,3.4-1.17,6.68-1.64,9.84c-0.47,3.16-0.58,6.2-0.34,9.13
	c0.25,2.93,0.98,5.8,2.22,8.59c1.23,2.8,3.21,5.56,5.94,8.29l34.51-34.51l-8.19-8.19L77.42,40.36c-0.45-2.77-0.52-5.53-0.2-8.26
	c0.31-2.73,0.75-5.43,1.31-8.09c0.56-2.66,1.1-5.33,1.61-7.99c0.51-2.66,0.74-5.28,0.67-7.86c-0.07-2.57-0.57-5.09-1.51-7.55
	C79.22,0.41,79.13,0.2,79.04,0H39.32c-0.75,1.21-1.37,2.44-1.85,3.7C36.26,6.83,35.8,9.98,36.09,13.13z"/>
<polygon class="st1" points="42.69,111.68 38.54,115.82 31.61,108.89 29.74,110.76 38.25,119.26 44.26,113.25 "/>
<path class="st1" d="M41.62,103.91c0.35,0.73,0.85,1.42,1.48,2.06c0.62,0.62,1.29,1.1,2.02,1.45c0.73,0.35,1.47,0.54,2.22,0.58
	c0.75,0.04,1.5-0.09,2.25-0.38c0.75-0.29,1.45-0.77,2.1-1.42c0.66-0.66,1.13-1.36,1.42-2.1c0.29-0.74,0.42-1.49,0.38-2.25
	c-0.04-0.75-0.23-1.5-0.58-2.22c-0.35-0.73-0.83-1.4-1.45-2.02c-0.64-0.64-1.32-1.13-2.06-1.48c-0.73-0.35-1.48-0.55-2.25-0.6
	c-0.76-0.05-1.52,0.07-2.26,0.36c-0.75,0.29-1.45,0.76-2.11,1.42c-0.65,0.65-1.12,1.35-1.41,2.1c-0.29,0.75-0.41,1.51-0.36,2.27
	C41.07,102.43,41.27,103.18,41.62,103.91z M43.54,100.19c0.13-0.46,0.41-0.9,0.83-1.32c0.42-0.42,0.86-0.7,1.32-0.83
	c0.46-0.13,0.91-0.15,1.37-0.06c0.46,0.09,0.9,0.27,1.33,0.54c0.43,0.27,0.84,0.59,1.21,0.96c0.36,0.36,0.66,0.75,0.92,1.17
	c0.25,0.42,0.42,0.86,0.51,1.31c0.09,0.45,0.07,0.91-0.07,1.36c-0.13,0.46-0.41,0.9-0.83,1.32c-0.42,0.42-0.86,0.7-1.32,0.83
	c-0.46,0.13-0.91,0.15-1.36,0.07c-0.45-0.09-0.89-0.26-1.31-0.51c-0.42-0.25-0.81-0.56-1.17-0.92c-0.37-0.37-0.69-0.78-0.96-1.21
	c-0.27-0.43-0.44-0.88-0.54-1.33C43.39,101.1,43.41,100.64,43.54,100.19z"/>
<path class="st1" d="M53.27,92.26c0.35,0.73,0.85,1.42,1.48,2.05c0.62,0.62,1.29,1.1,2.02,1.45c0.73,0.34,1.47,0.54,2.22,0.58
	c0.75,0.04,1.51-0.09,2.25-0.38c0.75-0.29,1.45-0.77,2.1-1.42c0.41-0.41,0.74-0.91,0.97-1.48c0.23-0.57,0.3-1.24,0.21-2.01
	l1.16,0.77l1.19-1.19l-4.6-4.6l-3.57,3.57l1.39,1.39l1.88-1.88c0.54,0.65,0.8,1.3,0.77,1.95c-0.02,0.65-0.35,1.29-0.97,1.91
	c-0.42,0.42-0.86,0.7-1.32,0.83c-0.46,0.13-0.91,0.15-1.36,0.07c-0.45-0.09-0.89-0.26-1.31-0.51c-0.42-0.25-0.81-0.56-1.17-0.92
	c-0.37-0.37-0.69-0.78-0.96-1.21c-0.27-0.43-0.44-0.88-0.54-1.33c-0.09-0.46-0.07-0.91,0.06-1.37c0.13-0.46,0.41-0.89,0.83-1.32
	c0.45-0.45,0.96-0.72,1.51-0.8c0.56-0.08,1.13,0.06,1.72,0.43l1.79-1.79c-0.53-0.44-1.09-0.73-1.68-0.89
	c-0.59-0.16-1.17-0.2-1.76-0.12c-0.58,0.08-1.15,0.25-1.69,0.53c-0.54,0.28-1.03,0.64-1.47,1.07c-0.65,0.65-1.12,1.35-1.41,2.1
	c-0.29,0.75-0.41,1.51-0.36,2.27C52.72,90.78,52.92,91.53,53.27,92.26z"/>
<rect x="66.13" y="75.54" transform="matrix(0.7071 -0.7071 0.7071 0.7071 -37.9129 71.5805)" class="st1" width="2.65" height="12.03"/>
<path class="st1" d="M70.28,74.96c0.39,0.39,0.79,0.65,1.22,0.77c0.42,0.13,0.84,0.16,1.26,0.11c0.42-0.06,0.84-0.18,1.26-0.36
	c0.42-0.19,0.82-0.4,1.22-0.64c0.4-0.22,0.78-0.45,1.16-0.68c0.37-0.23,0.73-0.42,1.06-0.56c0.33-0.14,0.64-0.22,0.93-0.22
	c0.29,0,0.55,0.11,0.78,0.34c0.21,0.21,0.34,0.45,0.36,0.7c0.03,0.25,0,0.5-0.09,0.74c-0.09,0.25-0.21,0.48-0.37,0.7
	c-0.16,0.22-0.33,0.41-0.49,0.58c-0.25,0.25-0.51,0.45-0.8,0.63c-0.29,0.17-0.58,0.28-0.88,0.33c-0.29,0.05-0.59,0.02-0.89-0.07
	c-0.3-0.1-0.6-0.29-0.88-0.57l-1.81,1.81c0.52,0.53,1.06,0.89,1.64,1.07c0.58,0.18,1.16,0.23,1.75,0.14
	c0.58-0.09,1.15-0.3,1.71-0.63c0.56-0.33,1.07-0.72,1.54-1.19c0.58-0.58,1.02-1.16,1.33-1.73c0.31-0.58,0.49-1.13,0.54-1.67
	s-0.01-1.05-0.19-1.54c-0.18-0.48-0.47-0.92-0.86-1.31c-0.48-0.48-0.97-0.77-1.48-0.87c-0.51-0.1-0.99-0.11-1.45-0.01
	c-0.46,0.1-0.87,0.24-1.24,0.44c-0.37,0.2-0.64,0.36-0.83,0.49c-0.67,0.4-1.21,0.72-1.63,0.96c-0.42,0.24-0.76,0.41-1.04,0.51
	c-0.27,0.1-0.49,0.13-0.66,0.09c-0.17-0.04-0.33-0.14-0.5-0.31c-0.18-0.18-0.29-0.37-0.33-0.57c-0.04-0.2-0.04-0.4,0.01-0.6
	c0.04-0.2,0.13-0.39,0.24-0.58s0.25-0.35,0.41-0.5c0.23-0.23,0.46-0.42,0.7-0.58c0.23-0.15,0.47-0.26,0.72-0.32
	c0.25-0.06,0.5-0.05,0.76,0.03c0.26,0.08,0.52,0.23,0.79,0.47l1.81-1.81c-0.49-0.49-1-0.82-1.54-0.98
	c-0.53-0.16-1.07-0.19-1.61-0.09c-0.54,0.1-1.06,0.3-1.57,0.61c-0.51,0.31-0.98,0.69-1.43,1.13c-0.38,0.38-0.71,0.81-0.99,1.3
	c-0.28,0.48-0.46,0.98-0.55,1.5c-0.09,0.52-0.06,1.03,0.07,1.54C69.56,74.05,69.84,74.52,70.28,74.96z"/>
<polygon class="st1" points="81.73,61.92 88.66,68.85 90.53,66.98 83.6,60.05 86.15,57.5 84.57,55.92 77.6,62.89 79.18,64.47 "/>
<rect x="91.8" y="49.87" transform="matrix(0.7071 -0.7071 0.7071 0.7071 -12.2412 82.2139)" class="st1" width="2.64" height="12.03"/>
<path class="st1" d="M96.26,49.27c0.35,0.73,0.85,1.42,1.48,2.06c0.62,0.62,1.29,1.1,2.02,1.45c0.73,0.35,1.47,0.54,2.22,0.58
	c0.75,0.04,1.5-0.09,2.25-0.38c0.75-0.29,1.45-0.77,2.1-1.42c0.52-0.52,0.93-1.08,1.2-1.68s0.43-1.21,0.45-1.84
	c0.02-0.63-0.08-1.25-0.31-1.88c-0.23-0.63-0.59-1.23-1.07-1.81l-1.81,1.81c0.5,0.64,0.76,1.3,0.79,1.97
	c0.03,0.67-0.24,1.29-0.82,1.86c-0.42,0.42-0.86,0.7-1.32,0.83c-0.46,0.13-0.91,0.15-1.36,0.07c-0.45-0.09-0.89-0.26-1.31-0.51
	c-0.42-0.25-0.81-0.56-1.17-0.92c-0.37-0.37-0.69-0.78-0.96-1.21c-0.27-0.43-0.44-0.88-0.54-1.33c-0.09-0.46-0.07-0.91,0.06-1.37
	c0.13-0.46,0.41-0.9,0.83-1.32c0.23-0.23,0.49-0.41,0.77-0.55c0.29-0.14,0.58-0.22,0.88-0.25c0.3-0.03,0.6-0.01,0.89,0.05
	c0.29,0.07,0.56,0.19,0.8,0.38l1.81-1.81c-0.55-0.44-1.12-0.74-1.72-0.91c-0.6-0.17-1.19-0.21-1.78-0.14
	c-0.59,0.07-1.16,0.25-1.71,0.53c-0.55,0.28-1.06,0.66-1.53,1.13c-0.65,0.65-1.12,1.35-1.41,2.1c-0.29,0.75-0.41,1.51-0.36,2.27
	C95.71,47.79,95.91,48.54,96.26,49.27z"/>
<path class="st1" d="M107.16,38.08c0.39,0.39,0.79,0.65,1.22,0.77c0.42,0.13,0.84,0.16,1.26,0.11c0.42-0.06,0.84-0.18,1.26-0.36
	c0.42-0.19,0.82-0.4,1.22-0.64c0.4-0.22,0.78-0.45,1.16-0.68c0.37-0.23,0.73-0.42,1.06-0.56c0.33-0.14,0.64-0.22,0.93-0.22
	c0.29,0,0.55,0.11,0.78,0.34c0.21,0.21,0.34,0.45,0.36,0.7c0.03,0.25,0,0.5-0.09,0.74c-0.09,0.25-0.21,0.48-0.37,0.7
	c-0.16,0.22-0.33,0.41-0.49,0.58c-0.25,0.25-0.51,0.45-0.8,0.63c-0.29,0.17-0.58,0.28-0.88,0.33c-0.29,0.05-0.59,0.02-0.89-0.07
	c-0.3-0.1-0.6-0.29-0.88-0.57l-1.81,1.81c0.52,0.53,1.06,0.89,1.64,1.07c0.58,0.18,1.16,0.23,1.75,0.14
	c0.58-0.09,1.15-0.3,1.71-0.63c0.56-0.33,1.07-0.72,1.54-1.19c0.58-0.58,1.02-1.16,1.33-1.73c0.31-0.58,0.49-1.13,0.54-1.67
	s-0.01-1.05-0.19-1.54c-0.18-0.48-0.47-0.92-0.86-1.31c-0.48-0.48-0.97-0.77-1.48-0.87c-0.51-0.1-0.99-0.11-1.45-0.01
	c-0.46,0.1-0.87,0.24-1.24,0.44c-0.37,0.2-0.64,0.36-0.83,0.49c-0.67,0.4-1.21,0.72-1.63,0.96c-0.42,0.24-0.76,0.41-1.04,0.51
	c-0.27,0.1-0.49,0.13-0.66,0.09c-0.17-0.04-0.33-0.14-0.5-0.31c-0.18-0.18-0.29-0.37-0.33-0.57c-0.04-0.2-0.04-0.4,0.01-0.6
	c0.04-0.2,0.13-0.39,0.24-0.58c0.12-0.18,0.25-0.35,0.41-0.5c0.23-0.23,0.46-0.42,0.7-0.58c0.23-0.15,0.47-0.26,0.72-0.32
	c0.25-0.06,0.5-0.05,0.76,0.03c0.26,0.08,0.52,0.23,0.79,0.47l1.81-1.81c-0.49-0.49-1-0.82-1.54-0.98
	c-0.53-0.16-1.07-0.19-1.61-0.09c-0.54,0.1-1.06,0.3-1.57,0.61c-0.51,0.31-0.99,0.69-1.43,1.13c-0.38,0.38-0.71,0.81-0.99,1.3
	c-0.28,0.48-0.46,0.98-0.55,1.5c-0.09,0.52-0.06,1.03,0.07,1.54C106.44,37.17,106.72,37.64,107.16,38.08z"/>
<polygon class="st1" points="46.83,116.98 52.54,122.69 52.51,122.71 43.26,120.56 41.4,122.42 49.9,130.92 51.65,129.17 
	45.96,123.48 45.98,123.45 55.22,125.61 57.09,123.74 48.58,115.23 "/>
<polygon class="st1" points="60.99,116.69 58.91,114.6 63.03,110.48 61.58,109.03 57.46,113.15 55.63,111.32 60.12,106.83 
	58.55,105.26 52.19,111.62 60.7,120.13 67.15,113.67 65.58,112.1 "/>
<polygon class="st1" points="69.75,97.21 68.18,95.64 61.21,102.61 62.78,104.18 65.33,101.63 72.26,108.56 74.13,106.69 
	67.2,99.76 "/>
<polygon class="st1" points="79.67,84.14 84.14,91.4 84.12,91.42 76.8,87.01 75.05,88.76 79.36,96.03 79.34,96.05 72.2,91.61 
	70.33,93.48 81.09,99.73 82.98,97.84 78.61,90.63 78.64,90.61 85.87,94.96 87.73,93.1 81.51,82.31 "/>
<path class="st1" d="M96.61,75.78c-0.64-0.64-1.32-1.13-2.06-1.48c-0.73-0.35-1.48-0.55-2.25-0.6c-0.76-0.05-1.52,0.07-2.26,0.36
	c-0.75,0.29-1.45,0.76-2.11,1.42c-0.65,0.65-1.12,1.35-1.41,2.1c-0.29,0.75-0.41,1.51-0.36,2.27c0.05,0.76,0.25,1.51,0.6,2.25
	c0.35,0.73,0.85,1.42,1.48,2.06c0.62,0.62,1.29,1.1,2.02,1.45c0.73,0.34,1.47,0.54,2.22,0.58c0.75,0.04,1.5-0.09,2.25-0.38
	c0.75-0.29,1.45-0.77,2.1-1.42c0.66-0.66,1.13-1.36,1.42-2.1c0.29-0.74,0.42-1.49,0.38-2.25c-0.04-0.75-0.23-1.5-0.58-2.22
	C97.71,77.07,97.23,76.4,96.61,75.78z M96.1,81.49c-0.13,0.46-0.41,0.9-0.83,1.32c-0.42,0.42-0.86,0.7-1.32,0.83
	c-0.46,0.13-0.91,0.15-1.36,0.07c-0.45-0.09-0.89-0.26-1.31-0.51c-0.42-0.25-0.81-0.56-1.17-0.92c-0.37-0.37-0.69-0.78-0.96-1.21
	c-0.27-0.43-0.44-0.88-0.54-1.33c-0.09-0.46-0.07-0.91,0.06-1.37c0.13-0.46,0.41-0.89,0.83-1.32c0.42-0.42,0.86-0.7,1.32-0.83
	c0.46-0.13,0.91-0.15,1.37-0.06c0.46,0.09,0.9,0.27,1.33,0.54c0.43,0.27,0.84,0.59,1.21,0.96c0.36,0.36,0.66,0.75,0.92,1.17
	c0.25,0.42,0.43,0.86,0.51,1.31C96.26,80.58,96.24,81.03,96.1,81.49z"/>
<path class="st1" d="M110.13,68.74c-0.21-0.17-0.41-0.34-0.6-0.52c-0.19-0.18-0.36-0.33-0.5-0.45c-0.23-0.2-0.47-0.38-0.73-0.55
	c-0.26-0.17-0.52-0.3-0.8-0.38c-0.27-0.08-0.55-0.12-0.83-0.1c-0.28,0.02-0.57,0.11-0.86,0.28L105.77,67
	c0.29-0.67,0.35-1.29,0.2-1.86c-0.16-0.58-0.48-1.11-0.98-1.61c-0.33-0.33-0.69-0.57-1.08-0.74c-0.4-0.17-0.81-0.25-1.24-0.24
	c-0.43,0-0.86,0.1-1.29,0.28c-0.43,0.18-0.83,0.46-1.21,0.85l-4.59,4.59l8.51,8.51l1.87-1.87l-3.32-3.32l1.87-1.87
	c0.47-0.47,0.91-0.7,1.32-0.7c0.41,0,0.87,0.19,1.38,0.57c0.39,0.29,0.78,0.62,1.18,0.97c0.4,0.35,0.78,0.61,1.16,0.77l1.87-1.87
	c-0.21-0.03-0.42-0.11-0.63-0.24C110.55,69.06,110.34,68.91,110.13,68.74z M103.33,68.18l-2.05,2.05l-2.39-2.39l2.05-2.05
	c0.43-0.43,0.84-0.66,1.25-0.68c0.4-0.03,0.81,0.16,1.22,0.58c0.43,0.43,0.63,0.85,0.61,1.25
	C103.98,67.33,103.76,67.75,103.33,68.18z"/>
<polygon class="st1" points="113.66,50.15 111.32,52.49 111.53,59.34 108,55.81 106.13,57.68 114.64,66.19 116.51,64.32 
	113.77,61.58 113.75,59.42 120.14,60.68 122.49,58.34 113.69,56.84 "/>
<path class="st1" d="M129.3,46.47c-0.48-0.48-0.97-0.77-1.48-0.87c-0.51-0.1-0.99-0.11-1.45-0.01c-0.46,0.1-0.87,0.24-1.24,0.44
	c-0.37,0.2-0.64,0.36-0.83,0.49c-0.67,0.4-1.21,0.72-1.63,0.96c-0.42,0.24-0.76,0.41-1.04,0.51c-0.27,0.1-0.49,0.13-0.66,0.09
	c-0.17-0.04-0.33-0.14-0.5-0.31c-0.18-0.18-0.29-0.37-0.33-0.57s-0.04-0.4,0.01-0.6c0.04-0.2,0.12-0.4,0.24-0.58
	c0.12-0.18,0.25-0.35,0.41-0.5c0.23-0.23,0.46-0.42,0.7-0.58s0.47-0.26,0.72-0.32s0.5-0.05,0.76,0.03c0.26,0.08,0.52,0.23,0.79,0.47
	l1.81-1.81c-0.49-0.49-1-0.82-1.54-0.98c-0.53-0.16-1.07-0.19-1.61-0.1c-0.54,0.1-1.06,0.3-1.57,0.61
	c-0.51,0.31-0.98,0.69-1.43,1.13c-0.38,0.38-0.71,0.81-0.99,1.3c-0.28,0.48-0.46,0.98-0.55,1.5c-0.09,0.52-0.06,1.03,0.07,1.54
	c0.14,0.51,0.42,0.98,0.86,1.42c0.39,0.39,0.79,0.65,1.22,0.77c0.42,0.13,0.84,0.16,1.26,0.11c0.42-0.06,0.84-0.18,1.26-0.36
	c0.42-0.19,0.82-0.4,1.22-0.64c0.4-0.22,0.78-0.45,1.16-0.68c0.37-0.23,0.73-0.42,1.06-0.56c0.33-0.14,0.64-0.22,0.93-0.22
	c0.29,0,0.55,0.11,0.78,0.34c0.21,0.21,0.34,0.45,0.36,0.7c0.03,0.25,0,0.5-0.09,0.74c-0.09,0.25-0.21,0.48-0.38,0.7
	c-0.16,0.22-0.33,0.41-0.49,0.58c-0.25,0.25-0.51,0.45-0.8,0.63c-0.29,0.17-0.58,0.28-0.88,0.33c-0.29,0.05-0.59,0.02-0.89-0.07
	c-0.3-0.1-0.6-0.29-0.88-0.57l-1.81,1.81c0.52,0.53,1.06,0.89,1.64,1.07c0.58,0.18,1.16,0.23,1.75,0.14
	c0.58-0.09,1.15-0.3,1.71-0.63c0.56-0.33,1.07-0.72,1.54-1.19c0.58-0.58,1.02-1.16,1.33-1.73c0.31-0.58,0.49-1.13,0.54-1.67
	c0.06-0.54-0.01-1.05-0.19-1.54C129.97,47.3,129.69,46.86,129.3,46.47z"/>
</svg>
