<?xml version="1.0" encoding="utf-8"?>
<!-- Generator: Adobe Illustrator 23.0.1, SVG Export Plug-In . SVG Version: 6.00 Build 0)  -->
<svg version="1.1" id="Layer_1" xmlns="http://www.w3.org/2000/svg" xmlns:xlink="http://www.w3.org/1999/xlink" x="0px" y="0px"
	 viewBox="0 0 167.1 58.1" style="enable-background:new 0 0 167.1 58.1;" xml:space="preserve">
<style type="text/css">
	.st0{fill:#002454;}
	.st1{fill:#00BAF1;}
</style>
<g>
	<g>
		<g>
			<path class="st0" d="M51.9,14.4h3.3l3,5.5h0v-5.5h3v10.3h-3.1L55,19.1h0v5.6h-3V14.4z"/>
			<path class="st0" d="M65.8,14.4h3.1l3.8,10.3h-3.3l-0.4-1.5h-3.3l-0.5,1.5H62L65.8,14.4z M68.3,21.1l-0.9-3.2h0l-1,3.2H68.3z"/>
			<path class="st0" d="M80,18.3c-0.1-0.4-0.3-1.5-1.7-1.5c-1.5,0-2,1.4-2,2.8c0,1.4,0.5,2.8,2,2.8c1.1,0,1.5-0.8,1.7-1.7h3.1
				c0,2.1-1.7,4.3-4.7,4.3c-3.3,0-5.2-2.4-5.2-5.4c0-3.3,2.1-5.4,5.2-5.4c2.8,0,4.4,1.5,4.7,4.1H80z"/>
			<path class="st0" d="M89.4,14.2c3.1,0,5.2,2.3,5.2,5.4c0,3.1-2.1,5.4-5.2,5.4c-3.1,0-5.2-2.3-5.2-5.4
				C84.2,16.4,86.3,14.2,89.4,14.2z M89.4,22.4c0.8,0,2.1-0.5,2.1-2.8c0-2.3-1.2-2.8-2.1-2.8c-0.8,0-2.1,0.5-2.1,2.8
				C87.4,21.9,88.6,22.4,89.4,22.4z"/>
			<path class="st0" d="M96.1,14.4h6.1c1.8,0,3.4,1,3.4,2.9c0,1.1-0.5,2.2-1.5,2.6c0.9,0.3,1.4,1.3,1.5,2.6c0,0.5,0.1,1.7,0.3,2.2
				h-3.2c-0.2-0.5-0.2-1.1-0.3-1.6c-0.1-1-0.2-2-1.4-2h-1.7v3.6h-3.2V14.4z M99.2,18.9h1.7c0.6,0,1.4-0.1,1.4-1c0-0.7-0.4-1-1.6-1
				h-1.5V18.9z"/>
			<path class="st0" d="M109.7,14.4h3.1l3.8,10.3h-3.3l-0.4-1.5h-3.3l-0.5,1.5h-3.2L109.7,14.4z M112.2,21.1l-0.9-3.2h0l-1,3.2
				H112.2z"/>
		</g>
		<g>
			<path class="st1" d="M25.3,28.6l-1.4,6.6H23l1.4-6.6H25.3z"/>
			<path class="st1" d="M26.9,30.4l-0.1,0.7h0c0.2-0.3,0.4-0.5,0.7-0.6c0.3-0.1,0.6-0.2,0.9-0.2c0.4,0,0.8,0.1,1,0.3
				c0.2,0.2,0.3,0.5,0.3,0.9c0,0.1,0,0.2,0,0.4c0,0.2-0.1,0.3-0.1,0.5L29,35.2h-0.8l0.6-2.8c0,0,0-0.1,0-0.2c0-0.1,0-0.1,0-0.2
				c0-0.1,0-0.1,0-0.2c0-0.1,0-0.1,0-0.2c0-0.2-0.1-0.4-0.2-0.5c-0.2-0.1-0.4-0.2-0.6-0.2c-0.2,0-0.4,0.1-0.6,0.2
				c-0.2,0.1-0.4,0.2-0.5,0.4c-0.1,0.1-0.3,0.3-0.3,0.4c-0.1,0.2-0.1,0.4-0.2,0.5l-0.6,2.6h-0.8l1-4.8H26.9z"/>
			<path class="st1" d="M33.1,30.4l-0.1,0.7H32l-0.6,2.8c0,0.1,0,0.1,0,0.2c0,0,0,0.1,0,0.2c0,0.1,0,0.2,0.1,0.3
				c0.1,0,0.2,0.1,0.3,0.1c0.1,0,0.2,0,0.2,0c0.1,0,0.1,0,0.2-0.1l-0.1,0.7c-0.1,0-0.2,0-0.3,0c-0.1,0-0.2,0-0.3,0
				c-0.1,0-0.3,0-0.4,0c-0.1,0-0.2-0.1-0.3-0.1c-0.1-0.1-0.2-0.1-0.2-0.2c-0.1-0.1-0.1-0.2-0.1-0.4c0-0.1,0-0.1,0-0.2
				c0-0.1,0-0.1,0-0.2l0.6-3h-0.8l0.1-0.7h0.8l0.3-1.4h0.8l-0.3,1.4H33.1z"/>
			<path class="st1" d="M33.7,33.5c0,0.2,0,0.3,0.1,0.5c0.1,0.1,0.2,0.3,0.3,0.4c0.1,0.1,0.2,0.2,0.4,0.2c0.1,0.1,0.3,0.1,0.5,0.1
				c0.3,0,0.6-0.1,0.9-0.2c0.2-0.2,0.4-0.4,0.5-0.7h0.8c-0.1,0.3-0.2,0.5-0.3,0.7c-0.1,0.2-0.3,0.4-0.5,0.5
				c-0.2,0.1-0.4,0.2-0.6,0.3c-0.2,0.1-0.5,0.1-0.7,0.1c-0.4,0-0.7-0.1-1-0.2c-0.3-0.1-0.5-0.3-0.6-0.5c-0.2-0.2-0.3-0.4-0.3-0.6
				c-0.1-0.2-0.1-0.4-0.1-0.6c0-0.5,0.1-0.9,0.2-1.2c0.1-0.4,0.3-0.7,0.5-1c0.2-0.3,0.5-0.5,0.8-0.6c0.3-0.1,0.6-0.2,0.9-0.2
				c0.7,0,1.2,0.2,1.5,0.6c0.3,0.4,0.5,0.9,0.5,1.6c0,0.1,0,0.2,0,0.3c0,0.1,0,0.2,0,0.3h-3.6C33.7,33.2,33.7,33.3,33.7,33.5z
				 M36.6,31.9c0-0.2-0.1-0.3-0.2-0.4c-0.1-0.1-0.2-0.2-0.4-0.3C35.9,31,35.7,31,35.5,31c-0.2,0-0.4,0-0.6,0.1
				c-0.2,0.1-0.3,0.2-0.5,0.3c-0.1,0.1-0.2,0.3-0.3,0.4c-0.1,0.2-0.2,0.3-0.2,0.5h2.8C36.6,32.2,36.6,32,36.6,31.9z"/>
			<path class="st1" d="M39.3,30.4l-0.2,1h0c0.2-0.3,0.4-0.6,0.7-0.8c0.3-0.2,0.6-0.3,1-0.3c0,0,0.1,0,0.1,0c0,0,0.1,0,0.1,0
				l-0.2,0.8c0,0-0.1,0-0.1,0h-0.1c-0.1,0-0.2,0-0.2,0c-0.1,0-0.1,0-0.2,0c-0.2,0.1-0.4,0.2-0.6,0.3c-0.2,0.1-0.3,0.3-0.4,0.5
				c-0.1,0.2-0.2,0.3-0.2,0.5c-0.1,0.2-0.1,0.4-0.1,0.6l-0.5,2.1h-0.8l1-4.8H39.3z"/>
			<path class="st1" d="M42.3,30.4l-0.1,0.7h0c0.2-0.3,0.4-0.5,0.7-0.6c0.3-0.1,0.6-0.2,0.9-0.2c0.4,0,0.8,0.1,1,0.3
				c0.2,0.2,0.3,0.5,0.3,0.9c0,0.1,0,0.2,0,0.4c0,0.2-0.1,0.3-0.1,0.5l-0.6,2.7h-0.8l0.6-2.8c0,0,0-0.1,0-0.2c0-0.1,0-0.1,0-0.2
				c0-0.1,0-0.1,0-0.2c0-0.1,0-0.1,0-0.2c0-0.2-0.1-0.4-0.2-0.5C44,31.1,43.8,31,43.6,31c-0.2,0-0.4,0.1-0.6,0.2
				c-0.2,0.1-0.4,0.2-0.5,0.4c-0.1,0.1-0.3,0.3-0.3,0.4c-0.1,0.2-0.1,0.4-0.2,0.5l-0.6,2.6h-0.8l1-4.8H42.3z"/>
			<path class="st1" d="M46.3,31.2c0.1-0.2,0.3-0.4,0.5-0.5c0.2-0.1,0.4-0.2,0.6-0.3c0.2-0.1,0.5-0.1,0.7-0.1c0.2,0,0.5,0,0.7,0.1
				c0.2,0,0.4,0.1,0.6,0.2c0.2,0.1,0.3,0.2,0.4,0.4c0.1,0.2,0.1,0.4,0.1,0.6c0,0.1,0,0.3-0.1,0.4c0,0.2-0.1,0.3-0.1,0.4l-0.3,1.3
				c0,0.1,0,0.2-0.1,0.3c0,0.1-0.1,0.2-0.1,0.3c0,0.1,0,0.2,0.1,0.2c0,0,0.1,0.1,0.2,0.1c0,0,0.1,0,0.1,0c0,0,0.1,0,0.1,0l-0.1,0.6
				c-0.1,0-0.1,0-0.2,0.1c-0.1,0-0.2,0-0.2,0c-0.2,0-0.4-0.1-0.5-0.2c-0.1-0.1-0.2-0.3-0.1-0.5l0,0c-0.2,0.2-0.4,0.4-0.6,0.5
				c-0.2,0.1-0.6,0.2-1,0.2c-0.2,0-0.4,0-0.6-0.1c-0.2,0-0.3-0.1-0.5-0.2c-0.1-0.1-0.2-0.2-0.3-0.4c-0.1-0.2-0.1-0.4-0.1-0.6
				c0-0.3,0.1-0.6,0.2-0.8c0.2-0.2,0.3-0.3,0.6-0.4c0.2-0.1,0.5-0.2,0.8-0.2c0.3,0,0.6-0.1,0.8-0.1c0.2,0,0.4,0,0.5-0.1
				c0.2,0,0.3-0.1,0.4-0.1c0.1,0,0.2-0.1,0.2-0.2c0-0.1,0.1-0.2,0.1-0.4c0-0.1,0-0.2-0.1-0.3c-0.1-0.1-0.1-0.1-0.2-0.2
				c-0.1,0-0.2-0.1-0.3-0.1c-0.1,0-0.2,0-0.3,0c-0.1,0-0.3,0-0.4,0c-0.1,0-0.3,0.1-0.4,0.2c-0.1,0.1-0.2,0.2-0.3,0.3
				c-0.1,0.1-0.1,0.2-0.2,0.4H46C46.1,31.6,46.2,31.4,46.3,31.2z M46.5,34.4c0.2,0.1,0.4,0.2,0.6,0.2c0.6,0,1.1-0.2,1.3-0.6
				c0.1-0.2,0.2-0.4,0.3-0.6c0-0.2,0.1-0.4,0.2-0.6h0c-0.1,0.1-0.2,0.1-0.4,0.2c-0.2,0-0.3,0.1-0.5,0.1c-0.2,0-0.4,0-0.6,0.1
				c-0.2,0-0.4,0.1-0.5,0.1c-0.2,0.1-0.3,0.1-0.4,0.3c-0.1,0.1-0.2,0.3-0.2,0.5C46.2,34.2,46.3,34.3,46.5,34.4z"/>
			<path class="st1" d="M53.1,30.4L53,31.1H52l-0.6,2.8c0,0.1,0,0.1,0,0.2c0,0,0,0.1,0,0.2c0,0.1,0,0.2,0.1,0.3
				c0.1,0,0.2,0.1,0.3,0.1c0.1,0,0.2,0,0.2,0c0.1,0,0.1,0,0.2-0.1l-0.1,0.7c-0.1,0-0.2,0-0.3,0c-0.1,0-0.2,0-0.3,0
				c-0.1,0-0.3,0-0.4,0c-0.1,0-0.2-0.1-0.3-0.1c-0.1-0.1-0.2-0.1-0.2-0.2c-0.1-0.1-0.1-0.2-0.1-0.4c0-0.1,0-0.1,0-0.2
				c0-0.1,0-0.1,0-0.2l0.6-3h-0.8l0.1-0.7h0.8l0.3-1.4h0.8l-0.3,1.4H53.1z"/>
			<path class="st1" d="M54.6,30.4l-1,4.8h-0.8l1-4.8H54.6z M54,29.6l0.2-1H55l-0.2,1H54z"/>
			<path class="st1" d="M55.1,32.2c0.1-0.4,0.3-0.7,0.5-1c0.2-0.3,0.5-0.5,0.8-0.7c0.3-0.2,0.7-0.2,1.1-0.2c0.6,0,1.1,0.2,1.5,0.5
				c0.3,0.3,0.5,0.8,0.5,1.5c0,0.4-0.1,0.8-0.2,1.1c-0.1,0.4-0.3,0.7-0.5,1c-0.2,0.3-0.5,0.5-0.8,0.7c-0.3,0.2-0.7,0.2-1.1,0.2
				c-0.3,0-0.6,0-0.8-0.1c-0.2-0.1-0.5-0.2-0.6-0.4c-0.2-0.2-0.3-0.4-0.4-0.6c-0.1-0.2-0.1-0.5-0.1-0.8
				C54.9,32.9,54.9,32.5,55.1,32.2z M56,34.2c0.2,0.2,0.5,0.4,1,0.4c0.3,0,0.5-0.1,0.8-0.2c0.2-0.1,0.4-0.3,0.6-0.6
				c0.2-0.2,0.3-0.5,0.3-0.7c0.1-0.3,0.1-0.5,0.1-0.7c0-0.2,0-0.4-0.1-0.5c0-0.2-0.1-0.3-0.2-0.4c-0.1-0.1-0.2-0.2-0.4-0.3
				C57.9,31,57.7,31,57.5,31c-0.3,0-0.6,0.1-0.8,0.2c-0.2,0.1-0.4,0.3-0.6,0.6c-0.2,0.2-0.3,0.5-0.3,0.7c-0.1,0.3-0.1,0.5-0.1,0.8
				C55.7,33.7,55.8,34,56,34.2z"/>
			<path class="st1" d="M61.5,30.4l-0.1,0.7h0c0.2-0.3,0.4-0.5,0.7-0.6c0.3-0.1,0.6-0.2,0.9-0.2c0.4,0,0.8,0.1,1,0.3
				c0.2,0.2,0.3,0.5,0.3,0.9c0,0.1,0,0.2,0,0.4c0,0.2-0.1,0.3-0.1,0.5l-0.6,2.7h-0.8l0.6-2.8c0,0,0-0.1,0-0.2c0-0.1,0-0.1,0-0.2
				c0-0.1,0-0.1,0-0.2c0-0.1,0-0.1,0-0.2c0-0.2-0.1-0.4-0.2-0.5C63.2,31.1,63,31,62.8,31c-0.2,0-0.4,0.1-0.6,0.2
				c-0.2,0.1-0.4,0.2-0.5,0.4c-0.1,0.1-0.3,0.3-0.3,0.4c-0.1,0.2-0.1,0.4-0.2,0.5l-0.6,2.6h-0.8l1-4.8H61.5z"/>
			<path class="st1" d="M65.5,31.2c0.1-0.2,0.3-0.4,0.5-0.5c0.2-0.1,0.4-0.2,0.6-0.3c0.2-0.1,0.5-0.1,0.7-0.1c0.2,0,0.5,0,0.7,0.1
				c0.2,0,0.4,0.1,0.6,0.2c0.2,0.1,0.3,0.2,0.4,0.4c0.1,0.2,0.1,0.4,0.1,0.6c0,0.1,0,0.3-0.1,0.4c0,0.2-0.1,0.3-0.1,0.4l-0.3,1.3
				c0,0.1,0,0.2-0.1,0.3c0,0.1-0.1,0.2-0.1,0.3c0,0.1,0,0.2,0.1,0.2c0,0,0.1,0.1,0.2,0.1c0,0,0.1,0,0.1,0c0,0,0.1,0,0.1,0l-0.1,0.6
				c-0.1,0-0.1,0-0.2,0.1c-0.1,0-0.2,0-0.2,0c-0.2,0-0.4-0.1-0.5-0.2c-0.1-0.1-0.2-0.3-0.1-0.5l0,0c-0.2,0.2-0.4,0.4-0.6,0.5
				c-0.2,0.1-0.6,0.2-1,0.2c-0.2,0-0.4,0-0.6-0.1c-0.2,0-0.3-0.1-0.5-0.2c-0.1-0.1-0.2-0.2-0.3-0.4c-0.1-0.2-0.1-0.4-0.1-0.6
				c0-0.3,0.1-0.6,0.2-0.8c0.2-0.2,0.3-0.3,0.6-0.4c0.2-0.1,0.5-0.2,0.8-0.2c0.3,0,0.6-0.1,0.8-0.1c0.2,0,0.4,0,0.5-0.1
				c0.1,0,0.3-0.1,0.4-0.1c0.1,0,0.2-0.1,0.2-0.2c0-0.1,0.1-0.2,0.1-0.4c0-0.1,0-0.2-0.1-0.3c-0.1-0.1-0.1-0.1-0.2-0.2
				c-0.1,0-0.2-0.1-0.3-0.1c-0.1,0-0.2,0-0.3,0c-0.1,0-0.3,0-0.4,0c-0.1,0-0.3,0.1-0.4,0.2c-0.1,0.1-0.2,0.2-0.3,0.3
				c-0.1,0.1-0.1,0.2-0.2,0.4h-0.8C65.3,31.6,65.4,31.4,65.5,31.2z M65.7,34.4c0.2,0.1,0.4,0.2,0.6,0.2c0.6,0,1.1-0.2,1.3-0.6
				c0.1-0.2,0.2-0.4,0.3-0.6c0-0.2,0.1-0.4,0.2-0.6h0c-0.1,0.1-0.2,0.1-0.4,0.2c-0.2,0-0.3,0.1-0.5,0.1c-0.2,0-0.4,0-0.6,0.1
				c-0.2,0-0.4,0.1-0.5,0.1c-0.2,0.1-0.3,0.1-0.4,0.3c-0.1,0.1-0.2,0.3-0.2,0.5C65.4,34.2,65.5,34.3,65.7,34.4z"/>
			<path class="st1" d="M71.5,28.6l-1.4,6.6h-0.8l1.4-6.6H71.5z"/>
			<path class="st1" d="M75.9,28.6l-1.4,6.6h-0.9l1.4-6.6H75.9z"/>
			<path class="st1" d="M77.5,30.4l-0.1,0.7h0c0.2-0.3,0.4-0.5,0.7-0.6c0.3-0.1,0.6-0.2,0.9-0.2c0.4,0,0.8,0.1,1,0.3
				c0.2,0.2,0.3,0.5,0.3,0.9c0,0.1,0,0.2,0,0.4c0,0.2-0.1,0.3-0.1,0.5l-0.6,2.7h-0.8l0.6-2.8c0,0,0-0.1,0-0.2c0-0.1,0-0.1,0-0.2
				c0-0.1,0-0.1,0-0.2c0-0.1,0-0.1,0-0.2c0-0.2-0.1-0.4-0.2-0.5C79.2,31.1,79,31,78.8,31c-0.2,0-0.4,0.1-0.6,0.2
				c-0.2,0.1-0.4,0.2-0.5,0.4c-0.1,0.1-0.3,0.3-0.3,0.4c-0.1,0.2-0.1,0.4-0.2,0.5l-0.6,2.6h-0.8l1-4.8H77.5z"/>
			<path class="st1" d="M83.7,31.2C83.5,31.1,83.3,31,83,31c-0.1,0-0.2,0-0.4,0c-0.1,0-0.2,0.1-0.3,0.1c-0.1,0-0.2,0.1-0.2,0.2
				C82,31.4,82,31.5,82,31.6c0,0.1,0,0.2,0.1,0.3c0.1,0.1,0.2,0.2,0.3,0.2c0.1,0.1,0.3,0.1,0.4,0.2c0.2,0.1,0.3,0.1,0.5,0.2
				c0.2,0.1,0.3,0.1,0.5,0.2c0.2,0.1,0.3,0.2,0.4,0.3c0.1,0.1,0.2,0.2,0.3,0.4c0.1,0.1,0.1,0.3,0.1,0.5c0,0.3-0.1,0.5-0.2,0.7
				c-0.1,0.2-0.3,0.3-0.5,0.5c-0.2,0.1-0.4,0.2-0.6,0.3c-0.2,0.1-0.5,0.1-0.7,0.1c-0.3,0-0.5,0-0.8-0.1c-0.2-0.1-0.4-0.1-0.6-0.3
				c-0.2-0.1-0.3-0.3-0.4-0.5c-0.1-0.2-0.1-0.5-0.1-0.8h0.8c0,0.2,0,0.3,0.1,0.4c0.1,0.1,0.2,0.2,0.3,0.3c0.1,0.1,0.2,0.1,0.4,0.2
				c0.2,0,0.3,0,0.5,0c0.1,0,0.3,0,0.4,0c0.1,0,0.2-0.1,0.3-0.1c0.1-0.1,0.2-0.1,0.3-0.2c0.1-0.1,0.1-0.2,0.1-0.3
				c0-0.1,0-0.2-0.1-0.3c-0.1-0.1-0.2-0.2-0.3-0.2c-0.1-0.1-0.3-0.1-0.4-0.2c-0.2-0.1-0.3-0.1-0.5-0.2c-0.2-0.1-0.3-0.1-0.5-0.2
				c-0.2-0.1-0.3-0.2-0.4-0.3c-0.1-0.1-0.2-0.2-0.3-0.4c-0.1-0.1-0.1-0.3-0.1-0.5c0-0.2,0.1-0.4,0.2-0.6c0.1-0.2,0.2-0.3,0.4-0.4
				c0.2-0.1,0.4-0.2,0.6-0.3c0.2-0.1,0.4-0.1,0.6-0.1c0.2,0,0.4,0,0.7,0.1c0.2,0.1,0.4,0.1,0.6,0.3c0.2,0.1,0.3,0.3,0.4,0.5
				c0.1,0.2,0.2,0.4,0.2,0.7H84C84,31.6,83.9,31.3,83.7,31.2z"/>
			<path class="st1" d="M88,35.2l0.1-0.7h0c-0.2,0.3-0.4,0.5-0.7,0.6c-0.3,0.1-0.6,0.2-0.9,0.2c-0.4,0-0.8-0.1-1-0.3
				c-0.2-0.2-0.3-0.5-0.3-0.9c0-0.1,0-0.2,0-0.4c0-0.2,0.1-0.3,0.1-0.5l0.6-2.7h0.8L86,33.2c0,0,0,0.1,0,0.2c0,0.1,0,0.1,0,0.2
				c0,0.1,0,0.1,0,0.2c0,0.1,0,0.1,0,0.2c0,0.2,0.1,0.4,0.2,0.5c0.2,0.1,0.4,0.2,0.6,0.2c0.2,0,0.4,0,0.6-0.1
				c0.2-0.1,0.4-0.2,0.5-0.3c0.1-0.1,0.3-0.3,0.4-0.5c0.1-0.2,0.2-0.4,0.2-0.6l0.6-2.6h0.8l-1,4.8H88z"/>
			<path class="st1" d="M91.6,30.4l-0.2,1h0c0.2-0.3,0.4-0.6,0.7-0.8c0.3-0.2,0.6-0.3,1-0.3c0,0,0.1,0,0.1,0c0,0,0.1,0,0.1,0
				l-0.2,0.8c0,0-0.1,0-0.1,0h-0.1c-0.1,0-0.2,0-0.2,0c-0.1,0-0.1,0-0.2,0c-0.2,0.1-0.4,0.2-0.6,0.3c-0.2,0.1-0.3,0.3-0.4,0.5
				c-0.1,0.2-0.2,0.3-0.2,0.5c-0.1,0.2-0.1,0.4-0.1,0.6l-0.5,2.1h-0.8l1-4.8H91.6z"/>
			<path class="st1" d="M93.5,31.2c0.1-0.2,0.3-0.4,0.5-0.5c0.2-0.1,0.4-0.2,0.6-0.3c0.2-0.1,0.5-0.1,0.7-0.1c0.2,0,0.5,0,0.7,0.1
				c0.2,0,0.4,0.1,0.6,0.2c0.2,0.1,0.3,0.2,0.4,0.4c0.1,0.2,0.1,0.4,0.1,0.6c0,0.1,0,0.3-0.1,0.4c0,0.2-0.1,0.3-0.1,0.4l-0.3,1.3
				c0,0.1,0,0.2-0.1,0.3c0,0.1-0.1,0.2-0.1,0.3c0,0.1,0,0.2,0.1,0.2c0,0,0.1,0.1,0.2,0.1c0,0,0.1,0,0.1,0c0,0,0.1,0,0.1,0l-0.1,0.6
				c-0.1,0-0.1,0-0.2,0.1c-0.1,0-0.2,0-0.2,0c-0.2,0-0.4-0.1-0.5-0.2c-0.1-0.1-0.2-0.3-0.1-0.5l0,0c-0.2,0.2-0.4,0.4-0.6,0.5
				c-0.2,0.1-0.6,0.2-1,0.2c-0.2,0-0.4,0-0.6-0.1c-0.2,0-0.3-0.1-0.5-0.2c-0.1-0.1-0.2-0.2-0.3-0.4c-0.1-0.2-0.1-0.4-0.1-0.6
				c0-0.3,0.1-0.6,0.2-0.8c0.2-0.2,0.3-0.3,0.6-0.4c0.2-0.1,0.5-0.2,0.8-0.2c0.3,0,0.6-0.1,0.8-0.1c0.2,0,0.4,0,0.5-0.1
				c0.2,0,0.3-0.1,0.4-0.1c0.1,0,0.2-0.1,0.2-0.2c0-0.1,0.1-0.2,0.1-0.4c0-0.1,0-0.2-0.1-0.3c-0.1-0.1-0.1-0.1-0.2-0.2
				c-0.1,0-0.2-0.1-0.3-0.1c-0.1,0-0.2,0-0.3,0c-0.1,0-0.3,0-0.4,0c-0.1,0-0.3,0.1-0.4,0.2c-0.1,0.1-0.2,0.2-0.3,0.3
				c-0.1,0.1-0.1,0.2-0.2,0.4h-0.8C93.3,31.6,93.4,31.4,93.5,31.2z M93.7,34.4c0.2,0.1,0.4,0.2,0.6,0.2c0.6,0,1.1-0.2,1.3-0.6
				c0.1-0.2,0.2-0.4,0.3-0.6c0-0.2,0.1-0.4,0.2-0.6h0c-0.1,0.1-0.2,0.1-0.4,0.2c-0.2,0-0.3,0.1-0.5,0.1c-0.2,0-0.4,0-0.6,0.1
				c-0.2,0-0.4,0.1-0.5,0.1c-0.2,0.1-0.3,0.1-0.4,0.3c-0.1,0.1-0.2,0.3-0.2,0.5C93.5,34.2,93.5,34.3,93.7,34.4z"/>
			<path class="st1" d="M99.1,30.4l-0.1,0.7h0c0.2-0.3,0.4-0.5,0.7-0.6c0.3-0.1,0.6-0.2,0.9-0.2c0.4,0,0.8,0.1,1,0.3
				c0.2,0.2,0.3,0.5,0.3,0.9c0,0.1,0,0.2,0,0.4c0,0.2-0.1,0.3-0.1,0.5l-0.6,2.7h-0.8l0.6-2.8c0,0,0-0.1,0-0.2c0-0.1,0-0.1,0-0.2
				c0-0.1,0-0.1,0-0.2c0-0.1,0-0.1,0-0.2c0-0.2-0.1-0.4-0.2-0.5c-0.2-0.1-0.4-0.2-0.6-0.2c-0.2,0-0.4,0.1-0.6,0.2
				c-0.2,0.1-0.4,0.2-0.5,0.4c-0.1,0.1-0.3,0.3-0.3,0.4c-0.1,0.2-0.1,0.4-0.2,0.5l-0.6,2.6h-0.8l1-4.8H99.1z"/>
			<path class="st1" d="M105.9,31.2c-0.2-0.2-0.4-0.2-0.7-0.2c-0.3,0-0.6,0.1-0.8,0.2c-0.2,0.1-0.4,0.3-0.6,0.5
				c-0.2,0.2-0.3,0.5-0.4,0.7c-0.1,0.3-0.1,0.5-0.1,0.8c0,0.2,0,0.4,0.1,0.5c0,0.2,0.1,0.3,0.2,0.4c0.1,0.1,0.2,0.2,0.4,0.3
				c0.1,0.1,0.3,0.1,0.6,0.1c0.3,0,0.6-0.1,0.9-0.3c0.2-0.2,0.4-0.4,0.5-0.7h0.8c-0.1,0.5-0.4,1-0.8,1.2c-0.4,0.3-0.8,0.4-1.4,0.4
				c-0.7,0-1.1-0.2-1.5-0.5c-0.3-0.4-0.5-0.9-0.5-1.5c0-0.4,0.1-0.7,0.2-1.1c0.1-0.3,0.3-0.7,0.5-0.9c0.2-0.3,0.5-0.5,0.8-0.7
				c0.3-0.2,0.7-0.2,1.1-0.2c0.5,0,1,0.1,1.3,0.4c0.3,0.3,0.5,0.7,0.5,1.2h-0.8C106.1,31.6,106,31.4,105.9,31.2z"/>
			<path class="st1" d="M107.9,33.5c0,0.2,0,0.3,0.1,0.5c0.1,0.1,0.2,0.3,0.3,0.4c0.1,0.1,0.2,0.2,0.4,0.2c0.1,0.1,0.3,0.1,0.5,0.1
				c0.3,0,0.6-0.1,0.9-0.2c0.2-0.2,0.4-0.4,0.5-0.7h0.8c-0.1,0.3-0.2,0.5-0.3,0.7c-0.1,0.2-0.3,0.4-0.5,0.5
				c-0.2,0.1-0.4,0.2-0.6,0.3c-0.2,0.1-0.5,0.1-0.7,0.1c-0.4,0-0.7-0.1-1-0.2c-0.3-0.1-0.5-0.3-0.6-0.5c-0.2-0.2-0.3-0.4-0.3-0.6
				c-0.1-0.2-0.1-0.4-0.1-0.6c0-0.5,0.1-0.9,0.2-1.2c0.1-0.4,0.3-0.7,0.5-1c0.2-0.3,0.5-0.5,0.8-0.6c0.3-0.1,0.6-0.2,0.9-0.2
				c0.7,0,1.2,0.2,1.5,0.6c0.3,0.4,0.5,0.9,0.5,1.6c0,0.1,0,0.2,0,0.3c0,0.1,0,0.2,0,0.3h-3.6C107.9,33.2,107.9,33.3,107.9,33.5z
				 M110.8,31.9c0-0.2-0.1-0.3-0.2-0.4c-0.1-0.1-0.2-0.2-0.4-0.3c-0.1-0.1-0.3-0.1-0.5-0.1c-0.2,0-0.4,0-0.6,0.1
				c-0.2,0.1-0.3,0.2-0.5,0.3c-0.1,0.1-0.2,0.3-0.3,0.4c-0.1,0.2-0.2,0.3-0.2,0.5h2.8C110.8,32.2,110.8,32,110.8,31.9z"/>
			<path class="st1" d="M118.3,28.6c0.6,0,1.1,0.1,1.4,0.4c0.3,0.3,0.4,0.7,0.4,1.2c0,0.2,0,0.4-0.1,0.5c-0.1,0.2-0.1,0.3-0.2,0.5
				c-0.1,0.1-0.2,0.3-0.4,0.4c-0.2,0.1-0.3,0.2-0.5,0.2v0c0.3,0.1,0.5,0.2,0.7,0.5c0.2,0.2,0.3,0.5,0.3,0.9c0,0.3-0.1,0.6-0.2,0.8
				c-0.1,0.3-0.3,0.5-0.5,0.6c-0.2,0.2-0.5,0.3-0.7,0.4c-0.3,0.1-0.6,0.1-0.9,0.1h-3.2l1.4-6.6H118.3z M117.4,34.4
				c0.1,0,0.3,0,0.4,0c0.2,0,0.4-0.1,0.5-0.2c0.2-0.1,0.3-0.2,0.4-0.4c0.1-0.2,0.2-0.4,0.2-0.7c0-0.2,0-0.4-0.1-0.5
				c-0.1-0.1-0.2-0.2-0.3-0.3c-0.1-0.1-0.3-0.1-0.4-0.1c-0.2,0-0.3,0-0.5,0h-1.9l-0.5,2.3H117.4z M117.8,31.4c0.9,0,1.4-0.4,1.4-1.3
				c0-0.2,0-0.3-0.1-0.5c-0.1-0.1-0.2-0.2-0.3-0.2c-0.1-0.1-0.3-0.1-0.4-0.1c-0.2,0-0.3,0-0.4,0h-1.6l-0.4,2.1H117.8z"/>
			<path class="st1" d="M122,30.4l-0.2,1h0c0.2-0.3,0.4-0.6,0.7-0.8c0.3-0.2,0.6-0.3,1-0.3c0,0,0.1,0,0.1,0c0,0,0.1,0,0.1,0
				l-0.2,0.8c0,0-0.1,0-0.1,0h-0.1c-0.1,0-0.2,0-0.2,0c-0.1,0-0.1,0-0.2,0c-0.2,0.1-0.4,0.2-0.6,0.3c-0.2,0.1-0.3,0.3-0.4,0.5
				c-0.1,0.2-0.2,0.3-0.2,0.5c-0.1,0.2-0.1,0.4-0.1,0.6l-0.5,2.1h-0.8l1-4.8H122z"/>
			<path class="st1" d="M123.4,32.2c0.1-0.4,0.3-0.7,0.5-1c0.2-0.3,0.5-0.5,0.8-0.7c0.3-0.2,0.7-0.2,1.1-0.2c0.6,0,1.1,0.2,1.5,0.5
				c0.3,0.3,0.5,0.8,0.5,1.5c0,0.4-0.1,0.8-0.2,1.1c-0.1,0.4-0.3,0.7-0.5,1c-0.2,0.3-0.5,0.5-0.8,0.7c-0.3,0.2-0.7,0.2-1.1,0.2
				c-0.3,0-0.6,0-0.8-0.1c-0.2-0.1-0.5-0.2-0.6-0.4c-0.2-0.2-0.3-0.4-0.4-0.6c-0.1-0.2-0.1-0.5-0.1-0.8
				C123.2,32.9,123.2,32.5,123.4,32.2z M124.3,34.2c0.2,0.2,0.5,0.4,1,0.4c0.3,0,0.5-0.1,0.8-0.2c0.2-0.1,0.4-0.3,0.6-0.6
				c0.2-0.2,0.3-0.5,0.3-0.7c0.1-0.3,0.1-0.5,0.1-0.7c0-0.2,0-0.4-0.1-0.5c0-0.2-0.1-0.3-0.2-0.4c-0.1-0.1-0.2-0.2-0.4-0.3
				c-0.2-0.1-0.3-0.1-0.6-0.1c-0.3,0-0.6,0.1-0.8,0.2c-0.2,0.1-0.4,0.3-0.6,0.6c-0.2,0.2-0.3,0.5-0.3,0.7c-0.1,0.3-0.1,0.5-0.1,0.8
				C124,33.7,124.1,34,124.3,34.2z"/>
			<path class="st1" d="M130.2,28.6l-0.8,3.9l0,0l2.4-2.1h1l-2.1,1.8l1.2,3h-0.9l-0.9-2.5l-0.9,0.8l-0.4,1.7h-0.8l1.4-6.6H130.2z"/>
			<path class="st1" d="M133.2,33.5c0,0.2,0,0.3,0.1,0.5c0.1,0.1,0.2,0.3,0.3,0.4c0.1,0.1,0.2,0.2,0.4,0.2c0.1,0.1,0.3,0.1,0.5,0.1
				c0.4,0,0.6-0.1,0.9-0.2c0.2-0.2,0.4-0.4,0.5-0.7h0.8c-0.1,0.3-0.2,0.5-0.3,0.7c-0.1,0.2-0.3,0.4-0.5,0.5
				c-0.2,0.1-0.4,0.2-0.6,0.3c-0.2,0.1-0.5,0.1-0.7,0.1c-0.4,0-0.7-0.1-1-0.2c-0.3-0.1-0.5-0.3-0.6-0.5c-0.2-0.2-0.3-0.4-0.3-0.6
				c-0.1-0.2-0.1-0.4-0.1-0.6c0-0.5,0.1-0.9,0.2-1.2c0.1-0.4,0.3-0.7,0.5-1c0.2-0.3,0.5-0.5,0.8-0.6c0.3-0.1,0.6-0.2,0.9-0.2
				c0.7,0,1.2,0.2,1.5,0.6c0.3,0.4,0.5,0.9,0.5,1.6c0,0.1,0,0.2,0,0.3c0,0.1,0,0.2,0,0.3h-3.6C133.2,33.2,133.2,33.3,133.2,33.5z
				 M136.1,31.9c0-0.2-0.1-0.3-0.2-0.4c-0.1-0.1-0.2-0.2-0.4-0.3c-0.1-0.1-0.3-0.1-0.5-0.1c-0.2,0-0.4,0-0.6,0.1
				c-0.2,0.1-0.3,0.2-0.5,0.3c-0.1,0.1-0.2,0.3-0.3,0.4c-0.1,0.2-0.2,0.3-0.2,0.5h2.8C136.1,32.2,136.1,32,136.1,31.9z"/>
			<path class="st1" d="M138.8,30.4l-0.2,1h0c0.2-0.3,0.4-0.6,0.7-0.8c0.3-0.2,0.6-0.3,1-0.3c0,0,0.1,0,0.1,0c0,0,0.1,0,0.1,0
				l-0.2,0.8c0,0-0.1,0-0.1,0h-0.1c-0.1,0-0.2,0-0.2,0c-0.1,0-0.1,0-0.2,0c-0.2,0.1-0.4,0.2-0.6,0.3c-0.2,0.1-0.3,0.3-0.4,0.5
				c-0.1,0.2-0.2,0.3-0.2,0.5c-0.1,0.2-0.1,0.4-0.1,0.6l-0.5,2.1h-0.8l1-4.8H138.8z"/>
			<path class="st1" d="M143,31.2c-0.2-0.1-0.4-0.2-0.7-0.2c-0.1,0-0.2,0-0.4,0c-0.1,0-0.2,0.1-0.3,0.1c-0.1,0-0.2,0.1-0.2,0.2
				c-0.1,0.1-0.1,0.2-0.1,0.3c0,0.1,0,0.2,0.1,0.3c0.1,0.1,0.2,0.2,0.3,0.2c0.1,0.1,0.3,0.1,0.4,0.2c0.2,0.1,0.3,0.1,0.5,0.2
				c0.2,0.1,0.3,0.1,0.5,0.2c0.2,0.1,0.3,0.2,0.4,0.3c0.1,0.1,0.2,0.2,0.3,0.4c0.1,0.1,0.1,0.3,0.1,0.5c0,0.3-0.1,0.5-0.2,0.7
				c-0.1,0.2-0.3,0.3-0.5,0.5c-0.2,0.1-0.4,0.2-0.6,0.3c-0.2,0.1-0.5,0.1-0.7,0.1c-0.3,0-0.5,0-0.8-0.1c-0.2-0.1-0.4-0.1-0.6-0.3
				c-0.2-0.1-0.3-0.3-0.4-0.5c-0.1-0.2-0.1-0.5-0.1-0.8h0.8c0,0.2,0,0.3,0.1,0.4c0.1,0.1,0.2,0.2,0.3,0.3c0.1,0.1,0.2,0.1,0.4,0.2
				c0.2,0,0.3,0,0.5,0c0.1,0,0.3,0,0.4,0c0.1,0,0.2-0.1,0.3-0.1c0.1-0.1,0.2-0.1,0.3-0.2c0.1-0.1,0.1-0.2,0.1-0.3
				c0-0.1,0-0.2-0.1-0.3c-0.1-0.1-0.2-0.2-0.3-0.2c-0.1-0.1-0.2-0.1-0.4-0.2c-0.2-0.1-0.3-0.1-0.5-0.2c-0.2-0.1-0.3-0.1-0.5-0.2
				c-0.2-0.1-0.3-0.2-0.4-0.3c-0.1-0.1-0.2-0.2-0.3-0.4c-0.1-0.1-0.1-0.3-0.1-0.5c0-0.2,0.1-0.4,0.2-0.6c0.1-0.2,0.2-0.3,0.4-0.4
				c0.2-0.1,0.4-0.2,0.6-0.3c0.2-0.1,0.4-0.1,0.6-0.1s0.4,0,0.7,0.1c0.2,0.1,0.4,0.1,0.6,0.3c0.2,0.1,0.3,0.3,0.4,0.5
				c0.1,0.2,0.2,0.4,0.2,0.7h-0.8C143.3,31.6,143.2,31.3,143,31.2z"/>
		</g>
	</g>
	<g>
		<g>
			<path class="st0" d="M54.5,39.6l0.1,3.3l1.5-3.3h0.8l0.1,3.3l1.6-3.3h0.7l-2.1,4.2h-0.7l-0.2-3.3l-1.5,3.3H54l-0.3-4.2H54.5z"/>
			<path class="st0" d="M60.3,39.6l0.1,3.3l1.5-3.3h0.8l0.1,3.3l1.6-3.3h0.7L63,43.8h-0.7l-0.2-3.3l-1.5,3.3h-0.7l-0.3-4.2H60.3z"/>
			<path class="st0" d="M66.1,39.6l0.1,3.3l1.5-3.3h0.8l0.1,3.3l1.6-3.3H71l-2.1,4.2h-0.7l-0.2-3.3l-1.5,3.3h-0.7l-0.3-4.2H66.1z"/>
			<path class="st0" d="M70.6,42.9h0.8l-0.2,0.9h-0.8L70.6,42.9z"/>
			<path class="st0" d="M73.4,39.6h0.7L74,40.2c0.3-0.2,0.5-0.4,0.7-0.5c0.2-0.1,0.5-0.2,0.8-0.2c0.6,0,1,0.2,1.1,0.6
				c0.1,0.2,0.1,0.6,0,1L76,43.8h-0.7l0.6-2.7c0.1-0.3,0.1-0.5,0-0.6c-0.1-0.3-0.3-0.4-0.6-0.4c-0.2,0-0.3,0-0.4,0.1
				c-0.2,0.1-0.4,0.2-0.6,0.3c-0.1,0.1-0.3,0.3-0.3,0.4c-0.1,0.1-0.1,0.4-0.2,0.6l-0.5,2.2h-0.7L73.4,39.6z"/>
			<path class="st0" d="M79.8,41.2c0.2,0,0.3-0.1,0.4-0.2c0-0.1,0.1-0.2,0.1-0.3c0.1-0.2,0-0.4-0.1-0.5s-0.4-0.2-0.7-0.2
				c-0.4,0-0.7,0.1-0.9,0.3c-0.1,0.1-0.2,0.3-0.3,0.5h-0.7c0.1-0.5,0.4-0.9,0.7-1.1c0.4-0.2,0.8-0.3,1.2-0.3c0.5,0,0.9,0.1,1.1,0.3
				c0.3,0.2,0.4,0.5,0.3,0.9l-0.5,2.4c0,0.1,0,0.1,0,0.2c0,0,0.1,0.1,0.2,0.1c0,0,0.1,0,0.1,0c0,0,0.1,0,0.1,0l-0.1,0.5
				c-0.1,0-0.2,0.1-0.3,0.1c-0.1,0-0.1,0-0.2,0c-0.2,0-0.4-0.1-0.5-0.3c0-0.1-0.1-0.2,0-0.4c-0.2,0.2-0.4,0.4-0.7,0.5
				c-0.3,0.1-0.6,0.2-0.9,0.2c-0.4,0-0.7-0.1-0.9-0.4c-0.2-0.2-0.3-0.5-0.2-0.9c0.1-0.4,0.3-0.7,0.6-0.9c0.3-0.2,0.6-0.3,1-0.4
				L79.8,41.2z M78.4,43.3c0.2,0,0.5-0.1,0.8-0.2c0.4-0.2,0.7-0.5,0.8-0.9l0.1-0.6c-0.1,0.1-0.2,0.1-0.4,0.1c-0.1,0-0.3,0.1-0.4,0.1
				l-0.4,0.1c-0.3,0-0.5,0.1-0.6,0.2c-0.2,0.1-0.4,0.3-0.5,0.6c0,0.2,0,0.4,0.1,0.5C78.1,43.3,78.2,43.3,78.4,43.3z"/>
			<path class="st0" d="M85.5,41h-0.7c0-0.3,0-0.5-0.1-0.6c-0.1-0.2-0.3-0.3-0.7-0.3c-0.5,0-0.8,0.2-1.1,0.7
				c-0.2,0.3-0.3,0.6-0.4,1.1c-0.1,0.4-0.1,0.8,0,1.1c0.1,0.3,0.4,0.4,0.8,0.4c0.3,0,0.5-0.1,0.8-0.3c0.2-0.2,0.4-0.4,0.5-0.7h0.7
				c-0.2,0.6-0.5,1-0.9,1.2c-0.4,0.3-0.8,0.4-1.3,0.4c-0.6,0-1-0.2-1.2-0.6c-0.2-0.4-0.3-0.9-0.2-1.5c0.2-0.7,0.5-1.3,0.9-1.7
				c0.4-0.4,1-0.6,1.5-0.6c0.5,0,0.8,0.1,1.1,0.3C85.4,40,85.5,40.4,85.5,41z"/>
			<path class="st0" d="M89.7,41.6c-0.1,0.7-0.4,1.2-0.9,1.7c-0.4,0.4-1,0.7-1.7,0.7c-0.6,0-1-0.2-1.3-0.6c-0.3-0.4-0.3-0.9-0.2-1.6
				c0.2-0.7,0.5-1.3,0.9-1.7c0.4-0.4,1-0.6,1.6-0.6c0.5,0,1,0.2,1.3,0.5C89.8,40.3,89.8,40.9,89.7,41.6z M88.9,41.6
				c0.1-0.4,0.1-0.7,0-1c-0.1-0.4-0.4-0.6-0.9-0.6c-0.4,0-0.8,0.2-1.1,0.5c-0.3,0.3-0.4,0.7-0.5,1.2c-0.1,0.4-0.1,0.8,0.1,1.1
				c0.1,0.3,0.4,0.4,0.8,0.4c0.5,0,0.8-0.2,1.1-0.5C88.7,42.4,88.8,42,88.9,41.6z"/>
			<path class="st0" d="M91,39.6h0.7l-0.2,0.7c0.1-0.1,0.3-0.3,0.5-0.5c0.3-0.2,0.5-0.3,0.8-0.3c0,0,0,0,0.1,0c0,0,0.1,0,0.2,0
				l-0.2,0.8c0,0-0.1,0-0.1,0c0,0-0.1,0-0.1,0c-0.4,0-0.7,0.1-0.9,0.3c-0.2,0.2-0.4,0.5-0.5,0.8l-0.5,2.4h-0.7L91,39.6z"/>
			<path class="st0" d="M95.6,41.2c0.2,0,0.3-0.1,0.4-0.2c0-0.1,0.1-0.2,0.1-0.3c0.1-0.2,0-0.4-0.1-0.5s-0.4-0.2-0.7-0.2
				c-0.4,0-0.7,0.1-0.9,0.3c-0.1,0.1-0.2,0.3-0.3,0.5h-0.7c0.1-0.5,0.4-0.9,0.7-1.1c0.4-0.2,0.8-0.3,1.2-0.3c0.5,0,0.9,0.1,1.1,0.3
				c0.3,0.2,0.4,0.5,0.3,0.9l-0.5,2.4c0,0.1,0,0.1,0,0.2c0,0,0.1,0.1,0.2,0.1c0,0,0.1,0,0.1,0c0,0,0.1,0,0.1,0l-0.1,0.5
				c-0.1,0-0.2,0.1-0.3,0.1c-0.1,0-0.1,0-0.2,0c-0.2,0-0.4-0.1-0.5-0.3c0-0.1-0.1-0.2,0-0.4c-0.2,0.2-0.4,0.4-0.7,0.5
				c-0.3,0.1-0.6,0.2-0.9,0.2c-0.4,0-0.7-0.1-0.9-0.4c-0.2-0.2-0.3-0.5-0.2-0.9c0.1-0.4,0.3-0.7,0.6-0.9c0.3-0.2,0.6-0.3,1-0.4
				L95.6,41.2z M94.1,43.3c0.2,0,0.5-0.1,0.8-0.2c0.4-0.2,0.7-0.5,0.8-0.9l0.1-0.6c-0.1,0.1-0.2,0.1-0.4,0.1c-0.1,0-0.3,0.1-0.4,0.1
				l-0.4,0.1c-0.3,0-0.5,0.1-0.6,0.2c-0.2,0.1-0.4,0.3-0.5,0.6c0,0.2,0,0.4,0.1,0.5C93.8,43.3,93.9,43.3,94.1,43.3z"/>
			<path class="st0" d="M97.6,42.9h0.8l-0.2,0.9h-0.8L97.6,42.9z"/>
			<path class="st0" d="M103.4,41h-0.7c0-0.3,0-0.5-0.1-0.6c-0.1-0.2-0.3-0.3-0.7-0.3c-0.5,0-0.8,0.2-1.1,0.7
				c-0.2,0.3-0.3,0.6-0.4,1.1c-0.1,0.4-0.1,0.8,0,1.1c0.1,0.3,0.4,0.4,0.8,0.4c0.3,0,0.5-0.1,0.8-0.3c0.2-0.2,0.4-0.4,0.5-0.7h0.7
				c-0.2,0.6-0.5,1-0.9,1.2c-0.4,0.3-0.8,0.4-1.3,0.4c-0.6,0-1-0.2-1.2-0.6c-0.2-0.4-0.3-0.9-0.2-1.5c0.2-0.7,0.5-1.3,0.9-1.7
				c0.4-0.4,1-0.6,1.5-0.6c0.5,0,0.8,0.1,1.1,0.3C103.4,40,103.5,40.4,103.4,41z"/>
			<path class="st0" d="M107.6,41.6c-0.1,0.7-0.4,1.2-0.9,1.7c-0.4,0.4-1,0.7-1.7,0.7c-0.6,0-1-0.2-1.3-0.6
				c-0.3-0.4-0.3-0.9-0.2-1.6c0.2-0.7,0.5-1.3,0.9-1.7c0.4-0.4,1-0.6,1.6-0.6c0.5,0,1,0.2,1.3,0.5C107.7,40.3,107.8,40.9,107.6,41.6
				z M106.9,41.6c0.1-0.4,0.1-0.7,0-1c-0.1-0.4-0.4-0.6-0.9-0.6c-0.4,0-0.8,0.2-1.1,0.5c-0.3,0.3-0.4,0.7-0.5,1.2
				c-0.1,0.4-0.1,0.8,0.1,1.1c0.1,0.3,0.4,0.4,0.8,0.4c0.5,0,0.8-0.2,1.1-0.5C106.6,42.4,106.8,42,106.9,41.6z"/>
			<path class="st0" d="M108.9,39.6h0.7l-0.1,0.6c0.2-0.2,0.4-0.4,0.6-0.5c0.3-0.2,0.6-0.2,0.8-0.2c0.3,0,0.6,0.1,0.8,0.2
				c0.1,0.1,0.2,0.2,0.2,0.4c0.2-0.2,0.4-0.4,0.7-0.5c0.2-0.1,0.5-0.2,0.8-0.2c0.6,0,0.9,0.2,1,0.6c0.1,0.2,0.1,0.5,0,0.9l-0.6,2.8
				H113l0.6-2.9c0.1-0.3,0-0.5-0.1-0.6c-0.1-0.1-0.3-0.2-0.5-0.2c-0.3,0-0.5,0.1-0.8,0.3c-0.2,0.2-0.4,0.5-0.5,0.9l-0.5,2.5h-0.7
				l0.6-2.8c0.1-0.3,0.1-0.5,0-0.6c-0.1-0.2-0.2-0.3-0.5-0.3c-0.3,0-0.5,0.1-0.8,0.3c-0.3,0.2-0.5,0.6-0.6,1.1l-0.5,2.2H108
				L108.9,39.6z"/>
		</g>
	</g>
</g>
</svg>
