<?xml version="1.0" encoding="utf-8"?>
<!-- Generator: Adobe Illustrator 23.1.1, SVG Export Plug-In . SVG Version: 6.00 Build 0)  -->
<svg version="1.1" id="Layer_1" xmlns="http://www.w3.org/2000/svg" xmlns:xlink="http://www.w3.org/1999/xlink" x="0px" y="0px"
	 viewBox="0 0 63.8 63.8" style="enable-background:new 0 0 63.8 63.8;" xml:space="preserve">
<style type="text/css">
	.st0{fill:#9ED4FF;}
	.st1{fill:#FFFFFF;}
</style>
<rect x="0.1" y="0" class="st0" width="63.8" height="63.8"/>
<polygon class="st1" points="11.4,47.9 16.8,42.5 13.7,30.5 25.4,33.8 31,28.2 12.4,24 8.5,6.5 3.1,11.8 6.3,23.1 0.1,21.3 
	0.1,27.8 7.2,29.5 "/>
<path class="st1" d="M27.8,1.3C29,2.5,29.6,4,29.6,5.8c0,1.2-0.2,3.5-0.8,6.9c-0.7,3.9-0.6,6.9,0.3,8.9c0.7,1.9,1.8,3.7,3.3,5.3
	L47.3,12l-3.8-3.8L34,17.7c-0.2-0.7-0.2-1.4-0.2-2.2c0.1-0.7,0.2-2,0.6-3.9l0.5-2.9c0.4-2.5,0.5-4.4,0.3-5.9c-0.1-1-0.4-2-0.8-2.9
	h-8.7C26.4,0.2,27.2,0.7,27.8,1.3"/>
<path class="st1" d="M15,7c0.5,1.7,1.7,3.6,3.5,5.5l4.2-4.2c-1.2-1.3-1.9-2.3-2.2-3.2c-0.5-1.4-0.1-2.8,1.2-4.1
	c0.5-0.5,1.1-0.9,1.7-1.1H16C14.6,2.2,14.2,4.6,15,7"/>
<polygon class="st1" points="16.4,47.1 17.4,46.1 20.5,52.3 19.6,53.2 13.4,50.1 14.4,49.1 18.9,51.6 "/>
<polygon class="st1" points="23,42.1 20.6,44.6 21.6,45.5 23.8,43.3 24.6,44.1 22.4,46.3 23.6,47.5 26.1,45 26.9,45.8 23.5,49.3 
	18.8,44.7 22.2,41.3 "/>
<polygon class="st1" points="23.9,39.7 24.9,38.7 29.9,40 26.7,36.8 27.6,35.9 32.2,40.5 31.3,41.5 26.1,40.1 29.4,43.4 28.5,44.3 
	"/>
<path class="st1" d="M32.1,31.6c0.4-0.2,0.9-0.3,1.4-0.2c0.4,0.1,0.7,0.2,1.1,0.4c0.3,0.2,0.6,0.4,0.8,0.7c0.6,0.6,1,1.3,1.2,1.9
	c0.2,0.9,0,1.7-0.7,2.4l-2,2l-4.6-4.6l2-2C31.6,32,31.9,31.7,32.1,31.6 M31.1,34.1l3,3l0.9-0.9c0.5-0.5,0.5-1,0.3-1.6
	c-0.1-0.3-0.4-0.7-0.7-1c-0.5-0.5-0.9-0.8-1.3-0.9c-0.4-0.1-0.8,0.1-1.3,0.5L31.1,34.1z"/>
<path class="st1" d="M42.5,29.4c0,0.7-0.3,1.4-1,2c-0.7,0.7-1.3,1-2,1c-0.9,0-1.8-0.4-2.6-1.2c-0.8-0.8-1.2-1.7-1.2-2.6
	c0-0.7,0.3-1.4,1-2c0.7-0.7,1.3-1,2-1c0.9,0,1.8,0.4,2.6,1.2C42.1,27.7,42.5,28.5,42.5,29.4 M41.2,29.3c-0.1-0.5-0.3-1-0.9-1.5
	c-0.5-0.5-1-0.8-1.5-0.9c-0.5-0.1-1,0.1-1.3,0.5c-0.4,0.4-0.5,0.8-0.5,1.3c0.1,0.5,0.3,1,0.9,1.5c0.5,0.5,1,0.8,1.5,0.9
	c0.5,0.1,1-0.1,1.3-0.5C41.1,30.3,41.2,29.9,41.2,29.3"/>
<path class="st1" d="M43.6,20.2c0.2-0.1,0.5-0.1,0.8-0.1c0.2,0,0.4,0.1,0.6,0.2c0.2,0.1,0.4,0.2,0.6,0.4c0.2,0.2,0.4,0.5,0.5,0.8
	c0.1,0.3,0.1,0.7-0.1,1c0.3-0.1,0.6-0.2,0.8-0.1c0.2,0.1,0.5,0.3,0.9,0.6l0.3,0.3c0.2,0.2,0.4,0.3,0.5,0.4c0.1,0.1,0.3,0.1,0.4,0.1
	l0.1,0.1l-1.1,1.1c-0.1-0.1-0.2-0.1-0.3-0.2c-0.2-0.1-0.3-0.2-0.4-0.4l-0.4-0.4c-0.3-0.3-0.5-0.4-0.7-0.4s-0.4,0.1-0.7,0.4l-0.9,0.9
	l1.8,1.8l-0.9,0.9L40.5,23l2.2-2.2C43.1,20.5,43.4,20.3,43.6,20.2 M42.3,22.9l1.2,1.2l1-1c0.2-0.2,0.3-0.4,0.4-0.5
	c0.1-0.3,0-0.5-0.2-0.8c-0.3-0.3-0.6-0.4-0.8-0.3c-0.2,0-0.3,0.2-0.5,0.4L42.3,22.9z"/>
<path class="st1" d="M49.8,20.1c0.2,0.2,0.5,0.3,0.6,0.3c0.3,0,0.7-0.1,1.1-0.5c0.2-0.2,0.4-0.4,0.5-0.6c0.2-0.4,0.1-0.7-0.1-0.9
	c-0.2-0.2-0.3-0.2-0.6-0.2c-0.2,0.1-0.5,0.2-0.9,0.4l-0.6,0.4c-0.6,0.4-1.1,0.6-1.4,0.7c-0.5,0.1-1-0.1-1.5-0.5
	c-0.4-0.4-0.6-0.9-0.6-1.5c0-0.6,0.3-1.2,0.9-1.7c0.5-0.5,1-0.8,1.6-0.9c0.6-0.1,1.2,0.1,1.7,0.6l-0.9,0.9c-0.3-0.3-0.6-0.3-1-0.2
	c-0.2,0.1-0.5,0.2-0.7,0.5c-0.3,0.3-0.4,0.5-0.5,0.8c-0.1,0.3,0,0.5,0.2,0.6c0.2,0.2,0.4,0.2,0.6,0.1c0.2,0,0.4-0.2,0.8-0.4l1-0.6
	c0.4-0.3,0.8-0.4,1.1-0.5c0.5-0.1,0.9,0.1,1.4,0.5c0.4,0.4,0.6,0.9,0.6,1.5c0,0.6-0.4,1.2-1,1.8c-0.6,0.6-1.2,0.9-1.8,1
	c-0.6,0.1-1.2-0.1-1.7-0.6L49.8,20.1z"/>
</svg>
