<?xml version="1.0" encoding="utf-8"?>
<!-- Generator: Adobe Illustrator 23.0.1, SVG Export Plug-In . SVG Version: 6.00 Build 0)  -->
<svg version="1.1" id="Layer_1" xmlns="http://www.w3.org/2000/svg" xmlns:xlink="http://www.w3.org/1999/xlink" x="0px" y="0px"
	 viewBox="0 0 140 140" style="enable-background:new 0 0 140 140;" xml:space="preserve">
<style type="text/css">
	.st0{fill:#272663;}
	.st1{fill:url(#SVGID_1_);}
	.st2{fill:url(#SVGID_2_);}
	.st3{fill:url(#SVGID_3_);}
</style>
<g>
	<g>
		<path class="st0" d="M10.16,107.83c-0.05-0.2-0.12-0.37-0.22-0.51c-0.1-0.13-0.21-0.24-0.34-0.31c-0.13-0.07-0.26-0.13-0.4-0.15
			c-0.14-0.03-0.27-0.04-0.41-0.04c-0.46,0-0.84,0.17-1.14,0.51c-0.3,0.34-0.45,0.81-0.45,1.43c0,0.3,0.03,0.57,0.08,0.81
			c0.06,0.24,0.15,0.46,0.28,0.64c0.13,0.18,0.29,0.32,0.5,0.42c0.21,0.1,0.46,0.15,0.75,0.15c0.13,0,0.26-0.02,0.39-0.05
			c0.13-0.04,0.27-0.1,0.4-0.2c0.13-0.1,0.25-0.24,0.36-0.41c0.11-0.18,0.19-0.4,0.24-0.67h0.64c-0.06,0.43-0.19,0.77-0.37,1.04
			c-0.18,0.27-0.39,0.46-0.61,0.59c-0.23,0.12-0.44,0.21-0.63,0.24c-0.19,0.04-0.37,0.05-0.52,0.05c-0.29,0-0.56-0.05-0.83-0.15
			c-0.26-0.1-0.49-0.25-0.7-0.46c-0.21-0.21-0.37-0.48-0.49-0.81c-0.12-0.33-0.18-0.73-0.18-1.18c0-0.38,0.05-0.72,0.16-1.03
			c0.1-0.31,0.25-0.58,0.45-0.8c0.2-0.22,0.44-0.4,0.72-0.52c0.28-0.12,0.6-0.18,0.95-0.18c0.3,0,0.58,0.04,0.82,0.13
			c0.24,0.09,0.44,0.2,0.61,0.35c0.17,0.15,0.3,0.32,0.4,0.51c0.1,0.19,0.16,0.39,0.18,0.6H10.16z"/>
		<path class="st0" d="M14.08,111.24h-0.66v-4.88h2.25c0.21,0,0.41,0.02,0.61,0.06c0.19,0.04,0.36,0.11,0.51,0.21
			c0.15,0.1,0.27,0.23,0.36,0.4c0.09,0.17,0.13,0.38,0.13,0.63c0,0.17-0.02,0.32-0.06,0.45c-0.04,0.13-0.09,0.23-0.16,0.32
			c-0.07,0.09-0.14,0.16-0.21,0.22c-0.07,0.06-0.16,0.12-0.25,0.17c0.09,0.04,0.16,0.07,0.22,0.11c0.06,0.03,0.12,0.08,0.17,0.15
			c0.05,0.07,0.1,0.15,0.13,0.26c0.03,0.11,0.05,0.24,0.06,0.4l0.04,0.88c0,0.14,0.02,0.24,0.05,0.31c0.03,0.07,0.09,0.13,0.19,0.18
			v0.11h-0.81c-0.02-0.07-0.04-0.16-0.06-0.28c-0.02-0.12-0.03-0.23-0.03-0.35c-0.01-0.12-0.01-0.23-0.02-0.34
			c0-0.11-0.01-0.2-0.01-0.26c0-0.12-0.01-0.22-0.03-0.32c-0.02-0.1-0.06-0.19-0.12-0.27c-0.06-0.08-0.15-0.15-0.27-0.2
			c-0.12-0.05-0.27-0.07-0.46-0.07h-1.6V111.24z M14.08,108.59h1.53c0.14,0,0.26-0.01,0.37-0.03c0.11-0.02,0.22-0.06,0.31-0.12
			c0.1-0.06,0.17-0.14,0.22-0.26c0.05-0.11,0.08-0.26,0.08-0.43c0-0.18-0.03-0.32-0.08-0.43c-0.06-0.11-0.13-0.19-0.22-0.25
			c-0.09-0.05-0.18-0.09-0.27-0.11c-0.1-0.02-0.19-0.03-0.3-0.03h-1.64V108.59z"/>
		<path class="st0" d="M23.61,111.24h-3.6v-4.88h3.55v0.58h-2.89v1.49h2.67v0.58h-2.67v1.63h2.94V111.24z"/>
		<path class="st0" d="M26.94,109.82l-0.51,1.42h-0.68l1.83-4.88h0.75l1.77,4.88h-0.72l-0.48-1.42H26.94z M28.65,109.24l-0.72-2.15
			h-0.01l-0.78,2.15H28.65z"/>
		<path class="st0" d="M31.16,106.36h3.96v0.58h-1.65v4.29h-0.66v-4.29h-1.65V106.36z"/>
		<path class="st0" d="M38.19,111.24h-0.66v-4.88h0.66V111.24z"/>
		<path class="st0" d="M44.15,106.36h0.74l-1.78,4.88h-0.7l-1.78-4.88h0.73l1.39,4.16h0.01L44.15,106.36z"/>
		<path class="st0" d="M50.91,111.24h-3.6v-4.88h3.55v0.58h-2.89v1.49h2.67v0.58h-2.67v1.63h2.94V111.24z"/>
		<path class="st0" d="M57.09,106.36h1.98c0.31,0,0.6,0.06,0.85,0.17c0.26,0.11,0.47,0.28,0.65,0.49c0.18,0.21,0.31,0.46,0.41,0.75
			c0.1,0.29,0.14,0.61,0.14,0.96c0,0.29-0.04,0.59-0.11,0.88c-0.07,0.29-0.19,0.56-0.35,0.81c-0.16,0.25-0.38,0.45-0.65,0.59
			c-0.27,0.15-0.6,0.22-0.98,0.22h-1.95V106.36z M57.75,110.68h1.28c0.43,0,0.78-0.17,1.03-0.5c0.25-0.33,0.38-0.8,0.38-1.4
			c0-0.6-0.13-1.06-0.39-1.38c-0.26-0.31-0.62-0.47-1.07-0.47h-1.23V110.68z"/>
		<path class="st0" d="M64.42,111.24h-0.66v-4.88h0.66V111.24z"/>
		<path class="st0" d="M69.37,108.63h2.14v2.61h-0.43l-0.16-0.63c-0.17,0.23-0.4,0.42-0.68,0.55c-0.29,0.14-0.6,0.21-0.93,0.21
			c-0.37,0-0.67-0.05-0.9-0.16c-0.23-0.1-0.43-0.24-0.59-0.39c-0.18-0.17-0.32-0.34-0.42-0.53c-0.11-0.19-0.18-0.37-0.23-0.54
			c-0.05-0.18-0.08-0.34-0.09-0.49c-0.01-0.15-0.02-0.32-0.02-0.49c0-0.31,0.05-0.61,0.14-0.91c0.1-0.3,0.24-0.57,0.43-0.81
			c0.19-0.24,0.43-0.44,0.73-0.58c0.29-0.14,0.63-0.22,1.01-0.22c0.23,0,0.46,0.03,0.69,0.1c0.23,0.07,0.44,0.17,0.64,0.3
			c0.19,0.14,0.36,0.31,0.49,0.51c0.13,0.2,0.21,0.44,0.24,0.7h-0.64c-0.05-0.2-0.13-0.37-0.23-0.51c-0.1-0.14-0.22-0.24-0.36-0.32
			c-0.14-0.07-0.28-0.13-0.42-0.16c-0.15-0.03-0.3-0.04-0.45-0.04c-0.22,0-0.43,0.04-0.62,0.13c-0.19,0.09-0.36,0.21-0.51,0.38
			c-0.15,0.17-0.26,0.38-0.34,0.62c-0.08,0.25-0.12,0.53-0.12,0.84c0,0.27,0.03,0.52,0.08,0.75c0.05,0.24,0.14,0.45,0.26,0.64
			c0.12,0.19,0.29,0.34,0.5,0.45c0.22,0.11,0.48,0.17,0.78,0.17c0.17,0,0.34-0.02,0.51-0.06c0.17-0.04,0.33-0.12,0.49-0.25
			c0.2-0.16,0.34-0.34,0.42-0.55c0.08-0.21,0.12-0.46,0.12-0.74h-1.52V108.63z"/>
		<path class="st0" d="M74.98,111.24h-0.66v-4.88h0.66V111.24z"/>
		<path class="st0" d="M77.39,106.36h3.96v0.58H79.7v4.29h-0.66v-4.29h-1.65V106.36z"/>
		<path class="st0" d="M83.61,109.82l-0.51,1.42h-0.68l1.83-4.88H85l1.77,4.88h-0.72l-0.48-1.42H83.61z M85.32,109.24l-0.72-2.15
			h-0.01l-0.78,2.15H85.32z"/>
		<path class="st0" d="M89.73,110.66h2.47v0.58h-3.13v-4.88h0.66V110.66z"/>
		<path class="st0" d="M98.89,109.82l-0.51,1.42H97.7l1.83-4.88h0.75l1.77,4.88h-0.72l-0.48-1.42H98.89z M100.61,109.24l-0.72-2.15
			h-0.01l-0.78,2.15H100.61z"/>
		<path class="st0" d="M106.27,108.63h2.14v2.61h-0.43l-0.16-0.63c-0.17,0.23-0.4,0.42-0.68,0.55c-0.29,0.14-0.6,0.21-0.93,0.21
			c-0.37,0-0.67-0.05-0.9-0.16c-0.23-0.1-0.43-0.24-0.59-0.39c-0.18-0.17-0.32-0.34-0.42-0.53c-0.11-0.19-0.18-0.37-0.23-0.54
			c-0.05-0.18-0.08-0.34-0.09-0.49c-0.01-0.15-0.02-0.32-0.02-0.49c0-0.31,0.05-0.61,0.14-0.91c0.1-0.3,0.24-0.57,0.43-0.81
			c0.19-0.24,0.43-0.44,0.73-0.58c0.29-0.14,0.63-0.22,1.01-0.22c0.23,0,0.46,0.03,0.69,0.1c0.23,0.07,0.44,0.17,0.64,0.3
			c0.19,0.14,0.36,0.31,0.49,0.51c0.13,0.2,0.21,0.44,0.24,0.7h-0.64c-0.05-0.2-0.13-0.37-0.23-0.51c-0.1-0.14-0.22-0.24-0.36-0.32
			c-0.14-0.07-0.28-0.13-0.42-0.16c-0.15-0.03-0.29-0.04-0.44-0.04c-0.22,0-0.43,0.04-0.62,0.13c-0.19,0.09-0.36,0.21-0.51,0.38
			c-0.15,0.17-0.26,0.38-0.34,0.62c-0.08,0.25-0.12,0.53-0.12,0.84c0,0.27,0.03,0.52,0.08,0.75c0.05,0.24,0.14,0.45,0.26,0.64
			c0.12,0.19,0.29,0.34,0.5,0.45c0.22,0.11,0.48,0.17,0.78,0.17c0.17,0,0.34-0.02,0.51-0.06c0.17-0.04,0.33-0.12,0.49-0.25
			c0.2-0.16,0.34-0.34,0.42-0.55c0.08-0.21,0.12-0.46,0.12-0.74h-1.52V108.63z"/>
		<path class="st0" d="M114.8,111.24h-3.6v-4.88h3.55v0.58h-2.89v1.49h2.67v0.58h-2.67v1.63h2.94V111.24z"/>
		<path class="st0" d="M120.59,106.36h0.64v4.88h-0.74l-2.48-3.94H118v3.94h-0.64v-4.88h0.78l2.44,3.94h0.01V106.36z"/>
		<path class="st0" d="M127.38,107.83c-0.05-0.2-0.12-0.37-0.22-0.51c-0.1-0.13-0.21-0.24-0.34-0.31c-0.13-0.07-0.26-0.13-0.4-0.15
			c-0.14-0.03-0.27-0.04-0.41-0.04c-0.46,0-0.84,0.17-1.14,0.51c-0.3,0.34-0.45,0.81-0.45,1.43c0,0.3,0.03,0.57,0.08,0.81
			c0.06,0.24,0.15,0.46,0.28,0.64c0.13,0.18,0.29,0.32,0.5,0.42c0.21,0.1,0.46,0.15,0.75,0.15c0.13,0,0.26-0.02,0.39-0.05
			c0.13-0.04,0.27-0.1,0.4-0.2c0.13-0.1,0.25-0.24,0.36-0.41c0.11-0.18,0.19-0.4,0.24-0.67h0.64c-0.06,0.43-0.19,0.77-0.37,1.04
			c-0.18,0.27-0.39,0.46-0.61,0.59c-0.23,0.12-0.44,0.21-0.63,0.24c-0.19,0.04-0.37,0.05-0.52,0.05c-0.29,0-0.56-0.05-0.82-0.15
			c-0.26-0.1-0.49-0.25-0.7-0.46c-0.21-0.21-0.37-0.48-0.49-0.81c-0.12-0.33-0.18-0.73-0.18-1.18c0-0.38,0.05-0.72,0.16-1.03
			c0.1-0.31,0.25-0.58,0.45-0.8c0.2-0.22,0.44-0.4,0.72-0.52c0.28-0.12,0.6-0.18,0.95-0.18c0.3,0,0.58,0.04,0.82,0.13
			c0.24,0.09,0.44,0.2,0.61,0.35c0.17,0.15,0.3,0.32,0.4,0.51c0.1,0.19,0.16,0.39,0.18,0.6H127.38z"/>
		<path class="st0" d="M132.64,111.24h-0.66v-1.96l-1.84-2.91h0.77l1.4,2.34l1.4-2.34h0.77l-1.84,2.91V111.24z"/>
	</g>
	<g>
		<g>
			<rect x="113.07" y="84.77" class="st0" width="2.68" height="2.49"/>
			<g>
				<linearGradient id="SVGID_1_" gradientUnits="userSpaceOnUse" x1="69.089" y1="91.8004" x2="145.941" y2="91.8004">
					<stop  offset="0" style="stop-color:#0293C9"/>
					<stop  offset="0.1135" style="stop-color:#323780"/>
					<stop  offset="0.2523" style="stop-color:#D41680"/>
					<stop  offset="0.6" style="stop-color:#D62F30"/>
					<stop  offset="0.8" style="stop-color:#E8D426"/>
					<stop  offset="1" style="stop-color:#008A53"/>
				</linearGradient>
				<polygon class="st1" points="69.13,98.7 76.96,98.7 76.96,84.9 				"/>
				<path class="st0" d="M22.06,93.6h3.05c0,0.43-0.09,0.83-0.26,1.21c-0.17,0.38-0.41,0.72-0.71,1.01
					c-0.3,0.29-0.66,0.52-1.07,0.68c-0.41,0.17-0.85,0.25-1.32,0.25c-0.66,0-1.24-0.15-1.72-0.44c-0.48-0.29-0.88-0.67-1.19-1.13
					c-0.31-0.46-0.54-0.98-0.68-1.56c-0.15-0.57-0.22-1.14-0.22-1.71c0-1.65,0.35-2.9,1.05-3.76c0.7-0.86,1.63-1.3,2.79-1.3
					c0.39,0,0.76,0.06,1.13,0.19c0.37,0.12,0.69,0.29,0.96,0.5c0.28,0.21,0.5,0.45,0.68,0.73c0.18,0.28,0.29,0.58,0.33,0.9h2.9
					c-0.06-0.69-0.25-1.32-0.57-1.9c-0.32-0.57-0.75-1.07-1.29-1.48c-0.53-0.41-1.15-0.74-1.87-0.97c-0.71-0.23-1.48-0.35-2.29-0.35
					c-1.12,0-2.1,0.19-2.94,0.57c-0.84,0.38-1.55,0.9-2.11,1.57c-0.57,0.66-1,1.44-1.29,2.33c-0.29,0.89-0.44,1.84-0.44,2.85
					c0,0.95,0.15,1.88,0.44,2.77c0.29,0.89,0.71,1.68,1.25,2.36c0.55,0.68,1.2,1.23,1.97,1.64c0.77,0.41,1.63,0.61,2.58,0.61
					c0.95,0,1.8-0.16,2.53-0.49c0.73-0.32,1.26-0.78,1.6-1.36l0.06,1.37h2.38v-7.4h-5.74V93.6z"/>
				<rect x="29.09" y="84.77" class="st0" width="2.69" height="13.93"/>
				<path class="st0" d="M41.85,89.7c-0.45-0.46-0.99-0.82-1.63-1.08c-0.64-0.26-1.35-0.38-2.16-0.38c-0.82,0-1.54,0.13-2.19,0.38
					c-0.64,0.26-1.19,0.62-1.65,1.09c-0.46,0.47-0.81,1.04-1.05,1.7c-0.24,0.66-0.36,1.4-0.36,2.2c0,0.79,0.12,1.51,0.35,2.18
					c0.23,0.66,0.58,1.23,1.03,1.7c0.45,0.47,1,0.84,1.65,1.1c0.65,0.26,1.39,0.39,2.22,0.39c0.79,0,1.5-0.13,2.15-0.38
					c0.64-0.26,1.19-0.62,1.64-1.09c0.45-0.47,0.79-1.03,1.04-1.69c0.24-0.66,0.36-1.39,0.36-2.21c0-0.82-0.12-1.56-0.36-2.22
					C42.64,90.72,42.3,90.16,41.85,89.7z M38.06,96.71c-1.64,0-2.47-1.04-2.47-3.11c0-2.06,0.82-3.09,2.47-3.09
					c1.64,0,2.47,1.03,2.47,3.09C40.53,95.68,39.71,96.71,38.06,96.71z"/>
				<path class="st0" d="M53.09,89.71c-0.36-0.47-0.8-0.83-1.32-1.09c-0.52-0.26-1.11-0.38-1.77-0.38c-1.26,0-2.27,0.53-3.03,1.6
					v-5.06h-2.65V98.7h2.59l0.02-1.24c0.62,1.01,1.57,1.51,2.84,1.51c0.63,0,1.23-0.12,1.77-0.37c0.55-0.25,1.01-0.61,1.4-1.08
					c0.39-0.47,0.69-1.04,0.91-1.72c0.22-0.68,0.33-1.44,0.33-2.3c0-0.77-0.09-1.48-0.28-2.12C53.73,90.73,53.45,90.18,53.09,89.71z
					 M50.81,95.91c-0.43,0.57-0.98,0.86-1.66,0.86c-0.65,0-1.19-0.27-1.63-0.81c-0.43-0.54-0.65-1.24-0.65-2.11
					c0-2.21,0.75-3.32,2.26-3.32c1.55,0,2.32,1.05,2.32,3.15C51.46,94.6,51.24,95.34,50.81,95.91z"/>
				<path class="st0" d="M63.22,89.28c-0.34-0.34-0.79-0.6-1.35-0.78c-0.56-0.18-1.24-0.27-2.04-0.27c-0.82,0-1.51,0.09-2.07,0.26
					c-0.57,0.17-1.03,0.42-1.38,0.74c-0.35,0.32-0.61,0.7-0.77,1.14c-0.16,0.44-0.25,0.93-0.26,1.45h2.51
					c0.07-0.46,0.24-0.82,0.51-1.1c0.27-0.28,0.71-0.41,1.34-0.41c0.53,0,0.94,0.09,1.26,0.28c0.31,0.19,0.47,0.45,0.47,0.78
					c0,0.36-0.12,0.62-0.35,0.78c-0.24,0.16-0.69,0.29-1.37,0.38c-0.68,0.1-1.3,0.2-1.88,0.32c-0.57,0.12-1.07,0.3-1.48,0.55
					c-0.41,0.25-0.74,0.59-0.97,1.03c-0.24,0.43-0.35,1.02-0.35,1.75c0,0.83,0.27,1.5,0.82,2.02c0.55,0.52,1.41,0.78,2.58,0.78
					c0.69,0,1.3-0.11,1.82-0.32c0.52-0.21,0.95-0.5,1.27-0.86c0.03,0.34,0.08,0.65,0.17,0.91h2.51v-6.45c0-0.63-0.08-1.21-0.23-1.71
					C63.8,90.04,63.56,89.62,63.22,89.28z M61.47,94.83c0,0.3-0.07,0.59-0.2,0.86c-0.13,0.27-0.3,0.5-0.52,0.7
					c-0.21,0.2-0.47,0.36-0.77,0.48c-0.3,0.12-0.62,0.18-0.96,0.18c-0.87,0-1.31-0.38-1.31-1.14c0-0.44,0.15-0.78,0.43-1.02
					c0.29-0.24,0.82-0.43,1.6-0.58c0.5-0.1,0.88-0.19,1.14-0.27c0.26-0.08,0.46-0.19,0.6-0.33L61.47,94.83z"/>
				<rect x="65.47" y="84.77" class="st0" width="2.69" height="13.93"/>
				<polygon class="st0" points="83.68,95.03 81.19,84.94 76.96,84.94 76.96,98.7 79.64,98.7 79.64,89.31 82.19,98.7 85.05,98.7 
					87.62,89.27 87.62,98.7 90.31,98.7 90.31,84.94 86.17,84.94 				"/>
				<path class="st0" d="M99.82,89.75c-0.81-1.01-2-1.51-3.58-1.51c-0.79,0-1.49,0.12-2.09,0.36c-0.61,0.24-1.12,0.59-1.54,1.05
					c-0.42,0.46-0.74,1-0.96,1.64c-0.22,0.64-0.33,1.35-0.33,2.13c0,3.7,1.7,5.56,5.1,5.56c1.09,0,2.03-0.28,2.82-0.85
					c0.79-0.57,1.34-1.38,1.66-2.43h-2.78c-0.1,0.36-0.31,0.64-0.65,0.84c-0.34,0.2-0.73,0.3-1.17,0.3c-0.66,0-1.2-0.23-1.61-0.68
					c-0.41-0.46-0.63-1.07-0.67-1.84h7.03C101.03,92.28,100.62,90.76,99.82,89.75z M94.08,92.61c0.05-0.7,0.28-1.25,0.67-1.65
					c0.39-0.39,0.86-0.59,1.4-0.59c0.26,0,0.52,0.05,0.77,0.13c0.25,0.09,0.47,0.23,0.66,0.41c0.19,0.19,0.35,0.42,0.47,0.7
					c0.12,0.28,0.18,0.61,0.2,0.99H94.08z"/>
				<path class="st0" d="M109.07,89.83c-0.76-1.06-1.77-1.6-3.03-1.6c-0.66,0-1.25,0.13-1.77,0.38c-0.52,0.26-0.96,0.62-1.32,1.09
					c-0.36,0.47-0.63,1.03-0.82,1.67c-0.19,0.64-0.28,1.35-0.28,2.12c0,0.86,0.11,1.62,0.33,2.3c0.22,0.68,0.52,1.25,0.91,1.72
					c0.39,0.47,0.85,0.83,1.39,1.08c0.54,0.25,1.13,0.37,1.78,0.37c1.27,0,2.22-0.51,2.84-1.51l0.02,1.24h2.59V84.77h-2.65V89.83z
					 M108.52,95.97c-0.43,0.54-0.98,0.81-1.63,0.81c-0.68,0-1.23-0.29-1.66-0.86c-0.43-0.57-0.64-1.32-0.64-2.23
					c0-2.1,0.77-3.15,2.32-3.15c1.51,0,2.26,1.11,2.26,3.32C109.18,94.72,108.96,95.43,108.52,95.97z"/>
				<rect x="113.07" y="88.5" class="st0" width="2.7" height="10.2"/>
				<path class="st0" d="M125.78,90.55c-0.15-0.5-0.4-0.93-0.74-1.26c-0.34-0.34-0.79-0.6-1.35-0.78c-0.56-0.18-1.24-0.27-2.04-0.27
					c-0.82,0-1.51,0.09-2.07,0.26c-0.57,0.17-1.02,0.42-1.38,0.74c-0.35,0.32-0.61,0.7-0.77,1.14c-0.16,0.44-0.25,0.93-0.26,1.45
					h2.51c0.07-0.46,0.24-0.82,0.51-1.1c0.27-0.28,0.71-0.41,1.34-0.41c0.53,0,0.94,0.09,1.25,0.28c0.31,0.19,0.47,0.45,0.47,0.78
					c0,0.36-0.12,0.62-0.35,0.78c-0.23,0.16-0.69,0.29-1.37,0.38c-0.68,0.1-1.3,0.2-1.88,0.32c-0.57,0.12-1.07,0.3-1.48,0.55
					c-0.41,0.25-0.74,0.59-0.97,1.03c-0.24,0.43-0.35,1.02-0.35,1.75c0,0.83,0.27,1.5,0.82,2.02c0.55,0.52,1.41,0.78,2.58,0.78
					c0.69,0,1.3-0.11,1.82-0.32c0.52-0.21,0.95-0.5,1.26-0.86c0.03,0.34,0.08,0.65,0.17,0.91h2.51v-6.45
					C126.01,91.62,125.93,91.05,125.78,90.55z M123.29,94.83c0,0.3-0.07,0.59-0.2,0.86c-0.13,0.27-0.3,0.5-0.52,0.7
					c-0.22,0.2-0.47,0.36-0.77,0.48c-0.3,0.12-0.62,0.18-0.96,0.18c-0.87,0-1.31-0.38-1.31-1.14c0-0.44,0.15-0.78,0.44-1.02
					c0.29-0.24,0.82-0.43,1.6-0.58c0.5-0.1,0.88-0.19,1.14-0.27c0.26-0.08,0.46-0.19,0.6-0.33L123.29,94.83z"/>
			</g>
		</g>
		<g>
			<linearGradient id="SVGID_2_" gradientUnits="userSpaceOnUse" x1="70.47" y1="51.2718" x2="70.47" y2="4.7815">
				<stop  offset="0" style="stop-color:#ABCEBD"/>
				<stop  offset="0.5873" style="stop-color:#0293C9"/>
				<stop  offset="1" style="stop-color:#1D6BA1"/>
			</linearGradient>
			<path class="st2" d="M95.34,43.83L95.34,43.83c2.37,0.41,4.72,0.94,6.82,1.53c0.81,0.21,1.51,0.43,2.07,0.62
				c0.29,0.09,0.54,0.18,0.76,0.24l0.2,0.07c0.28-1.22,0.44-2.54,0.44-3.98c0-10.41-7.8-16.19-17.63-16.19
				c-2.61,0-7.74,0.48-11.64,4.04l0.01-0.01l2.37-3.73h-6.58h-5.71L57.13,42.9l-9.09-16.49H35.31l15.34,24.58l0.24-0.14
				c0.09-0.05,0.18-0.09,0.28-0.13c0.45-0.23,0.91-0.43,1.38-0.64c0.22-0.1,0.45-0.2,0.67-0.3l1.03-0.46l3.14-1.26
				c0.48-0.18,0.95-0.35,1.43-0.52l0.7-0.25c1.54-0.55,3.14-1.07,4.92-1.58c0.55-0.16,1.1-0.3,1.65-0.44l0.8-0.21l5.49-8.64
				c-0.7,2.08-1.12,4.58-1.14,7.58c1.67-0.29,3.16-0.51,4.55-0.66c1.69-0.2,3.42-0.34,5.28-0.43c0.01,0,0.02,0.01,0.04,0.01
				c0.17-3.67,1.04-8.27,7.33-8.27c4.91,0,7.08,3.9,7.08,7.3C95.51,42.61,95.44,43.23,95.34,43.83z"/>
			<linearGradient id="SVGID_3_" gradientUnits="userSpaceOnUse" x1="70.0449" y1="85.7196" x2="70.0449" y2="46.7541">
				<stop  offset="0.1398" style="stop-color:#67B6C2"/>
				<stop  offset="0.3234" style="stop-color:#0293C9"/>
				<stop  offset="0.7816" style="stop-color:#323780"/>
				<stop  offset="1" style="stop-color:#802780"/>
			</linearGradient>
			<path class="st3" d="M83.44,68.47c1.16-2.38,4.7-4.7,11.49-9.47c3.98-2.71,8.4-6.11,10.04-11.85l-0.19-0.04
				c-0.22-0.03-0.49-0.08-0.79-0.14c-0.56-0.1-1.27-0.23-2.08-0.33c-1.54-0.22-4-0.51-7.07-0.61l-0.16-0.01
				c-1.54,3.37-5.32,6.09-12.1,11.02c-4.92,3.58-7.75,6.81-9.41,9.81l-9.14-14.57c-0.75,0.36-1.5,0.71-2.25,1.1
				c-0.63,0.33-1.26,0.64-1.88,0.98c-0.62,0.35-1.24,0.69-1.85,1.04l-0.92,0.52l-0.9,0.55c-0.59,0.37-1.2,0.71-1.77,1.1
				c-2.34,1.48-4.53,3.12-6.58,4.77c-2.06,1.65-3.94,3.37-5.66,5.08c-1.73,1.69-3.25,3.4-4.61,5.01c-0.07,0.09-0.14,0.17-0.22,0.26
				l-2.99,4.73h12.43l10.3-17.41l9.66,17.41h3.86h9.14h21.39l4.51-8.96H83.44z"/>
		</g>
	</g>
</g>
</svg>
